M48
; DRILL file {KiCad 7.0.2} date Fri May  5 22:29:25 2023
; FORMAT={-:-/ absolute / inch / decimal}
; #@! TF.CreationDate,2023-05-05T22:29:25-07:00
; #@! TF.GenerationSoftware,Kicad,Pcbnew,7.0.2
; #@! TF.FileFunction,Plated,1,4,PTH
FMAT,2
INCH
; #@! TA.AperFunction,Plated,PTH,ViaDrill
T1C0.0138
; #@! TA.AperFunction,Plated,PTH,ViaDrill
T2C0.0157
%
G90
G05
T1
X3.23Y-3.06
X3.2915Y-3.0064
X3.3Y-2.66
X3.323Y-2.8612
X3.33Y-2.99
X3.34Y-2.74
X3.3755Y-2.8873
X3.4Y-2.69
X3.4589Y-2.7221
X3.4651Y-2.912
X3.4966Y-2.9279
X3.52Y-3.01
X3.53Y-2.69
X3.65Y-2.76
X3.6757Y-2.7187
X3.6766Y-2.4246
X3.83Y-2.64
X3.85Y-2.5
X3.87Y-2.7
X3.88Y-2.95
X3.8858Y-2.2133
X3.96Y-2.38
X4.0Y-2.69
X4.1Y-2.41
X4.12Y-2.8
X4.14Y-1.45
X4.15Y-3.04
X4.18Y-2.5
X4.1845Y-1.5803
X4.1849Y-2.2133
X4.21Y-2.35
X4.2671Y-1.5112
X4.27Y-2.68
X4.2936Y-1.453
X4.2947Y-1.9269
X4.3227Y-1.4189
X4.35Y-1.23
X4.35Y-2.18
X4.3528Y-1.8213
X4.38Y-1.68
X4.3847Y-2.2148
X4.3856Y-2.4218
X4.41Y-1.36
X4.4127Y-2.8155
X4.44Y-2.1
X4.45Y-1.9
X4.53Y-2.62
X4.54Y-2.94
X4.5719Y-2.7333
X4.59Y-1.94
X4.604Y-2.6989
X4.6333Y-2.7635
X4.66Y-3.1574
X4.6651Y-2.9871
X4.6714Y-2.7798
X4.73Y-2.82
X4.7807Y-2.821
X4.81Y-2.99
X4.89Y-2.83
X4.8981Y-2.1395
X4.9Y-3.1574
X4.9475Y-2.1931
X4.96Y-2.98
X4.9639Y-2.2274
X4.9665Y-2.8222
X5.02Y-3.1574
X5.05Y-2.87
X5.08Y-2.8486
X5.1038Y-2.2274
X5.1076Y-2.9798
X5.1336Y-2.8455
X5.14Y-3.1574
X5.1487Y-2.1428
X5.2Y-2.95
X5.21Y-2.02
X5.24Y-1.82
X5.2507Y-2.0238
X5.281Y-2.0494
X5.3Y-1.88
X5.3096Y-2.0722
X5.3362Y-2.0958
X5.5Y-1.98
X5.52Y-1.66
X5.54Y-1.23
X5.62Y-1.45
X5.75Y-1.49
X5.86Y-1.83
X5.86Y-1.87
X5.86Y-1.9047
X5.86Y-1.94
X5.88Y-1.52
X5.91Y-1.45
X5.94Y-1.48
X5.97Y-1.57
X6.0Y-1.18
X6.01Y-1.94
X6.13Y-1.98
X6.3107Y-1.4212
X6.32Y-1.95
X6.34Y-1.58
X6.38Y-1.45
X6.38Y-1.95
X6.47Y-1.53
X6.47Y-2.35
X6.61Y-1.57
X6.61Y-2.39
X6.73Y-2.33
X6.74Y-1.49
X6.76Y-1.92
X6.77Y-1.45
X6.79Y-1.54
X6.81Y-1.95
X6.94Y-1.96
X7.08Y-1.99
T2
X3.54Y-2.81
X3.82Y-2.9229
X3.85Y-3.03
X4.1501Y-2.106
X4.2Y-2.9229
X4.204Y-2.9843
X4.24Y-2.83
X4.26Y-2.18
X4.3Y-2.11
X4.3852Y-2.73
X4.41Y-2.94
X4.49Y-2.76
X4.7798Y-3.0335
X4.8964Y-2.9872
X5.2582Y-3.0077
X6.6359Y-1.9701
X6.8Y-2.09
X6.8025Y-2.1602
T0
M30
