G04 #@! TF.GenerationSoftware,KiCad,Pcbnew,7.0.2*
G04 #@! TF.CreationDate,2023-05-05T22:29:22-07:00*
G04 #@! TF.ProjectId,procon_gcc_button_board,70726f63-6f6e-45f6-9763-635f62757474,rev?*
G04 #@! TF.SameCoordinates,Original*
G04 #@! TF.FileFunction,Legend,Top*
G04 #@! TF.FilePolarity,Positive*
%FSLAX46Y46*%
G04 Gerber Fmt 4.6, Leading zero omitted, Abs format (unit mm)*
G04 Created by KiCad (PCBNEW 7.0.2) date 2023-05-05 22:29:22*
%MOMM*%
%LPD*%
G01*
G04 APERTURE LIST*
%ADD10C,0.150000*%
%ADD11C,0.100000*%
%ADD12C,0.120000*%
G04 APERTURE END LIST*
D10*
X142938667Y-29371000D02*
X143081524Y-29418619D01*
X143081524Y-29418619D02*
X143319619Y-29418619D01*
X143319619Y-29418619D02*
X143414857Y-29371000D01*
X143414857Y-29371000D02*
X143462476Y-29323380D01*
X143462476Y-29323380D02*
X143510095Y-29228142D01*
X143510095Y-29228142D02*
X143510095Y-29132904D01*
X143510095Y-29132904D02*
X143462476Y-29037666D01*
X143462476Y-29037666D02*
X143414857Y-28990047D01*
X143414857Y-28990047D02*
X143319619Y-28942428D01*
X143319619Y-28942428D02*
X143129143Y-28894809D01*
X143129143Y-28894809D02*
X143033905Y-28847190D01*
X143033905Y-28847190D02*
X142986286Y-28799571D01*
X142986286Y-28799571D02*
X142938667Y-28704333D01*
X142938667Y-28704333D02*
X142938667Y-28609095D01*
X142938667Y-28609095D02*
X142986286Y-28513857D01*
X142986286Y-28513857D02*
X143033905Y-28466238D01*
X143033905Y-28466238D02*
X143129143Y-28418619D01*
X143129143Y-28418619D02*
X143367238Y-28418619D01*
X143367238Y-28418619D02*
X143510095Y-28466238D01*
X143843429Y-28418619D02*
X144081524Y-29418619D01*
X144081524Y-29418619D02*
X144272000Y-28704333D01*
X144272000Y-28704333D02*
X144462476Y-29418619D01*
X144462476Y-29418619D02*
X144700572Y-28418619D01*
X145510095Y-28751952D02*
X145510095Y-29418619D01*
X145272000Y-28371000D02*
X145033905Y-29085285D01*
X145033905Y-29085285D02*
X145652952Y-29085285D01*
X111330667Y-39349000D02*
X111473524Y-39396619D01*
X111473524Y-39396619D02*
X111711619Y-39396619D01*
X111711619Y-39396619D02*
X111806857Y-39349000D01*
X111806857Y-39349000D02*
X111854476Y-39301380D01*
X111854476Y-39301380D02*
X111902095Y-39206142D01*
X111902095Y-39206142D02*
X111902095Y-39110904D01*
X111902095Y-39110904D02*
X111854476Y-39015666D01*
X111854476Y-39015666D02*
X111806857Y-38968047D01*
X111806857Y-38968047D02*
X111711619Y-38920428D01*
X111711619Y-38920428D02*
X111521143Y-38872809D01*
X111521143Y-38872809D02*
X111425905Y-38825190D01*
X111425905Y-38825190D02*
X111378286Y-38777571D01*
X111378286Y-38777571D02*
X111330667Y-38682333D01*
X111330667Y-38682333D02*
X111330667Y-38587095D01*
X111330667Y-38587095D02*
X111378286Y-38491857D01*
X111378286Y-38491857D02*
X111425905Y-38444238D01*
X111425905Y-38444238D02*
X111521143Y-38396619D01*
X111521143Y-38396619D02*
X111759238Y-38396619D01*
X111759238Y-38396619D02*
X111902095Y-38444238D01*
X112235429Y-38396619D02*
X112473524Y-39396619D01*
X112473524Y-39396619D02*
X112664000Y-38682333D01*
X112664000Y-38682333D02*
X112854476Y-39396619D01*
X112854476Y-39396619D02*
X113092572Y-38396619D01*
X113425905Y-38491857D02*
X113473524Y-38444238D01*
X113473524Y-38444238D02*
X113568762Y-38396619D01*
X113568762Y-38396619D02*
X113806857Y-38396619D01*
X113806857Y-38396619D02*
X113902095Y-38444238D01*
X113902095Y-38444238D02*
X113949714Y-38491857D01*
X113949714Y-38491857D02*
X113997333Y-38587095D01*
X113997333Y-38587095D02*
X113997333Y-38682333D01*
X113997333Y-38682333D02*
X113949714Y-38825190D01*
X113949714Y-38825190D02*
X113378286Y-39396619D01*
X113378286Y-39396619D02*
X113997333Y-39396619D01*
X115478333Y-51368619D02*
X115002143Y-51368619D01*
X115002143Y-51368619D02*
X115002143Y-50368619D01*
X116240238Y-50368619D02*
X116049762Y-50368619D01*
X116049762Y-50368619D02*
X115954524Y-50416238D01*
X115954524Y-50416238D02*
X115906905Y-50463857D01*
X115906905Y-50463857D02*
X115811667Y-50606714D01*
X115811667Y-50606714D02*
X115764048Y-50797190D01*
X115764048Y-50797190D02*
X115764048Y-51178142D01*
X115764048Y-51178142D02*
X115811667Y-51273380D01*
X115811667Y-51273380D02*
X115859286Y-51321000D01*
X115859286Y-51321000D02*
X115954524Y-51368619D01*
X115954524Y-51368619D02*
X116145000Y-51368619D01*
X116145000Y-51368619D02*
X116240238Y-51321000D01*
X116240238Y-51321000D02*
X116287857Y-51273380D01*
X116287857Y-51273380D02*
X116335476Y-51178142D01*
X116335476Y-51178142D02*
X116335476Y-50940047D01*
X116335476Y-50940047D02*
X116287857Y-50844809D01*
X116287857Y-50844809D02*
X116240238Y-50797190D01*
X116240238Y-50797190D02*
X116145000Y-50749571D01*
X116145000Y-50749571D02*
X115954524Y-50749571D01*
X115954524Y-50749571D02*
X115859286Y-50797190D01*
X115859286Y-50797190D02*
X115811667Y-50844809D01*
X115811667Y-50844809D02*
X115764048Y-50940047D01*
X105600667Y-29371000D02*
X105743524Y-29418619D01*
X105743524Y-29418619D02*
X105981619Y-29418619D01*
X105981619Y-29418619D02*
X106076857Y-29371000D01*
X106076857Y-29371000D02*
X106124476Y-29323380D01*
X106124476Y-29323380D02*
X106172095Y-29228142D01*
X106172095Y-29228142D02*
X106172095Y-29132904D01*
X106172095Y-29132904D02*
X106124476Y-29037666D01*
X106124476Y-29037666D02*
X106076857Y-28990047D01*
X106076857Y-28990047D02*
X105981619Y-28942428D01*
X105981619Y-28942428D02*
X105791143Y-28894809D01*
X105791143Y-28894809D02*
X105695905Y-28847190D01*
X105695905Y-28847190D02*
X105648286Y-28799571D01*
X105648286Y-28799571D02*
X105600667Y-28704333D01*
X105600667Y-28704333D02*
X105600667Y-28609095D01*
X105600667Y-28609095D02*
X105648286Y-28513857D01*
X105648286Y-28513857D02*
X105695905Y-28466238D01*
X105695905Y-28466238D02*
X105791143Y-28418619D01*
X105791143Y-28418619D02*
X106029238Y-28418619D01*
X106029238Y-28418619D02*
X106172095Y-28466238D01*
X106505429Y-28418619D02*
X106743524Y-29418619D01*
X106743524Y-29418619D02*
X106934000Y-28704333D01*
X106934000Y-28704333D02*
X107124476Y-29418619D01*
X107124476Y-29418619D02*
X107362572Y-28418619D01*
X108267333Y-29418619D02*
X107695905Y-29418619D01*
X107981619Y-29418619D02*
X107981619Y-28418619D01*
X107981619Y-28418619D02*
X107886381Y-28561476D01*
X107886381Y-28561476D02*
X107791143Y-28656714D01*
X107791143Y-28656714D02*
X107695905Y-28704333D01*
X103254513Y-63076579D02*
X102778323Y-63076579D01*
X102778323Y-63076579D02*
X102778323Y-62076579D01*
X104016418Y-62409912D02*
X104016418Y-63076579D01*
X103778323Y-62028960D02*
X103540228Y-62743245D01*
X103540228Y-62743245D02*
X104159275Y-62743245D01*
X104481333Y-70312619D02*
X104005143Y-70312619D01*
X104005143Y-70312619D02*
X104005143Y-69312619D01*
X104767048Y-69407857D02*
X104814667Y-69360238D01*
X104814667Y-69360238D02*
X104909905Y-69312619D01*
X104909905Y-69312619D02*
X105148000Y-69312619D01*
X105148000Y-69312619D02*
X105243238Y-69360238D01*
X105243238Y-69360238D02*
X105290857Y-69407857D01*
X105290857Y-69407857D02*
X105338476Y-69503095D01*
X105338476Y-69503095D02*
X105338476Y-69598333D01*
X105338476Y-69598333D02*
X105290857Y-69741190D01*
X105290857Y-69741190D02*
X104719429Y-70312619D01*
X104719429Y-70312619D02*
X105338476Y-70312619D01*
X166427142Y-62818619D02*
X165950952Y-62818619D01*
X165950952Y-62818619D02*
X165950952Y-61818619D01*
X167284285Y-62818619D02*
X166712857Y-62818619D01*
X166998571Y-62818619D02*
X166998571Y-61818619D01*
X166998571Y-61818619D02*
X166903333Y-61961476D01*
X166903333Y-61961476D02*
X166808095Y-62056714D01*
X166808095Y-62056714D02*
X166712857Y-62104333D01*
X167665238Y-61913857D02*
X167712857Y-61866238D01*
X167712857Y-61866238D02*
X167808095Y-61818619D01*
X167808095Y-61818619D02*
X168046190Y-61818619D01*
X168046190Y-61818619D02*
X168141428Y-61866238D01*
X168141428Y-61866238D02*
X168189047Y-61913857D01*
X168189047Y-61913857D02*
X168236666Y-62009095D01*
X168236666Y-62009095D02*
X168236666Y-62104333D01*
X168236666Y-62104333D02*
X168189047Y-62247190D01*
X168189047Y-62247190D02*
X167617619Y-62818619D01*
X167617619Y-62818619D02*
X168236666Y-62818619D01*
X107578333Y-39868619D02*
X107102143Y-39868619D01*
X107102143Y-39868619D02*
X107102143Y-38868619D01*
X108387857Y-38868619D02*
X107911667Y-38868619D01*
X107911667Y-38868619D02*
X107864048Y-39344809D01*
X107864048Y-39344809D02*
X107911667Y-39297190D01*
X107911667Y-39297190D02*
X108006905Y-39249571D01*
X108006905Y-39249571D02*
X108245000Y-39249571D01*
X108245000Y-39249571D02*
X108340238Y-39297190D01*
X108340238Y-39297190D02*
X108387857Y-39344809D01*
X108387857Y-39344809D02*
X108435476Y-39440047D01*
X108435476Y-39440047D02*
X108435476Y-39678142D01*
X108435476Y-39678142D02*
X108387857Y-39773380D01*
X108387857Y-39773380D02*
X108340238Y-39821000D01*
X108340238Y-39821000D02*
X108245000Y-39868619D01*
X108245000Y-39868619D02*
X108006905Y-39868619D01*
X108006905Y-39868619D02*
X107911667Y-39821000D01*
X107911667Y-39821000D02*
X107864048Y-39773380D01*
X154948653Y-52430519D02*
X154472463Y-52430519D01*
X154472463Y-52430519D02*
X154472463Y-51430519D01*
X155329606Y-52430519D02*
X155520082Y-52430519D01*
X155520082Y-52430519D02*
X155615320Y-52382900D01*
X155615320Y-52382900D02*
X155662939Y-52335280D01*
X155662939Y-52335280D02*
X155758177Y-52192423D01*
X155758177Y-52192423D02*
X155805796Y-52001947D01*
X155805796Y-52001947D02*
X155805796Y-51620995D01*
X155805796Y-51620995D02*
X155758177Y-51525757D01*
X155758177Y-51525757D02*
X155710558Y-51478138D01*
X155710558Y-51478138D02*
X155615320Y-51430519D01*
X155615320Y-51430519D02*
X155424844Y-51430519D01*
X155424844Y-51430519D02*
X155329606Y-51478138D01*
X155329606Y-51478138D02*
X155281987Y-51525757D01*
X155281987Y-51525757D02*
X155234368Y-51620995D01*
X155234368Y-51620995D02*
X155234368Y-51859090D01*
X155234368Y-51859090D02*
X155281987Y-51954328D01*
X155281987Y-51954328D02*
X155329606Y-52001947D01*
X155329606Y-52001947D02*
X155424844Y-52049566D01*
X155424844Y-52049566D02*
X155615320Y-52049566D01*
X155615320Y-52049566D02*
X155710558Y-52001947D01*
X155710558Y-52001947D02*
X155758177Y-51954328D01*
X155758177Y-51954328D02*
X155805796Y-51859090D01*
D11*
X100565656Y-78647000D02*
X100708513Y-78694619D01*
X100708513Y-78694619D02*
X100946608Y-78694619D01*
X100946608Y-78694619D02*
X101041846Y-78647000D01*
X101041846Y-78647000D02*
X101089465Y-78599380D01*
X101089465Y-78599380D02*
X101137084Y-78504142D01*
X101137084Y-78504142D02*
X101137084Y-78408904D01*
X101137084Y-78408904D02*
X101089465Y-78313666D01*
X101089465Y-78313666D02*
X101041846Y-78266047D01*
X101041846Y-78266047D02*
X100946608Y-78218428D01*
X100946608Y-78218428D02*
X100756132Y-78170809D01*
X100756132Y-78170809D02*
X100660894Y-78123190D01*
X100660894Y-78123190D02*
X100613275Y-78075571D01*
X100613275Y-78075571D02*
X100565656Y-77980333D01*
X100565656Y-77980333D02*
X100565656Y-77885095D01*
X100565656Y-77885095D02*
X100613275Y-77789857D01*
X100613275Y-77789857D02*
X100660894Y-77742238D01*
X100660894Y-77742238D02*
X100756132Y-77694619D01*
X100756132Y-77694619D02*
X100994227Y-77694619D01*
X100994227Y-77694619D02*
X101137084Y-77742238D01*
X101470418Y-77694619D02*
X101708513Y-78694619D01*
X101708513Y-78694619D02*
X101898989Y-77980333D01*
X101898989Y-77980333D02*
X102089465Y-78694619D01*
X102089465Y-78694619D02*
X102327561Y-77694619D01*
X103232322Y-78694619D02*
X102660894Y-78694619D01*
X102946608Y-78694619D02*
X102946608Y-77694619D01*
X102946608Y-77694619D02*
X102851370Y-77837476D01*
X102851370Y-77837476D02*
X102756132Y-77932714D01*
X102756132Y-77932714D02*
X102660894Y-77980333D01*
X103851370Y-77694619D02*
X103946608Y-77694619D01*
X103946608Y-77694619D02*
X104041846Y-77742238D01*
X104041846Y-77742238D02*
X104089465Y-77789857D01*
X104089465Y-77789857D02*
X104137084Y-77885095D01*
X104137084Y-77885095D02*
X104184703Y-78075571D01*
X104184703Y-78075571D02*
X104184703Y-78313666D01*
X104184703Y-78313666D02*
X104137084Y-78504142D01*
X104137084Y-78504142D02*
X104089465Y-78599380D01*
X104089465Y-78599380D02*
X104041846Y-78647000D01*
X104041846Y-78647000D02*
X103946608Y-78694619D01*
X103946608Y-78694619D02*
X103851370Y-78694619D01*
X103851370Y-78694619D02*
X103756132Y-78647000D01*
X103756132Y-78647000D02*
X103708513Y-78599380D01*
X103708513Y-78599380D02*
X103660894Y-78504142D01*
X103660894Y-78504142D02*
X103613275Y-78313666D01*
X103613275Y-78313666D02*
X103613275Y-78075571D01*
X103613275Y-78075571D02*
X103660894Y-77885095D01*
X103660894Y-77885095D02*
X103708513Y-77789857D01*
X103708513Y-77789857D02*
X103756132Y-77742238D01*
X103756132Y-77742238D02*
X103851370Y-77694619D01*
D10*
X98584513Y-67736579D02*
X98108323Y-67736579D01*
X98108323Y-67736579D02*
X98108323Y-66736579D01*
X99441656Y-67736579D02*
X98870228Y-67736579D01*
X99155942Y-67736579D02*
X99155942Y-66736579D01*
X99155942Y-66736579D02*
X99060704Y-66879436D01*
X99060704Y-66879436D02*
X98965466Y-66974674D01*
X98965466Y-66974674D02*
X98870228Y-67022293D01*
X107275333Y-67518619D02*
X106799143Y-67518619D01*
X106799143Y-67518619D02*
X106799143Y-66518619D01*
X107513429Y-66518619D02*
X108132476Y-66518619D01*
X108132476Y-66518619D02*
X107799143Y-66899571D01*
X107799143Y-66899571D02*
X107942000Y-66899571D01*
X107942000Y-66899571D02*
X108037238Y-66947190D01*
X108037238Y-66947190D02*
X108084857Y-66994809D01*
X108084857Y-66994809D02*
X108132476Y-67090047D01*
X108132476Y-67090047D02*
X108132476Y-67328142D01*
X108132476Y-67328142D02*
X108084857Y-67423380D01*
X108084857Y-67423380D02*
X108037238Y-67471000D01*
X108037238Y-67471000D02*
X107942000Y-67518619D01*
X107942000Y-67518619D02*
X107656286Y-67518619D01*
X107656286Y-67518619D02*
X107561048Y-67471000D01*
X107561048Y-67471000D02*
X107513429Y-67423380D01*
X178312462Y-52430519D02*
X177836272Y-52430519D01*
X177836272Y-52430519D02*
X177836272Y-51430519D01*
X179169605Y-52430519D02*
X178598177Y-52430519D01*
X178883891Y-52430519D02*
X178883891Y-51430519D01*
X178883891Y-51430519D02*
X178788653Y-51573376D01*
X178788653Y-51573376D02*
X178693415Y-51668614D01*
X178693415Y-51668614D02*
X178598177Y-51716233D01*
X180121986Y-52430519D02*
X179550558Y-52430519D01*
X179836272Y-52430519D02*
X179836272Y-51430519D01*
X179836272Y-51430519D02*
X179741034Y-51573376D01*
X179741034Y-51573376D02*
X179645796Y-51668614D01*
X179645796Y-51668614D02*
X179550558Y-51716233D01*
X137278333Y-51368619D02*
X136802143Y-51368619D01*
X136802143Y-51368619D02*
X136802143Y-50368619D01*
X137516429Y-50368619D02*
X138183095Y-50368619D01*
X138183095Y-50368619D02*
X137754524Y-51368619D01*
D11*
X152765987Y-40547000D02*
X152908844Y-40594619D01*
X152908844Y-40594619D02*
X153146939Y-40594619D01*
X153146939Y-40594619D02*
X153242177Y-40547000D01*
X153242177Y-40547000D02*
X153289796Y-40499380D01*
X153289796Y-40499380D02*
X153337415Y-40404142D01*
X153337415Y-40404142D02*
X153337415Y-40308904D01*
X153337415Y-40308904D02*
X153289796Y-40213666D01*
X153289796Y-40213666D02*
X153242177Y-40166047D01*
X153242177Y-40166047D02*
X153146939Y-40118428D01*
X153146939Y-40118428D02*
X152956463Y-40070809D01*
X152956463Y-40070809D02*
X152861225Y-40023190D01*
X152861225Y-40023190D02*
X152813606Y-39975571D01*
X152813606Y-39975571D02*
X152765987Y-39880333D01*
X152765987Y-39880333D02*
X152765987Y-39785095D01*
X152765987Y-39785095D02*
X152813606Y-39689857D01*
X152813606Y-39689857D02*
X152861225Y-39642238D01*
X152861225Y-39642238D02*
X152956463Y-39594619D01*
X152956463Y-39594619D02*
X153194558Y-39594619D01*
X153194558Y-39594619D02*
X153337415Y-39642238D01*
X153670749Y-39594619D02*
X153908844Y-40594619D01*
X153908844Y-40594619D02*
X154099320Y-39880333D01*
X154099320Y-39880333D02*
X154289796Y-40594619D01*
X154289796Y-40594619D02*
X154527892Y-39594619D01*
X154813606Y-39594619D02*
X155480272Y-39594619D01*
X155480272Y-39594619D02*
X155051701Y-40594619D01*
D10*
X166427142Y-42048619D02*
X165950952Y-42048619D01*
X165950952Y-42048619D02*
X165950952Y-41048619D01*
X167284285Y-42048619D02*
X166712857Y-42048619D01*
X166998571Y-42048619D02*
X166998571Y-41048619D01*
X166998571Y-41048619D02*
X166903333Y-41191476D01*
X166903333Y-41191476D02*
X166808095Y-41286714D01*
X166808095Y-41286714D02*
X166712857Y-41334333D01*
X167903333Y-41048619D02*
X167998571Y-41048619D01*
X167998571Y-41048619D02*
X168093809Y-41096238D01*
X168093809Y-41096238D02*
X168141428Y-41143857D01*
X168141428Y-41143857D02*
X168189047Y-41239095D01*
X168189047Y-41239095D02*
X168236666Y-41429571D01*
X168236666Y-41429571D02*
X168236666Y-41667666D01*
X168236666Y-41667666D02*
X168189047Y-41858142D01*
X168189047Y-41858142D02*
X168141428Y-41953380D01*
X168141428Y-41953380D02*
X168093809Y-42001000D01*
X168093809Y-42001000D02*
X167998571Y-42048619D01*
X167998571Y-42048619D02*
X167903333Y-42048619D01*
X167903333Y-42048619D02*
X167808095Y-42001000D01*
X167808095Y-42001000D02*
X167760476Y-41953380D01*
X167760476Y-41953380D02*
X167712857Y-41858142D01*
X167712857Y-41858142D02*
X167665238Y-41667666D01*
X167665238Y-41667666D02*
X167665238Y-41429571D01*
X167665238Y-41429571D02*
X167712857Y-41239095D01*
X167712857Y-41239095D02*
X167760476Y-41143857D01*
X167760476Y-41143857D02*
X167808095Y-41096238D01*
X167808095Y-41096238D02*
X167903333Y-41048619D01*
D11*
X176720667Y-40547000D02*
X176863524Y-40594619D01*
X176863524Y-40594619D02*
X177101619Y-40594619D01*
X177101619Y-40594619D02*
X177196857Y-40547000D01*
X177196857Y-40547000D02*
X177244476Y-40499380D01*
X177244476Y-40499380D02*
X177292095Y-40404142D01*
X177292095Y-40404142D02*
X177292095Y-40308904D01*
X177292095Y-40308904D02*
X177244476Y-40213666D01*
X177244476Y-40213666D02*
X177196857Y-40166047D01*
X177196857Y-40166047D02*
X177101619Y-40118428D01*
X177101619Y-40118428D02*
X176911143Y-40070809D01*
X176911143Y-40070809D02*
X176815905Y-40023190D01*
X176815905Y-40023190D02*
X176768286Y-39975571D01*
X176768286Y-39975571D02*
X176720667Y-39880333D01*
X176720667Y-39880333D02*
X176720667Y-39785095D01*
X176720667Y-39785095D02*
X176768286Y-39689857D01*
X176768286Y-39689857D02*
X176815905Y-39642238D01*
X176815905Y-39642238D02*
X176911143Y-39594619D01*
X176911143Y-39594619D02*
X177149238Y-39594619D01*
X177149238Y-39594619D02*
X177292095Y-39642238D01*
X177625429Y-39594619D02*
X177863524Y-40594619D01*
X177863524Y-40594619D02*
X178054000Y-39880333D01*
X178054000Y-39880333D02*
X178244476Y-40594619D01*
X178244476Y-40594619D02*
X178482572Y-39594619D01*
X179339714Y-39594619D02*
X178863524Y-39594619D01*
X178863524Y-39594619D02*
X178815905Y-40070809D01*
X178815905Y-40070809D02*
X178863524Y-40023190D01*
X178863524Y-40023190D02*
X178958762Y-39975571D01*
X178958762Y-39975571D02*
X179196857Y-39975571D01*
X179196857Y-39975571D02*
X179292095Y-40023190D01*
X179292095Y-40023190D02*
X179339714Y-40070809D01*
X179339714Y-40070809D02*
X179387333Y-40166047D01*
X179387333Y-40166047D02*
X179387333Y-40404142D01*
X179387333Y-40404142D02*
X179339714Y-40499380D01*
X179339714Y-40499380D02*
X179292095Y-40547000D01*
X179292095Y-40547000D02*
X179196857Y-40594619D01*
X179196857Y-40594619D02*
X178958762Y-40594619D01*
X178958762Y-40594619D02*
X178863524Y-40547000D01*
X178863524Y-40547000D02*
X178815905Y-40499380D01*
X164720667Y-50961000D02*
X164863524Y-51008619D01*
X164863524Y-51008619D02*
X165101619Y-51008619D01*
X165101619Y-51008619D02*
X165196857Y-50961000D01*
X165196857Y-50961000D02*
X165244476Y-50913380D01*
X165244476Y-50913380D02*
X165292095Y-50818142D01*
X165292095Y-50818142D02*
X165292095Y-50722904D01*
X165292095Y-50722904D02*
X165244476Y-50627666D01*
X165244476Y-50627666D02*
X165196857Y-50580047D01*
X165196857Y-50580047D02*
X165101619Y-50532428D01*
X165101619Y-50532428D02*
X164911143Y-50484809D01*
X164911143Y-50484809D02*
X164815905Y-50437190D01*
X164815905Y-50437190D02*
X164768286Y-50389571D01*
X164768286Y-50389571D02*
X164720667Y-50294333D01*
X164720667Y-50294333D02*
X164720667Y-50199095D01*
X164720667Y-50199095D02*
X164768286Y-50103857D01*
X164768286Y-50103857D02*
X164815905Y-50056238D01*
X164815905Y-50056238D02*
X164911143Y-50008619D01*
X164911143Y-50008619D02*
X165149238Y-50008619D01*
X165149238Y-50008619D02*
X165292095Y-50056238D01*
X165625429Y-50008619D02*
X165863524Y-51008619D01*
X165863524Y-51008619D02*
X166054000Y-50294333D01*
X166054000Y-50294333D02*
X166244476Y-51008619D01*
X166244476Y-51008619D02*
X166482572Y-50008619D01*
X167292095Y-50008619D02*
X167101619Y-50008619D01*
X167101619Y-50008619D02*
X167006381Y-50056238D01*
X167006381Y-50056238D02*
X166958762Y-50103857D01*
X166958762Y-50103857D02*
X166863524Y-50246714D01*
X166863524Y-50246714D02*
X166815905Y-50437190D01*
X166815905Y-50437190D02*
X166815905Y-50818142D01*
X166815905Y-50818142D02*
X166863524Y-50913380D01*
X166863524Y-50913380D02*
X166911143Y-50961000D01*
X166911143Y-50961000D02*
X167006381Y-51008619D01*
X167006381Y-51008619D02*
X167196857Y-51008619D01*
X167196857Y-51008619D02*
X167292095Y-50961000D01*
X167292095Y-50961000D02*
X167339714Y-50913380D01*
X167339714Y-50913380D02*
X167387333Y-50818142D01*
X167387333Y-50818142D02*
X167387333Y-50580047D01*
X167387333Y-50580047D02*
X167339714Y-50484809D01*
X167339714Y-50484809D02*
X167292095Y-50437190D01*
X167292095Y-50437190D02*
X167196857Y-50389571D01*
X167196857Y-50389571D02*
X167006381Y-50389571D01*
X167006381Y-50389571D02*
X166911143Y-50437190D01*
X166911143Y-50437190D02*
X166863524Y-50484809D01*
X166863524Y-50484809D02*
X166815905Y-50580047D01*
D10*
X133130667Y-39349000D02*
X133273524Y-39396619D01*
X133273524Y-39396619D02*
X133511619Y-39396619D01*
X133511619Y-39396619D02*
X133606857Y-39349000D01*
X133606857Y-39349000D02*
X133654476Y-39301380D01*
X133654476Y-39301380D02*
X133702095Y-39206142D01*
X133702095Y-39206142D02*
X133702095Y-39110904D01*
X133702095Y-39110904D02*
X133654476Y-39015666D01*
X133654476Y-39015666D02*
X133606857Y-38968047D01*
X133606857Y-38968047D02*
X133511619Y-38920428D01*
X133511619Y-38920428D02*
X133321143Y-38872809D01*
X133321143Y-38872809D02*
X133225905Y-38825190D01*
X133225905Y-38825190D02*
X133178286Y-38777571D01*
X133178286Y-38777571D02*
X133130667Y-38682333D01*
X133130667Y-38682333D02*
X133130667Y-38587095D01*
X133130667Y-38587095D02*
X133178286Y-38491857D01*
X133178286Y-38491857D02*
X133225905Y-38444238D01*
X133225905Y-38444238D02*
X133321143Y-38396619D01*
X133321143Y-38396619D02*
X133559238Y-38396619D01*
X133559238Y-38396619D02*
X133702095Y-38444238D01*
X134035429Y-38396619D02*
X134273524Y-39396619D01*
X134273524Y-39396619D02*
X134464000Y-38682333D01*
X134464000Y-38682333D02*
X134654476Y-39396619D01*
X134654476Y-39396619D02*
X134892572Y-38396619D01*
X135178286Y-38396619D02*
X135797333Y-38396619D01*
X135797333Y-38396619D02*
X135464000Y-38777571D01*
X135464000Y-38777571D02*
X135606857Y-38777571D01*
X135606857Y-38777571D02*
X135702095Y-38825190D01*
X135702095Y-38825190D02*
X135749714Y-38872809D01*
X135749714Y-38872809D02*
X135797333Y-38968047D01*
X135797333Y-38968047D02*
X135797333Y-39206142D01*
X135797333Y-39206142D02*
X135749714Y-39301380D01*
X135749714Y-39301380D02*
X135702095Y-39349000D01*
X135702095Y-39349000D02*
X135606857Y-39396619D01*
X135606857Y-39396619D02*
X135321143Y-39396619D01*
X135321143Y-39396619D02*
X135225905Y-39349000D01*
X135225905Y-39349000D02*
X135178286Y-39301380D01*
X145178333Y-39868619D02*
X144702143Y-39868619D01*
X144702143Y-39868619D02*
X144702143Y-38868619D01*
X145654524Y-39297190D02*
X145559286Y-39249571D01*
X145559286Y-39249571D02*
X145511667Y-39201952D01*
X145511667Y-39201952D02*
X145464048Y-39106714D01*
X145464048Y-39106714D02*
X145464048Y-39059095D01*
X145464048Y-39059095D02*
X145511667Y-38963857D01*
X145511667Y-38963857D02*
X145559286Y-38916238D01*
X145559286Y-38916238D02*
X145654524Y-38868619D01*
X145654524Y-38868619D02*
X145845000Y-38868619D01*
X145845000Y-38868619D02*
X145940238Y-38916238D01*
X145940238Y-38916238D02*
X145987857Y-38963857D01*
X145987857Y-38963857D02*
X146035476Y-39059095D01*
X146035476Y-39059095D02*
X146035476Y-39106714D01*
X146035476Y-39106714D02*
X145987857Y-39201952D01*
X145987857Y-39201952D02*
X145940238Y-39249571D01*
X145940238Y-39249571D02*
X145845000Y-39297190D01*
X145845000Y-39297190D02*
X145654524Y-39297190D01*
X145654524Y-39297190D02*
X145559286Y-39344809D01*
X145559286Y-39344809D02*
X145511667Y-39392428D01*
X145511667Y-39392428D02*
X145464048Y-39487666D01*
X145464048Y-39487666D02*
X145464048Y-39678142D01*
X145464048Y-39678142D02*
X145511667Y-39773380D01*
X145511667Y-39773380D02*
X145559286Y-39821000D01*
X145559286Y-39821000D02*
X145654524Y-39868619D01*
X145654524Y-39868619D02*
X145845000Y-39868619D01*
X145845000Y-39868619D02*
X145940238Y-39821000D01*
X145940238Y-39821000D02*
X145987857Y-39773380D01*
X145987857Y-39773380D02*
X146035476Y-39678142D01*
X146035476Y-39678142D02*
X146035476Y-39487666D01*
X146035476Y-39487666D02*
X145987857Y-39392428D01*
X145987857Y-39392428D02*
X145940238Y-39344809D01*
X145940238Y-39344809D02*
X145845000Y-39297190D01*
D11*
X89823000Y-66357332D02*
X89870619Y-66214475D01*
X89870619Y-66214475D02*
X89870619Y-65976380D01*
X89870619Y-65976380D02*
X89823000Y-65881142D01*
X89823000Y-65881142D02*
X89775380Y-65833523D01*
X89775380Y-65833523D02*
X89680142Y-65785904D01*
X89680142Y-65785904D02*
X89584904Y-65785904D01*
X89584904Y-65785904D02*
X89489666Y-65833523D01*
X89489666Y-65833523D02*
X89442047Y-65881142D01*
X89442047Y-65881142D02*
X89394428Y-65976380D01*
X89394428Y-65976380D02*
X89346809Y-66166856D01*
X89346809Y-66166856D02*
X89299190Y-66262094D01*
X89299190Y-66262094D02*
X89251571Y-66309713D01*
X89251571Y-66309713D02*
X89156333Y-66357332D01*
X89156333Y-66357332D02*
X89061095Y-66357332D01*
X89061095Y-66357332D02*
X88965857Y-66309713D01*
X88965857Y-66309713D02*
X88918238Y-66262094D01*
X88918238Y-66262094D02*
X88870619Y-66166856D01*
X88870619Y-66166856D02*
X88870619Y-65928761D01*
X88870619Y-65928761D02*
X88918238Y-65785904D01*
X88870619Y-65452570D02*
X89870619Y-65214475D01*
X89870619Y-65214475D02*
X89156333Y-65023999D01*
X89156333Y-65023999D02*
X89870619Y-64833523D01*
X89870619Y-64833523D02*
X88870619Y-64595428D01*
X89870619Y-64166856D02*
X89870619Y-63976380D01*
X89870619Y-63976380D02*
X89823000Y-63881142D01*
X89823000Y-63881142D02*
X89775380Y-63833523D01*
X89775380Y-63833523D02*
X89632523Y-63738285D01*
X89632523Y-63738285D02*
X89442047Y-63690666D01*
X89442047Y-63690666D02*
X89061095Y-63690666D01*
X89061095Y-63690666D02*
X88965857Y-63738285D01*
X88965857Y-63738285D02*
X88918238Y-63785904D01*
X88918238Y-63785904D02*
X88870619Y-63881142D01*
X88870619Y-63881142D02*
X88870619Y-64071618D01*
X88870619Y-64071618D02*
X88918238Y-64166856D01*
X88918238Y-64166856D02*
X88965857Y-64214475D01*
X88965857Y-64214475D02*
X89061095Y-64262094D01*
X89061095Y-64262094D02*
X89299190Y-64262094D01*
X89299190Y-64262094D02*
X89394428Y-64214475D01*
X89394428Y-64214475D02*
X89442047Y-64166856D01*
X89442047Y-64166856D02*
X89489666Y-64071618D01*
X89489666Y-64071618D02*
X89489666Y-63881142D01*
X89489666Y-63881142D02*
X89442047Y-63785904D01*
X89442047Y-63785904D02*
X89394428Y-63738285D01*
X89394428Y-63738285D02*
X89299190Y-63690666D01*
X164720667Y-30133000D02*
X164863524Y-30180619D01*
X164863524Y-30180619D02*
X165101619Y-30180619D01*
X165101619Y-30180619D02*
X165196857Y-30133000D01*
X165196857Y-30133000D02*
X165244476Y-30085380D01*
X165244476Y-30085380D02*
X165292095Y-29990142D01*
X165292095Y-29990142D02*
X165292095Y-29894904D01*
X165292095Y-29894904D02*
X165244476Y-29799666D01*
X165244476Y-29799666D02*
X165196857Y-29752047D01*
X165196857Y-29752047D02*
X165101619Y-29704428D01*
X165101619Y-29704428D02*
X164911143Y-29656809D01*
X164911143Y-29656809D02*
X164815905Y-29609190D01*
X164815905Y-29609190D02*
X164768286Y-29561571D01*
X164768286Y-29561571D02*
X164720667Y-29466333D01*
X164720667Y-29466333D02*
X164720667Y-29371095D01*
X164720667Y-29371095D02*
X164768286Y-29275857D01*
X164768286Y-29275857D02*
X164815905Y-29228238D01*
X164815905Y-29228238D02*
X164911143Y-29180619D01*
X164911143Y-29180619D02*
X165149238Y-29180619D01*
X165149238Y-29180619D02*
X165292095Y-29228238D01*
X165625429Y-29180619D02*
X165863524Y-30180619D01*
X165863524Y-30180619D02*
X166054000Y-29466333D01*
X166054000Y-29466333D02*
X166244476Y-30180619D01*
X166244476Y-30180619D02*
X166482572Y-29180619D01*
X167006381Y-29609190D02*
X166911143Y-29561571D01*
X166911143Y-29561571D02*
X166863524Y-29513952D01*
X166863524Y-29513952D02*
X166815905Y-29418714D01*
X166815905Y-29418714D02*
X166815905Y-29371095D01*
X166815905Y-29371095D02*
X166863524Y-29275857D01*
X166863524Y-29275857D02*
X166911143Y-29228238D01*
X166911143Y-29228238D02*
X167006381Y-29180619D01*
X167006381Y-29180619D02*
X167196857Y-29180619D01*
X167196857Y-29180619D02*
X167292095Y-29228238D01*
X167292095Y-29228238D02*
X167339714Y-29275857D01*
X167339714Y-29275857D02*
X167387333Y-29371095D01*
X167387333Y-29371095D02*
X167387333Y-29418714D01*
X167387333Y-29418714D02*
X167339714Y-29513952D01*
X167339714Y-29513952D02*
X167292095Y-29561571D01*
X167292095Y-29561571D02*
X167196857Y-29609190D01*
X167196857Y-29609190D02*
X167006381Y-29609190D01*
X167006381Y-29609190D02*
X166911143Y-29656809D01*
X166911143Y-29656809D02*
X166863524Y-29704428D01*
X166863524Y-29704428D02*
X166815905Y-29799666D01*
X166815905Y-29799666D02*
X166815905Y-29990142D01*
X166815905Y-29990142D02*
X166863524Y-30085380D01*
X166863524Y-30085380D02*
X166911143Y-30133000D01*
X166911143Y-30133000D02*
X167006381Y-30180619D01*
X167006381Y-30180619D02*
X167196857Y-30180619D01*
X167196857Y-30180619D02*
X167292095Y-30133000D01*
X167292095Y-30133000D02*
X167339714Y-30085380D01*
X167339714Y-30085380D02*
X167387333Y-29990142D01*
X167387333Y-29990142D02*
X167387333Y-29799666D01*
X167387333Y-29799666D02*
X167339714Y-29704428D01*
X167339714Y-29704428D02*
X167292095Y-29656809D01*
X167292095Y-29656809D02*
X167196857Y-29609190D01*
X114901000Y-63468476D02*
X114853380Y-63611333D01*
X114853380Y-63611333D02*
X114853380Y-63849428D01*
X114853380Y-63849428D02*
X114901000Y-63944666D01*
X114901000Y-63944666D02*
X114948619Y-63992285D01*
X114948619Y-63992285D02*
X115043857Y-64039904D01*
X115043857Y-64039904D02*
X115139095Y-64039904D01*
X115139095Y-64039904D02*
X115234333Y-63992285D01*
X115234333Y-63992285D02*
X115281952Y-63944666D01*
X115281952Y-63944666D02*
X115329571Y-63849428D01*
X115329571Y-63849428D02*
X115377190Y-63658952D01*
X115377190Y-63658952D02*
X115424809Y-63563714D01*
X115424809Y-63563714D02*
X115472428Y-63516095D01*
X115472428Y-63516095D02*
X115567666Y-63468476D01*
X115567666Y-63468476D02*
X115662904Y-63468476D01*
X115662904Y-63468476D02*
X115758142Y-63516095D01*
X115758142Y-63516095D02*
X115805761Y-63563714D01*
X115805761Y-63563714D02*
X115853380Y-63658952D01*
X115853380Y-63658952D02*
X115853380Y-63897047D01*
X115853380Y-63897047D02*
X115805761Y-64039904D01*
X115853380Y-64373238D02*
X114853380Y-64611333D01*
X114853380Y-64611333D02*
X115567666Y-64801809D01*
X115567666Y-64801809D02*
X114853380Y-64992285D01*
X114853380Y-64992285D02*
X115853380Y-65230381D01*
X114853380Y-66135142D02*
X114853380Y-65563714D01*
X114853380Y-65849428D02*
X115853380Y-65849428D01*
X115853380Y-65849428D02*
X115710523Y-65754190D01*
X115710523Y-65754190D02*
X115615285Y-65658952D01*
X115615285Y-65658952D02*
X115567666Y-65563714D01*
X114853380Y-67087523D02*
X114853380Y-66516095D01*
X114853380Y-66801809D02*
X115853380Y-66801809D01*
X115853380Y-66801809D02*
X115710523Y-66706571D01*
X115710523Y-66706571D02*
X115615285Y-66611333D01*
X115615285Y-66611333D02*
X115567666Y-66516095D01*
X100806476Y-52739000D02*
X100949333Y-52786619D01*
X100949333Y-52786619D02*
X101187428Y-52786619D01*
X101187428Y-52786619D02*
X101282666Y-52739000D01*
X101282666Y-52739000D02*
X101330285Y-52691380D01*
X101330285Y-52691380D02*
X101377904Y-52596142D01*
X101377904Y-52596142D02*
X101377904Y-52500904D01*
X101377904Y-52500904D02*
X101330285Y-52405666D01*
X101330285Y-52405666D02*
X101282666Y-52358047D01*
X101282666Y-52358047D02*
X101187428Y-52310428D01*
X101187428Y-52310428D02*
X100996952Y-52262809D01*
X100996952Y-52262809D02*
X100901714Y-52215190D01*
X100901714Y-52215190D02*
X100854095Y-52167571D01*
X100854095Y-52167571D02*
X100806476Y-52072333D01*
X100806476Y-52072333D02*
X100806476Y-51977095D01*
X100806476Y-51977095D02*
X100854095Y-51881857D01*
X100854095Y-51881857D02*
X100901714Y-51834238D01*
X100901714Y-51834238D02*
X100996952Y-51786619D01*
X100996952Y-51786619D02*
X101235047Y-51786619D01*
X101235047Y-51786619D02*
X101377904Y-51834238D01*
X101711238Y-51786619D02*
X101949333Y-52786619D01*
X101949333Y-52786619D02*
X102139809Y-52072333D01*
X102139809Y-52072333D02*
X102330285Y-52786619D01*
X102330285Y-52786619D02*
X102568381Y-51786619D01*
X103473142Y-52786619D02*
X102901714Y-52786619D01*
X103187428Y-52786619D02*
X103187428Y-51786619D01*
X103187428Y-51786619D02*
X103092190Y-51929476D01*
X103092190Y-51929476D02*
X102996952Y-52024714D01*
X102996952Y-52024714D02*
X102901714Y-52072333D01*
X103854095Y-51881857D02*
X103901714Y-51834238D01*
X103901714Y-51834238D02*
X103996952Y-51786619D01*
X103996952Y-51786619D02*
X104235047Y-51786619D01*
X104235047Y-51786619D02*
X104330285Y-51834238D01*
X104330285Y-51834238D02*
X104377904Y-51881857D01*
X104377904Y-51881857D02*
X104425523Y-51977095D01*
X104425523Y-51977095D02*
X104425523Y-52072333D01*
X104425523Y-52072333D02*
X104377904Y-52215190D01*
X104377904Y-52215190D02*
X103806476Y-52786619D01*
X103806476Y-52786619D02*
X104425523Y-52786619D01*
D12*
X115645000Y-49890000D02*
X113613000Y-49890000D01*
X115645000Y-47858000D02*
X115645000Y-49890000D01*
X113613000Y-49890000D02*
X113613000Y-47858000D01*
X113613000Y-47858000D02*
X115645000Y-47858000D01*
X113256734Y-50398000D02*
G75*
G03*
X113256734Y-50398000I-151734J0D01*
G01*
X103421180Y-61597960D02*
X101389180Y-61597960D01*
X103421180Y-59565960D02*
X103421180Y-61597960D01*
X101389180Y-61597960D02*
X101389180Y-59565960D01*
X101389180Y-59565960D02*
X103421180Y-59565960D01*
X101032914Y-62105960D02*
G75*
G03*
X101032914Y-62105960I-151734J0D01*
G01*
X103391180Y-70907960D02*
X101359180Y-70907960D01*
X103391180Y-68875960D02*
X103391180Y-70907960D01*
X101359180Y-70907960D02*
X101359180Y-68875960D01*
X101359180Y-68875960D02*
X103391180Y-68875960D01*
X101002914Y-71415960D02*
G75*
G03*
X101002914Y-71415960I-151734J0D01*
G01*
X167070000Y-61340000D02*
X165038000Y-61340000D01*
X167070000Y-59308000D02*
X167070000Y-61340000D01*
X165038000Y-61340000D02*
X165038000Y-59308000D01*
X165038000Y-59308000D02*
X167070000Y-59308000D01*
X164681734Y-61848000D02*
G75*
G03*
X164681734Y-61848000I-151734J0D01*
G01*
X107745000Y-38390000D02*
X105713000Y-38390000D01*
X107745000Y-36358000D02*
X107745000Y-38390000D01*
X105713000Y-38390000D02*
X105713000Y-36358000D01*
X105713000Y-36358000D02*
X107745000Y-36358000D01*
X105356734Y-38898000D02*
G75*
G03*
X105356734Y-38898000I-151734J0D01*
G01*
X155115320Y-50951900D02*
X153083320Y-50951900D01*
X155115320Y-48919900D02*
X155115320Y-50951900D01*
X153083320Y-50951900D02*
X153083320Y-48919900D01*
X153083320Y-48919900D02*
X155115320Y-48919900D01*
X152727054Y-51459900D02*
G75*
G03*
X152727054Y-51459900I-151734J0D01*
G01*
X98751180Y-66257960D02*
X96719180Y-66257960D01*
X98751180Y-64225960D02*
X98751180Y-66257960D01*
X96719180Y-66257960D02*
X96719180Y-64225960D01*
X96719180Y-64225960D02*
X98751180Y-64225960D01*
X96362914Y-66765960D02*
G75*
G03*
X96362914Y-66765960I-151734J0D01*
G01*
X108051180Y-66257960D02*
X106019180Y-66257960D01*
X108051180Y-64225960D02*
X108051180Y-66257960D01*
X106019180Y-66257960D02*
X106019180Y-64225960D01*
X106019180Y-64225960D02*
X108051180Y-64225960D01*
X105662914Y-66765960D02*
G75*
G03*
X105662914Y-66765960I-151734J0D01*
G01*
X178955320Y-50951900D02*
X176923320Y-50951900D01*
X178955320Y-48919900D02*
X178955320Y-50951900D01*
X176923320Y-50951900D02*
X176923320Y-48919900D01*
X176923320Y-48919900D02*
X178955320Y-48919900D01*
X176567054Y-51459900D02*
G75*
G03*
X176567054Y-51459900I-151734J0D01*
G01*
X137445000Y-49890000D02*
X135413000Y-49890000D01*
X137445000Y-47858000D02*
X137445000Y-49890000D01*
X135413000Y-49890000D02*
X135413000Y-47858000D01*
X135413000Y-47858000D02*
X137445000Y-47858000D01*
X135056734Y-50398000D02*
G75*
G03*
X135056734Y-50398000I-151734J0D01*
G01*
X167070000Y-40570000D02*
X165038000Y-40570000D01*
X167070000Y-38538000D02*
X167070000Y-40570000D01*
X165038000Y-40570000D02*
X165038000Y-38538000D01*
X165038000Y-38538000D02*
X167070000Y-38538000D01*
X164681734Y-41078000D02*
G75*
G03*
X164681734Y-41078000I-151734J0D01*
G01*
X145345000Y-38390000D02*
X143313000Y-38390000D01*
X145345000Y-36358000D02*
X145345000Y-38390000D01*
X143313000Y-38390000D02*
X143313000Y-36358000D01*
X143313000Y-36358000D02*
X145345000Y-36358000D01*
X142956734Y-38898000D02*
G75*
G03*
X142956734Y-38898000I-151734J0D01*
G01*
M02*
