G04 #@! TF.GenerationSoftware,KiCad,Pcbnew,7.0.2*
G04 #@! TF.CreationDate,2023-05-05T22:29:22-07:00*
G04 #@! TF.ProjectId,procon_gcc_button_board,70726f63-6f6e-45f6-9763-635f62757474,rev?*
G04 #@! TF.SameCoordinates,Original*
G04 #@! TF.FileFunction,AssemblyDrawing,Top*
%FSLAX46Y46*%
G04 Gerber Fmt 4.6, Leading zero omitted, Abs format (unit mm)*
G04 Created by KiCad (PCBNEW 7.0.2) date 2023-05-05 22:29:22*
%MOMM*%
%LPD*%
G01*
G04 APERTURE LIST*
%ADD10C,0.150000*%
G04 APERTURE END LIST*
D10*
X137964952Y-24346619D02*
X138536380Y-24346619D01*
X138250666Y-25346619D02*
X138250666Y-24346619D01*
X139345904Y-25346619D02*
X138869714Y-25346619D01*
X138869714Y-25346619D02*
X138869714Y-24346619D01*
X139584000Y-24346619D02*
X140203047Y-24346619D01*
X140203047Y-24346619D02*
X139869714Y-24727571D01*
X139869714Y-24727571D02*
X140012571Y-24727571D01*
X140012571Y-24727571D02*
X140107809Y-24775190D01*
X140107809Y-24775190D02*
X140155428Y-24822809D01*
X140155428Y-24822809D02*
X140203047Y-24918047D01*
X140203047Y-24918047D02*
X140203047Y-25156142D01*
X140203047Y-25156142D02*
X140155428Y-25251380D01*
X140155428Y-25251380D02*
X140107809Y-25299000D01*
X140107809Y-25299000D02*
X140012571Y-25346619D01*
X140012571Y-25346619D02*
X139726857Y-25346619D01*
X139726857Y-25346619D02*
X139631619Y-25299000D01*
X139631619Y-25299000D02*
X139584000Y-25251380D01*
X140536381Y-24346619D02*
X141155428Y-24346619D01*
X141155428Y-24346619D02*
X140822095Y-24727571D01*
X140822095Y-24727571D02*
X140964952Y-24727571D01*
X140964952Y-24727571D02*
X141060190Y-24775190D01*
X141060190Y-24775190D02*
X141107809Y-24822809D01*
X141107809Y-24822809D02*
X141155428Y-24918047D01*
X141155428Y-24918047D02*
X141155428Y-25156142D01*
X141155428Y-25156142D02*
X141107809Y-25251380D01*
X141107809Y-25251380D02*
X141060190Y-25299000D01*
X141060190Y-25299000D02*
X140964952Y-25346619D01*
X140964952Y-25346619D02*
X140679238Y-25346619D01*
X140679238Y-25346619D02*
X140584000Y-25299000D01*
X140584000Y-25299000D02*
X140536381Y-25251380D01*
X142107809Y-25346619D02*
X141536381Y-25346619D01*
X141822095Y-25346619D02*
X141822095Y-24346619D01*
X141822095Y-24346619D02*
X141726857Y-24489476D01*
X141726857Y-24489476D02*
X141631619Y-24584714D01*
X141631619Y-24584714D02*
X141536381Y-24632333D01*
X143012571Y-24346619D02*
X142536381Y-24346619D01*
X142536381Y-24346619D02*
X142488762Y-24822809D01*
X142488762Y-24822809D02*
X142536381Y-24775190D01*
X142536381Y-24775190D02*
X142631619Y-24727571D01*
X142631619Y-24727571D02*
X142869714Y-24727571D01*
X142869714Y-24727571D02*
X142964952Y-24775190D01*
X142964952Y-24775190D02*
X143012571Y-24822809D01*
X143012571Y-24822809D02*
X143060190Y-24918047D01*
X143060190Y-24918047D02*
X143060190Y-25156142D01*
X143060190Y-25156142D02*
X143012571Y-25251380D01*
X143012571Y-25251380D02*
X142964952Y-25299000D01*
X142964952Y-25299000D02*
X142869714Y-25346619D01*
X142869714Y-25346619D02*
X142631619Y-25346619D01*
X142631619Y-25346619D02*
X142536381Y-25299000D01*
X142536381Y-25299000D02*
X142488762Y-25251380D01*
X143488762Y-25346619D02*
X143488762Y-24346619D01*
X143488762Y-24346619D02*
X144060190Y-25346619D01*
X144060190Y-25346619D02*
X144060190Y-24346619D01*
X144869714Y-24822809D02*
X144536381Y-24822809D01*
X144536381Y-25346619D02*
X144536381Y-24346619D01*
X144536381Y-24346619D02*
X145012571Y-24346619D01*
X145917333Y-25346619D02*
X145345905Y-25346619D01*
X145631619Y-25346619D02*
X145631619Y-24346619D01*
X145631619Y-24346619D02*
X145536381Y-24489476D01*
X145536381Y-24489476D02*
X145441143Y-24584714D01*
X145441143Y-24584714D02*
X145345905Y-24632333D01*
X146536381Y-24346619D02*
X146631619Y-24346619D01*
X146631619Y-24346619D02*
X146726857Y-24394238D01*
X146726857Y-24394238D02*
X146774476Y-24441857D01*
X146774476Y-24441857D02*
X146822095Y-24537095D01*
X146822095Y-24537095D02*
X146869714Y-24727571D01*
X146869714Y-24727571D02*
X146869714Y-24965666D01*
X146869714Y-24965666D02*
X146822095Y-25156142D01*
X146822095Y-25156142D02*
X146774476Y-25251380D01*
X146774476Y-25251380D02*
X146726857Y-25299000D01*
X146726857Y-25299000D02*
X146631619Y-25346619D01*
X146631619Y-25346619D02*
X146536381Y-25346619D01*
X146536381Y-25346619D02*
X146441143Y-25299000D01*
X146441143Y-25299000D02*
X146393524Y-25251380D01*
X146393524Y-25251380D02*
X146345905Y-25156142D01*
X146345905Y-25156142D02*
X146298286Y-24965666D01*
X146298286Y-24965666D02*
X146298286Y-24727571D01*
X146298286Y-24727571D02*
X146345905Y-24537095D01*
X146345905Y-24537095D02*
X146393524Y-24441857D01*
X146393524Y-24441857D02*
X146441143Y-24394238D01*
X146441143Y-24394238D02*
X146536381Y-24346619D01*
X147488762Y-24346619D02*
X147584000Y-24346619D01*
X147584000Y-24346619D02*
X147679238Y-24394238D01*
X147679238Y-24394238D02*
X147726857Y-24441857D01*
X147726857Y-24441857D02*
X147774476Y-24537095D01*
X147774476Y-24537095D02*
X147822095Y-24727571D01*
X147822095Y-24727571D02*
X147822095Y-24965666D01*
X147822095Y-24965666D02*
X147774476Y-25156142D01*
X147774476Y-25156142D02*
X147726857Y-25251380D01*
X147726857Y-25251380D02*
X147679238Y-25299000D01*
X147679238Y-25299000D02*
X147584000Y-25346619D01*
X147584000Y-25346619D02*
X147488762Y-25346619D01*
X147488762Y-25346619D02*
X147393524Y-25299000D01*
X147393524Y-25299000D02*
X147345905Y-25251380D01*
X147345905Y-25251380D02*
X147298286Y-25156142D01*
X147298286Y-25156142D02*
X147250667Y-24965666D01*
X147250667Y-24965666D02*
X147250667Y-24727571D01*
X147250667Y-24727571D02*
X147298286Y-24537095D01*
X147298286Y-24537095D02*
X147345905Y-24441857D01*
X147345905Y-24441857D02*
X147393524Y-24394238D01*
X147393524Y-24394238D02*
X147488762Y-24346619D01*
X148917333Y-25441857D02*
X148822095Y-25394238D01*
X148822095Y-25394238D02*
X148726857Y-25299000D01*
X148726857Y-25299000D02*
X148584000Y-25156142D01*
X148584000Y-25156142D02*
X148488762Y-25108523D01*
X148488762Y-25108523D02*
X148393524Y-25108523D01*
X148441143Y-25346619D02*
X148345905Y-25299000D01*
X148345905Y-25299000D02*
X148250667Y-25203761D01*
X148250667Y-25203761D02*
X148203048Y-25013285D01*
X148203048Y-25013285D02*
X148203048Y-24679952D01*
X148203048Y-24679952D02*
X148250667Y-24489476D01*
X148250667Y-24489476D02*
X148345905Y-24394238D01*
X148345905Y-24394238D02*
X148441143Y-24346619D01*
X148441143Y-24346619D02*
X148631619Y-24346619D01*
X148631619Y-24346619D02*
X148726857Y-24394238D01*
X148726857Y-24394238D02*
X148822095Y-24489476D01*
X148822095Y-24489476D02*
X148869714Y-24679952D01*
X148869714Y-24679952D02*
X148869714Y-25013285D01*
X148869714Y-25013285D02*
X148822095Y-25203761D01*
X148822095Y-25203761D02*
X148726857Y-25299000D01*
X148726857Y-25299000D02*
X148631619Y-25346619D01*
X148631619Y-25346619D02*
X148441143Y-25346619D01*
X108264952Y-35846619D02*
X108836380Y-35846619D01*
X108550666Y-36846619D02*
X108550666Y-35846619D01*
X109645904Y-36846619D02*
X109169714Y-36846619D01*
X109169714Y-36846619D02*
X109169714Y-35846619D01*
X109884000Y-35846619D02*
X110503047Y-35846619D01*
X110503047Y-35846619D02*
X110169714Y-36227571D01*
X110169714Y-36227571D02*
X110312571Y-36227571D01*
X110312571Y-36227571D02*
X110407809Y-36275190D01*
X110407809Y-36275190D02*
X110455428Y-36322809D01*
X110455428Y-36322809D02*
X110503047Y-36418047D01*
X110503047Y-36418047D02*
X110503047Y-36656142D01*
X110503047Y-36656142D02*
X110455428Y-36751380D01*
X110455428Y-36751380D02*
X110407809Y-36799000D01*
X110407809Y-36799000D02*
X110312571Y-36846619D01*
X110312571Y-36846619D02*
X110026857Y-36846619D01*
X110026857Y-36846619D02*
X109931619Y-36799000D01*
X109931619Y-36799000D02*
X109884000Y-36751380D01*
X110836381Y-35846619D02*
X111455428Y-35846619D01*
X111455428Y-35846619D02*
X111122095Y-36227571D01*
X111122095Y-36227571D02*
X111264952Y-36227571D01*
X111264952Y-36227571D02*
X111360190Y-36275190D01*
X111360190Y-36275190D02*
X111407809Y-36322809D01*
X111407809Y-36322809D02*
X111455428Y-36418047D01*
X111455428Y-36418047D02*
X111455428Y-36656142D01*
X111455428Y-36656142D02*
X111407809Y-36751380D01*
X111407809Y-36751380D02*
X111360190Y-36799000D01*
X111360190Y-36799000D02*
X111264952Y-36846619D01*
X111264952Y-36846619D02*
X110979238Y-36846619D01*
X110979238Y-36846619D02*
X110884000Y-36799000D01*
X110884000Y-36799000D02*
X110836381Y-36751380D01*
X112407809Y-36846619D02*
X111836381Y-36846619D01*
X112122095Y-36846619D02*
X112122095Y-35846619D01*
X112122095Y-35846619D02*
X112026857Y-35989476D01*
X112026857Y-35989476D02*
X111931619Y-36084714D01*
X111931619Y-36084714D02*
X111836381Y-36132333D01*
X113312571Y-35846619D02*
X112836381Y-35846619D01*
X112836381Y-35846619D02*
X112788762Y-36322809D01*
X112788762Y-36322809D02*
X112836381Y-36275190D01*
X112836381Y-36275190D02*
X112931619Y-36227571D01*
X112931619Y-36227571D02*
X113169714Y-36227571D01*
X113169714Y-36227571D02*
X113264952Y-36275190D01*
X113264952Y-36275190D02*
X113312571Y-36322809D01*
X113312571Y-36322809D02*
X113360190Y-36418047D01*
X113360190Y-36418047D02*
X113360190Y-36656142D01*
X113360190Y-36656142D02*
X113312571Y-36751380D01*
X113312571Y-36751380D02*
X113264952Y-36799000D01*
X113264952Y-36799000D02*
X113169714Y-36846619D01*
X113169714Y-36846619D02*
X112931619Y-36846619D01*
X112931619Y-36846619D02*
X112836381Y-36799000D01*
X112836381Y-36799000D02*
X112788762Y-36751380D01*
X113788762Y-36846619D02*
X113788762Y-35846619D01*
X113788762Y-35846619D02*
X114360190Y-36846619D01*
X114360190Y-36846619D02*
X114360190Y-35846619D01*
X115169714Y-36322809D02*
X114836381Y-36322809D01*
X114836381Y-36846619D02*
X114836381Y-35846619D01*
X114836381Y-35846619D02*
X115312571Y-35846619D01*
X116217333Y-36846619D02*
X115645905Y-36846619D01*
X115931619Y-36846619D02*
X115931619Y-35846619D01*
X115931619Y-35846619D02*
X115836381Y-35989476D01*
X115836381Y-35989476D02*
X115741143Y-36084714D01*
X115741143Y-36084714D02*
X115645905Y-36132333D01*
X116836381Y-35846619D02*
X116931619Y-35846619D01*
X116931619Y-35846619D02*
X117026857Y-35894238D01*
X117026857Y-35894238D02*
X117074476Y-35941857D01*
X117074476Y-35941857D02*
X117122095Y-36037095D01*
X117122095Y-36037095D02*
X117169714Y-36227571D01*
X117169714Y-36227571D02*
X117169714Y-36465666D01*
X117169714Y-36465666D02*
X117122095Y-36656142D01*
X117122095Y-36656142D02*
X117074476Y-36751380D01*
X117074476Y-36751380D02*
X117026857Y-36799000D01*
X117026857Y-36799000D02*
X116931619Y-36846619D01*
X116931619Y-36846619D02*
X116836381Y-36846619D01*
X116836381Y-36846619D02*
X116741143Y-36799000D01*
X116741143Y-36799000D02*
X116693524Y-36751380D01*
X116693524Y-36751380D02*
X116645905Y-36656142D01*
X116645905Y-36656142D02*
X116598286Y-36465666D01*
X116598286Y-36465666D02*
X116598286Y-36227571D01*
X116598286Y-36227571D02*
X116645905Y-36037095D01*
X116645905Y-36037095D02*
X116693524Y-35941857D01*
X116693524Y-35941857D02*
X116741143Y-35894238D01*
X116741143Y-35894238D02*
X116836381Y-35846619D01*
X117788762Y-35846619D02*
X117884000Y-35846619D01*
X117884000Y-35846619D02*
X117979238Y-35894238D01*
X117979238Y-35894238D02*
X118026857Y-35941857D01*
X118026857Y-35941857D02*
X118074476Y-36037095D01*
X118074476Y-36037095D02*
X118122095Y-36227571D01*
X118122095Y-36227571D02*
X118122095Y-36465666D01*
X118122095Y-36465666D02*
X118074476Y-36656142D01*
X118074476Y-36656142D02*
X118026857Y-36751380D01*
X118026857Y-36751380D02*
X117979238Y-36799000D01*
X117979238Y-36799000D02*
X117884000Y-36846619D01*
X117884000Y-36846619D02*
X117788762Y-36846619D01*
X117788762Y-36846619D02*
X117693524Y-36799000D01*
X117693524Y-36799000D02*
X117645905Y-36751380D01*
X117645905Y-36751380D02*
X117598286Y-36656142D01*
X117598286Y-36656142D02*
X117550667Y-36465666D01*
X117550667Y-36465666D02*
X117550667Y-36227571D01*
X117550667Y-36227571D02*
X117598286Y-36037095D01*
X117598286Y-36037095D02*
X117645905Y-35941857D01*
X117645905Y-35941857D02*
X117693524Y-35894238D01*
X117693524Y-35894238D02*
X117788762Y-35846619D01*
X119217333Y-36941857D02*
X119122095Y-36894238D01*
X119122095Y-36894238D02*
X119026857Y-36799000D01*
X119026857Y-36799000D02*
X118884000Y-36656142D01*
X118884000Y-36656142D02*
X118788762Y-36608523D01*
X118788762Y-36608523D02*
X118693524Y-36608523D01*
X118741143Y-36846619D02*
X118645905Y-36799000D01*
X118645905Y-36799000D02*
X118550667Y-36703761D01*
X118550667Y-36703761D02*
X118503048Y-36513285D01*
X118503048Y-36513285D02*
X118503048Y-36179952D01*
X118503048Y-36179952D02*
X118550667Y-35989476D01*
X118550667Y-35989476D02*
X118645905Y-35894238D01*
X118645905Y-35894238D02*
X118741143Y-35846619D01*
X118741143Y-35846619D02*
X118931619Y-35846619D01*
X118931619Y-35846619D02*
X119026857Y-35894238D01*
X119026857Y-35894238D02*
X119122095Y-35989476D01*
X119122095Y-35989476D02*
X119169714Y-36179952D01*
X119169714Y-36179952D02*
X119169714Y-36513285D01*
X119169714Y-36513285D02*
X119122095Y-36703761D01*
X119122095Y-36703761D02*
X119026857Y-36799000D01*
X119026857Y-36799000D02*
X118931619Y-36846619D01*
X118931619Y-36846619D02*
X118741143Y-36846619D01*
X115478333Y-52892619D02*
X115002143Y-52892619D01*
X115002143Y-52892619D02*
X115002143Y-51892619D01*
X116240238Y-51892619D02*
X116049762Y-51892619D01*
X116049762Y-51892619D02*
X115954524Y-51940238D01*
X115954524Y-51940238D02*
X115906905Y-51987857D01*
X115906905Y-51987857D02*
X115811667Y-52130714D01*
X115811667Y-52130714D02*
X115764048Y-52321190D01*
X115764048Y-52321190D02*
X115764048Y-52702142D01*
X115764048Y-52702142D02*
X115811667Y-52797380D01*
X115811667Y-52797380D02*
X115859286Y-52845000D01*
X115859286Y-52845000D02*
X115954524Y-52892619D01*
X115954524Y-52892619D02*
X116145000Y-52892619D01*
X116145000Y-52892619D02*
X116240238Y-52845000D01*
X116240238Y-52845000D02*
X116287857Y-52797380D01*
X116287857Y-52797380D02*
X116335476Y-52702142D01*
X116335476Y-52702142D02*
X116335476Y-52464047D01*
X116335476Y-52464047D02*
X116287857Y-52368809D01*
X116287857Y-52368809D02*
X116240238Y-52321190D01*
X116240238Y-52321190D02*
X116145000Y-52273571D01*
X116145000Y-52273571D02*
X115954524Y-52273571D01*
X115954524Y-52273571D02*
X115859286Y-52321190D01*
X115859286Y-52321190D02*
X115811667Y-52368809D01*
X115811667Y-52368809D02*
X115764048Y-52464047D01*
X100364952Y-24346619D02*
X100936380Y-24346619D01*
X100650666Y-25346619D02*
X100650666Y-24346619D01*
X101745904Y-25346619D02*
X101269714Y-25346619D01*
X101269714Y-25346619D02*
X101269714Y-24346619D01*
X101984000Y-24346619D02*
X102603047Y-24346619D01*
X102603047Y-24346619D02*
X102269714Y-24727571D01*
X102269714Y-24727571D02*
X102412571Y-24727571D01*
X102412571Y-24727571D02*
X102507809Y-24775190D01*
X102507809Y-24775190D02*
X102555428Y-24822809D01*
X102555428Y-24822809D02*
X102603047Y-24918047D01*
X102603047Y-24918047D02*
X102603047Y-25156142D01*
X102603047Y-25156142D02*
X102555428Y-25251380D01*
X102555428Y-25251380D02*
X102507809Y-25299000D01*
X102507809Y-25299000D02*
X102412571Y-25346619D01*
X102412571Y-25346619D02*
X102126857Y-25346619D01*
X102126857Y-25346619D02*
X102031619Y-25299000D01*
X102031619Y-25299000D02*
X101984000Y-25251380D01*
X102936381Y-24346619D02*
X103555428Y-24346619D01*
X103555428Y-24346619D02*
X103222095Y-24727571D01*
X103222095Y-24727571D02*
X103364952Y-24727571D01*
X103364952Y-24727571D02*
X103460190Y-24775190D01*
X103460190Y-24775190D02*
X103507809Y-24822809D01*
X103507809Y-24822809D02*
X103555428Y-24918047D01*
X103555428Y-24918047D02*
X103555428Y-25156142D01*
X103555428Y-25156142D02*
X103507809Y-25251380D01*
X103507809Y-25251380D02*
X103460190Y-25299000D01*
X103460190Y-25299000D02*
X103364952Y-25346619D01*
X103364952Y-25346619D02*
X103079238Y-25346619D01*
X103079238Y-25346619D02*
X102984000Y-25299000D01*
X102984000Y-25299000D02*
X102936381Y-25251380D01*
X104507809Y-25346619D02*
X103936381Y-25346619D01*
X104222095Y-25346619D02*
X104222095Y-24346619D01*
X104222095Y-24346619D02*
X104126857Y-24489476D01*
X104126857Y-24489476D02*
X104031619Y-24584714D01*
X104031619Y-24584714D02*
X103936381Y-24632333D01*
X105412571Y-24346619D02*
X104936381Y-24346619D01*
X104936381Y-24346619D02*
X104888762Y-24822809D01*
X104888762Y-24822809D02*
X104936381Y-24775190D01*
X104936381Y-24775190D02*
X105031619Y-24727571D01*
X105031619Y-24727571D02*
X105269714Y-24727571D01*
X105269714Y-24727571D02*
X105364952Y-24775190D01*
X105364952Y-24775190D02*
X105412571Y-24822809D01*
X105412571Y-24822809D02*
X105460190Y-24918047D01*
X105460190Y-24918047D02*
X105460190Y-25156142D01*
X105460190Y-25156142D02*
X105412571Y-25251380D01*
X105412571Y-25251380D02*
X105364952Y-25299000D01*
X105364952Y-25299000D02*
X105269714Y-25346619D01*
X105269714Y-25346619D02*
X105031619Y-25346619D01*
X105031619Y-25346619D02*
X104936381Y-25299000D01*
X104936381Y-25299000D02*
X104888762Y-25251380D01*
X105888762Y-25346619D02*
X105888762Y-24346619D01*
X105888762Y-24346619D02*
X106460190Y-25346619D01*
X106460190Y-25346619D02*
X106460190Y-24346619D01*
X107269714Y-24822809D02*
X106936381Y-24822809D01*
X106936381Y-25346619D02*
X106936381Y-24346619D01*
X106936381Y-24346619D02*
X107412571Y-24346619D01*
X108317333Y-25346619D02*
X107745905Y-25346619D01*
X108031619Y-25346619D02*
X108031619Y-24346619D01*
X108031619Y-24346619D02*
X107936381Y-24489476D01*
X107936381Y-24489476D02*
X107841143Y-24584714D01*
X107841143Y-24584714D02*
X107745905Y-24632333D01*
X108936381Y-24346619D02*
X109031619Y-24346619D01*
X109031619Y-24346619D02*
X109126857Y-24394238D01*
X109126857Y-24394238D02*
X109174476Y-24441857D01*
X109174476Y-24441857D02*
X109222095Y-24537095D01*
X109222095Y-24537095D02*
X109269714Y-24727571D01*
X109269714Y-24727571D02*
X109269714Y-24965666D01*
X109269714Y-24965666D02*
X109222095Y-25156142D01*
X109222095Y-25156142D02*
X109174476Y-25251380D01*
X109174476Y-25251380D02*
X109126857Y-25299000D01*
X109126857Y-25299000D02*
X109031619Y-25346619D01*
X109031619Y-25346619D02*
X108936381Y-25346619D01*
X108936381Y-25346619D02*
X108841143Y-25299000D01*
X108841143Y-25299000D02*
X108793524Y-25251380D01*
X108793524Y-25251380D02*
X108745905Y-25156142D01*
X108745905Y-25156142D02*
X108698286Y-24965666D01*
X108698286Y-24965666D02*
X108698286Y-24727571D01*
X108698286Y-24727571D02*
X108745905Y-24537095D01*
X108745905Y-24537095D02*
X108793524Y-24441857D01*
X108793524Y-24441857D02*
X108841143Y-24394238D01*
X108841143Y-24394238D02*
X108936381Y-24346619D01*
X109888762Y-24346619D02*
X109984000Y-24346619D01*
X109984000Y-24346619D02*
X110079238Y-24394238D01*
X110079238Y-24394238D02*
X110126857Y-24441857D01*
X110126857Y-24441857D02*
X110174476Y-24537095D01*
X110174476Y-24537095D02*
X110222095Y-24727571D01*
X110222095Y-24727571D02*
X110222095Y-24965666D01*
X110222095Y-24965666D02*
X110174476Y-25156142D01*
X110174476Y-25156142D02*
X110126857Y-25251380D01*
X110126857Y-25251380D02*
X110079238Y-25299000D01*
X110079238Y-25299000D02*
X109984000Y-25346619D01*
X109984000Y-25346619D02*
X109888762Y-25346619D01*
X109888762Y-25346619D02*
X109793524Y-25299000D01*
X109793524Y-25299000D02*
X109745905Y-25251380D01*
X109745905Y-25251380D02*
X109698286Y-25156142D01*
X109698286Y-25156142D02*
X109650667Y-24965666D01*
X109650667Y-24965666D02*
X109650667Y-24727571D01*
X109650667Y-24727571D02*
X109698286Y-24537095D01*
X109698286Y-24537095D02*
X109745905Y-24441857D01*
X109745905Y-24441857D02*
X109793524Y-24394238D01*
X109793524Y-24394238D02*
X109888762Y-24346619D01*
X111317333Y-25441857D02*
X111222095Y-25394238D01*
X111222095Y-25394238D02*
X111126857Y-25299000D01*
X111126857Y-25299000D02*
X110984000Y-25156142D01*
X110984000Y-25156142D02*
X110888762Y-25108523D01*
X110888762Y-25108523D02*
X110793524Y-25108523D01*
X110841143Y-25346619D02*
X110745905Y-25299000D01*
X110745905Y-25299000D02*
X110650667Y-25203761D01*
X110650667Y-25203761D02*
X110603048Y-25013285D01*
X110603048Y-25013285D02*
X110603048Y-24679952D01*
X110603048Y-24679952D02*
X110650667Y-24489476D01*
X110650667Y-24489476D02*
X110745905Y-24394238D01*
X110745905Y-24394238D02*
X110841143Y-24346619D01*
X110841143Y-24346619D02*
X111031619Y-24346619D01*
X111031619Y-24346619D02*
X111126857Y-24394238D01*
X111126857Y-24394238D02*
X111222095Y-24489476D01*
X111222095Y-24489476D02*
X111269714Y-24679952D01*
X111269714Y-24679952D02*
X111269714Y-25013285D01*
X111269714Y-25013285D02*
X111222095Y-25203761D01*
X111222095Y-25203761D02*
X111126857Y-25299000D01*
X111126857Y-25299000D02*
X111031619Y-25346619D01*
X111031619Y-25346619D02*
X110841143Y-25346619D01*
X103254513Y-64600579D02*
X102778323Y-64600579D01*
X102778323Y-64600579D02*
X102778323Y-63600579D01*
X104016418Y-63933912D02*
X104016418Y-64600579D01*
X103778323Y-63552960D02*
X103540228Y-64267245D01*
X103540228Y-64267245D02*
X104159275Y-64267245D01*
X103224513Y-73910579D02*
X102748323Y-73910579D01*
X102748323Y-73910579D02*
X102748323Y-72910579D01*
X103510228Y-73005817D02*
X103557847Y-72958198D01*
X103557847Y-72958198D02*
X103653085Y-72910579D01*
X103653085Y-72910579D02*
X103891180Y-72910579D01*
X103891180Y-72910579D02*
X103986418Y-72958198D01*
X103986418Y-72958198D02*
X104034037Y-73005817D01*
X104034037Y-73005817D02*
X104081656Y-73101055D01*
X104081656Y-73101055D02*
X104081656Y-73196293D01*
X104081656Y-73196293D02*
X104034037Y-73339150D01*
X104034037Y-73339150D02*
X103462609Y-73910579D01*
X103462609Y-73910579D02*
X104081656Y-73910579D01*
X166427142Y-64342619D02*
X165950952Y-64342619D01*
X165950952Y-64342619D02*
X165950952Y-63342619D01*
X167284285Y-64342619D02*
X166712857Y-64342619D01*
X166998571Y-64342619D02*
X166998571Y-63342619D01*
X166998571Y-63342619D02*
X166903333Y-63485476D01*
X166903333Y-63485476D02*
X166808095Y-63580714D01*
X166808095Y-63580714D02*
X166712857Y-63628333D01*
X167665238Y-63437857D02*
X167712857Y-63390238D01*
X167712857Y-63390238D02*
X167808095Y-63342619D01*
X167808095Y-63342619D02*
X168046190Y-63342619D01*
X168046190Y-63342619D02*
X168141428Y-63390238D01*
X168141428Y-63390238D02*
X168189047Y-63437857D01*
X168189047Y-63437857D02*
X168236666Y-63533095D01*
X168236666Y-63533095D02*
X168236666Y-63628333D01*
X168236666Y-63628333D02*
X168189047Y-63771190D01*
X168189047Y-63771190D02*
X167617619Y-64342619D01*
X167617619Y-64342619D02*
X168236666Y-64342619D01*
X107578333Y-41392619D02*
X107102143Y-41392619D01*
X107102143Y-41392619D02*
X107102143Y-40392619D01*
X108387857Y-40392619D02*
X107911667Y-40392619D01*
X107911667Y-40392619D02*
X107864048Y-40868809D01*
X107864048Y-40868809D02*
X107911667Y-40821190D01*
X107911667Y-40821190D02*
X108006905Y-40773571D01*
X108006905Y-40773571D02*
X108245000Y-40773571D01*
X108245000Y-40773571D02*
X108340238Y-40821190D01*
X108340238Y-40821190D02*
X108387857Y-40868809D01*
X108387857Y-40868809D02*
X108435476Y-40964047D01*
X108435476Y-40964047D02*
X108435476Y-41202142D01*
X108435476Y-41202142D02*
X108387857Y-41297380D01*
X108387857Y-41297380D02*
X108340238Y-41345000D01*
X108340238Y-41345000D02*
X108245000Y-41392619D01*
X108245000Y-41392619D02*
X108006905Y-41392619D01*
X108006905Y-41392619D02*
X107911667Y-41345000D01*
X107911667Y-41345000D02*
X107864048Y-41297380D01*
X154948653Y-53954519D02*
X154472463Y-53954519D01*
X154472463Y-53954519D02*
X154472463Y-52954519D01*
X155329606Y-53954519D02*
X155520082Y-53954519D01*
X155520082Y-53954519D02*
X155615320Y-53906900D01*
X155615320Y-53906900D02*
X155662939Y-53859280D01*
X155662939Y-53859280D02*
X155758177Y-53716423D01*
X155758177Y-53716423D02*
X155805796Y-53525947D01*
X155805796Y-53525947D02*
X155805796Y-53144995D01*
X155805796Y-53144995D02*
X155758177Y-53049757D01*
X155758177Y-53049757D02*
X155710558Y-53002138D01*
X155710558Y-53002138D02*
X155615320Y-52954519D01*
X155615320Y-52954519D02*
X155424844Y-52954519D01*
X155424844Y-52954519D02*
X155329606Y-53002138D01*
X155329606Y-53002138D02*
X155281987Y-53049757D01*
X155281987Y-53049757D02*
X155234368Y-53144995D01*
X155234368Y-53144995D02*
X155234368Y-53383090D01*
X155234368Y-53383090D02*
X155281987Y-53478328D01*
X155281987Y-53478328D02*
X155329606Y-53525947D01*
X155329606Y-53525947D02*
X155424844Y-53573566D01*
X155424844Y-53573566D02*
X155615320Y-53573566D01*
X155615320Y-53573566D02*
X155710558Y-53525947D01*
X155710558Y-53525947D02*
X155758177Y-53478328D01*
X155758177Y-53478328D02*
X155805796Y-53383090D01*
X104065655Y-68343740D02*
X104065655Y-69343740D01*
X104065655Y-69343740D02*
X103827560Y-69343740D01*
X103827560Y-69343740D02*
X103684703Y-69296121D01*
X103684703Y-69296121D02*
X103589465Y-69200883D01*
X103589465Y-69200883D02*
X103541846Y-69105645D01*
X103541846Y-69105645D02*
X103494227Y-68915169D01*
X103494227Y-68915169D02*
X103494227Y-68772312D01*
X103494227Y-68772312D02*
X103541846Y-68581836D01*
X103541846Y-68581836D02*
X103589465Y-68486598D01*
X103589465Y-68486598D02*
X103684703Y-68391360D01*
X103684703Y-68391360D02*
X103827560Y-68343740D01*
X103827560Y-68343740D02*
X104065655Y-68343740D01*
X103065655Y-68343740D02*
X103065655Y-69343740D01*
X103065655Y-69343740D02*
X102684703Y-69343740D01*
X102684703Y-69343740D02*
X102589465Y-69296121D01*
X102589465Y-69296121D02*
X102541846Y-69248502D01*
X102541846Y-69248502D02*
X102494227Y-69153264D01*
X102494227Y-69153264D02*
X102494227Y-69010407D01*
X102494227Y-69010407D02*
X102541846Y-68915169D01*
X102541846Y-68915169D02*
X102589465Y-68867550D01*
X102589465Y-68867550D02*
X102684703Y-68819931D01*
X102684703Y-68819931D02*
X103065655Y-68819931D01*
X102113274Y-68629455D02*
X101637084Y-68629455D01*
X102208512Y-68343740D02*
X101875179Y-69343740D01*
X101875179Y-69343740D02*
X101541846Y-68343740D01*
X101208512Y-68343740D02*
X101208512Y-69343740D01*
X101208512Y-69343740D02*
X100970417Y-69343740D01*
X100970417Y-69343740D02*
X100827560Y-69296121D01*
X100827560Y-69296121D02*
X100732322Y-69200883D01*
X100732322Y-69200883D02*
X100684703Y-69105645D01*
X100684703Y-69105645D02*
X100637084Y-68915169D01*
X100637084Y-68915169D02*
X100637084Y-68772312D01*
X100637084Y-68772312D02*
X100684703Y-68581836D01*
X100684703Y-68581836D02*
X100732322Y-68486598D01*
X100732322Y-68486598D02*
X100827560Y-68391360D01*
X100827560Y-68391360D02*
X100970417Y-68343740D01*
X100970417Y-68343740D02*
X101208512Y-68343740D01*
X104184703Y-66891360D02*
X104041846Y-66843740D01*
X104041846Y-66843740D02*
X103803751Y-66843740D01*
X103803751Y-66843740D02*
X103708513Y-66891360D01*
X103708513Y-66891360D02*
X103660894Y-66938979D01*
X103660894Y-66938979D02*
X103613275Y-67034217D01*
X103613275Y-67034217D02*
X103613275Y-67129455D01*
X103613275Y-67129455D02*
X103660894Y-67224693D01*
X103660894Y-67224693D02*
X103708513Y-67272312D01*
X103708513Y-67272312D02*
X103803751Y-67319931D01*
X103803751Y-67319931D02*
X103994227Y-67367550D01*
X103994227Y-67367550D02*
X104089465Y-67415169D01*
X104089465Y-67415169D02*
X104137084Y-67462788D01*
X104137084Y-67462788D02*
X104184703Y-67558026D01*
X104184703Y-67558026D02*
X104184703Y-67653264D01*
X104184703Y-67653264D02*
X104137084Y-67748502D01*
X104137084Y-67748502D02*
X104089465Y-67796121D01*
X104089465Y-67796121D02*
X103994227Y-67843740D01*
X103994227Y-67843740D02*
X103756132Y-67843740D01*
X103756132Y-67843740D02*
X103613275Y-67796121D01*
X103279941Y-67843740D02*
X103041846Y-66843740D01*
X103041846Y-66843740D02*
X102851370Y-67558026D01*
X102851370Y-67558026D02*
X102660894Y-66843740D01*
X102660894Y-66843740D02*
X102422799Y-67843740D01*
X101518037Y-66843740D02*
X102089465Y-66843740D01*
X101803751Y-66843740D02*
X101803751Y-67843740D01*
X101803751Y-67843740D02*
X101898989Y-67700883D01*
X101898989Y-67700883D02*
X101994227Y-67605645D01*
X101994227Y-67605645D02*
X102089465Y-67558026D01*
X100898989Y-67843740D02*
X100803751Y-67843740D01*
X100803751Y-67843740D02*
X100708513Y-67796121D01*
X100708513Y-67796121D02*
X100660894Y-67748502D01*
X100660894Y-67748502D02*
X100613275Y-67653264D01*
X100613275Y-67653264D02*
X100565656Y-67462788D01*
X100565656Y-67462788D02*
X100565656Y-67224693D01*
X100565656Y-67224693D02*
X100613275Y-67034217D01*
X100613275Y-67034217D02*
X100660894Y-66938979D01*
X100660894Y-66938979D02*
X100708513Y-66891360D01*
X100708513Y-66891360D02*
X100803751Y-66843740D01*
X100803751Y-66843740D02*
X100898989Y-66843740D01*
X100898989Y-66843740D02*
X100994227Y-66891360D01*
X100994227Y-66891360D02*
X101041846Y-66938979D01*
X101041846Y-66938979D02*
X101089465Y-67034217D01*
X101089465Y-67034217D02*
X101137084Y-67224693D01*
X101137084Y-67224693D02*
X101137084Y-67462788D01*
X101137084Y-67462788D02*
X101089465Y-67653264D01*
X101089465Y-67653264D02*
X101041846Y-67748502D01*
X101041846Y-67748502D02*
X100994227Y-67796121D01*
X100994227Y-67796121D02*
X100898989Y-67843740D01*
X98584513Y-69260579D02*
X98108323Y-69260579D01*
X98108323Y-69260579D02*
X98108323Y-68260579D01*
X99441656Y-69260579D02*
X98870228Y-69260579D01*
X99155942Y-69260579D02*
X99155942Y-68260579D01*
X99155942Y-68260579D02*
X99060704Y-68403436D01*
X99060704Y-68403436D02*
X98965466Y-68498674D01*
X98965466Y-68498674D02*
X98870228Y-68546293D01*
X107884513Y-69260579D02*
X107408323Y-69260579D01*
X107408323Y-69260579D02*
X107408323Y-68260579D01*
X108122609Y-68260579D02*
X108741656Y-68260579D01*
X108741656Y-68260579D02*
X108408323Y-68641531D01*
X108408323Y-68641531D02*
X108551180Y-68641531D01*
X108551180Y-68641531D02*
X108646418Y-68689150D01*
X108646418Y-68689150D02*
X108694037Y-68736769D01*
X108694037Y-68736769D02*
X108741656Y-68832007D01*
X108741656Y-68832007D02*
X108741656Y-69070102D01*
X108741656Y-69070102D02*
X108694037Y-69165340D01*
X108694037Y-69165340D02*
X108646418Y-69212960D01*
X108646418Y-69212960D02*
X108551180Y-69260579D01*
X108551180Y-69260579D02*
X108265466Y-69260579D01*
X108265466Y-69260579D02*
X108170228Y-69212960D01*
X108170228Y-69212960D02*
X108122609Y-69165340D01*
X178312462Y-53954519D02*
X177836272Y-53954519D01*
X177836272Y-53954519D02*
X177836272Y-52954519D01*
X179169605Y-53954519D02*
X178598177Y-53954519D01*
X178883891Y-53954519D02*
X178883891Y-52954519D01*
X178883891Y-52954519D02*
X178788653Y-53097376D01*
X178788653Y-53097376D02*
X178693415Y-53192614D01*
X178693415Y-53192614D02*
X178598177Y-53240233D01*
X180121986Y-53954519D02*
X179550558Y-53954519D01*
X179836272Y-53954519D02*
X179836272Y-52954519D01*
X179836272Y-52954519D02*
X179741034Y-53097376D01*
X179741034Y-53097376D02*
X179645796Y-53192614D01*
X179645796Y-53192614D02*
X179550558Y-53240233D01*
X137278333Y-52892619D02*
X136802143Y-52892619D01*
X136802143Y-52892619D02*
X136802143Y-51892619D01*
X137516429Y-51892619D02*
X138183095Y-51892619D01*
X138183095Y-51892619D02*
X137754524Y-52892619D01*
X152742177Y-51177909D02*
X152885034Y-51225528D01*
X152885034Y-51225528D02*
X152932653Y-51273147D01*
X152932653Y-51273147D02*
X152980272Y-51368385D01*
X152980272Y-51368385D02*
X152980272Y-51511242D01*
X152980272Y-51511242D02*
X152932653Y-51606480D01*
X152932653Y-51606480D02*
X152885034Y-51654100D01*
X152885034Y-51654100D02*
X152789796Y-51701719D01*
X152789796Y-51701719D02*
X152408844Y-51701719D01*
X152408844Y-51701719D02*
X152408844Y-50701719D01*
X152408844Y-50701719D02*
X152742177Y-50701719D01*
X152742177Y-50701719D02*
X152837415Y-50749338D01*
X152837415Y-50749338D02*
X152885034Y-50796957D01*
X152885034Y-50796957D02*
X152932653Y-50892195D01*
X152932653Y-50892195D02*
X152932653Y-50987433D01*
X152932653Y-50987433D02*
X152885034Y-51082671D01*
X152885034Y-51082671D02*
X152837415Y-51130290D01*
X152837415Y-51130290D02*
X152742177Y-51177909D01*
X152742177Y-51177909D02*
X152408844Y-51177909D01*
X153408844Y-51701719D02*
X153408844Y-50701719D01*
X153408844Y-50701719D02*
X153789796Y-50701719D01*
X153789796Y-50701719D02*
X153885034Y-50749338D01*
X153885034Y-50749338D02*
X153932653Y-50796957D01*
X153932653Y-50796957D02*
X153980272Y-50892195D01*
X153980272Y-50892195D02*
X153980272Y-51035052D01*
X153980272Y-51035052D02*
X153932653Y-51130290D01*
X153932653Y-51130290D02*
X153885034Y-51177909D01*
X153885034Y-51177909D02*
X153789796Y-51225528D01*
X153789796Y-51225528D02*
X153408844Y-51225528D01*
X154361225Y-51416004D02*
X154837415Y-51416004D01*
X154265987Y-51701719D02*
X154599320Y-50701719D01*
X154599320Y-50701719D02*
X154932653Y-51701719D01*
X155265987Y-51701719D02*
X155265987Y-50701719D01*
X155265987Y-50701719D02*
X155504082Y-50701719D01*
X155504082Y-50701719D02*
X155646939Y-50749338D01*
X155646939Y-50749338D02*
X155742177Y-50844576D01*
X155742177Y-50844576D02*
X155789796Y-50939814D01*
X155789796Y-50939814D02*
X155837415Y-51130290D01*
X155837415Y-51130290D02*
X155837415Y-51273147D01*
X155837415Y-51273147D02*
X155789796Y-51463623D01*
X155789796Y-51463623D02*
X155742177Y-51558861D01*
X155742177Y-51558861D02*
X155646939Y-51654100D01*
X155646939Y-51654100D02*
X155504082Y-51701719D01*
X155504082Y-51701719D02*
X155265987Y-51701719D01*
X152765987Y-53305100D02*
X152908844Y-53352719D01*
X152908844Y-53352719D02*
X153146939Y-53352719D01*
X153146939Y-53352719D02*
X153242177Y-53305100D01*
X153242177Y-53305100D02*
X153289796Y-53257480D01*
X153289796Y-53257480D02*
X153337415Y-53162242D01*
X153337415Y-53162242D02*
X153337415Y-53067004D01*
X153337415Y-53067004D02*
X153289796Y-52971766D01*
X153289796Y-52971766D02*
X153242177Y-52924147D01*
X153242177Y-52924147D02*
X153146939Y-52876528D01*
X153146939Y-52876528D02*
X152956463Y-52828909D01*
X152956463Y-52828909D02*
X152861225Y-52781290D01*
X152861225Y-52781290D02*
X152813606Y-52733671D01*
X152813606Y-52733671D02*
X152765987Y-52638433D01*
X152765987Y-52638433D02*
X152765987Y-52543195D01*
X152765987Y-52543195D02*
X152813606Y-52447957D01*
X152813606Y-52447957D02*
X152861225Y-52400338D01*
X152861225Y-52400338D02*
X152956463Y-52352719D01*
X152956463Y-52352719D02*
X153194558Y-52352719D01*
X153194558Y-52352719D02*
X153337415Y-52400338D01*
X153670749Y-52352719D02*
X153908844Y-53352719D01*
X153908844Y-53352719D02*
X154099320Y-52638433D01*
X154099320Y-52638433D02*
X154289796Y-53352719D01*
X154289796Y-53352719D02*
X154527892Y-52352719D01*
X154813606Y-52352719D02*
X155480272Y-52352719D01*
X155480272Y-52352719D02*
X155051701Y-53352719D01*
X166427142Y-43572619D02*
X165950952Y-43572619D01*
X165950952Y-43572619D02*
X165950952Y-42572619D01*
X167284285Y-43572619D02*
X166712857Y-43572619D01*
X166998571Y-43572619D02*
X166998571Y-42572619D01*
X166998571Y-42572619D02*
X166903333Y-42715476D01*
X166903333Y-42715476D02*
X166808095Y-42810714D01*
X166808095Y-42810714D02*
X166712857Y-42858333D01*
X167903333Y-42572619D02*
X167998571Y-42572619D01*
X167998571Y-42572619D02*
X168093809Y-42620238D01*
X168093809Y-42620238D02*
X168141428Y-42667857D01*
X168141428Y-42667857D02*
X168189047Y-42763095D01*
X168189047Y-42763095D02*
X168236666Y-42953571D01*
X168236666Y-42953571D02*
X168236666Y-43191666D01*
X168236666Y-43191666D02*
X168189047Y-43382142D01*
X168189047Y-43382142D02*
X168141428Y-43477380D01*
X168141428Y-43477380D02*
X168093809Y-43525000D01*
X168093809Y-43525000D02*
X167998571Y-43572619D01*
X167998571Y-43572619D02*
X167903333Y-43572619D01*
X167903333Y-43572619D02*
X167808095Y-43525000D01*
X167808095Y-43525000D02*
X167760476Y-43477380D01*
X167760476Y-43477380D02*
X167712857Y-43382142D01*
X167712857Y-43382142D02*
X167665238Y-43191666D01*
X167665238Y-43191666D02*
X167665238Y-42953571D01*
X167665238Y-42953571D02*
X167712857Y-42763095D01*
X167712857Y-42763095D02*
X167760476Y-42667857D01*
X167760476Y-42667857D02*
X167808095Y-42620238D01*
X167808095Y-42620238D02*
X167903333Y-42572619D01*
X176582177Y-51177909D02*
X176725034Y-51225528D01*
X176725034Y-51225528D02*
X176772653Y-51273147D01*
X176772653Y-51273147D02*
X176820272Y-51368385D01*
X176820272Y-51368385D02*
X176820272Y-51511242D01*
X176820272Y-51511242D02*
X176772653Y-51606480D01*
X176772653Y-51606480D02*
X176725034Y-51654100D01*
X176725034Y-51654100D02*
X176629796Y-51701719D01*
X176629796Y-51701719D02*
X176248844Y-51701719D01*
X176248844Y-51701719D02*
X176248844Y-50701719D01*
X176248844Y-50701719D02*
X176582177Y-50701719D01*
X176582177Y-50701719D02*
X176677415Y-50749338D01*
X176677415Y-50749338D02*
X176725034Y-50796957D01*
X176725034Y-50796957D02*
X176772653Y-50892195D01*
X176772653Y-50892195D02*
X176772653Y-50987433D01*
X176772653Y-50987433D02*
X176725034Y-51082671D01*
X176725034Y-51082671D02*
X176677415Y-51130290D01*
X176677415Y-51130290D02*
X176582177Y-51177909D01*
X176582177Y-51177909D02*
X176248844Y-51177909D01*
X177248844Y-51701719D02*
X177248844Y-50701719D01*
X177248844Y-50701719D02*
X177629796Y-50701719D01*
X177629796Y-50701719D02*
X177725034Y-50749338D01*
X177725034Y-50749338D02*
X177772653Y-50796957D01*
X177772653Y-50796957D02*
X177820272Y-50892195D01*
X177820272Y-50892195D02*
X177820272Y-51035052D01*
X177820272Y-51035052D02*
X177772653Y-51130290D01*
X177772653Y-51130290D02*
X177725034Y-51177909D01*
X177725034Y-51177909D02*
X177629796Y-51225528D01*
X177629796Y-51225528D02*
X177248844Y-51225528D01*
X178201225Y-51416004D02*
X178677415Y-51416004D01*
X178105987Y-51701719D02*
X178439320Y-50701719D01*
X178439320Y-50701719D02*
X178772653Y-51701719D01*
X179105987Y-51701719D02*
X179105987Y-50701719D01*
X179105987Y-50701719D02*
X179344082Y-50701719D01*
X179344082Y-50701719D02*
X179486939Y-50749338D01*
X179486939Y-50749338D02*
X179582177Y-50844576D01*
X179582177Y-50844576D02*
X179629796Y-50939814D01*
X179629796Y-50939814D02*
X179677415Y-51130290D01*
X179677415Y-51130290D02*
X179677415Y-51273147D01*
X179677415Y-51273147D02*
X179629796Y-51463623D01*
X179629796Y-51463623D02*
X179582177Y-51558861D01*
X179582177Y-51558861D02*
X179486939Y-51654100D01*
X179486939Y-51654100D02*
X179344082Y-51701719D01*
X179344082Y-51701719D02*
X179105987Y-51701719D01*
X176605987Y-53305100D02*
X176748844Y-53352719D01*
X176748844Y-53352719D02*
X176986939Y-53352719D01*
X176986939Y-53352719D02*
X177082177Y-53305100D01*
X177082177Y-53305100D02*
X177129796Y-53257480D01*
X177129796Y-53257480D02*
X177177415Y-53162242D01*
X177177415Y-53162242D02*
X177177415Y-53067004D01*
X177177415Y-53067004D02*
X177129796Y-52971766D01*
X177129796Y-52971766D02*
X177082177Y-52924147D01*
X177082177Y-52924147D02*
X176986939Y-52876528D01*
X176986939Y-52876528D02*
X176796463Y-52828909D01*
X176796463Y-52828909D02*
X176701225Y-52781290D01*
X176701225Y-52781290D02*
X176653606Y-52733671D01*
X176653606Y-52733671D02*
X176605987Y-52638433D01*
X176605987Y-52638433D02*
X176605987Y-52543195D01*
X176605987Y-52543195D02*
X176653606Y-52447957D01*
X176653606Y-52447957D02*
X176701225Y-52400338D01*
X176701225Y-52400338D02*
X176796463Y-52352719D01*
X176796463Y-52352719D02*
X177034558Y-52352719D01*
X177034558Y-52352719D02*
X177177415Y-52400338D01*
X177510749Y-52352719D02*
X177748844Y-53352719D01*
X177748844Y-53352719D02*
X177939320Y-52638433D01*
X177939320Y-52638433D02*
X178129796Y-53352719D01*
X178129796Y-53352719D02*
X178367892Y-52352719D01*
X179225034Y-52352719D02*
X178748844Y-52352719D01*
X178748844Y-52352719D02*
X178701225Y-52828909D01*
X178701225Y-52828909D02*
X178748844Y-52781290D01*
X178748844Y-52781290D02*
X178844082Y-52733671D01*
X178844082Y-52733671D02*
X179082177Y-52733671D01*
X179082177Y-52733671D02*
X179177415Y-52781290D01*
X179177415Y-52781290D02*
X179225034Y-52828909D01*
X179225034Y-52828909D02*
X179272653Y-52924147D01*
X179272653Y-52924147D02*
X179272653Y-53162242D01*
X179272653Y-53162242D02*
X179225034Y-53257480D01*
X179225034Y-53257480D02*
X179177415Y-53305100D01*
X179177415Y-53305100D02*
X179082177Y-53352719D01*
X179082177Y-53352719D02*
X178844082Y-53352719D01*
X178844082Y-53352719D02*
X178748844Y-53305100D01*
X178748844Y-53305100D02*
X178701225Y-53257480D01*
X164696857Y-61566009D02*
X164839714Y-61613628D01*
X164839714Y-61613628D02*
X164887333Y-61661247D01*
X164887333Y-61661247D02*
X164934952Y-61756485D01*
X164934952Y-61756485D02*
X164934952Y-61899342D01*
X164934952Y-61899342D02*
X164887333Y-61994580D01*
X164887333Y-61994580D02*
X164839714Y-62042200D01*
X164839714Y-62042200D02*
X164744476Y-62089819D01*
X164744476Y-62089819D02*
X164363524Y-62089819D01*
X164363524Y-62089819D02*
X164363524Y-61089819D01*
X164363524Y-61089819D02*
X164696857Y-61089819D01*
X164696857Y-61089819D02*
X164792095Y-61137438D01*
X164792095Y-61137438D02*
X164839714Y-61185057D01*
X164839714Y-61185057D02*
X164887333Y-61280295D01*
X164887333Y-61280295D02*
X164887333Y-61375533D01*
X164887333Y-61375533D02*
X164839714Y-61470771D01*
X164839714Y-61470771D02*
X164792095Y-61518390D01*
X164792095Y-61518390D02*
X164696857Y-61566009D01*
X164696857Y-61566009D02*
X164363524Y-61566009D01*
X165363524Y-62089819D02*
X165363524Y-61089819D01*
X165363524Y-61089819D02*
X165744476Y-61089819D01*
X165744476Y-61089819D02*
X165839714Y-61137438D01*
X165839714Y-61137438D02*
X165887333Y-61185057D01*
X165887333Y-61185057D02*
X165934952Y-61280295D01*
X165934952Y-61280295D02*
X165934952Y-61423152D01*
X165934952Y-61423152D02*
X165887333Y-61518390D01*
X165887333Y-61518390D02*
X165839714Y-61566009D01*
X165839714Y-61566009D02*
X165744476Y-61613628D01*
X165744476Y-61613628D02*
X165363524Y-61613628D01*
X166315905Y-61804104D02*
X166792095Y-61804104D01*
X166220667Y-62089819D02*
X166554000Y-61089819D01*
X166554000Y-61089819D02*
X166887333Y-62089819D01*
X167220667Y-62089819D02*
X167220667Y-61089819D01*
X167220667Y-61089819D02*
X167458762Y-61089819D01*
X167458762Y-61089819D02*
X167601619Y-61137438D01*
X167601619Y-61137438D02*
X167696857Y-61232676D01*
X167696857Y-61232676D02*
X167744476Y-61327914D01*
X167744476Y-61327914D02*
X167792095Y-61518390D01*
X167792095Y-61518390D02*
X167792095Y-61661247D01*
X167792095Y-61661247D02*
X167744476Y-61851723D01*
X167744476Y-61851723D02*
X167696857Y-61946961D01*
X167696857Y-61946961D02*
X167601619Y-62042200D01*
X167601619Y-62042200D02*
X167458762Y-62089819D01*
X167458762Y-62089819D02*
X167220667Y-62089819D01*
X164720667Y-63693200D02*
X164863524Y-63740819D01*
X164863524Y-63740819D02*
X165101619Y-63740819D01*
X165101619Y-63740819D02*
X165196857Y-63693200D01*
X165196857Y-63693200D02*
X165244476Y-63645580D01*
X165244476Y-63645580D02*
X165292095Y-63550342D01*
X165292095Y-63550342D02*
X165292095Y-63455104D01*
X165292095Y-63455104D02*
X165244476Y-63359866D01*
X165244476Y-63359866D02*
X165196857Y-63312247D01*
X165196857Y-63312247D02*
X165101619Y-63264628D01*
X165101619Y-63264628D02*
X164911143Y-63217009D01*
X164911143Y-63217009D02*
X164815905Y-63169390D01*
X164815905Y-63169390D02*
X164768286Y-63121771D01*
X164768286Y-63121771D02*
X164720667Y-63026533D01*
X164720667Y-63026533D02*
X164720667Y-62931295D01*
X164720667Y-62931295D02*
X164768286Y-62836057D01*
X164768286Y-62836057D02*
X164815905Y-62788438D01*
X164815905Y-62788438D02*
X164911143Y-62740819D01*
X164911143Y-62740819D02*
X165149238Y-62740819D01*
X165149238Y-62740819D02*
X165292095Y-62788438D01*
X165625429Y-62740819D02*
X165863524Y-63740819D01*
X165863524Y-63740819D02*
X166054000Y-63026533D01*
X166054000Y-63026533D02*
X166244476Y-63740819D01*
X166244476Y-63740819D02*
X166482572Y-62740819D01*
X167292095Y-62740819D02*
X167101619Y-62740819D01*
X167101619Y-62740819D02*
X167006381Y-62788438D01*
X167006381Y-62788438D02*
X166958762Y-62836057D01*
X166958762Y-62836057D02*
X166863524Y-62978914D01*
X166863524Y-62978914D02*
X166815905Y-63169390D01*
X166815905Y-63169390D02*
X166815905Y-63550342D01*
X166815905Y-63550342D02*
X166863524Y-63645580D01*
X166863524Y-63645580D02*
X166911143Y-63693200D01*
X166911143Y-63693200D02*
X167006381Y-63740819D01*
X167006381Y-63740819D02*
X167196857Y-63740819D01*
X167196857Y-63740819D02*
X167292095Y-63693200D01*
X167292095Y-63693200D02*
X167339714Y-63645580D01*
X167339714Y-63645580D02*
X167387333Y-63550342D01*
X167387333Y-63550342D02*
X167387333Y-63312247D01*
X167387333Y-63312247D02*
X167339714Y-63217009D01*
X167339714Y-63217009D02*
X167292095Y-63169390D01*
X167292095Y-63169390D02*
X167196857Y-63121771D01*
X167196857Y-63121771D02*
X167006381Y-63121771D01*
X167006381Y-63121771D02*
X166911143Y-63169390D01*
X166911143Y-63169390D02*
X166863524Y-63217009D01*
X166863524Y-63217009D02*
X166815905Y-63312247D01*
X130064952Y-35846619D02*
X130636380Y-35846619D01*
X130350666Y-36846619D02*
X130350666Y-35846619D01*
X131445904Y-36846619D02*
X130969714Y-36846619D01*
X130969714Y-36846619D02*
X130969714Y-35846619D01*
X131684000Y-35846619D02*
X132303047Y-35846619D01*
X132303047Y-35846619D02*
X131969714Y-36227571D01*
X131969714Y-36227571D02*
X132112571Y-36227571D01*
X132112571Y-36227571D02*
X132207809Y-36275190D01*
X132207809Y-36275190D02*
X132255428Y-36322809D01*
X132255428Y-36322809D02*
X132303047Y-36418047D01*
X132303047Y-36418047D02*
X132303047Y-36656142D01*
X132303047Y-36656142D02*
X132255428Y-36751380D01*
X132255428Y-36751380D02*
X132207809Y-36799000D01*
X132207809Y-36799000D02*
X132112571Y-36846619D01*
X132112571Y-36846619D02*
X131826857Y-36846619D01*
X131826857Y-36846619D02*
X131731619Y-36799000D01*
X131731619Y-36799000D02*
X131684000Y-36751380D01*
X132636381Y-35846619D02*
X133255428Y-35846619D01*
X133255428Y-35846619D02*
X132922095Y-36227571D01*
X132922095Y-36227571D02*
X133064952Y-36227571D01*
X133064952Y-36227571D02*
X133160190Y-36275190D01*
X133160190Y-36275190D02*
X133207809Y-36322809D01*
X133207809Y-36322809D02*
X133255428Y-36418047D01*
X133255428Y-36418047D02*
X133255428Y-36656142D01*
X133255428Y-36656142D02*
X133207809Y-36751380D01*
X133207809Y-36751380D02*
X133160190Y-36799000D01*
X133160190Y-36799000D02*
X133064952Y-36846619D01*
X133064952Y-36846619D02*
X132779238Y-36846619D01*
X132779238Y-36846619D02*
X132684000Y-36799000D01*
X132684000Y-36799000D02*
X132636381Y-36751380D01*
X134207809Y-36846619D02*
X133636381Y-36846619D01*
X133922095Y-36846619D02*
X133922095Y-35846619D01*
X133922095Y-35846619D02*
X133826857Y-35989476D01*
X133826857Y-35989476D02*
X133731619Y-36084714D01*
X133731619Y-36084714D02*
X133636381Y-36132333D01*
X135112571Y-35846619D02*
X134636381Y-35846619D01*
X134636381Y-35846619D02*
X134588762Y-36322809D01*
X134588762Y-36322809D02*
X134636381Y-36275190D01*
X134636381Y-36275190D02*
X134731619Y-36227571D01*
X134731619Y-36227571D02*
X134969714Y-36227571D01*
X134969714Y-36227571D02*
X135064952Y-36275190D01*
X135064952Y-36275190D02*
X135112571Y-36322809D01*
X135112571Y-36322809D02*
X135160190Y-36418047D01*
X135160190Y-36418047D02*
X135160190Y-36656142D01*
X135160190Y-36656142D02*
X135112571Y-36751380D01*
X135112571Y-36751380D02*
X135064952Y-36799000D01*
X135064952Y-36799000D02*
X134969714Y-36846619D01*
X134969714Y-36846619D02*
X134731619Y-36846619D01*
X134731619Y-36846619D02*
X134636381Y-36799000D01*
X134636381Y-36799000D02*
X134588762Y-36751380D01*
X135588762Y-36846619D02*
X135588762Y-35846619D01*
X135588762Y-35846619D02*
X136160190Y-36846619D01*
X136160190Y-36846619D02*
X136160190Y-35846619D01*
X136969714Y-36322809D02*
X136636381Y-36322809D01*
X136636381Y-36846619D02*
X136636381Y-35846619D01*
X136636381Y-35846619D02*
X137112571Y-35846619D01*
X138017333Y-36846619D02*
X137445905Y-36846619D01*
X137731619Y-36846619D02*
X137731619Y-35846619D01*
X137731619Y-35846619D02*
X137636381Y-35989476D01*
X137636381Y-35989476D02*
X137541143Y-36084714D01*
X137541143Y-36084714D02*
X137445905Y-36132333D01*
X138636381Y-35846619D02*
X138731619Y-35846619D01*
X138731619Y-35846619D02*
X138826857Y-35894238D01*
X138826857Y-35894238D02*
X138874476Y-35941857D01*
X138874476Y-35941857D02*
X138922095Y-36037095D01*
X138922095Y-36037095D02*
X138969714Y-36227571D01*
X138969714Y-36227571D02*
X138969714Y-36465666D01*
X138969714Y-36465666D02*
X138922095Y-36656142D01*
X138922095Y-36656142D02*
X138874476Y-36751380D01*
X138874476Y-36751380D02*
X138826857Y-36799000D01*
X138826857Y-36799000D02*
X138731619Y-36846619D01*
X138731619Y-36846619D02*
X138636381Y-36846619D01*
X138636381Y-36846619D02*
X138541143Y-36799000D01*
X138541143Y-36799000D02*
X138493524Y-36751380D01*
X138493524Y-36751380D02*
X138445905Y-36656142D01*
X138445905Y-36656142D02*
X138398286Y-36465666D01*
X138398286Y-36465666D02*
X138398286Y-36227571D01*
X138398286Y-36227571D02*
X138445905Y-36037095D01*
X138445905Y-36037095D02*
X138493524Y-35941857D01*
X138493524Y-35941857D02*
X138541143Y-35894238D01*
X138541143Y-35894238D02*
X138636381Y-35846619D01*
X139588762Y-35846619D02*
X139684000Y-35846619D01*
X139684000Y-35846619D02*
X139779238Y-35894238D01*
X139779238Y-35894238D02*
X139826857Y-35941857D01*
X139826857Y-35941857D02*
X139874476Y-36037095D01*
X139874476Y-36037095D02*
X139922095Y-36227571D01*
X139922095Y-36227571D02*
X139922095Y-36465666D01*
X139922095Y-36465666D02*
X139874476Y-36656142D01*
X139874476Y-36656142D02*
X139826857Y-36751380D01*
X139826857Y-36751380D02*
X139779238Y-36799000D01*
X139779238Y-36799000D02*
X139684000Y-36846619D01*
X139684000Y-36846619D02*
X139588762Y-36846619D01*
X139588762Y-36846619D02*
X139493524Y-36799000D01*
X139493524Y-36799000D02*
X139445905Y-36751380D01*
X139445905Y-36751380D02*
X139398286Y-36656142D01*
X139398286Y-36656142D02*
X139350667Y-36465666D01*
X139350667Y-36465666D02*
X139350667Y-36227571D01*
X139350667Y-36227571D02*
X139398286Y-36037095D01*
X139398286Y-36037095D02*
X139445905Y-35941857D01*
X139445905Y-35941857D02*
X139493524Y-35894238D01*
X139493524Y-35894238D02*
X139588762Y-35846619D01*
X141017333Y-36941857D02*
X140922095Y-36894238D01*
X140922095Y-36894238D02*
X140826857Y-36799000D01*
X140826857Y-36799000D02*
X140684000Y-36656142D01*
X140684000Y-36656142D02*
X140588762Y-36608523D01*
X140588762Y-36608523D02*
X140493524Y-36608523D01*
X140541143Y-36846619D02*
X140445905Y-36799000D01*
X140445905Y-36799000D02*
X140350667Y-36703761D01*
X140350667Y-36703761D02*
X140303048Y-36513285D01*
X140303048Y-36513285D02*
X140303048Y-36179952D01*
X140303048Y-36179952D02*
X140350667Y-35989476D01*
X140350667Y-35989476D02*
X140445905Y-35894238D01*
X140445905Y-35894238D02*
X140541143Y-35846619D01*
X140541143Y-35846619D02*
X140731619Y-35846619D01*
X140731619Y-35846619D02*
X140826857Y-35894238D01*
X140826857Y-35894238D02*
X140922095Y-35989476D01*
X140922095Y-35989476D02*
X140969714Y-36179952D01*
X140969714Y-36179952D02*
X140969714Y-36513285D01*
X140969714Y-36513285D02*
X140922095Y-36703761D01*
X140922095Y-36703761D02*
X140826857Y-36799000D01*
X140826857Y-36799000D02*
X140731619Y-36846619D01*
X140731619Y-36846619D02*
X140541143Y-36846619D01*
X145178333Y-41392619D02*
X144702143Y-41392619D01*
X144702143Y-41392619D02*
X144702143Y-40392619D01*
X145654524Y-40821190D02*
X145559286Y-40773571D01*
X145559286Y-40773571D02*
X145511667Y-40725952D01*
X145511667Y-40725952D02*
X145464048Y-40630714D01*
X145464048Y-40630714D02*
X145464048Y-40583095D01*
X145464048Y-40583095D02*
X145511667Y-40487857D01*
X145511667Y-40487857D02*
X145559286Y-40440238D01*
X145559286Y-40440238D02*
X145654524Y-40392619D01*
X145654524Y-40392619D02*
X145845000Y-40392619D01*
X145845000Y-40392619D02*
X145940238Y-40440238D01*
X145940238Y-40440238D02*
X145987857Y-40487857D01*
X145987857Y-40487857D02*
X146035476Y-40583095D01*
X146035476Y-40583095D02*
X146035476Y-40630714D01*
X146035476Y-40630714D02*
X145987857Y-40725952D01*
X145987857Y-40725952D02*
X145940238Y-40773571D01*
X145940238Y-40773571D02*
X145845000Y-40821190D01*
X145845000Y-40821190D02*
X145654524Y-40821190D01*
X145654524Y-40821190D02*
X145559286Y-40868809D01*
X145559286Y-40868809D02*
X145511667Y-40916428D01*
X145511667Y-40916428D02*
X145464048Y-41011666D01*
X145464048Y-41011666D02*
X145464048Y-41202142D01*
X145464048Y-41202142D02*
X145511667Y-41297380D01*
X145511667Y-41297380D02*
X145559286Y-41345000D01*
X145559286Y-41345000D02*
X145654524Y-41392619D01*
X145654524Y-41392619D02*
X145845000Y-41392619D01*
X145845000Y-41392619D02*
X145940238Y-41345000D01*
X145940238Y-41345000D02*
X145987857Y-41297380D01*
X145987857Y-41297380D02*
X146035476Y-41202142D01*
X146035476Y-41202142D02*
X146035476Y-41011666D01*
X146035476Y-41011666D02*
X145987857Y-40916428D01*
X145987857Y-40916428D02*
X145940238Y-40868809D01*
X145940238Y-40868809D02*
X145845000Y-40821190D01*
X99283399Y-66932435D02*
X98283399Y-66932435D01*
X98283399Y-66932435D02*
X98283399Y-66694340D01*
X98283399Y-66694340D02*
X98331018Y-66551483D01*
X98331018Y-66551483D02*
X98426256Y-66456245D01*
X98426256Y-66456245D02*
X98521494Y-66408626D01*
X98521494Y-66408626D02*
X98711970Y-66361007D01*
X98711970Y-66361007D02*
X98854827Y-66361007D01*
X98854827Y-66361007D02*
X99045303Y-66408626D01*
X99045303Y-66408626D02*
X99140541Y-66456245D01*
X99140541Y-66456245D02*
X99235780Y-66551483D01*
X99235780Y-66551483D02*
X99283399Y-66694340D01*
X99283399Y-66694340D02*
X99283399Y-66932435D01*
X99283399Y-65932435D02*
X98283399Y-65932435D01*
X98283399Y-65932435D02*
X98283399Y-65551483D01*
X98283399Y-65551483D02*
X98331018Y-65456245D01*
X98331018Y-65456245D02*
X98378637Y-65408626D01*
X98378637Y-65408626D02*
X98473875Y-65361007D01*
X98473875Y-65361007D02*
X98616732Y-65361007D01*
X98616732Y-65361007D02*
X98711970Y-65408626D01*
X98711970Y-65408626D02*
X98759589Y-65456245D01*
X98759589Y-65456245D02*
X98807208Y-65551483D01*
X98807208Y-65551483D02*
X98807208Y-65932435D01*
X98997684Y-64980054D02*
X98997684Y-64503864D01*
X99283399Y-65075292D02*
X98283399Y-64741959D01*
X98283399Y-64741959D02*
X99283399Y-64408626D01*
X99283399Y-64075292D02*
X98283399Y-64075292D01*
X98283399Y-64075292D02*
X98283399Y-63837197D01*
X98283399Y-63837197D02*
X98331018Y-63694340D01*
X98331018Y-63694340D02*
X98426256Y-63599102D01*
X98426256Y-63599102D02*
X98521494Y-63551483D01*
X98521494Y-63551483D02*
X98711970Y-63503864D01*
X98711970Y-63503864D02*
X98854827Y-63503864D01*
X98854827Y-63503864D02*
X99045303Y-63551483D01*
X99045303Y-63551483D02*
X99140541Y-63599102D01*
X99140541Y-63599102D02*
X99235780Y-63694340D01*
X99235780Y-63694340D02*
X99283399Y-63837197D01*
X99283399Y-63837197D02*
X99283399Y-64075292D01*
X100735780Y-66575292D02*
X100783399Y-66432435D01*
X100783399Y-66432435D02*
X100783399Y-66194340D01*
X100783399Y-66194340D02*
X100735780Y-66099102D01*
X100735780Y-66099102D02*
X100688160Y-66051483D01*
X100688160Y-66051483D02*
X100592922Y-66003864D01*
X100592922Y-66003864D02*
X100497684Y-66003864D01*
X100497684Y-66003864D02*
X100402446Y-66051483D01*
X100402446Y-66051483D02*
X100354827Y-66099102D01*
X100354827Y-66099102D02*
X100307208Y-66194340D01*
X100307208Y-66194340D02*
X100259589Y-66384816D01*
X100259589Y-66384816D02*
X100211970Y-66480054D01*
X100211970Y-66480054D02*
X100164351Y-66527673D01*
X100164351Y-66527673D02*
X100069113Y-66575292D01*
X100069113Y-66575292D02*
X99973875Y-66575292D01*
X99973875Y-66575292D02*
X99878637Y-66527673D01*
X99878637Y-66527673D02*
X99831018Y-66480054D01*
X99831018Y-66480054D02*
X99783399Y-66384816D01*
X99783399Y-66384816D02*
X99783399Y-66146721D01*
X99783399Y-66146721D02*
X99831018Y-66003864D01*
X99783399Y-65670530D02*
X100783399Y-65432435D01*
X100783399Y-65432435D02*
X100069113Y-65241959D01*
X100069113Y-65241959D02*
X100783399Y-65051483D01*
X100783399Y-65051483D02*
X99783399Y-64813388D01*
X100783399Y-64384816D02*
X100783399Y-64194340D01*
X100783399Y-64194340D02*
X100735780Y-64099102D01*
X100735780Y-64099102D02*
X100688160Y-64051483D01*
X100688160Y-64051483D02*
X100545303Y-63956245D01*
X100545303Y-63956245D02*
X100354827Y-63908626D01*
X100354827Y-63908626D02*
X99973875Y-63908626D01*
X99973875Y-63908626D02*
X99878637Y-63956245D01*
X99878637Y-63956245D02*
X99831018Y-64003864D01*
X99831018Y-64003864D02*
X99783399Y-64099102D01*
X99783399Y-64099102D02*
X99783399Y-64289578D01*
X99783399Y-64289578D02*
X99831018Y-64384816D01*
X99831018Y-64384816D02*
X99878637Y-64432435D01*
X99878637Y-64432435D02*
X99973875Y-64480054D01*
X99973875Y-64480054D02*
X100211970Y-64480054D01*
X100211970Y-64480054D02*
X100307208Y-64432435D01*
X100307208Y-64432435D02*
X100354827Y-64384816D01*
X100354827Y-64384816D02*
X100402446Y-64289578D01*
X100402446Y-64289578D02*
X100402446Y-64099102D01*
X100402446Y-64099102D02*
X100354827Y-64003864D01*
X100354827Y-64003864D02*
X100307208Y-63956245D01*
X100307208Y-63956245D02*
X100211970Y-63908626D01*
X164696857Y-40796009D02*
X164839714Y-40843628D01*
X164839714Y-40843628D02*
X164887333Y-40891247D01*
X164887333Y-40891247D02*
X164934952Y-40986485D01*
X164934952Y-40986485D02*
X164934952Y-41129342D01*
X164934952Y-41129342D02*
X164887333Y-41224580D01*
X164887333Y-41224580D02*
X164839714Y-41272200D01*
X164839714Y-41272200D02*
X164744476Y-41319819D01*
X164744476Y-41319819D02*
X164363524Y-41319819D01*
X164363524Y-41319819D02*
X164363524Y-40319819D01*
X164363524Y-40319819D02*
X164696857Y-40319819D01*
X164696857Y-40319819D02*
X164792095Y-40367438D01*
X164792095Y-40367438D02*
X164839714Y-40415057D01*
X164839714Y-40415057D02*
X164887333Y-40510295D01*
X164887333Y-40510295D02*
X164887333Y-40605533D01*
X164887333Y-40605533D02*
X164839714Y-40700771D01*
X164839714Y-40700771D02*
X164792095Y-40748390D01*
X164792095Y-40748390D02*
X164696857Y-40796009D01*
X164696857Y-40796009D02*
X164363524Y-40796009D01*
X165363524Y-41319819D02*
X165363524Y-40319819D01*
X165363524Y-40319819D02*
X165744476Y-40319819D01*
X165744476Y-40319819D02*
X165839714Y-40367438D01*
X165839714Y-40367438D02*
X165887333Y-40415057D01*
X165887333Y-40415057D02*
X165934952Y-40510295D01*
X165934952Y-40510295D02*
X165934952Y-40653152D01*
X165934952Y-40653152D02*
X165887333Y-40748390D01*
X165887333Y-40748390D02*
X165839714Y-40796009D01*
X165839714Y-40796009D02*
X165744476Y-40843628D01*
X165744476Y-40843628D02*
X165363524Y-40843628D01*
X166315905Y-41034104D02*
X166792095Y-41034104D01*
X166220667Y-41319819D02*
X166554000Y-40319819D01*
X166554000Y-40319819D02*
X166887333Y-41319819D01*
X167220667Y-41319819D02*
X167220667Y-40319819D01*
X167220667Y-40319819D02*
X167458762Y-40319819D01*
X167458762Y-40319819D02*
X167601619Y-40367438D01*
X167601619Y-40367438D02*
X167696857Y-40462676D01*
X167696857Y-40462676D02*
X167744476Y-40557914D01*
X167744476Y-40557914D02*
X167792095Y-40748390D01*
X167792095Y-40748390D02*
X167792095Y-40891247D01*
X167792095Y-40891247D02*
X167744476Y-41081723D01*
X167744476Y-41081723D02*
X167696857Y-41176961D01*
X167696857Y-41176961D02*
X167601619Y-41272200D01*
X167601619Y-41272200D02*
X167458762Y-41319819D01*
X167458762Y-41319819D02*
X167220667Y-41319819D01*
X164720667Y-42923200D02*
X164863524Y-42970819D01*
X164863524Y-42970819D02*
X165101619Y-42970819D01*
X165101619Y-42970819D02*
X165196857Y-42923200D01*
X165196857Y-42923200D02*
X165244476Y-42875580D01*
X165244476Y-42875580D02*
X165292095Y-42780342D01*
X165292095Y-42780342D02*
X165292095Y-42685104D01*
X165292095Y-42685104D02*
X165244476Y-42589866D01*
X165244476Y-42589866D02*
X165196857Y-42542247D01*
X165196857Y-42542247D02*
X165101619Y-42494628D01*
X165101619Y-42494628D02*
X164911143Y-42447009D01*
X164911143Y-42447009D02*
X164815905Y-42399390D01*
X164815905Y-42399390D02*
X164768286Y-42351771D01*
X164768286Y-42351771D02*
X164720667Y-42256533D01*
X164720667Y-42256533D02*
X164720667Y-42161295D01*
X164720667Y-42161295D02*
X164768286Y-42066057D01*
X164768286Y-42066057D02*
X164815905Y-42018438D01*
X164815905Y-42018438D02*
X164911143Y-41970819D01*
X164911143Y-41970819D02*
X165149238Y-41970819D01*
X165149238Y-41970819D02*
X165292095Y-42018438D01*
X165625429Y-41970819D02*
X165863524Y-42970819D01*
X165863524Y-42970819D02*
X166054000Y-42256533D01*
X166054000Y-42256533D02*
X166244476Y-42970819D01*
X166244476Y-42970819D02*
X166482572Y-41970819D01*
X167006381Y-42399390D02*
X166911143Y-42351771D01*
X166911143Y-42351771D02*
X166863524Y-42304152D01*
X166863524Y-42304152D02*
X166815905Y-42208914D01*
X166815905Y-42208914D02*
X166815905Y-42161295D01*
X166815905Y-42161295D02*
X166863524Y-42066057D01*
X166863524Y-42066057D02*
X166911143Y-42018438D01*
X166911143Y-42018438D02*
X167006381Y-41970819D01*
X167006381Y-41970819D02*
X167196857Y-41970819D01*
X167196857Y-41970819D02*
X167292095Y-42018438D01*
X167292095Y-42018438D02*
X167339714Y-42066057D01*
X167339714Y-42066057D02*
X167387333Y-42161295D01*
X167387333Y-42161295D02*
X167387333Y-42208914D01*
X167387333Y-42208914D02*
X167339714Y-42304152D01*
X167339714Y-42304152D02*
X167292095Y-42351771D01*
X167292095Y-42351771D02*
X167196857Y-42399390D01*
X167196857Y-42399390D02*
X167006381Y-42399390D01*
X167006381Y-42399390D02*
X166911143Y-42447009D01*
X166911143Y-42447009D02*
X166863524Y-42494628D01*
X166863524Y-42494628D02*
X166815905Y-42589866D01*
X166815905Y-42589866D02*
X166815905Y-42780342D01*
X166815905Y-42780342D02*
X166863524Y-42875580D01*
X166863524Y-42875580D02*
X166911143Y-42923200D01*
X166911143Y-42923200D02*
X167006381Y-42970819D01*
X167006381Y-42970819D02*
X167196857Y-42970819D01*
X167196857Y-42970819D02*
X167292095Y-42923200D01*
X167292095Y-42923200D02*
X167339714Y-42875580D01*
X167339714Y-42875580D02*
X167387333Y-42780342D01*
X167387333Y-42780342D02*
X167387333Y-42589866D01*
X167387333Y-42589866D02*
X167339714Y-42494628D01*
X167339714Y-42494628D02*
X167292095Y-42447009D01*
X167292095Y-42447009D02*
X167196857Y-42399390D01*
X105486960Y-63551484D02*
X106486960Y-63551484D01*
X106486960Y-63551484D02*
X106486960Y-63789579D01*
X106486960Y-63789579D02*
X106439341Y-63932436D01*
X106439341Y-63932436D02*
X106344103Y-64027674D01*
X106344103Y-64027674D02*
X106248865Y-64075293D01*
X106248865Y-64075293D02*
X106058389Y-64122912D01*
X106058389Y-64122912D02*
X105915532Y-64122912D01*
X105915532Y-64122912D02*
X105725056Y-64075293D01*
X105725056Y-64075293D02*
X105629818Y-64027674D01*
X105629818Y-64027674D02*
X105534580Y-63932436D01*
X105534580Y-63932436D02*
X105486960Y-63789579D01*
X105486960Y-63789579D02*
X105486960Y-63551484D01*
X105486960Y-64551484D02*
X106486960Y-64551484D01*
X106486960Y-64551484D02*
X106486960Y-64932436D01*
X106486960Y-64932436D02*
X106439341Y-65027674D01*
X106439341Y-65027674D02*
X106391722Y-65075293D01*
X106391722Y-65075293D02*
X106296484Y-65122912D01*
X106296484Y-65122912D02*
X106153627Y-65122912D01*
X106153627Y-65122912D02*
X106058389Y-65075293D01*
X106058389Y-65075293D02*
X106010770Y-65027674D01*
X106010770Y-65027674D02*
X105963151Y-64932436D01*
X105963151Y-64932436D02*
X105963151Y-64551484D01*
X105772675Y-65503865D02*
X105772675Y-65980055D01*
X105486960Y-65408627D02*
X106486960Y-65741960D01*
X106486960Y-65741960D02*
X105486960Y-66075293D01*
X105486960Y-66408627D02*
X106486960Y-66408627D01*
X106486960Y-66408627D02*
X106486960Y-66646722D01*
X106486960Y-66646722D02*
X106439341Y-66789579D01*
X106439341Y-66789579D02*
X106344103Y-66884817D01*
X106344103Y-66884817D02*
X106248865Y-66932436D01*
X106248865Y-66932436D02*
X106058389Y-66980055D01*
X106058389Y-66980055D02*
X105915532Y-66980055D01*
X105915532Y-66980055D02*
X105725056Y-66932436D01*
X105725056Y-66932436D02*
X105629818Y-66884817D01*
X105629818Y-66884817D02*
X105534580Y-66789579D01*
X105534580Y-66789579D02*
X105486960Y-66646722D01*
X105486960Y-66646722D02*
X105486960Y-66408627D01*
X104034580Y-63432436D02*
X103986960Y-63575293D01*
X103986960Y-63575293D02*
X103986960Y-63813388D01*
X103986960Y-63813388D02*
X104034580Y-63908626D01*
X104034580Y-63908626D02*
X104082199Y-63956245D01*
X104082199Y-63956245D02*
X104177437Y-64003864D01*
X104177437Y-64003864D02*
X104272675Y-64003864D01*
X104272675Y-64003864D02*
X104367913Y-63956245D01*
X104367913Y-63956245D02*
X104415532Y-63908626D01*
X104415532Y-63908626D02*
X104463151Y-63813388D01*
X104463151Y-63813388D02*
X104510770Y-63622912D01*
X104510770Y-63622912D02*
X104558389Y-63527674D01*
X104558389Y-63527674D02*
X104606008Y-63480055D01*
X104606008Y-63480055D02*
X104701246Y-63432436D01*
X104701246Y-63432436D02*
X104796484Y-63432436D01*
X104796484Y-63432436D02*
X104891722Y-63480055D01*
X104891722Y-63480055D02*
X104939341Y-63527674D01*
X104939341Y-63527674D02*
X104986960Y-63622912D01*
X104986960Y-63622912D02*
X104986960Y-63861007D01*
X104986960Y-63861007D02*
X104939341Y-64003864D01*
X104986960Y-64337198D02*
X103986960Y-64575293D01*
X103986960Y-64575293D02*
X104701246Y-64765769D01*
X104701246Y-64765769D02*
X103986960Y-64956245D01*
X103986960Y-64956245D02*
X104986960Y-65194341D01*
X103986960Y-66099102D02*
X103986960Y-65527674D01*
X103986960Y-65813388D02*
X104986960Y-65813388D01*
X104986960Y-65813388D02*
X104844103Y-65718150D01*
X104844103Y-65718150D02*
X104748865Y-65622912D01*
X104748865Y-65622912D02*
X104701246Y-65527674D01*
X103986960Y-67051483D02*
X103986960Y-66480055D01*
X103986960Y-66765769D02*
X104986960Y-66765769D01*
X104986960Y-66765769D02*
X104844103Y-66670531D01*
X104844103Y-66670531D02*
X104748865Y-66575293D01*
X104748865Y-66575293D02*
X104701246Y-66480055D01*
X100714704Y-62130179D02*
X100714704Y-61130179D01*
X100714704Y-61130179D02*
X100952799Y-61130179D01*
X100952799Y-61130179D02*
X101095656Y-61177798D01*
X101095656Y-61177798D02*
X101190894Y-61273036D01*
X101190894Y-61273036D02*
X101238513Y-61368274D01*
X101238513Y-61368274D02*
X101286132Y-61558750D01*
X101286132Y-61558750D02*
X101286132Y-61701607D01*
X101286132Y-61701607D02*
X101238513Y-61892083D01*
X101238513Y-61892083D02*
X101190894Y-61987321D01*
X101190894Y-61987321D02*
X101095656Y-62082560D01*
X101095656Y-62082560D02*
X100952799Y-62130179D01*
X100952799Y-62130179D02*
X100714704Y-62130179D01*
X101714704Y-62130179D02*
X101714704Y-61130179D01*
X101714704Y-61130179D02*
X102095656Y-61130179D01*
X102095656Y-61130179D02*
X102190894Y-61177798D01*
X102190894Y-61177798D02*
X102238513Y-61225417D01*
X102238513Y-61225417D02*
X102286132Y-61320655D01*
X102286132Y-61320655D02*
X102286132Y-61463512D01*
X102286132Y-61463512D02*
X102238513Y-61558750D01*
X102238513Y-61558750D02*
X102190894Y-61606369D01*
X102190894Y-61606369D02*
X102095656Y-61653988D01*
X102095656Y-61653988D02*
X101714704Y-61653988D01*
X102667085Y-61844464D02*
X103143275Y-61844464D01*
X102571847Y-62130179D02*
X102905180Y-61130179D01*
X102905180Y-61130179D02*
X103238513Y-62130179D01*
X103571847Y-62130179D02*
X103571847Y-61130179D01*
X103571847Y-61130179D02*
X103809942Y-61130179D01*
X103809942Y-61130179D02*
X103952799Y-61177798D01*
X103952799Y-61177798D02*
X104048037Y-61273036D01*
X104048037Y-61273036D02*
X104095656Y-61368274D01*
X104095656Y-61368274D02*
X104143275Y-61558750D01*
X104143275Y-61558750D02*
X104143275Y-61701607D01*
X104143275Y-61701607D02*
X104095656Y-61892083D01*
X104095656Y-61892083D02*
X104048037Y-61987321D01*
X104048037Y-61987321D02*
X103952799Y-62082560D01*
X103952799Y-62082560D02*
X103809942Y-62130179D01*
X103809942Y-62130179D02*
X103571847Y-62130179D01*
X100595656Y-63582560D02*
X100738513Y-63630179D01*
X100738513Y-63630179D02*
X100976608Y-63630179D01*
X100976608Y-63630179D02*
X101071846Y-63582560D01*
X101071846Y-63582560D02*
X101119465Y-63534940D01*
X101119465Y-63534940D02*
X101167084Y-63439702D01*
X101167084Y-63439702D02*
X101167084Y-63344464D01*
X101167084Y-63344464D02*
X101119465Y-63249226D01*
X101119465Y-63249226D02*
X101071846Y-63201607D01*
X101071846Y-63201607D02*
X100976608Y-63153988D01*
X100976608Y-63153988D02*
X100786132Y-63106369D01*
X100786132Y-63106369D02*
X100690894Y-63058750D01*
X100690894Y-63058750D02*
X100643275Y-63011131D01*
X100643275Y-63011131D02*
X100595656Y-62915893D01*
X100595656Y-62915893D02*
X100595656Y-62820655D01*
X100595656Y-62820655D02*
X100643275Y-62725417D01*
X100643275Y-62725417D02*
X100690894Y-62677798D01*
X100690894Y-62677798D02*
X100786132Y-62630179D01*
X100786132Y-62630179D02*
X101024227Y-62630179D01*
X101024227Y-62630179D02*
X101167084Y-62677798D01*
X101500418Y-62630179D02*
X101738513Y-63630179D01*
X101738513Y-63630179D02*
X101928989Y-62915893D01*
X101928989Y-62915893D02*
X102119465Y-63630179D01*
X102119465Y-63630179D02*
X102357561Y-62630179D01*
X103262322Y-63630179D02*
X102690894Y-63630179D01*
X102976608Y-63630179D02*
X102976608Y-62630179D01*
X102976608Y-62630179D02*
X102881370Y-62773036D01*
X102881370Y-62773036D02*
X102786132Y-62868274D01*
X102786132Y-62868274D02*
X102690894Y-62915893D01*
X103643275Y-62725417D02*
X103690894Y-62677798D01*
X103690894Y-62677798D02*
X103786132Y-62630179D01*
X103786132Y-62630179D02*
X104024227Y-62630179D01*
X104024227Y-62630179D02*
X104119465Y-62677798D01*
X104119465Y-62677798D02*
X104167084Y-62725417D01*
X104167084Y-62725417D02*
X104214703Y-62820655D01*
X104214703Y-62820655D02*
X104214703Y-62915893D01*
X104214703Y-62915893D02*
X104167084Y-63058750D01*
X104167084Y-63058750D02*
X103595656Y-63630179D01*
X103595656Y-63630179D02*
X104214703Y-63630179D01*
M02*
