G04 #@! TF.GenerationSoftware,KiCad,Pcbnew,7.0.2*
G04 #@! TF.CreationDate,2023-05-05T22:29:22-07:00*
G04 #@! TF.ProjectId,procon_gcc_button_board,70726f63-6f6e-45f6-9763-635f62757474,rev?*
G04 #@! TF.SameCoordinates,Original*
G04 #@! TF.FileFunction,AssemblyDrawing,Bot*
%FSLAX46Y46*%
G04 Gerber Fmt 4.6, Leading zero omitted, Abs format (unit mm)*
G04 Created by KiCad (PCBNEW 7.0.2) date 2023-05-05 22:29:22*
%MOMM*%
%LPD*%
G01*
G04 APERTURE LIST*
%ADD10C,0.075000*%
%ADD11C,0.150000*%
%ADD12C,0.100000*%
G04 APERTURE END LIST*
D10*
X129401047Y-79479309D02*
X129401047Y-78979309D01*
X129401047Y-78979309D02*
X129281999Y-78979309D01*
X129281999Y-78979309D02*
X129210571Y-79003119D01*
X129210571Y-79003119D02*
X129162952Y-79050738D01*
X129162952Y-79050738D02*
X129139142Y-79098357D01*
X129139142Y-79098357D02*
X129115333Y-79193595D01*
X129115333Y-79193595D02*
X129115333Y-79265023D01*
X129115333Y-79265023D02*
X129139142Y-79360261D01*
X129139142Y-79360261D02*
X129162952Y-79407880D01*
X129162952Y-79407880D02*
X129210571Y-79455500D01*
X129210571Y-79455500D02*
X129281999Y-79479309D01*
X129281999Y-79479309D02*
X129401047Y-79479309D01*
X128924856Y-79026928D02*
X128901047Y-79003119D01*
X128901047Y-79003119D02*
X128853428Y-78979309D01*
X128853428Y-78979309D02*
X128734380Y-78979309D01*
X128734380Y-78979309D02*
X128686761Y-79003119D01*
X128686761Y-79003119D02*
X128662952Y-79026928D01*
X128662952Y-79026928D02*
X128639142Y-79074547D01*
X128639142Y-79074547D02*
X128639142Y-79122166D01*
X128639142Y-79122166D02*
X128662952Y-79193595D01*
X128662952Y-79193595D02*
X128948666Y-79479309D01*
X128948666Y-79479309D02*
X128639142Y-79479309D01*
D11*
X119826809Y-82558476D02*
X119874428Y-82701333D01*
X119874428Y-82701333D02*
X119922047Y-82748952D01*
X119922047Y-82748952D02*
X120017285Y-82796571D01*
X120017285Y-82796571D02*
X120160142Y-82796571D01*
X120160142Y-82796571D02*
X120255380Y-82748952D01*
X120255380Y-82748952D02*
X120303000Y-82701333D01*
X120303000Y-82701333D02*
X120350619Y-82606095D01*
X120350619Y-82606095D02*
X120350619Y-82225143D01*
X120350619Y-82225143D02*
X119350619Y-82225143D01*
X119350619Y-82225143D02*
X119350619Y-82558476D01*
X119350619Y-82558476D02*
X119398238Y-82653714D01*
X119398238Y-82653714D02*
X119445857Y-82701333D01*
X119445857Y-82701333D02*
X119541095Y-82748952D01*
X119541095Y-82748952D02*
X119636333Y-82748952D01*
X119636333Y-82748952D02*
X119731571Y-82701333D01*
X119731571Y-82701333D02*
X119779190Y-82653714D01*
X119779190Y-82653714D02*
X119826809Y-82558476D01*
X119826809Y-82558476D02*
X119826809Y-82225143D01*
X120064904Y-83177524D02*
X120064904Y-83653714D01*
X120350619Y-83082286D02*
X119350619Y-83415619D01*
X119350619Y-83415619D02*
X120350619Y-83748952D01*
X120303000Y-84034667D02*
X120350619Y-84177524D01*
X120350619Y-84177524D02*
X120350619Y-84415619D01*
X120350619Y-84415619D02*
X120303000Y-84510857D01*
X120303000Y-84510857D02*
X120255380Y-84558476D01*
X120255380Y-84558476D02*
X120160142Y-84606095D01*
X120160142Y-84606095D02*
X120064904Y-84606095D01*
X120064904Y-84606095D02*
X119969666Y-84558476D01*
X119969666Y-84558476D02*
X119922047Y-84510857D01*
X119922047Y-84510857D02*
X119874428Y-84415619D01*
X119874428Y-84415619D02*
X119826809Y-84225143D01*
X119826809Y-84225143D02*
X119779190Y-84129905D01*
X119779190Y-84129905D02*
X119731571Y-84082286D01*
X119731571Y-84082286D02*
X119636333Y-84034667D01*
X119636333Y-84034667D02*
X119541095Y-84034667D01*
X119541095Y-84034667D02*
X119445857Y-84082286D01*
X119445857Y-84082286D02*
X119398238Y-84129905D01*
X119398238Y-84129905D02*
X119350619Y-84225143D01*
X119350619Y-84225143D02*
X119350619Y-84463238D01*
X119350619Y-84463238D02*
X119398238Y-84606095D01*
X120350619Y-85558476D02*
X120350619Y-84987048D01*
X120350619Y-85272762D02*
X119350619Y-85272762D01*
X119350619Y-85272762D02*
X119493476Y-85177524D01*
X119493476Y-85177524D02*
X119588714Y-85082286D01*
X119588714Y-85082286D02*
X119636333Y-84987048D01*
X119350619Y-86415619D02*
X119350619Y-86225143D01*
X119350619Y-86225143D02*
X119398238Y-86129905D01*
X119398238Y-86129905D02*
X119445857Y-86082286D01*
X119445857Y-86082286D02*
X119588714Y-85987048D01*
X119588714Y-85987048D02*
X119779190Y-85939429D01*
X119779190Y-85939429D02*
X120160142Y-85939429D01*
X120160142Y-85939429D02*
X120255380Y-85987048D01*
X120255380Y-85987048D02*
X120303000Y-86034667D01*
X120303000Y-86034667D02*
X120350619Y-86129905D01*
X120350619Y-86129905D02*
X120350619Y-86320381D01*
X120350619Y-86320381D02*
X120303000Y-86415619D01*
X120303000Y-86415619D02*
X120255380Y-86463238D01*
X120255380Y-86463238D02*
X120160142Y-86510857D01*
X120160142Y-86510857D02*
X119922047Y-86510857D01*
X119922047Y-86510857D02*
X119826809Y-86463238D01*
X119826809Y-86463238D02*
X119779190Y-86415619D01*
X119779190Y-86415619D02*
X119731571Y-86320381D01*
X119731571Y-86320381D02*
X119731571Y-86129905D01*
X119731571Y-86129905D02*
X119779190Y-86034667D01*
X119779190Y-86034667D02*
X119826809Y-85987048D01*
X119826809Y-85987048D02*
X119922047Y-85939429D01*
X119350619Y-86796572D02*
X120350619Y-87129905D01*
X120350619Y-87129905D02*
X119350619Y-87463238D01*
X119874428Y-87987048D02*
X120350619Y-87987048D01*
X119350619Y-87653715D02*
X119874428Y-87987048D01*
X119874428Y-87987048D02*
X119350619Y-88320381D01*
X120303000Y-88701334D02*
X120350619Y-88701334D01*
X120350619Y-88701334D02*
X120445857Y-88653715D01*
X120445857Y-88653715D02*
X120493476Y-88606096D01*
X120350619Y-89653714D02*
X120350619Y-89082286D01*
X120350619Y-89368000D02*
X119350619Y-89368000D01*
X119350619Y-89368000D02*
X119493476Y-89272762D01*
X119493476Y-89272762D02*
X119588714Y-89177524D01*
X119588714Y-89177524D02*
X119636333Y-89082286D01*
X120350619Y-90606095D02*
X120350619Y-90034667D01*
X120350619Y-90320381D02*
X119350619Y-90320381D01*
X119350619Y-90320381D02*
X119493476Y-90225143D01*
X119493476Y-90225143D02*
X119588714Y-90129905D01*
X119588714Y-90129905D02*
X119636333Y-90034667D01*
X119350619Y-91510857D02*
X119350619Y-91034667D01*
X119350619Y-91034667D02*
X119826809Y-90987048D01*
X119826809Y-90987048D02*
X119779190Y-91034667D01*
X119779190Y-91034667D02*
X119731571Y-91129905D01*
X119731571Y-91129905D02*
X119731571Y-91368000D01*
X119731571Y-91368000D02*
X119779190Y-91463238D01*
X119779190Y-91463238D02*
X119826809Y-91510857D01*
X119826809Y-91510857D02*
X119922047Y-91558476D01*
X119922047Y-91558476D02*
X120160142Y-91558476D01*
X120160142Y-91558476D02*
X120255380Y-91510857D01*
X120255380Y-91510857D02*
X120303000Y-91463238D01*
X120303000Y-91463238D02*
X120350619Y-91368000D01*
X120350619Y-91368000D02*
X120350619Y-91129905D01*
X120350619Y-91129905D02*
X120303000Y-91034667D01*
X120303000Y-91034667D02*
X120255380Y-90987048D01*
D10*
X120257047Y-79479309D02*
X120257047Y-78979309D01*
X120257047Y-78979309D02*
X120137999Y-78979309D01*
X120137999Y-78979309D02*
X120066571Y-79003119D01*
X120066571Y-79003119D02*
X120018952Y-79050738D01*
X120018952Y-79050738D02*
X119995142Y-79098357D01*
X119995142Y-79098357D02*
X119971333Y-79193595D01*
X119971333Y-79193595D02*
X119971333Y-79265023D01*
X119971333Y-79265023D02*
X119995142Y-79360261D01*
X119995142Y-79360261D02*
X120018952Y-79407880D01*
X120018952Y-79407880D02*
X120066571Y-79455500D01*
X120066571Y-79455500D02*
X120137999Y-79479309D01*
X120137999Y-79479309D02*
X120257047Y-79479309D01*
X119518952Y-78979309D02*
X119757047Y-78979309D01*
X119757047Y-78979309D02*
X119780856Y-79217404D01*
X119780856Y-79217404D02*
X119757047Y-79193595D01*
X119757047Y-79193595D02*
X119709428Y-79169785D01*
X119709428Y-79169785D02*
X119590380Y-79169785D01*
X119590380Y-79169785D02*
X119542761Y-79193595D01*
X119542761Y-79193595D02*
X119518952Y-79217404D01*
X119518952Y-79217404D02*
X119495142Y-79265023D01*
X119495142Y-79265023D02*
X119495142Y-79384071D01*
X119495142Y-79384071D02*
X119518952Y-79431690D01*
X119518952Y-79431690D02*
X119542761Y-79455500D01*
X119542761Y-79455500D02*
X119590380Y-79479309D01*
X119590380Y-79479309D02*
X119709428Y-79479309D01*
X119709428Y-79479309D02*
X119757047Y-79455500D01*
X119757047Y-79455500D02*
X119780856Y-79431690D01*
D11*
X122874809Y-82558476D02*
X122922428Y-82701333D01*
X122922428Y-82701333D02*
X122970047Y-82748952D01*
X122970047Y-82748952D02*
X123065285Y-82796571D01*
X123065285Y-82796571D02*
X123208142Y-82796571D01*
X123208142Y-82796571D02*
X123303380Y-82748952D01*
X123303380Y-82748952D02*
X123351000Y-82701333D01*
X123351000Y-82701333D02*
X123398619Y-82606095D01*
X123398619Y-82606095D02*
X123398619Y-82225143D01*
X123398619Y-82225143D02*
X122398619Y-82225143D01*
X122398619Y-82225143D02*
X122398619Y-82558476D01*
X122398619Y-82558476D02*
X122446238Y-82653714D01*
X122446238Y-82653714D02*
X122493857Y-82701333D01*
X122493857Y-82701333D02*
X122589095Y-82748952D01*
X122589095Y-82748952D02*
X122684333Y-82748952D01*
X122684333Y-82748952D02*
X122779571Y-82701333D01*
X122779571Y-82701333D02*
X122827190Y-82653714D01*
X122827190Y-82653714D02*
X122874809Y-82558476D01*
X122874809Y-82558476D02*
X122874809Y-82225143D01*
X123112904Y-83177524D02*
X123112904Y-83653714D01*
X123398619Y-83082286D02*
X122398619Y-83415619D01*
X122398619Y-83415619D02*
X123398619Y-83748952D01*
X123351000Y-84034667D02*
X123398619Y-84177524D01*
X123398619Y-84177524D02*
X123398619Y-84415619D01*
X123398619Y-84415619D02*
X123351000Y-84510857D01*
X123351000Y-84510857D02*
X123303380Y-84558476D01*
X123303380Y-84558476D02*
X123208142Y-84606095D01*
X123208142Y-84606095D02*
X123112904Y-84606095D01*
X123112904Y-84606095D02*
X123017666Y-84558476D01*
X123017666Y-84558476D02*
X122970047Y-84510857D01*
X122970047Y-84510857D02*
X122922428Y-84415619D01*
X122922428Y-84415619D02*
X122874809Y-84225143D01*
X122874809Y-84225143D02*
X122827190Y-84129905D01*
X122827190Y-84129905D02*
X122779571Y-84082286D01*
X122779571Y-84082286D02*
X122684333Y-84034667D01*
X122684333Y-84034667D02*
X122589095Y-84034667D01*
X122589095Y-84034667D02*
X122493857Y-84082286D01*
X122493857Y-84082286D02*
X122446238Y-84129905D01*
X122446238Y-84129905D02*
X122398619Y-84225143D01*
X122398619Y-84225143D02*
X122398619Y-84463238D01*
X122398619Y-84463238D02*
X122446238Y-84606095D01*
X123398619Y-85558476D02*
X123398619Y-84987048D01*
X123398619Y-85272762D02*
X122398619Y-85272762D01*
X122398619Y-85272762D02*
X122541476Y-85177524D01*
X122541476Y-85177524D02*
X122636714Y-85082286D01*
X122636714Y-85082286D02*
X122684333Y-84987048D01*
X122398619Y-86415619D02*
X122398619Y-86225143D01*
X122398619Y-86225143D02*
X122446238Y-86129905D01*
X122446238Y-86129905D02*
X122493857Y-86082286D01*
X122493857Y-86082286D02*
X122636714Y-85987048D01*
X122636714Y-85987048D02*
X122827190Y-85939429D01*
X122827190Y-85939429D02*
X123208142Y-85939429D01*
X123208142Y-85939429D02*
X123303380Y-85987048D01*
X123303380Y-85987048D02*
X123351000Y-86034667D01*
X123351000Y-86034667D02*
X123398619Y-86129905D01*
X123398619Y-86129905D02*
X123398619Y-86320381D01*
X123398619Y-86320381D02*
X123351000Y-86415619D01*
X123351000Y-86415619D02*
X123303380Y-86463238D01*
X123303380Y-86463238D02*
X123208142Y-86510857D01*
X123208142Y-86510857D02*
X122970047Y-86510857D01*
X122970047Y-86510857D02*
X122874809Y-86463238D01*
X122874809Y-86463238D02*
X122827190Y-86415619D01*
X122827190Y-86415619D02*
X122779571Y-86320381D01*
X122779571Y-86320381D02*
X122779571Y-86129905D01*
X122779571Y-86129905D02*
X122827190Y-86034667D01*
X122827190Y-86034667D02*
X122874809Y-85987048D01*
X122874809Y-85987048D02*
X122970047Y-85939429D01*
X122398619Y-86796572D02*
X123398619Y-87129905D01*
X123398619Y-87129905D02*
X122398619Y-87463238D01*
X122922428Y-87987048D02*
X123398619Y-87987048D01*
X122398619Y-87653715D02*
X122922428Y-87987048D01*
X122922428Y-87987048D02*
X122398619Y-88320381D01*
X123351000Y-88701334D02*
X123398619Y-88701334D01*
X123398619Y-88701334D02*
X123493857Y-88653715D01*
X123493857Y-88653715D02*
X123541476Y-88606096D01*
X123398619Y-89653714D02*
X123398619Y-89082286D01*
X123398619Y-89368000D02*
X122398619Y-89368000D01*
X122398619Y-89368000D02*
X122541476Y-89272762D01*
X122541476Y-89272762D02*
X122636714Y-89177524D01*
X122636714Y-89177524D02*
X122684333Y-89082286D01*
X123398619Y-90606095D02*
X123398619Y-90034667D01*
X123398619Y-90320381D02*
X122398619Y-90320381D01*
X122398619Y-90320381D02*
X122541476Y-90225143D01*
X122541476Y-90225143D02*
X122636714Y-90129905D01*
X122636714Y-90129905D02*
X122684333Y-90034667D01*
X122398619Y-91510857D02*
X122398619Y-91034667D01*
X122398619Y-91034667D02*
X122874809Y-90987048D01*
X122874809Y-90987048D02*
X122827190Y-91034667D01*
X122827190Y-91034667D02*
X122779571Y-91129905D01*
X122779571Y-91129905D02*
X122779571Y-91368000D01*
X122779571Y-91368000D02*
X122827190Y-91463238D01*
X122827190Y-91463238D02*
X122874809Y-91510857D01*
X122874809Y-91510857D02*
X122970047Y-91558476D01*
X122970047Y-91558476D02*
X123208142Y-91558476D01*
X123208142Y-91558476D02*
X123303380Y-91510857D01*
X123303380Y-91510857D02*
X123351000Y-91463238D01*
X123351000Y-91463238D02*
X123398619Y-91368000D01*
X123398619Y-91368000D02*
X123398619Y-91129905D01*
X123398619Y-91129905D02*
X123351000Y-91034667D01*
X123351000Y-91034667D02*
X123303380Y-90987048D01*
D10*
X123305047Y-79479309D02*
X123305047Y-78979309D01*
X123305047Y-78979309D02*
X123185999Y-78979309D01*
X123185999Y-78979309D02*
X123114571Y-79003119D01*
X123114571Y-79003119D02*
X123066952Y-79050738D01*
X123066952Y-79050738D02*
X123043142Y-79098357D01*
X123043142Y-79098357D02*
X123019333Y-79193595D01*
X123019333Y-79193595D02*
X123019333Y-79265023D01*
X123019333Y-79265023D02*
X123043142Y-79360261D01*
X123043142Y-79360261D02*
X123066952Y-79407880D01*
X123066952Y-79407880D02*
X123114571Y-79455500D01*
X123114571Y-79455500D02*
X123185999Y-79479309D01*
X123185999Y-79479309D02*
X123305047Y-79479309D01*
X122590761Y-79145976D02*
X122590761Y-79479309D01*
X122709809Y-78955500D02*
X122828856Y-79312642D01*
X122828856Y-79312642D02*
X122519333Y-79312642D01*
D11*
X128658571Y-46690619D02*
X128658571Y-45690619D01*
X128658571Y-46071571D02*
X128563333Y-46023952D01*
X128563333Y-46023952D02*
X128372857Y-46023952D01*
X128372857Y-46023952D02*
X128277619Y-46071571D01*
X128277619Y-46071571D02*
X128230000Y-46119190D01*
X128230000Y-46119190D02*
X128182381Y-46214428D01*
X128182381Y-46214428D02*
X128182381Y-46500142D01*
X128182381Y-46500142D02*
X128230000Y-46595380D01*
X128230000Y-46595380D02*
X128277619Y-46643000D01*
X128277619Y-46643000D02*
X128372857Y-46690619D01*
X128372857Y-46690619D02*
X128563333Y-46690619D01*
X128563333Y-46690619D02*
X128658571Y-46643000D01*
X127325238Y-46023952D02*
X127325238Y-46690619D01*
X127753809Y-46023952D02*
X127753809Y-46547761D01*
X127753809Y-46547761D02*
X127706190Y-46643000D01*
X127706190Y-46643000D02*
X127610952Y-46690619D01*
X127610952Y-46690619D02*
X127468095Y-46690619D01*
X127468095Y-46690619D02*
X127372857Y-46643000D01*
X127372857Y-46643000D02*
X127325238Y-46595380D01*
X126849047Y-46690619D02*
X126849047Y-46023952D01*
X126849047Y-46119190D02*
X126801428Y-46071571D01*
X126801428Y-46071571D02*
X126706190Y-46023952D01*
X126706190Y-46023952D02*
X126563333Y-46023952D01*
X126563333Y-46023952D02*
X126468095Y-46071571D01*
X126468095Y-46071571D02*
X126420476Y-46166809D01*
X126420476Y-46166809D02*
X126420476Y-46690619D01*
X126420476Y-46166809D02*
X126372857Y-46071571D01*
X126372857Y-46071571D02*
X126277619Y-46023952D01*
X126277619Y-46023952D02*
X126134762Y-46023952D01*
X126134762Y-46023952D02*
X126039523Y-46071571D01*
X126039523Y-46071571D02*
X125991904Y-46166809D01*
X125991904Y-46166809D02*
X125991904Y-46690619D01*
X125515714Y-46023952D02*
X125515714Y-47023952D01*
X125515714Y-46071571D02*
X125420476Y-46023952D01*
X125420476Y-46023952D02*
X125230000Y-46023952D01*
X125230000Y-46023952D02*
X125134762Y-46071571D01*
X125134762Y-46071571D02*
X125087143Y-46119190D01*
X125087143Y-46119190D02*
X125039524Y-46214428D01*
X125039524Y-46214428D02*
X125039524Y-46500142D01*
X125039524Y-46500142D02*
X125087143Y-46595380D01*
X125087143Y-46595380D02*
X125134762Y-46643000D01*
X125134762Y-46643000D02*
X125230000Y-46690619D01*
X125230000Y-46690619D02*
X125420476Y-46690619D01*
X125420476Y-46690619D02*
X125515714Y-46643000D01*
X124230000Y-46643000D02*
X124325238Y-46690619D01*
X124325238Y-46690619D02*
X124515714Y-46690619D01*
X124515714Y-46690619D02*
X124610952Y-46643000D01*
X124610952Y-46643000D02*
X124658571Y-46547761D01*
X124658571Y-46547761D02*
X124658571Y-46166809D01*
X124658571Y-46166809D02*
X124610952Y-46071571D01*
X124610952Y-46071571D02*
X124515714Y-46023952D01*
X124515714Y-46023952D02*
X124325238Y-46023952D01*
X124325238Y-46023952D02*
X124230000Y-46071571D01*
X124230000Y-46071571D02*
X124182381Y-46166809D01*
X124182381Y-46166809D02*
X124182381Y-46262047D01*
X124182381Y-46262047D02*
X124658571Y-46357285D01*
X123753809Y-46690619D02*
X123753809Y-46023952D01*
X123753809Y-46214428D02*
X123706190Y-46119190D01*
X123706190Y-46119190D02*
X123658571Y-46071571D01*
X123658571Y-46071571D02*
X123563333Y-46023952D01*
X123563333Y-46023952D02*
X123468095Y-46023952D01*
X123182380Y-46643000D02*
X123087142Y-46690619D01*
X123087142Y-46690619D02*
X122896666Y-46690619D01*
X122896666Y-46690619D02*
X122801428Y-46643000D01*
X122801428Y-46643000D02*
X122753809Y-46547761D01*
X122753809Y-46547761D02*
X122753809Y-46500142D01*
X122753809Y-46500142D02*
X122801428Y-46404904D01*
X122801428Y-46404904D02*
X122896666Y-46357285D01*
X122896666Y-46357285D02*
X123039523Y-46357285D01*
X123039523Y-46357285D02*
X123134761Y-46309666D01*
X123134761Y-46309666D02*
X123182380Y-46214428D01*
X123182380Y-46214428D02*
X123182380Y-46166809D01*
X123182380Y-46166809D02*
X123134761Y-46071571D01*
X123134761Y-46071571D02*
X123039523Y-46023952D01*
X123039523Y-46023952D02*
X122896666Y-46023952D01*
X122896666Y-46023952D02*
X122801428Y-46071571D01*
X116778809Y-82558476D02*
X116826428Y-82701333D01*
X116826428Y-82701333D02*
X116874047Y-82748952D01*
X116874047Y-82748952D02*
X116969285Y-82796571D01*
X116969285Y-82796571D02*
X117112142Y-82796571D01*
X117112142Y-82796571D02*
X117207380Y-82748952D01*
X117207380Y-82748952D02*
X117255000Y-82701333D01*
X117255000Y-82701333D02*
X117302619Y-82606095D01*
X117302619Y-82606095D02*
X117302619Y-82225143D01*
X117302619Y-82225143D02*
X116302619Y-82225143D01*
X116302619Y-82225143D02*
X116302619Y-82558476D01*
X116302619Y-82558476D02*
X116350238Y-82653714D01*
X116350238Y-82653714D02*
X116397857Y-82701333D01*
X116397857Y-82701333D02*
X116493095Y-82748952D01*
X116493095Y-82748952D02*
X116588333Y-82748952D01*
X116588333Y-82748952D02*
X116683571Y-82701333D01*
X116683571Y-82701333D02*
X116731190Y-82653714D01*
X116731190Y-82653714D02*
X116778809Y-82558476D01*
X116778809Y-82558476D02*
X116778809Y-82225143D01*
X117016904Y-83177524D02*
X117016904Y-83653714D01*
X117302619Y-83082286D02*
X116302619Y-83415619D01*
X116302619Y-83415619D02*
X117302619Y-83748952D01*
X117255000Y-84034667D02*
X117302619Y-84177524D01*
X117302619Y-84177524D02*
X117302619Y-84415619D01*
X117302619Y-84415619D02*
X117255000Y-84510857D01*
X117255000Y-84510857D02*
X117207380Y-84558476D01*
X117207380Y-84558476D02*
X117112142Y-84606095D01*
X117112142Y-84606095D02*
X117016904Y-84606095D01*
X117016904Y-84606095D02*
X116921666Y-84558476D01*
X116921666Y-84558476D02*
X116874047Y-84510857D01*
X116874047Y-84510857D02*
X116826428Y-84415619D01*
X116826428Y-84415619D02*
X116778809Y-84225143D01*
X116778809Y-84225143D02*
X116731190Y-84129905D01*
X116731190Y-84129905D02*
X116683571Y-84082286D01*
X116683571Y-84082286D02*
X116588333Y-84034667D01*
X116588333Y-84034667D02*
X116493095Y-84034667D01*
X116493095Y-84034667D02*
X116397857Y-84082286D01*
X116397857Y-84082286D02*
X116350238Y-84129905D01*
X116350238Y-84129905D02*
X116302619Y-84225143D01*
X116302619Y-84225143D02*
X116302619Y-84463238D01*
X116302619Y-84463238D02*
X116350238Y-84606095D01*
X117302619Y-85558476D02*
X117302619Y-84987048D01*
X117302619Y-85272762D02*
X116302619Y-85272762D01*
X116302619Y-85272762D02*
X116445476Y-85177524D01*
X116445476Y-85177524D02*
X116540714Y-85082286D01*
X116540714Y-85082286D02*
X116588333Y-84987048D01*
X116302619Y-86415619D02*
X116302619Y-86225143D01*
X116302619Y-86225143D02*
X116350238Y-86129905D01*
X116350238Y-86129905D02*
X116397857Y-86082286D01*
X116397857Y-86082286D02*
X116540714Y-85987048D01*
X116540714Y-85987048D02*
X116731190Y-85939429D01*
X116731190Y-85939429D02*
X117112142Y-85939429D01*
X117112142Y-85939429D02*
X117207380Y-85987048D01*
X117207380Y-85987048D02*
X117255000Y-86034667D01*
X117255000Y-86034667D02*
X117302619Y-86129905D01*
X117302619Y-86129905D02*
X117302619Y-86320381D01*
X117302619Y-86320381D02*
X117255000Y-86415619D01*
X117255000Y-86415619D02*
X117207380Y-86463238D01*
X117207380Y-86463238D02*
X117112142Y-86510857D01*
X117112142Y-86510857D02*
X116874047Y-86510857D01*
X116874047Y-86510857D02*
X116778809Y-86463238D01*
X116778809Y-86463238D02*
X116731190Y-86415619D01*
X116731190Y-86415619D02*
X116683571Y-86320381D01*
X116683571Y-86320381D02*
X116683571Y-86129905D01*
X116683571Y-86129905D02*
X116731190Y-86034667D01*
X116731190Y-86034667D02*
X116778809Y-85987048D01*
X116778809Y-85987048D02*
X116874047Y-85939429D01*
X116302619Y-86796572D02*
X117302619Y-87129905D01*
X117302619Y-87129905D02*
X116302619Y-87463238D01*
X116826428Y-87987048D02*
X117302619Y-87987048D01*
X116302619Y-87653715D02*
X116826428Y-87987048D01*
X116826428Y-87987048D02*
X116302619Y-88320381D01*
X117255000Y-88701334D02*
X117302619Y-88701334D01*
X117302619Y-88701334D02*
X117397857Y-88653715D01*
X117397857Y-88653715D02*
X117445476Y-88606096D01*
X117302619Y-89653714D02*
X117302619Y-89082286D01*
X117302619Y-89368000D02*
X116302619Y-89368000D01*
X116302619Y-89368000D02*
X116445476Y-89272762D01*
X116445476Y-89272762D02*
X116540714Y-89177524D01*
X116540714Y-89177524D02*
X116588333Y-89082286D01*
X117302619Y-90606095D02*
X117302619Y-90034667D01*
X117302619Y-90320381D02*
X116302619Y-90320381D01*
X116302619Y-90320381D02*
X116445476Y-90225143D01*
X116445476Y-90225143D02*
X116540714Y-90129905D01*
X116540714Y-90129905D02*
X116588333Y-90034667D01*
X116302619Y-91510857D02*
X116302619Y-91034667D01*
X116302619Y-91034667D02*
X116778809Y-90987048D01*
X116778809Y-90987048D02*
X116731190Y-91034667D01*
X116731190Y-91034667D02*
X116683571Y-91129905D01*
X116683571Y-91129905D02*
X116683571Y-91368000D01*
X116683571Y-91368000D02*
X116731190Y-91463238D01*
X116731190Y-91463238D02*
X116778809Y-91510857D01*
X116778809Y-91510857D02*
X116874047Y-91558476D01*
X116874047Y-91558476D02*
X117112142Y-91558476D01*
X117112142Y-91558476D02*
X117207380Y-91510857D01*
X117207380Y-91510857D02*
X117255000Y-91463238D01*
X117255000Y-91463238D02*
X117302619Y-91368000D01*
X117302619Y-91368000D02*
X117302619Y-91129905D01*
X117302619Y-91129905D02*
X117255000Y-91034667D01*
X117255000Y-91034667D02*
X117207380Y-90987048D01*
D10*
X117209047Y-79479309D02*
X117209047Y-78979309D01*
X117209047Y-78979309D02*
X117089999Y-78979309D01*
X117089999Y-78979309D02*
X117018571Y-79003119D01*
X117018571Y-79003119D02*
X116970952Y-79050738D01*
X116970952Y-79050738D02*
X116947142Y-79098357D01*
X116947142Y-79098357D02*
X116923333Y-79193595D01*
X116923333Y-79193595D02*
X116923333Y-79265023D01*
X116923333Y-79265023D02*
X116947142Y-79360261D01*
X116947142Y-79360261D02*
X116970952Y-79407880D01*
X116970952Y-79407880D02*
X117018571Y-79455500D01*
X117018571Y-79455500D02*
X117089999Y-79479309D01*
X117089999Y-79479309D02*
X117209047Y-79479309D01*
X116494761Y-78979309D02*
X116589999Y-78979309D01*
X116589999Y-78979309D02*
X116637618Y-79003119D01*
X116637618Y-79003119D02*
X116661428Y-79026928D01*
X116661428Y-79026928D02*
X116709047Y-79098357D01*
X116709047Y-79098357D02*
X116732856Y-79193595D01*
X116732856Y-79193595D02*
X116732856Y-79384071D01*
X116732856Y-79384071D02*
X116709047Y-79431690D01*
X116709047Y-79431690D02*
X116685237Y-79455500D01*
X116685237Y-79455500D02*
X116637618Y-79479309D01*
X116637618Y-79479309D02*
X116542380Y-79479309D01*
X116542380Y-79479309D02*
X116494761Y-79455500D01*
X116494761Y-79455500D02*
X116470952Y-79431690D01*
X116470952Y-79431690D02*
X116447142Y-79384071D01*
X116447142Y-79384071D02*
X116447142Y-79265023D01*
X116447142Y-79265023D02*
X116470952Y-79217404D01*
X116470952Y-79217404D02*
X116494761Y-79193595D01*
X116494761Y-79193595D02*
X116542380Y-79169785D01*
X116542380Y-79169785D02*
X116637618Y-79169785D01*
X116637618Y-79169785D02*
X116685237Y-79193595D01*
X116685237Y-79193595D02*
X116709047Y-79217404D01*
X116709047Y-79217404D02*
X116732856Y-79265023D01*
X126353047Y-79479309D02*
X126353047Y-78979309D01*
X126353047Y-78979309D02*
X126233999Y-78979309D01*
X126233999Y-78979309D02*
X126162571Y-79003119D01*
X126162571Y-79003119D02*
X126114952Y-79050738D01*
X126114952Y-79050738D02*
X126091142Y-79098357D01*
X126091142Y-79098357D02*
X126067333Y-79193595D01*
X126067333Y-79193595D02*
X126067333Y-79265023D01*
X126067333Y-79265023D02*
X126091142Y-79360261D01*
X126091142Y-79360261D02*
X126114952Y-79407880D01*
X126114952Y-79407880D02*
X126162571Y-79455500D01*
X126162571Y-79455500D02*
X126233999Y-79479309D01*
X126233999Y-79479309D02*
X126353047Y-79479309D01*
X125900666Y-78979309D02*
X125591142Y-78979309D01*
X125591142Y-78979309D02*
X125757809Y-79169785D01*
X125757809Y-79169785D02*
X125686380Y-79169785D01*
X125686380Y-79169785D02*
X125638761Y-79193595D01*
X125638761Y-79193595D02*
X125614952Y-79217404D01*
X125614952Y-79217404D02*
X125591142Y-79265023D01*
X125591142Y-79265023D02*
X125591142Y-79384071D01*
X125591142Y-79384071D02*
X125614952Y-79431690D01*
X125614952Y-79431690D02*
X125638761Y-79455500D01*
X125638761Y-79455500D02*
X125686380Y-79479309D01*
X125686380Y-79479309D02*
X125829237Y-79479309D01*
X125829237Y-79479309D02*
X125876856Y-79455500D01*
X125876856Y-79455500D02*
X125900666Y-79431690D01*
X132449047Y-79479309D02*
X132449047Y-78979309D01*
X132449047Y-78979309D02*
X132329999Y-78979309D01*
X132329999Y-78979309D02*
X132258571Y-79003119D01*
X132258571Y-79003119D02*
X132210952Y-79050738D01*
X132210952Y-79050738D02*
X132187142Y-79098357D01*
X132187142Y-79098357D02*
X132163333Y-79193595D01*
X132163333Y-79193595D02*
X132163333Y-79265023D01*
X132163333Y-79265023D02*
X132187142Y-79360261D01*
X132187142Y-79360261D02*
X132210952Y-79407880D01*
X132210952Y-79407880D02*
X132258571Y-79455500D01*
X132258571Y-79455500D02*
X132329999Y-79479309D01*
X132329999Y-79479309D02*
X132449047Y-79479309D01*
X131687142Y-79479309D02*
X131972856Y-79479309D01*
X131829999Y-79479309D02*
X131829999Y-78979309D01*
X131829999Y-78979309D02*
X131877618Y-79050738D01*
X131877618Y-79050738D02*
X131925237Y-79098357D01*
X131925237Y-79098357D02*
X131972856Y-79122166D01*
D11*
X93217238Y-71252251D02*
X92645810Y-71252251D01*
X92931524Y-72252251D02*
X92931524Y-71252251D01*
X92169619Y-72252251D02*
X92264857Y-72204632D01*
X92264857Y-72204632D02*
X92312476Y-72157012D01*
X92312476Y-72157012D02*
X92360095Y-72061774D01*
X92360095Y-72061774D02*
X92360095Y-71776060D01*
X92360095Y-71776060D02*
X92312476Y-71680822D01*
X92312476Y-71680822D02*
X92264857Y-71633203D01*
X92264857Y-71633203D02*
X92169619Y-71585584D01*
X92169619Y-71585584D02*
X92026762Y-71585584D01*
X92026762Y-71585584D02*
X91931524Y-71633203D01*
X91931524Y-71633203D02*
X91883905Y-71680822D01*
X91883905Y-71680822D02*
X91836286Y-71776060D01*
X91836286Y-71776060D02*
X91836286Y-72061774D01*
X91836286Y-72061774D02*
X91883905Y-72157012D01*
X91883905Y-72157012D02*
X91931524Y-72204632D01*
X91931524Y-72204632D02*
X92026762Y-72252251D01*
X92026762Y-72252251D02*
X92169619Y-72252251D01*
X90312476Y-71728441D02*
X90169619Y-71776060D01*
X90169619Y-71776060D02*
X90122000Y-71823679D01*
X90122000Y-71823679D02*
X90074381Y-71918917D01*
X90074381Y-71918917D02*
X90074381Y-72061774D01*
X90074381Y-72061774D02*
X90122000Y-72157012D01*
X90122000Y-72157012D02*
X90169619Y-72204632D01*
X90169619Y-72204632D02*
X90264857Y-72252251D01*
X90264857Y-72252251D02*
X90645809Y-72252251D01*
X90645809Y-72252251D02*
X90645809Y-71252251D01*
X90645809Y-71252251D02*
X90312476Y-71252251D01*
X90312476Y-71252251D02*
X90217238Y-71299870D01*
X90217238Y-71299870D02*
X90169619Y-71347489D01*
X90169619Y-71347489D02*
X90122000Y-71442727D01*
X90122000Y-71442727D02*
X90122000Y-71537965D01*
X90122000Y-71537965D02*
X90169619Y-71633203D01*
X90169619Y-71633203D02*
X90217238Y-71680822D01*
X90217238Y-71680822D02*
X90312476Y-71728441D01*
X90312476Y-71728441D02*
X90645809Y-71728441D01*
X89217238Y-71585584D02*
X89217238Y-72252251D01*
X89645809Y-71585584D02*
X89645809Y-72109393D01*
X89645809Y-72109393D02*
X89598190Y-72204632D01*
X89598190Y-72204632D02*
X89502952Y-72252251D01*
X89502952Y-72252251D02*
X89360095Y-72252251D01*
X89360095Y-72252251D02*
X89264857Y-72204632D01*
X89264857Y-72204632D02*
X89217238Y-72157012D01*
X88883904Y-71585584D02*
X88502952Y-71585584D01*
X88741047Y-71252251D02*
X88741047Y-72109393D01*
X88741047Y-72109393D02*
X88693428Y-72204632D01*
X88693428Y-72204632D02*
X88598190Y-72252251D01*
X88598190Y-72252251D02*
X88502952Y-72252251D01*
X88312475Y-71585584D02*
X87931523Y-71585584D01*
X88169618Y-71252251D02*
X88169618Y-72109393D01*
X88169618Y-72109393D02*
X88121999Y-72204632D01*
X88121999Y-72204632D02*
X88026761Y-72252251D01*
X88026761Y-72252251D02*
X87931523Y-72252251D01*
X87455332Y-72252251D02*
X87550570Y-72204632D01*
X87550570Y-72204632D02*
X87598189Y-72157012D01*
X87598189Y-72157012D02*
X87645808Y-72061774D01*
X87645808Y-72061774D02*
X87645808Y-71776060D01*
X87645808Y-71776060D02*
X87598189Y-71680822D01*
X87598189Y-71680822D02*
X87550570Y-71633203D01*
X87550570Y-71633203D02*
X87455332Y-71585584D01*
X87455332Y-71585584D02*
X87312475Y-71585584D01*
X87312475Y-71585584D02*
X87217237Y-71633203D01*
X87217237Y-71633203D02*
X87169618Y-71680822D01*
X87169618Y-71680822D02*
X87121999Y-71776060D01*
X87121999Y-71776060D02*
X87121999Y-72061774D01*
X87121999Y-72061774D02*
X87169618Y-72157012D01*
X87169618Y-72157012D02*
X87217237Y-72204632D01*
X87217237Y-72204632D02*
X87312475Y-72252251D01*
X87312475Y-72252251D02*
X87455332Y-72252251D01*
X86693427Y-71585584D02*
X86693427Y-72252251D01*
X86693427Y-71680822D02*
X86645808Y-71633203D01*
X86645808Y-71633203D02*
X86550570Y-71585584D01*
X86550570Y-71585584D02*
X86407713Y-71585584D01*
X86407713Y-71585584D02*
X86312475Y-71633203D01*
X86312475Y-71633203D02*
X86264856Y-71728441D01*
X86264856Y-71728441D02*
X86264856Y-72252251D01*
X84693427Y-71728441D02*
X84550570Y-71776060D01*
X84550570Y-71776060D02*
X84502951Y-71823679D01*
X84502951Y-71823679D02*
X84455332Y-71918917D01*
X84455332Y-71918917D02*
X84455332Y-72061774D01*
X84455332Y-72061774D02*
X84502951Y-72157012D01*
X84502951Y-72157012D02*
X84550570Y-72204632D01*
X84550570Y-72204632D02*
X84645808Y-72252251D01*
X84645808Y-72252251D02*
X85026760Y-72252251D01*
X85026760Y-72252251D02*
X85026760Y-71252251D01*
X85026760Y-71252251D02*
X84693427Y-71252251D01*
X84693427Y-71252251D02*
X84598189Y-71299870D01*
X84598189Y-71299870D02*
X84550570Y-71347489D01*
X84550570Y-71347489D02*
X84502951Y-71442727D01*
X84502951Y-71442727D02*
X84502951Y-71537965D01*
X84502951Y-71537965D02*
X84550570Y-71633203D01*
X84550570Y-71633203D02*
X84598189Y-71680822D01*
X84598189Y-71680822D02*
X84693427Y-71728441D01*
X84693427Y-71728441D02*
X85026760Y-71728441D01*
X83883903Y-72252251D02*
X83979141Y-72204632D01*
X83979141Y-72204632D02*
X84026760Y-72157012D01*
X84026760Y-72157012D02*
X84074379Y-72061774D01*
X84074379Y-72061774D02*
X84074379Y-71776060D01*
X84074379Y-71776060D02*
X84026760Y-71680822D01*
X84026760Y-71680822D02*
X83979141Y-71633203D01*
X83979141Y-71633203D02*
X83883903Y-71585584D01*
X83883903Y-71585584D02*
X83741046Y-71585584D01*
X83741046Y-71585584D02*
X83645808Y-71633203D01*
X83645808Y-71633203D02*
X83598189Y-71680822D01*
X83598189Y-71680822D02*
X83550570Y-71776060D01*
X83550570Y-71776060D02*
X83550570Y-72061774D01*
X83550570Y-72061774D02*
X83598189Y-72157012D01*
X83598189Y-72157012D02*
X83645808Y-72204632D01*
X83645808Y-72204632D02*
X83741046Y-72252251D01*
X83741046Y-72252251D02*
X83883903Y-72252251D01*
X82693427Y-72252251D02*
X82693427Y-71728441D01*
X82693427Y-71728441D02*
X82741046Y-71633203D01*
X82741046Y-71633203D02*
X82836284Y-71585584D01*
X82836284Y-71585584D02*
X83026760Y-71585584D01*
X83026760Y-71585584D02*
X83121998Y-71633203D01*
X82693427Y-72204632D02*
X82788665Y-72252251D01*
X82788665Y-72252251D02*
X83026760Y-72252251D01*
X83026760Y-72252251D02*
X83121998Y-72204632D01*
X83121998Y-72204632D02*
X83169617Y-72109393D01*
X83169617Y-72109393D02*
X83169617Y-72014155D01*
X83169617Y-72014155D02*
X83121998Y-71918917D01*
X83121998Y-71918917D02*
X83026760Y-71871298D01*
X83026760Y-71871298D02*
X82788665Y-71871298D01*
X82788665Y-71871298D02*
X82693427Y-71823679D01*
X82217236Y-72252251D02*
X82217236Y-71585584D01*
X82217236Y-71776060D02*
X82169617Y-71680822D01*
X82169617Y-71680822D02*
X82121998Y-71633203D01*
X82121998Y-71633203D02*
X82026760Y-71585584D01*
X82026760Y-71585584D02*
X81931522Y-71585584D01*
X81169617Y-72252251D02*
X81169617Y-71252251D01*
X81169617Y-72204632D02*
X81264855Y-72252251D01*
X81264855Y-72252251D02*
X81455331Y-72252251D01*
X81455331Y-72252251D02*
X81550569Y-72204632D01*
X81550569Y-72204632D02*
X81598188Y-72157012D01*
X81598188Y-72157012D02*
X81645807Y-72061774D01*
X81645807Y-72061774D02*
X81645807Y-71776060D01*
X81645807Y-71776060D02*
X81598188Y-71680822D01*
X81598188Y-71680822D02*
X81550569Y-71633203D01*
X81550569Y-71633203D02*
X81455331Y-71585584D01*
X81455331Y-71585584D02*
X81264855Y-71585584D01*
X81264855Y-71585584D02*
X81169617Y-71633203D01*
D12*
X130132000Y-78573000D02*
X127932000Y-78573000D01*
X129632000Y-79923000D02*
X127932000Y-79923000D01*
X130132000Y-78573000D02*
X130132000Y-79423000D01*
X130132000Y-79423000D02*
X129632000Y-79923000D01*
X127932000Y-78573000D02*
X127932000Y-79923000D01*
X120988000Y-78573000D02*
X118788000Y-78573000D01*
X120488000Y-79923000D02*
X118788000Y-79923000D01*
X120988000Y-78573000D02*
X120988000Y-79423000D01*
X120988000Y-79423000D02*
X120488000Y-79923000D01*
X118788000Y-78573000D02*
X118788000Y-79923000D01*
X124036000Y-78573000D02*
X121836000Y-78573000D01*
X123536000Y-79923000D02*
X121836000Y-79923000D01*
X124036000Y-78573000D02*
X124036000Y-79423000D01*
X124036000Y-79423000D02*
X123536000Y-79923000D01*
X121836000Y-78573000D02*
X121836000Y-79923000D01*
X117940000Y-78573000D02*
X115740000Y-78573000D01*
X117440000Y-79923000D02*
X115740000Y-79923000D01*
X117940000Y-78573000D02*
X117940000Y-79423000D01*
X117940000Y-79423000D02*
X117440000Y-79923000D01*
X115740000Y-78573000D02*
X115740000Y-79923000D01*
X127084000Y-78573000D02*
X124884000Y-78573000D01*
X126584000Y-79923000D02*
X124884000Y-79923000D01*
X127084000Y-78573000D02*
X127084000Y-79423000D01*
X127084000Y-79423000D02*
X126584000Y-79923000D01*
X124884000Y-78573000D02*
X124884000Y-79923000D01*
X133180000Y-78573000D02*
X130980000Y-78573000D01*
X132680000Y-79923000D02*
X130980000Y-79923000D01*
X133180000Y-78573000D02*
X133180000Y-79423000D01*
X133180000Y-79423000D02*
X132680000Y-79923000D01*
X130980000Y-78573000D02*
X130980000Y-79923000D01*
M02*
