G04 #@! TF.GenerationSoftware,KiCad,Pcbnew,7.0.2*
G04 #@! TF.CreationDate,2023-05-05T22:29:22-07:00*
G04 #@! TF.ProjectId,procon_gcc_button_board,70726f63-6f6e-45f6-9763-635f62757474,rev?*
G04 #@! TF.SameCoordinates,Original*
G04 #@! TF.FileFunction,Copper,L4,Bot*
G04 #@! TF.FilePolarity,Positive*
%FSLAX46Y46*%
G04 Gerber Fmt 4.6, Leading zero omitted, Abs format (unit mm)*
G04 Created by KiCad (PCBNEW 7.0.2) date 2023-05-05 22:29:22*
%MOMM*%
%LPD*%
G01*
G04 APERTURE LIST*
G04 #@! TA.AperFunction,SMDPad,CuDef*
%ADD10R,0.400000X0.650000*%
G04 #@! TD*
G04 #@! TA.AperFunction,SMDPad,CuDef*
%ADD11R,0.600000X1.000000*%
G04 #@! TD*
G04 #@! TA.AperFunction,SMDPad,CuDef*
%ADD12R,0.300000X1.000000*%
G04 #@! TD*
G04 #@! TA.AperFunction,SMDPad,CuDef*
%ADD13R,0.300000X1.300000*%
G04 #@! TD*
G04 #@! TA.AperFunction,SMDPad,CuDef*
%ADD14R,1.800000X2.200000*%
G04 #@! TD*
G04 #@! TA.AperFunction,ViaPad*
%ADD15C,0.800000*%
G04 #@! TD*
G04 #@! TA.AperFunction,ViaPad*
%ADD16C,0.650000*%
G04 #@! TD*
G04 #@! TA.AperFunction,Conductor*
%ADD17C,0.200000*%
G04 #@! TD*
G04 APERTURE END LIST*
D10*
X129682000Y-80198000D03*
X129032000Y-80198000D03*
X128382000Y-80198000D03*
X128382000Y-78298000D03*
X129032000Y-78298000D03*
X129682000Y-78298000D03*
X120538000Y-80198000D03*
X119888000Y-80198000D03*
X119238000Y-80198000D03*
X119238000Y-78298000D03*
X119888000Y-78298000D03*
X120538000Y-78298000D03*
X123586000Y-80198000D03*
X122936000Y-80198000D03*
X122286000Y-80198000D03*
X122286000Y-78298000D03*
X122936000Y-78298000D03*
X123586000Y-78298000D03*
D11*
X123728900Y-48138005D03*
X127908900Y-48138005D03*
D12*
X124818900Y-50788005D03*
X125318900Y-50788005D03*
X125818900Y-50788005D03*
X126318900Y-50788005D03*
X126818900Y-50788005D03*
D10*
X117490000Y-80198000D03*
X116840000Y-80198000D03*
X116190000Y-80198000D03*
X116190000Y-78298000D03*
X116840000Y-78298000D03*
X117490000Y-78298000D03*
X126634000Y-80198000D03*
X125984000Y-80198000D03*
X125334000Y-80198000D03*
X125334000Y-78298000D03*
X125984000Y-78298000D03*
X126634000Y-78298000D03*
X132730000Y-80198000D03*
X132080000Y-80198000D03*
X131430000Y-80198000D03*
X131430000Y-78298000D03*
X132080000Y-78298000D03*
X132730000Y-78298000D03*
D13*
X83872000Y-78240032D03*
X84372000Y-78240032D03*
X84872000Y-78240032D03*
X85372000Y-78240032D03*
X85872000Y-78240032D03*
X86372000Y-78240032D03*
X86872000Y-78240032D03*
X87372000Y-78240032D03*
X87872000Y-78240032D03*
X88372000Y-78240032D03*
X88872000Y-78240032D03*
X89372000Y-78240032D03*
X89872000Y-78240032D03*
X90372000Y-78240032D03*
D14*
X81972000Y-74990032D03*
X92272000Y-74990032D03*
D15*
X106782808Y-75800637D03*
X124368197Y-75875994D03*
X121406258Y-77051895D03*
X133558478Y-76396236D03*
X172782963Y-54869935D03*
X168552217Y-50040145D03*
X172720000Y-53086000D03*
X105412861Y-53491668D03*
X108204000Y-55372000D03*
X109220000Y-53594000D03*
X97790000Y-76962000D03*
X114046000Y-70104000D03*
X112014000Y-74676000D03*
X107696000Y-71882000D03*
X89916000Y-71374000D03*
D16*
X82042000Y-77724000D03*
X164338000Y-38862000D03*
X105156000Y-36830000D03*
X89408000Y-76454000D03*
X101600000Y-68326000D03*
X152654000Y-49276000D03*
X97790000Y-63500000D03*
X100584000Y-60452000D03*
X113030000Y-48260000D03*
X142748000Y-36830000D03*
X164338000Y-59690000D03*
X106172000Y-63500000D03*
X134620000Y-47752000D03*
X176276000Y-49784000D03*
X83604232Y-76361561D03*
X98298000Y-68580000D03*
X104648000Y-71120000D03*
X167894000Y-60706000D03*
X108458000Y-68072000D03*
X108384152Y-38384085D03*
X139700000Y-50292000D03*
X155702000Y-50292000D03*
X146050000Y-37846000D03*
X179832000Y-50546000D03*
X104140000Y-61214000D03*
X167894000Y-39878000D03*
X116586000Y-49276000D03*
X84582000Y-75946000D03*
X97282000Y-67056000D03*
X83820000Y-67564000D03*
X130556000Y-80198000D03*
X84404604Y-72674637D03*
X84836000Y-69596000D03*
X140716000Y-31242000D03*
X140208000Y-42164000D03*
X110490000Y-31242000D03*
X111252000Y-42672000D03*
X85737937Y-73337218D03*
X127508000Y-80198000D03*
X86360000Y-68326000D03*
X125666330Y-55705335D03*
D15*
X111385180Y-69342000D03*
D16*
X87856503Y-69142051D03*
X93385180Y-61585312D03*
X98700233Y-56216742D03*
X111393929Y-61513088D03*
D15*
X106680000Y-74241960D03*
D16*
X106296215Y-56216742D03*
X111371933Y-56256023D03*
D15*
X97028000Y-74241960D03*
D16*
X93363578Y-69054028D03*
X88014729Y-73964385D03*
X124460000Y-80198000D03*
X118364000Y-80198000D03*
X88814523Y-74369219D03*
X170942000Y-59182000D03*
X132334000Y-51308000D03*
X171196000Y-37846000D03*
X112776000Y-53340000D03*
X171704000Y-48768000D03*
X149352000Y-38608000D03*
X130776806Y-54426308D03*
X124410491Y-54342646D03*
X129636925Y-56576117D03*
X126083251Y-56576117D03*
X112014000Y-34544000D03*
X117686097Y-70192186D03*
X132080000Y-74930000D03*
X130394269Y-72276273D03*
X148844000Y-49276000D03*
X135540078Y-53234351D03*
X152400000Y-29972000D03*
X118653749Y-70606894D03*
X133096000Y-46228000D03*
X128270000Y-72898000D03*
X151638000Y-39878000D03*
X148844000Y-48380021D03*
X129031656Y-72355265D03*
X134864812Y-52632811D03*
X129732038Y-75687231D03*
X110490000Y-55372000D03*
X112083118Y-71514960D03*
X126148447Y-71683833D03*
X148844000Y-47498000D03*
X134136180Y-52056022D03*
X162052000Y-36830000D03*
X171958000Y-36830000D03*
X150876000Y-37592000D03*
X125984000Y-75692000D03*
X115316000Y-74676000D03*
X122174000Y-75946000D03*
X115062000Y-66548000D03*
X109797629Y-36039057D03*
X116126003Y-69425305D03*
X124206000Y-71882000D03*
X120142000Y-71628000D03*
X110562346Y-46260930D03*
X116942254Y-68553102D03*
X148844000Y-46482000D03*
X133367254Y-51405143D03*
X160291615Y-36099309D03*
X121428673Y-71654211D03*
X162052000Y-49530000D03*
X150114000Y-36830000D03*
X118492523Y-75873186D03*
X92710000Y-70104000D03*
X105410000Y-77216000D03*
X89662000Y-68326000D03*
X98552000Y-74930000D03*
X106934000Y-59690000D03*
X106286509Y-40140751D03*
X109057808Y-36905579D03*
X109085706Y-48943599D03*
X160528000Y-49530000D03*
X161036000Y-40132000D03*
X172466000Y-39116000D03*
X172974000Y-49530000D03*
D17*
X89372000Y-76490000D02*
X89408000Y-76454000D01*
X83566000Y-77216000D02*
X82550000Y-77216000D01*
X83872000Y-78240032D02*
X83872000Y-77522000D01*
X89372000Y-78240032D02*
X89372000Y-76490000D01*
X82550000Y-77216000D02*
X82042000Y-77724000D01*
X83872000Y-77522000D02*
X83566000Y-77216000D01*
X84372000Y-77129329D02*
X83604232Y-76361561D01*
X84372000Y-78240032D02*
X84372000Y-77129329D01*
X84872000Y-78240032D02*
X84872000Y-76236000D01*
X84872000Y-76236000D02*
X84582000Y-75946000D01*
X129682000Y-80198000D02*
X131430000Y-80198000D01*
X132730000Y-80198000D02*
X132080000Y-80198000D01*
X84807157Y-75212843D02*
X84404604Y-74810290D01*
X85372000Y-75777686D02*
X84807157Y-75212843D01*
X132080000Y-80198000D02*
X131430000Y-80198000D01*
X84404604Y-74810290D02*
X84404604Y-72674637D01*
X85372000Y-78240032D02*
X85372000Y-75777686D01*
X140208000Y-42164000D02*
X140208000Y-31750000D01*
X85090000Y-72390000D02*
X85090000Y-74930000D01*
X110490000Y-31242000D02*
X110490000Y-41910000D01*
X84836000Y-69596000D02*
X85872000Y-70632000D01*
X110490000Y-41910000D02*
X111252000Y-42672000D01*
X85090000Y-74930000D02*
X85872000Y-75712000D01*
X85872000Y-70632000D02*
X85872000Y-71608000D01*
X85872000Y-71608000D02*
X85090000Y-72390000D01*
X140208000Y-31750000D02*
X140716000Y-31242000D01*
X85872000Y-75712000D02*
X85872000Y-78240032D01*
X129032000Y-80198000D02*
X128382000Y-80198000D01*
X126634000Y-80198000D02*
X125984000Y-80198000D01*
X86372000Y-73971281D02*
X85737937Y-73337218D01*
X86372000Y-78240032D02*
X86372000Y-73971281D01*
X128382000Y-80198000D02*
X126634000Y-80198000D01*
X125818900Y-50788005D02*
X125818900Y-55552765D01*
X86360000Y-68326000D02*
X86872000Y-68838000D01*
X125818900Y-55552765D02*
X125666330Y-55705335D01*
X86872000Y-68838000D02*
X86872000Y-78240032D01*
X111371933Y-56256023D02*
X111371933Y-61491092D01*
X87372000Y-69626554D02*
X87372000Y-78240032D01*
X93385180Y-69032426D02*
X93363578Y-69054028D01*
X111371933Y-61491092D02*
X111393929Y-61513088D01*
X106098040Y-73660000D02*
X97609960Y-73660000D01*
X93385180Y-61585312D02*
X93385180Y-69032426D01*
X97609960Y-73660000D02*
X97028000Y-74241960D01*
X87856503Y-69142051D02*
X87372000Y-69626554D01*
X106680000Y-74241960D02*
X106098040Y-73660000D01*
X98700233Y-56216742D02*
X106296215Y-56216742D01*
X111393929Y-69333251D02*
X111385180Y-69342000D01*
X111393929Y-61513088D02*
X111393929Y-69333251D01*
X87872000Y-74107114D02*
X87872000Y-78240032D01*
X122936000Y-80198000D02*
X122286000Y-80198000D01*
X123586000Y-80198000D02*
X122936000Y-80198000D01*
X88014729Y-73964385D02*
X87872000Y-74107114D01*
X125334000Y-80198000D02*
X123586000Y-80198000D01*
X117490000Y-80198000D02*
X119238000Y-80198000D01*
X119888000Y-80198000D02*
X119238000Y-80198000D01*
X120538000Y-80198000D02*
X119888000Y-80198000D01*
X88372000Y-78240032D02*
X88372000Y-74811742D01*
X88372000Y-74811742D02*
X88814523Y-74369219D01*
X148590000Y-45466000D02*
X138176000Y-45466000D01*
X88872000Y-79220000D02*
X88872000Y-78240032D01*
X149352000Y-44704000D02*
X148590000Y-45466000D01*
X149352000Y-38608000D02*
X149352000Y-44704000D01*
X105410000Y-79756000D02*
X89408000Y-79756000D01*
X112776000Y-53340000D02*
X112776000Y-72390000D01*
X171704000Y-38354000D02*
X171196000Y-37846000D01*
X112776000Y-72390000D02*
X105410000Y-79756000D01*
X138176000Y-45466000D02*
X132334000Y-51308000D01*
X89408000Y-79756000D02*
X88872000Y-79220000D01*
X171704000Y-48768000D02*
X171704000Y-38354000D01*
X170942000Y-49530000D02*
X171704000Y-48768000D01*
X170942000Y-59182000D02*
X170942000Y-49530000D01*
X130776806Y-54426308D02*
X130776806Y-57047856D01*
X124818900Y-50788005D02*
X124818900Y-53934237D01*
X124818900Y-53934237D02*
X124410491Y-54342646D01*
X130480586Y-62142842D02*
X129695603Y-62927825D01*
X129695603Y-72599413D02*
X131430000Y-74333810D01*
X131430000Y-74333810D02*
X131430000Y-78298000D01*
X130776806Y-57047856D02*
X130480586Y-57344076D01*
X129695603Y-62927825D02*
X129695603Y-72599413D01*
X130480586Y-57344076D02*
X130480586Y-62142842D01*
X122522993Y-60447574D02*
X122522993Y-67689812D01*
X119238000Y-70974805D02*
X119238000Y-78298000D01*
X125318900Y-50788005D02*
X125318900Y-54767100D01*
X124968000Y-58002567D02*
X122522993Y-60447574D01*
X124968000Y-55118000D02*
X124968000Y-58002567D01*
X122522993Y-67689812D02*
X119238000Y-70974805D01*
X125318900Y-54767100D02*
X124968000Y-55118000D01*
X126318900Y-56340468D02*
X126083251Y-56576117D01*
X130048000Y-56987192D02*
X130048000Y-61976000D01*
X126634000Y-73518000D02*
X126634000Y-78298000D01*
X129636925Y-56576117D02*
X130048000Y-56987192D01*
X129286000Y-62738000D02*
X129286000Y-70866000D01*
X130048000Y-61976000D02*
X129286000Y-62738000D01*
X126318900Y-50788005D02*
X126318900Y-56340468D01*
X129286000Y-70866000D02*
X126634000Y-73518000D01*
X126818900Y-50788005D02*
X126818900Y-56823100D01*
X126818900Y-56823100D02*
X122936000Y-60706000D01*
X122936000Y-60706000D02*
X122936000Y-78298000D01*
X116332000Y-54102000D02*
X111252000Y-49022000D01*
X132080000Y-78298000D02*
X132080000Y-74930000D01*
X117094000Y-54864000D02*
X116332000Y-54102000D01*
X117094000Y-67056000D02*
X117094000Y-66294000D01*
X117094000Y-66294000D02*
X117094000Y-54864000D01*
X112014000Y-43688000D02*
X112014000Y-41148000D01*
X117686097Y-70192186D02*
X117686097Y-67648097D01*
X111760000Y-43942000D02*
X112014000Y-43688000D01*
X117348000Y-67310000D02*
X117094000Y-67056000D01*
X117686097Y-67648097D02*
X117348000Y-67310000D01*
X111252000Y-45720000D02*
X111252000Y-44450000D01*
X111252000Y-49022000D02*
X111252000Y-45720000D01*
X111252000Y-44450000D02*
X111760000Y-43942000D01*
X112014000Y-41148000D02*
X112014000Y-34544000D01*
X132730000Y-78298000D02*
X132730000Y-74612004D01*
X135540078Y-53234351D02*
X139498429Y-49276000D01*
X152400000Y-45974000D02*
X152400000Y-29972000D01*
X139498429Y-49276000D02*
X148844000Y-49276000D01*
X132730000Y-74612004D02*
X130394269Y-72276273D01*
X149098000Y-49276000D02*
X152400000Y-45974000D01*
X148844000Y-49276000D02*
X149098000Y-49276000D01*
X118653749Y-67853749D02*
X117602000Y-66802000D01*
X112522000Y-44704000D02*
X131572000Y-44704000D01*
X118653749Y-70606894D02*
X118653749Y-67853749D01*
X112014000Y-45212000D02*
X112522000Y-44704000D01*
X128382000Y-78298000D02*
X128382000Y-73010000D01*
X117602000Y-66802000D02*
X117602000Y-54610000D01*
X117602000Y-54610000D02*
X112014000Y-49022000D01*
X112014000Y-49022000D02*
X112014000Y-45212000D01*
X131572000Y-44704000D02*
X133096000Y-46228000D01*
X128382000Y-73010000D02*
X128270000Y-72898000D01*
X151638000Y-45819250D02*
X151638000Y-39878000D01*
X148844000Y-48380021D02*
X149077229Y-48380021D01*
X129032000Y-78298000D02*
X129032000Y-72355609D01*
X129032000Y-72355609D02*
X129031656Y-72355265D01*
X149077229Y-48380021D02*
X151638000Y-45819250D01*
X139117602Y-48380021D02*
X148844000Y-48380021D01*
X134864812Y-52632811D02*
X139117602Y-48380021D01*
X110490000Y-69921842D02*
X112083118Y-71514960D01*
X129682000Y-75737269D02*
X129732038Y-75687231D01*
X110490000Y-55372000D02*
X110490000Y-69921842D01*
X129682000Y-78298000D02*
X129682000Y-75737269D01*
X134136180Y-52056022D02*
X134136180Y-52045820D01*
X171958000Y-36830000D02*
X162052000Y-36830000D01*
X125334000Y-72498280D02*
X126148447Y-71683833D01*
X125334000Y-78298000D02*
X125334000Y-72498280D01*
X134136180Y-52045820D02*
X138684000Y-47498000D01*
X148844000Y-47498000D02*
X150876000Y-45466000D01*
X138684000Y-47498000D02*
X148844000Y-47498000D01*
X150876000Y-45466000D02*
X150876000Y-37592000D01*
X125984000Y-78298000D02*
X125984000Y-75692000D01*
X115062000Y-66548000D02*
X115062000Y-74422000D01*
X122286000Y-78298000D02*
X122286000Y-76058000D01*
X115062000Y-74422000D02*
X115316000Y-74676000D01*
X122286000Y-76058000D02*
X122174000Y-75946000D01*
X109797629Y-49091629D02*
X109797629Y-36039057D01*
X116126003Y-55420003D02*
X112776000Y-52070000D01*
X123586000Y-72502000D02*
X124206000Y-71882000D01*
X123586000Y-78298000D02*
X123586000Y-72502000D01*
X112776000Y-52070000D02*
X109797629Y-49091629D01*
X116126003Y-69425305D02*
X116126003Y-55420003D01*
X119888000Y-71882000D02*
X120142000Y-71628000D01*
X116942254Y-67891544D02*
X116705277Y-67654567D01*
X116586000Y-65278000D02*
X116586000Y-55118000D01*
X116586000Y-67535290D02*
X116586000Y-65278000D01*
X116705277Y-67654567D02*
X116586000Y-67535290D01*
X119888000Y-78298000D02*
X119888000Y-71882000D01*
X116942254Y-68553102D02*
X116942254Y-67891544D01*
X116586000Y-55118000D02*
X110490000Y-49022000D01*
X110490000Y-46333276D02*
X110562346Y-46260930D01*
X110490000Y-49022000D02*
X110490000Y-46333276D01*
X120538000Y-78298000D02*
X120538000Y-72544884D01*
X162052000Y-38354000D02*
X161036000Y-37338000D01*
X162052000Y-49530000D02*
X162052000Y-38354000D01*
X160291615Y-36593615D02*
X160291615Y-36099309D01*
X138176000Y-46482000D02*
X148844000Y-46482000D01*
X148844000Y-46482000D02*
X150114000Y-45212000D01*
X161036000Y-37338000D02*
X160291615Y-36593615D01*
X133367254Y-51290746D02*
X138176000Y-46482000D01*
X150114000Y-45212000D02*
X150114000Y-36830000D01*
X120538000Y-72544884D02*
X121428673Y-71654211D01*
X133367254Y-51405143D02*
X133367254Y-51290746D01*
X117490000Y-76875709D02*
X117490000Y-78298000D01*
X100838000Y-77216000D02*
X105410000Y-77216000D01*
X99568000Y-75946000D02*
X100838000Y-77216000D01*
X89662000Y-68326000D02*
X89662000Y-69342000D01*
X118492523Y-75873186D02*
X117490000Y-76875709D01*
X90424000Y-70104000D02*
X92710000Y-70104000D01*
X89662000Y-69342000D02*
X90424000Y-70104000D01*
X98552000Y-74930000D02*
X99568000Y-75946000D01*
X106934000Y-59690000D02*
X106934000Y-40788242D01*
X106934000Y-40788242D02*
X106286509Y-40140751D01*
X109057808Y-48915701D02*
X109085706Y-48943599D01*
X109057808Y-36905579D02*
X109057808Y-48915701D01*
X160528000Y-49530000D02*
X160528000Y-40640000D01*
X160528000Y-40640000D02*
X161036000Y-40132000D01*
X172466000Y-49022000D02*
X172466000Y-39116000D01*
X172974000Y-49530000D02*
X172466000Y-49022000D01*
G04 #@! TA.AperFunction,Conductor*
G36*
X111402637Y-27432573D02*
G01*
X111423279Y-27449207D01*
X113219721Y-29245650D01*
X113232352Y-29260437D01*
X113241168Y-29272571D01*
X113255418Y-29277201D01*
X113273394Y-29284646D01*
X113286749Y-29291451D01*
X113301545Y-29289106D01*
X113320947Y-29287580D01*
X137285614Y-29287580D01*
X137305008Y-29289105D01*
X137319810Y-29291450D01*
X137333168Y-29284643D01*
X137351122Y-29277206D01*
X137365391Y-29272570D01*
X137374205Y-29260437D01*
X137386832Y-29245653D01*
X139183279Y-27449207D01*
X139244603Y-27415722D01*
X139270961Y-27412888D01*
X148693842Y-27412888D01*
X148760881Y-27432573D01*
X148791522Y-27460504D01*
X150223260Y-29291450D01*
X150257825Y-29335652D01*
X150267230Y-29351356D01*
X150270532Y-29355048D01*
X150270533Y-29355049D01*
X150282460Y-29368384D01*
X150287357Y-29373858D01*
X150292616Y-29380144D01*
X150302711Y-29393055D01*
X150310955Y-29400242D01*
X150314072Y-29403727D01*
X150314073Y-29403727D01*
X150325461Y-29410352D01*
X150338122Y-29413976D01*
X150338123Y-29413975D01*
X150338127Y-29413978D01*
X150342795Y-29413812D01*
X150373348Y-29416530D01*
X150377909Y-29417516D01*
X150377912Y-29417514D01*
X150391017Y-29416181D01*
X150403391Y-29411671D01*
X150403395Y-29411671D01*
X150407055Y-29408808D01*
X150416445Y-29403185D01*
X150422342Y-29397909D01*
X150422347Y-29397908D01*
X150428711Y-29392214D01*
X150434958Y-29386988D01*
X150454841Y-29371442D01*
X150454841Y-29371440D01*
X150458750Y-29368384D01*
X150470766Y-29354598D01*
X152606363Y-27444464D01*
X152669456Y-27414443D01*
X152689031Y-27412888D01*
X171110289Y-27412888D01*
X171177328Y-27432573D01*
X171197970Y-27449207D01*
X172119722Y-28370960D01*
X172132357Y-28385753D01*
X172137062Y-28392228D01*
X172141167Y-28397878D01*
X172155414Y-28402506D01*
X172173393Y-28409953D01*
X172186749Y-28416759D01*
X172201549Y-28414414D01*
X172220947Y-28412888D01*
X176042626Y-28412888D01*
X176109665Y-28432573D01*
X176155420Y-28485377D01*
X176159993Y-28496876D01*
X179094660Y-37105234D01*
X179096220Y-37112544D01*
X179108029Y-37144566D01*
X179109054Y-37147456D01*
X179116880Y-37170411D01*
X179118306Y-37172430D01*
X179118703Y-37172760D01*
X179138666Y-37193771D01*
X179142403Y-37198762D01*
X179144407Y-37200174D01*
X179149019Y-37201942D01*
X179159709Y-37206871D01*
X179159710Y-37206871D01*
X179159711Y-37206872D01*
X179171909Y-37208968D01*
X179187516Y-37212705D01*
X179204800Y-37218048D01*
X179204800Y-37218047D01*
X179205368Y-37218223D01*
X179230627Y-37220627D01*
X179599482Y-37297030D01*
X179686062Y-37314964D01*
X179694251Y-37316953D01*
X179864444Y-37364463D01*
X180181837Y-37453064D01*
X180189835Y-37455593D01*
X180667052Y-37624513D01*
X180674857Y-37627577D01*
X181139527Y-37828534D01*
X181147113Y-37832126D01*
X181511874Y-38020249D01*
X181597007Y-38064156D01*
X181604362Y-38068271D01*
X181649401Y-38095523D01*
X182010674Y-38314121D01*
X182037468Y-38330333D01*
X182044524Y-38334937D01*
X182201461Y-38445120D01*
X182458810Y-38625800D01*
X182465539Y-38630874D01*
X182547053Y-38696805D01*
X182769467Y-38876700D01*
X182859112Y-38949207D01*
X182865479Y-38954724D01*
X183227030Y-39290250D01*
X183236539Y-39299074D01*
X183242516Y-39305012D01*
X183556987Y-39639384D01*
X183589312Y-39673754D01*
X183594874Y-39680086D01*
X183915822Y-40071536D01*
X183920941Y-40078231D01*
X184117489Y-40354255D01*
X184207843Y-40481146D01*
X184214562Y-40490581D01*
X184219214Y-40497608D01*
X184484145Y-40928949D01*
X184488309Y-40936276D01*
X184723330Y-41384618D01*
X184726984Y-41392206D01*
X184931012Y-41855487D01*
X184934136Y-41863289D01*
X185090720Y-42296470D01*
X185095394Y-42309399D01*
X185100304Y-42337425D01*
X185103728Y-42347963D01*
X185108732Y-42357800D01*
X185115946Y-42368940D01*
X185115947Y-42368942D01*
X185118536Y-42371280D01*
X185135750Y-42390423D01*
X185141167Y-42397878D01*
X185141169Y-42397878D01*
X185143268Y-42399404D01*
X185152016Y-42403034D01*
X185155921Y-42405029D01*
X185155924Y-42405032D01*
X185170895Y-42408234D01*
X185183275Y-42411560D01*
X185187362Y-42412888D01*
X185187363Y-42412888D01*
X185191136Y-42414114D01*
X185205476Y-42415631D01*
X185208590Y-42416297D01*
X185208590Y-42416296D01*
X185208591Y-42416297D01*
X185221136Y-42415656D01*
X185238686Y-42412888D01*
X188978779Y-42412888D01*
X189045818Y-42432573D01*
X189091573Y-42485377D01*
X189102779Y-42536888D01*
X189102779Y-46642163D01*
X189083094Y-46709202D01*
X189080675Y-46712825D01*
X175387659Y-66458549D01*
X175333281Y-66502421D01*
X175285763Y-66511887D01*
X161093405Y-66511887D01*
X161026366Y-66492202D01*
X160980611Y-66439398D01*
X160969685Y-66379555D01*
X160973009Y-66330192D01*
X160979336Y-66236252D01*
X160991998Y-65468833D01*
X160965664Y-64701760D01*
X160900400Y-63937016D01*
X160796375Y-63176574D01*
X160653858Y-62422398D01*
X160473216Y-61676434D01*
X160254916Y-60940609D01*
X160233617Y-60880249D01*
X160172132Y-60705999D01*
X167055909Y-60705999D01*
X167074223Y-60880250D01*
X167128365Y-61046882D01*
X167215967Y-61198615D01*
X167333209Y-61328824D01*
X167474954Y-61431808D01*
X167635018Y-61503073D01*
X167806394Y-61539500D01*
X167806396Y-61539500D01*
X167981606Y-61539500D01*
X168152981Y-61503073D01*
X168152982Y-61503072D01*
X168152984Y-61503072D01*
X168313046Y-61431808D01*
X168454792Y-61328823D01*
X168572030Y-61198618D01*
X168659634Y-61046882D01*
X168713777Y-60880249D01*
X168732091Y-60706000D01*
X168713777Y-60531751D01*
X168659634Y-60365118D01*
X168659634Y-60365117D01*
X168572032Y-60213384D01*
X168454790Y-60083175D01*
X168313045Y-59980191D01*
X168152981Y-59908926D01*
X167981606Y-59872500D01*
X167981604Y-59872500D01*
X167806396Y-59872500D01*
X167806394Y-59872500D01*
X167635018Y-59908926D01*
X167474952Y-59980192D01*
X167333211Y-60083173D01*
X167215967Y-60213384D01*
X167128365Y-60365117D01*
X167074223Y-60531749D01*
X167055909Y-60705999D01*
X160172132Y-60705999D01*
X160000044Y-60218302D01*
X160000042Y-60218297D01*
X159999522Y-60216823D01*
X159715895Y-59526897D01*
X159708282Y-59508378D01*
X159708280Y-59508375D01*
X159707692Y-59506943D01*
X159380182Y-58812803D01*
X159017835Y-58136196D01*
X158621587Y-57478867D01*
X158192462Y-56842514D01*
X157731567Y-56228780D01*
X157721531Y-56216742D01*
X157421717Y-55857111D01*
X157240093Y-55639250D01*
X156719308Y-55075445D01*
X156170557Y-54538821D01*
X156103655Y-54479739D01*
X155821337Y-54230419D01*
X155595256Y-54030763D01*
X155585079Y-54022657D01*
X154996136Y-53553575D01*
X154996120Y-53553563D01*
X154994891Y-53552584D01*
X154993608Y-53551665D01*
X154993594Y-53551654D01*
X154372289Y-53106433D01*
X154372286Y-53106431D01*
X154371012Y-53105518D01*
X154369705Y-53104678D01*
X154369694Y-53104671D01*
X153867078Y-52781830D01*
X153725230Y-52690718D01*
X153723869Y-52689938D01*
X153723860Y-52689933D01*
X153212242Y-52396905D01*
X153059212Y-52309257D01*
X152973839Y-52265963D01*
X152376106Y-51962843D01*
X152376084Y-51962832D01*
X152374677Y-51962119D01*
X152373224Y-51961473D01*
X152373212Y-51961467D01*
X151674838Y-51650841D01*
X151674814Y-51650831D01*
X151673393Y-51650199D01*
X151671956Y-51649645D01*
X151671926Y-51649633D01*
X150958641Y-51374870D01*
X150958618Y-51374862D01*
X150957170Y-51374304D01*
X150955691Y-51373819D01*
X150955677Y-51373814D01*
X150229337Y-51135631D01*
X150229325Y-51135627D01*
X150227857Y-51135146D01*
X150226368Y-51134740D01*
X150226344Y-51134733D01*
X149488855Y-50933755D01*
X149488839Y-50933751D01*
X149487338Y-50933342D01*
X149485826Y-50933011D01*
X149485808Y-50933007D01*
X148739064Y-50769749D01*
X148739046Y-50769745D01*
X148737525Y-50769413D01*
X148735998Y-50769159D01*
X148735974Y-50769155D01*
X147981891Y-50644037D01*
X147981877Y-50644035D01*
X147980352Y-50643782D01*
X147978830Y-50643608D01*
X147978799Y-50643604D01*
X147219328Y-50556952D01*
X147219324Y-50556951D01*
X147217776Y-50556775D01*
X147216251Y-50556679D01*
X147216216Y-50556676D01*
X146453336Y-50508712D01*
X146453303Y-50508710D01*
X146451764Y-50508614D01*
X146450178Y-50508595D01*
X145685889Y-50499445D01*
X145685885Y-50499445D01*
X145684295Y-50499426D01*
X145682702Y-50499487D01*
X145682694Y-50499488D01*
X144918944Y-50529170D01*
X144918941Y-50529170D01*
X144917350Y-50529232D01*
X144915807Y-50529370D01*
X144915771Y-50529373D01*
X144154491Y-50597815D01*
X144154461Y-50597818D01*
X144152909Y-50597958D01*
X144151333Y-50598180D01*
X144151323Y-50598182D01*
X143394519Y-50705201D01*
X143394497Y-50705204D01*
X143392946Y-50705424D01*
X143391421Y-50705719D01*
X143391393Y-50705724D01*
X142640965Y-50851055D01*
X142640958Y-50851056D01*
X142639422Y-50851354D01*
X142637915Y-50851726D01*
X142637893Y-50851731D01*
X141895810Y-51034994D01*
X141895804Y-51034995D01*
X141894284Y-51035371D01*
X141892824Y-51035811D01*
X141892785Y-51035822D01*
X141160968Y-51256543D01*
X141160943Y-51256550D01*
X141159455Y-51257000D01*
X141158001Y-51257520D01*
X141157966Y-51257532D01*
X140438301Y-51515141D01*
X140438261Y-51515156D01*
X140436832Y-51515668D01*
X140435400Y-51516263D01*
X140435380Y-51516272D01*
X139729750Y-51810095D01*
X139729706Y-51810114D01*
X139728281Y-51810708D01*
X139726857Y-51811387D01*
X139726843Y-51811394D01*
X139037087Y-52140662D01*
X139037056Y-52140677D01*
X139035631Y-52141358D01*
X139034245Y-52142107D01*
X139034224Y-52142119D01*
X138362054Y-52506014D01*
X138362031Y-52506026D01*
X138360670Y-52506764D01*
X138359341Y-52507573D01*
X138359319Y-52507586D01*
X137706476Y-52905170D01*
X137706459Y-52905180D01*
X137705142Y-52905983D01*
X137703865Y-52906852D01*
X137703855Y-52906859D01*
X137072027Y-53337106D01*
X137071994Y-53337129D01*
X137070738Y-53337985D01*
X137069530Y-53338900D01*
X137069499Y-53338923D01*
X136460347Y-53800704D01*
X136460312Y-53800731D01*
X136459097Y-53801653D01*
X136457912Y-53802649D01*
X136457907Y-53802654D01*
X136446814Y-53811987D01*
X136382840Y-53840080D01*
X136313835Y-53829127D01*
X136261705Y-53782605D01*
X136243002Y-53715285D01*
X136259600Y-53655100D01*
X136305712Y-53575233D01*
X136359855Y-53408600D01*
X136370941Y-53303113D01*
X136397525Y-53238500D01*
X136406572Y-53228404D01*
X138848266Y-50786710D01*
X138909587Y-50753227D01*
X138979279Y-50758211D01*
X139028093Y-50791419D01*
X139114050Y-50886882D01*
X139139209Y-50914824D01*
X139280954Y-51017808D01*
X139441018Y-51089073D01*
X139612394Y-51125500D01*
X139612396Y-51125500D01*
X139787606Y-51125500D01*
X139958981Y-51089073D01*
X139958982Y-51089072D01*
X139958984Y-51089072D01*
X140119046Y-51017808D01*
X140260792Y-50914823D01*
X140378030Y-50784618D01*
X140386958Y-50769155D01*
X140465634Y-50632882D01*
X140476909Y-50598182D01*
X140519777Y-50466249D01*
X140538091Y-50292000D01*
X140538091Y-50291999D01*
X154863909Y-50291999D01*
X154882223Y-50466250D01*
X154936365Y-50632882D01*
X155023967Y-50784615D01*
X155141209Y-50914824D01*
X155282954Y-51017808D01*
X155443018Y-51089073D01*
X155614394Y-51125500D01*
X155614396Y-51125500D01*
X155789606Y-51125500D01*
X155960981Y-51089073D01*
X155960982Y-51089072D01*
X155960984Y-51089072D01*
X156121046Y-51017808D01*
X156262792Y-50914823D01*
X156380030Y-50784618D01*
X156388958Y-50769155D01*
X156467634Y-50632882D01*
X156478909Y-50598182D01*
X156521777Y-50466249D01*
X156540091Y-50292000D01*
X156521777Y-50117751D01*
X156467634Y-49951118D01*
X156467634Y-49951117D01*
X156380032Y-49799384D01*
X156309724Y-49721300D01*
X156262792Y-49669177D01*
X156262791Y-49669176D01*
X156262790Y-49669175D01*
X156121045Y-49566191D01*
X155960981Y-49494926D01*
X155789606Y-49458500D01*
X155789604Y-49458500D01*
X155614396Y-49458500D01*
X155614394Y-49458500D01*
X155443018Y-49494926D01*
X155282952Y-49566192D01*
X155141211Y-49669173D01*
X155023967Y-49799384D01*
X154936365Y-49951117D01*
X154882223Y-50117749D01*
X154863909Y-50291999D01*
X140538091Y-50291999D01*
X140519777Y-50117751D01*
X140496728Y-50046817D01*
X140494734Y-49976977D01*
X140530814Y-49917144D01*
X140593515Y-49886316D01*
X140614660Y-49884500D01*
X148223204Y-49884500D01*
X148290243Y-49904185D01*
X148296081Y-49908176D01*
X148318884Y-49924743D01*
X148424954Y-50001808D01*
X148585018Y-50073073D01*
X148756394Y-50109500D01*
X148756396Y-50109500D01*
X148931606Y-50109500D01*
X149102981Y-50073073D01*
X149102982Y-50073072D01*
X149102984Y-50073072D01*
X149263046Y-50001808D01*
X149404792Y-49898823D01*
X149522030Y-49768618D01*
X149590501Y-49650020D01*
X149610201Y-49624346D01*
X152796332Y-46438215D01*
X152808510Y-46427535D01*
X152833987Y-46407987D01*
X152845971Y-46392368D01*
X152845974Y-46392366D01*
X152879461Y-46348725D01*
X152931524Y-46280876D01*
X152975327Y-46175125D01*
X152992838Y-46132850D01*
X153008500Y-46013885D01*
X153008500Y-46013877D01*
X153013750Y-45974000D01*
X153009560Y-45942179D01*
X153008500Y-45925995D01*
X153008500Y-36099309D01*
X159453524Y-36099309D01*
X159471838Y-36273559D01*
X159525980Y-36440191D01*
X159613584Y-36591927D01*
X159662848Y-36646640D01*
X159693078Y-36709632D01*
X159693637Y-36713425D01*
X159698777Y-36752466D01*
X159760090Y-36900490D01*
X159833111Y-36995653D01*
X159833128Y-36995675D01*
X159833138Y-36995687D01*
X159833140Y-36995689D01*
X159846040Y-37012500D01*
X159857629Y-37027603D01*
X159883093Y-37047142D01*
X159895288Y-37057837D01*
X160577523Y-37740072D01*
X161407182Y-38569731D01*
X161440666Y-38631052D01*
X161443500Y-38657410D01*
X161443500Y-39213368D01*
X161423815Y-39280407D01*
X161371011Y-39326162D01*
X161301853Y-39336106D01*
X161293719Y-39334658D01*
X161123606Y-39298500D01*
X161123604Y-39298500D01*
X160948396Y-39298500D01*
X160948394Y-39298500D01*
X160777018Y-39334926D01*
X160616952Y-39406192D01*
X160475211Y-39509173D01*
X160357967Y-39639384D01*
X160270365Y-39791117D01*
X160216223Y-39957749D01*
X160216222Y-39957751D01*
X160216223Y-39957751D01*
X160207336Y-40042308D01*
X160205136Y-40063235D01*
X160178551Y-40127849D01*
X160169496Y-40137953D01*
X160131671Y-40175778D01*
X160119478Y-40186471D01*
X160094016Y-40206009D01*
X160094012Y-40206013D01*
X160094013Y-40206013D01*
X160069525Y-40237925D01*
X160069523Y-40237928D01*
X160068659Y-40239053D01*
X160068655Y-40239057D01*
X159996476Y-40333123D01*
X159935162Y-40481146D01*
X159935162Y-40481149D01*
X159935133Y-40481367D01*
X159919500Y-40600115D01*
X159919500Y-40600120D01*
X159918952Y-40604276D01*
X159914249Y-40639999D01*
X159918439Y-40671818D01*
X159919500Y-40688004D01*
X159919500Y-48912561D01*
X159899815Y-48979600D01*
X159887650Y-48995533D01*
X159849969Y-49037381D01*
X159762365Y-49189117D01*
X159708223Y-49355749D01*
X159689909Y-49530000D01*
X159708223Y-49704250D01*
X159762365Y-49870882D01*
X159849967Y-50022615D01*
X159967209Y-50152824D01*
X160108954Y-50255808D01*
X160269018Y-50327073D01*
X160440394Y-50363500D01*
X160440396Y-50363500D01*
X160615606Y-50363500D01*
X160786981Y-50327073D01*
X160786982Y-50327072D01*
X160786984Y-50327072D01*
X160947046Y-50255808D01*
X161088792Y-50152823D01*
X161184240Y-50046818D01*
X161197850Y-50031703D01*
X161257337Y-49995054D01*
X161327194Y-49996385D01*
X161382150Y-50031703D01*
X161491206Y-50152822D01*
X161632954Y-50255808D01*
X161793018Y-50327073D01*
X161964394Y-50363500D01*
X161964396Y-50363500D01*
X162139606Y-50363500D01*
X162310981Y-50327073D01*
X162310982Y-50327072D01*
X162310984Y-50327072D01*
X162471046Y-50255808D01*
X162612792Y-50152823D01*
X162730030Y-50022618D01*
X162745176Y-49996385D01*
X162817634Y-49870882D01*
X162828606Y-49837115D01*
X162871777Y-49704249D01*
X162890091Y-49530000D01*
X162871777Y-49355751D01*
X162843693Y-49269319D01*
X162817634Y-49189117D01*
X162730030Y-49037381D01*
X162692350Y-48995533D01*
X162662120Y-48932541D01*
X162660500Y-48912561D01*
X162660500Y-39877999D01*
X167055909Y-39877999D01*
X167074223Y-40052250D01*
X167128365Y-40218882D01*
X167215967Y-40370615D01*
X167333209Y-40500824D01*
X167474954Y-40603808D01*
X167635018Y-40675073D01*
X167806394Y-40711500D01*
X167806396Y-40711500D01*
X167981606Y-40711500D01*
X168152981Y-40675073D01*
X168152982Y-40675072D01*
X168152984Y-40675072D01*
X168313046Y-40603808D01*
X168454792Y-40500823D01*
X168572030Y-40370618D01*
X168659634Y-40218882D01*
X168713777Y-40052249D01*
X168732091Y-39878000D01*
X168713777Y-39703751D01*
X168659634Y-39537118D01*
X168659634Y-39537117D01*
X168572032Y-39385384D01*
X168494317Y-39299074D01*
X168454792Y-39255177D01*
X168454791Y-39255176D01*
X168454790Y-39255175D01*
X168313045Y-39152191D01*
X168152981Y-39080926D01*
X167981606Y-39044500D01*
X167981604Y-39044500D01*
X167806396Y-39044500D01*
X167806394Y-39044500D01*
X167635018Y-39080926D01*
X167474952Y-39152192D01*
X167333211Y-39255173D01*
X167215967Y-39385384D01*
X167128365Y-39537117D01*
X167074223Y-39703749D01*
X167055909Y-39877999D01*
X162660500Y-39877999D01*
X162660500Y-38402004D01*
X162661561Y-38385818D01*
X162665750Y-38353999D01*
X162660500Y-38314121D01*
X162660500Y-38314115D01*
X162644838Y-38195149D01*
X162641414Y-38186881D01*
X162583524Y-38047123D01*
X162510484Y-37951937D01*
X162510475Y-37951926D01*
X162503398Y-37942704D01*
X162485987Y-37920013D01*
X162460512Y-37900465D01*
X162448326Y-37889777D01*
X162351818Y-37793269D01*
X162318333Y-37731946D01*
X162323317Y-37662254D01*
X162365189Y-37606321D01*
X162389065Y-37592308D01*
X162400963Y-37587011D01*
X162471046Y-37555808D01*
X162599910Y-37462181D01*
X162665716Y-37438702D01*
X162672796Y-37438500D01*
X170281340Y-37438500D01*
X170348379Y-37458185D01*
X170394134Y-37510989D01*
X170404078Y-37580147D01*
X170399271Y-37600818D01*
X170376223Y-37671749D01*
X170357909Y-37845999D01*
X170376223Y-38020250D01*
X170430365Y-38186881D01*
X170517967Y-38338615D01*
X170575043Y-38402004D01*
X170635208Y-38468823D01*
X170776954Y-38571808D01*
X170937016Y-38643072D01*
X170997282Y-38655881D01*
X171058761Y-38689072D01*
X171092539Y-38750234D01*
X171095500Y-38777171D01*
X171095500Y-48150561D01*
X171075815Y-48217600D01*
X171063650Y-48233533D01*
X171025969Y-48275381D01*
X170938365Y-48427117D01*
X170884223Y-48593749D01*
X170873136Y-48699235D01*
X170846551Y-48763849D01*
X170837496Y-48773953D01*
X170545671Y-49065778D01*
X170533478Y-49076471D01*
X170508016Y-49096009D01*
X170508012Y-49096013D01*
X170508013Y-49096013D01*
X170483525Y-49127925D01*
X170483523Y-49127928D01*
X170481174Y-49130988D01*
X170481170Y-49130992D01*
X170410476Y-49223123D01*
X170349162Y-49371148D01*
X170347766Y-49381751D01*
X170333500Y-49490114D01*
X170333500Y-49490121D01*
X170328249Y-49529999D01*
X170332439Y-49561818D01*
X170333500Y-49578004D01*
X170333500Y-58564561D01*
X170313815Y-58631600D01*
X170301650Y-58647533D01*
X170263969Y-58689381D01*
X170176365Y-58841117D01*
X170122223Y-59007749D01*
X170103909Y-59182000D01*
X170122223Y-59356250D01*
X170176365Y-59522882D01*
X170263967Y-59674615D01*
X170381209Y-59804824D01*
X170522954Y-59907808D01*
X170683018Y-59979073D01*
X170854394Y-60015500D01*
X170854396Y-60015500D01*
X171029606Y-60015500D01*
X171200981Y-59979073D01*
X171200982Y-59979072D01*
X171200984Y-59979072D01*
X171361046Y-59907808D01*
X171502792Y-59804823D01*
X171620030Y-59674618D01*
X171707634Y-59522882D01*
X171761777Y-59356249D01*
X171780091Y-59182000D01*
X171761777Y-59007751D01*
X171707634Y-58841118D01*
X171707634Y-58841117D01*
X171620030Y-58689381D01*
X171582350Y-58647533D01*
X171552120Y-58584541D01*
X171550500Y-58564561D01*
X171550500Y-57112387D01*
X175948001Y-57112387D01*
X175967071Y-57330362D01*
X176023704Y-57541719D01*
X176041764Y-57580448D01*
X176116177Y-57740027D01*
X176241681Y-57919265D01*
X176396402Y-58073986D01*
X176575640Y-58199490D01*
X176773949Y-58291963D01*
X176985302Y-58348595D01*
X177130619Y-58361308D01*
X177203278Y-58367665D01*
X177203278Y-58367664D01*
X177203279Y-58367665D01*
X177421256Y-58348595D01*
X177632609Y-58291963D01*
X177830918Y-58199490D01*
X178010156Y-58073986D01*
X178164877Y-57919265D01*
X178290381Y-57740027D01*
X178382854Y-57541718D01*
X178439486Y-57330365D01*
X178458556Y-57112388D01*
X178439486Y-56894411D01*
X178382854Y-56683058D01*
X178290381Y-56484750D01*
X178164877Y-56305511D01*
X178010156Y-56150790D01*
X177830918Y-56025286D01*
X177676531Y-55953294D01*
X177632610Y-55932813D01*
X177421253Y-55876180D01*
X177203278Y-55857110D01*
X176985304Y-55876180D01*
X176773947Y-55932813D01*
X176575640Y-56025286D01*
X176396401Y-56150790D01*
X176241681Y-56305510D01*
X176116177Y-56484749D01*
X176023704Y-56683056D01*
X175967071Y-56894413D01*
X175948001Y-57112387D01*
X171550500Y-57112387D01*
X171550500Y-50546000D01*
X178993909Y-50546000D01*
X179012223Y-50720250D01*
X179066365Y-50886882D01*
X179153967Y-51038615D01*
X179271209Y-51168824D01*
X179412954Y-51271808D01*
X179573018Y-51343073D01*
X179744394Y-51379500D01*
X179744396Y-51379500D01*
X179919606Y-51379500D01*
X180090981Y-51343073D01*
X180090982Y-51343072D01*
X180090984Y-51343072D01*
X180251046Y-51271808D01*
X180392792Y-51168823D01*
X180510030Y-51038618D01*
X180511645Y-51035822D01*
X180597634Y-50886882D01*
X180620866Y-50815382D01*
X180651777Y-50720249D01*
X180670091Y-50546000D01*
X180651777Y-50371751D01*
X180614104Y-50255808D01*
X180597634Y-50205117D01*
X180510032Y-50053384D01*
X180392790Y-49923175D01*
X180251045Y-49820191D01*
X180090981Y-49748926D01*
X179919606Y-49712500D01*
X179919604Y-49712500D01*
X179744396Y-49712500D01*
X179744394Y-49712500D01*
X179573018Y-49748926D01*
X179412952Y-49820192D01*
X179271211Y-49923173D01*
X179153967Y-50053384D01*
X179066365Y-50205117D01*
X179012223Y-50371749D01*
X178993909Y-50546000D01*
X171550500Y-50546000D01*
X171550500Y-49833410D01*
X171570185Y-49766371D01*
X171586810Y-49745738D01*
X171694732Y-49637816D01*
X171756053Y-49604334D01*
X171782411Y-49601500D01*
X171791606Y-49601500D01*
X171902144Y-49578004D01*
X171962984Y-49565072D01*
X171975783Y-49559373D01*
X172045029Y-49550087D01*
X172108306Y-49579713D01*
X172145522Y-49638847D01*
X172149539Y-49659685D01*
X172150537Y-49669175D01*
X172154223Y-49704250D01*
X172208365Y-49870882D01*
X172295967Y-50022615D01*
X172413209Y-50152824D01*
X172554954Y-50255808D01*
X172715018Y-50327073D01*
X172886394Y-50363500D01*
X172886396Y-50363500D01*
X173061606Y-50363500D01*
X173232981Y-50327073D01*
X173232982Y-50327072D01*
X173232984Y-50327072D01*
X173393046Y-50255808D01*
X173534792Y-50152823D01*
X173652030Y-50022618D01*
X173667176Y-49996385D01*
X173739634Y-49870882D01*
X173750606Y-49837115D01*
X173793777Y-49704249D01*
X173812091Y-49530000D01*
X173793777Y-49355751D01*
X173765693Y-49269319D01*
X173739634Y-49189117D01*
X173652032Y-49037384D01*
X173534790Y-48907175D01*
X173393045Y-48804191D01*
X173232982Y-48732927D01*
X173172718Y-48720117D01*
X173111236Y-48686924D01*
X173077460Y-48625761D01*
X173074500Y-48598827D01*
X173074500Y-39733437D01*
X173094185Y-39666398D01*
X173106344Y-39650471D01*
X173144030Y-39608618D01*
X173155260Y-39589168D01*
X173231634Y-39456882D01*
X173268417Y-39343677D01*
X173285777Y-39290249D01*
X173304091Y-39116000D01*
X173285777Y-38941751D01*
X173257693Y-38855319D01*
X173231634Y-38775117D01*
X173144032Y-38623384D01*
X173026790Y-38493175D01*
X172885045Y-38390191D01*
X172724981Y-38318926D01*
X172553606Y-38282500D01*
X172553604Y-38282500D01*
X172415874Y-38282500D01*
X172348835Y-38262815D01*
X172303080Y-38210011D01*
X172301313Y-38205953D01*
X172251053Y-38084615D01*
X172235524Y-38047125D01*
X172194951Y-37994249D01*
X172162477Y-37951928D01*
X172162474Y-37951925D01*
X172155399Y-37942705D01*
X172155399Y-37942704D01*
X172140321Y-37923055D01*
X172137987Y-37920013D01*
X172112512Y-37900465D01*
X172100326Y-37889777D01*
X172065610Y-37855061D01*
X172032125Y-37793738D01*
X172037109Y-37724046D01*
X172078981Y-37668113D01*
X172127506Y-37646091D01*
X172216984Y-37627072D01*
X172377046Y-37555808D01*
X172518792Y-37452823D01*
X172636030Y-37322618D01*
X172639956Y-37315819D01*
X172723634Y-37170882D01*
X172740104Y-37120192D01*
X172777777Y-37004249D01*
X172796091Y-36830000D01*
X172777777Y-36655751D01*
X172739381Y-36537581D01*
X172723634Y-36489117D01*
X172636032Y-36337384D01*
X172577410Y-36272279D01*
X172518792Y-36207177D01*
X172518791Y-36207176D01*
X172518790Y-36207175D01*
X172377045Y-36104191D01*
X172216981Y-36032926D01*
X172045606Y-35996500D01*
X172045604Y-35996500D01*
X171870396Y-35996500D01*
X171870394Y-35996500D01*
X171699018Y-36032926D01*
X171538955Y-36104191D01*
X171410090Y-36197818D01*
X171344283Y-36221298D01*
X171337204Y-36221500D01*
X162672796Y-36221500D01*
X162605757Y-36201815D01*
X162599918Y-36197823D01*
X162471046Y-36104192D01*
X162471045Y-36104191D01*
X162310981Y-36032926D01*
X162139606Y-35996500D01*
X162139604Y-35996500D01*
X161964396Y-35996500D01*
X161964394Y-35996500D01*
X161793018Y-36032926D01*
X161632952Y-36104192D01*
X161491211Y-36207173D01*
X161373967Y-36337384D01*
X161315869Y-36438015D01*
X161265302Y-36486231D01*
X161196695Y-36499454D01*
X161131830Y-36473486D01*
X161091302Y-36416571D01*
X161087977Y-36346781D01*
X161090543Y-36337721D01*
X161111392Y-36273558D01*
X161129706Y-36099309D01*
X161111392Y-35925060D01*
X161057249Y-35758427D01*
X161057249Y-35758426D01*
X160969647Y-35606693D01*
X160852405Y-35476484D01*
X160710660Y-35373500D01*
X160550596Y-35302235D01*
X160379221Y-35265809D01*
X160379219Y-35265809D01*
X160204011Y-35265809D01*
X160204009Y-35265809D01*
X160032633Y-35302235D01*
X159872567Y-35373501D01*
X159730826Y-35476482D01*
X159613582Y-35606693D01*
X159525980Y-35758426D01*
X159471838Y-35925058D01*
X159453524Y-36099309D01*
X153008500Y-36099309D01*
X153008500Y-30589437D01*
X153028185Y-30522398D01*
X153040344Y-30506471D01*
X153078030Y-30464618D01*
X153110430Y-30408500D01*
X153165634Y-30312882D01*
X153219777Y-30146249D01*
X153238091Y-29972000D01*
X153219777Y-29797751D01*
X153165634Y-29631118D01*
X153165634Y-29631117D01*
X153078032Y-29479384D01*
X152988675Y-29380144D01*
X152960792Y-29349177D01*
X152960791Y-29349176D01*
X152960790Y-29349175D01*
X152819045Y-29246191D01*
X152658981Y-29174926D01*
X152487606Y-29138500D01*
X152487604Y-29138500D01*
X152312396Y-29138500D01*
X152312394Y-29138500D01*
X152141018Y-29174926D01*
X151980952Y-29246192D01*
X151839211Y-29349173D01*
X151721967Y-29479384D01*
X151634365Y-29631117D01*
X151580223Y-29797749D01*
X151561909Y-29972000D01*
X151580223Y-30146250D01*
X151634365Y-30312882D01*
X151721967Y-30464615D01*
X151721970Y-30464618D01*
X151759650Y-30506465D01*
X151789879Y-30569455D01*
X151791500Y-30589437D01*
X151791500Y-37047917D01*
X151771815Y-37114956D01*
X151719011Y-37160711D01*
X151649853Y-37170655D01*
X151586297Y-37141630D01*
X151560113Y-37109917D01*
X151554032Y-37099385D01*
X151554031Y-37099384D01*
X151554030Y-37099382D01*
X151436792Y-36969177D01*
X151436791Y-36969176D01*
X151436790Y-36969175D01*
X151295045Y-36866191D01*
X151134981Y-36794926D01*
X151032263Y-36773093D01*
X150970781Y-36739900D01*
X150937005Y-36678737D01*
X150934725Y-36664777D01*
X150933777Y-36655751D01*
X150895381Y-36537581D01*
X150879634Y-36489117D01*
X150792032Y-36337384D01*
X150733410Y-36272279D01*
X150674792Y-36207177D01*
X150674791Y-36207176D01*
X150674790Y-36207175D01*
X150533045Y-36104191D01*
X150372981Y-36032926D01*
X150201606Y-35996500D01*
X150201604Y-35996500D01*
X150026396Y-35996500D01*
X150026394Y-35996500D01*
X149855018Y-36032926D01*
X149694952Y-36104192D01*
X149553211Y-36207173D01*
X149435967Y-36337384D01*
X149348365Y-36489117D01*
X149294223Y-36655749D01*
X149275909Y-36830000D01*
X149294223Y-37004250D01*
X149348365Y-37170882D01*
X149435967Y-37322615D01*
X149435970Y-37322618D01*
X149473650Y-37364465D01*
X149503879Y-37427455D01*
X149505500Y-37447437D01*
X149505500Y-37650500D01*
X149485815Y-37717539D01*
X149433011Y-37763294D01*
X149381500Y-37774500D01*
X149264394Y-37774500D01*
X149093018Y-37810926D01*
X148932952Y-37882192D01*
X148791211Y-37985173D01*
X148673967Y-38115384D01*
X148586365Y-38267117D01*
X148532223Y-38433749D01*
X148513909Y-38608000D01*
X148532223Y-38782250D01*
X148586365Y-38948882D01*
X148673967Y-39100615D01*
X148673970Y-39100618D01*
X148711650Y-39142465D01*
X148741879Y-39205455D01*
X148743500Y-39225437D01*
X148743500Y-44400588D01*
X148723815Y-44467627D01*
X148707181Y-44488269D01*
X148374270Y-44821181D01*
X148312947Y-44854666D01*
X148286589Y-44857500D01*
X138224012Y-44857500D01*
X138207827Y-44856439D01*
X138204520Y-44856003D01*
X138175999Y-44852248D01*
X138017148Y-44873162D01*
X137869124Y-44934475D01*
X137775042Y-45006667D01*
X137775038Y-45006670D01*
X137773929Y-45007522D01*
X137773925Y-45007525D01*
X137742013Y-45032013D01*
X137742008Y-45032019D01*
X137742006Y-45032021D01*
X137722466Y-45057484D01*
X137711775Y-45069674D01*
X132343270Y-50438181D01*
X132281947Y-50471666D01*
X132255589Y-50474500D01*
X132246394Y-50474500D01*
X132075018Y-50510926D01*
X131914952Y-50582192D01*
X131773211Y-50685173D01*
X131655967Y-50815384D01*
X131568365Y-50967117D01*
X131514223Y-51133749D01*
X131495909Y-51308000D01*
X131514223Y-51482250D01*
X131568365Y-51648882D01*
X131655967Y-51800615D01*
X131773209Y-51930824D01*
X131914954Y-52033808D01*
X132075018Y-52105073D01*
X132246394Y-52141500D01*
X132246396Y-52141500D01*
X132421606Y-52141500D01*
X132535857Y-52117214D01*
X132592984Y-52105072D01*
X132725750Y-52045960D01*
X132794998Y-52036676D01*
X132849067Y-52058921D01*
X132912589Y-52105072D01*
X132948208Y-52130951D01*
X133108272Y-52202216D01*
X133252024Y-52232771D01*
X133313506Y-52265963D01*
X133344174Y-52315742D01*
X133370546Y-52396905D01*
X133458147Y-52548637D01*
X133575389Y-52678846D01*
X133717134Y-52781830D01*
X133877198Y-52853095D01*
X133984886Y-52875984D01*
X133994463Y-52878020D01*
X134003525Y-52879946D01*
X134065007Y-52913138D01*
X134095675Y-52962915D01*
X134099176Y-52973692D01*
X134186779Y-53125426D01*
X134304021Y-53255635D01*
X134416156Y-53337106D01*
X134445766Y-53358619D01*
X134605828Y-53429883D01*
X134666196Y-53442714D01*
X134727675Y-53475905D01*
X134758343Y-53525683D01*
X134774443Y-53575230D01*
X134774444Y-53575233D01*
X134862048Y-53726969D01*
X134979286Y-53857174D01*
X134979287Y-53857175D01*
X135121032Y-53960159D01*
X135281096Y-54031424D01*
X135452472Y-54067851D01*
X135452474Y-54067851D01*
X135627684Y-54067851D01*
X135799059Y-54031424D01*
X135799060Y-54031423D01*
X135799062Y-54031423D01*
X135818750Y-54022657D01*
X135888001Y-54013373D01*
X135951277Y-54043001D01*
X135988490Y-54102136D01*
X135987825Y-54172003D01*
X135949493Y-54230419D01*
X135949018Y-54230820D01*
X135873003Y-54294776D01*
X135872977Y-54294799D01*
X135871798Y-54295791D01*
X135870685Y-54296828D01*
X135870655Y-54296855D01*
X135311491Y-54818064D01*
X135311469Y-54818085D01*
X135310356Y-54819123D01*
X135309302Y-54820210D01*
X135309270Y-54820242D01*
X134777325Y-55369159D01*
X134777309Y-55369175D01*
X134776222Y-55370298D01*
X134775190Y-55371476D01*
X134775170Y-55371499D01*
X134271805Y-55946714D01*
X134271791Y-55946730D01*
X134270774Y-55947893D01*
X134269828Y-55949090D01*
X134269812Y-55949111D01*
X133796290Y-56549182D01*
X133796275Y-56549200D01*
X133795317Y-56550416D01*
X133794408Y-56551695D01*
X133794404Y-56551702D01*
X133351986Y-57175034D01*
X133351966Y-57175062D01*
X133351080Y-57176312D01*
X133350244Y-57177626D01*
X133350239Y-57177634D01*
X132940060Y-57822625D01*
X132940046Y-57822647D01*
X132939208Y-57823966D01*
X132938443Y-57825314D01*
X132938429Y-57825339D01*
X132561535Y-58490346D01*
X132561524Y-58490365D01*
X132560766Y-58491704D01*
X132560070Y-58493091D01*
X132560062Y-58493107D01*
X132217432Y-59176402D01*
X132217416Y-59176434D01*
X132216730Y-59177804D01*
X132216107Y-59179220D01*
X132216098Y-59179241D01*
X131908626Y-59879039D01*
X131908614Y-59879067D01*
X131907988Y-59880493D01*
X131907427Y-59881968D01*
X131907423Y-59881979D01*
X131635906Y-60596460D01*
X131635895Y-60596490D01*
X131635338Y-60597957D01*
X131634852Y-60599460D01*
X131634846Y-60599479D01*
X131399970Y-61326837D01*
X131399959Y-61326871D01*
X131399484Y-61328345D01*
X131399080Y-61329853D01*
X131399073Y-61329878D01*
X131332869Y-61577225D01*
X131296521Y-61636895D01*
X131233682Y-61667442D01*
X131164304Y-61659165D01*
X131110414Y-61614695D01*
X131089122Y-61548148D01*
X131089086Y-61545164D01*
X131089086Y-59603616D01*
X131089085Y-57647483D01*
X131108770Y-57580448D01*
X131125401Y-57559809D01*
X131173134Y-57512075D01*
X131185320Y-57501387D01*
X131210793Y-57481843D01*
X131222776Y-57466226D01*
X131222779Y-57466223D01*
X131235281Y-57449928D01*
X131235283Y-57449928D01*
X131304735Y-57359415D01*
X131312368Y-57350395D01*
X131314802Y-57347781D01*
X131318268Y-57341778D01*
X131321420Y-57337669D01*
X131321181Y-57336293D01*
X131329827Y-57302832D01*
X131369644Y-57206706D01*
X131385306Y-57087741D01*
X131385306Y-57087733D01*
X131390556Y-57047856D01*
X131386366Y-57016035D01*
X131385306Y-56999851D01*
X131385306Y-55043745D01*
X131404991Y-54976706D01*
X131417150Y-54960779D01*
X131454836Y-54918926D01*
X131477666Y-54879384D01*
X131542440Y-54767190D01*
X131562820Y-54704468D01*
X131596583Y-54600557D01*
X131614897Y-54426308D01*
X131596583Y-54252059D01*
X131563917Y-54151524D01*
X131542440Y-54085425D01*
X131454838Y-53933692D01*
X131379506Y-53850028D01*
X131337598Y-53803485D01*
X131337597Y-53803484D01*
X131337596Y-53803483D01*
X131195851Y-53700499D01*
X131035787Y-53629234D01*
X130864412Y-53592808D01*
X130864410Y-53592808D01*
X130689202Y-53592808D01*
X130689200Y-53592808D01*
X130517824Y-53629234D01*
X130357758Y-53700500D01*
X130216017Y-53803481D01*
X130098773Y-53933692D01*
X130011171Y-54085425D01*
X129957029Y-54252057D01*
X129938715Y-54426307D01*
X129957029Y-54600558D01*
X130011171Y-54767190D01*
X130098773Y-54918923D01*
X130098776Y-54918926D01*
X130136456Y-54960773D01*
X130166685Y-55023763D01*
X130168306Y-55043745D01*
X130168306Y-55709380D01*
X130148621Y-55776419D01*
X130095817Y-55822174D01*
X130026659Y-55832118D01*
X129993871Y-55822660D01*
X129895906Y-55779043D01*
X129724531Y-55742617D01*
X129724529Y-55742617D01*
X129549321Y-55742617D01*
X129549319Y-55742617D01*
X129377943Y-55779043D01*
X129217877Y-55850309D01*
X129076136Y-55953290D01*
X128958892Y-56083501D01*
X128871290Y-56235234D01*
X128817148Y-56401866D01*
X128798834Y-56576116D01*
X128817148Y-56750367D01*
X128871290Y-56916999D01*
X128958892Y-57068732D01*
X129076134Y-57198941D01*
X129156162Y-57257085D01*
X129217879Y-57301925D01*
X129281756Y-57330365D01*
X129365934Y-57367843D01*
X129419171Y-57413093D01*
X129439493Y-57479942D01*
X129439499Y-57481123D01*
X129439500Y-61672588D01*
X129419815Y-61739627D01*
X129403181Y-61760269D01*
X128889671Y-62273778D01*
X128877478Y-62284471D01*
X128852016Y-62304009D01*
X128852012Y-62304013D01*
X128852013Y-62304013D01*
X128827525Y-62335925D01*
X128827523Y-62335928D01*
X128825174Y-62338988D01*
X128825170Y-62338992D01*
X128754477Y-62431121D01*
X128754475Y-62431124D01*
X128754476Y-62431124D01*
X128715280Y-62525753D01*
X128701332Y-62559425D01*
X128693161Y-62579151D01*
X128677500Y-62698115D01*
X128677500Y-62698121D01*
X128672249Y-62738002D01*
X128676438Y-62769821D01*
X128677499Y-62786004D01*
X128677500Y-70562588D01*
X128657815Y-70629627D01*
X128641181Y-70650269D01*
X127098351Y-72193098D01*
X127037028Y-72226583D01*
X126967336Y-72221599D01*
X126911403Y-72179727D01*
X126886986Y-72114263D01*
X126901838Y-72045990D01*
X126903260Y-72043456D01*
X126914081Y-72024715D01*
X126968224Y-71858082D01*
X126986538Y-71683833D01*
X126968224Y-71509584D01*
X126914081Y-71342951D01*
X126914081Y-71342950D01*
X126826479Y-71191217D01*
X126758808Y-71116062D01*
X126709239Y-71061010D01*
X126709238Y-71061009D01*
X126709237Y-71061008D01*
X126567492Y-70958024D01*
X126407428Y-70886759D01*
X126236053Y-70850333D01*
X126236051Y-70850333D01*
X126060843Y-70850333D01*
X126060841Y-70850333D01*
X125889465Y-70886759D01*
X125729399Y-70958025D01*
X125587658Y-71061006D01*
X125470414Y-71191217D01*
X125382812Y-71342950D01*
X125328670Y-71509582D01*
X125324373Y-71550464D01*
X125317841Y-71612618D01*
X125317583Y-71615068D01*
X125290998Y-71679682D01*
X125281943Y-71689786D01*
X125227275Y-71744454D01*
X125165952Y-71777939D01*
X125096260Y-71772955D01*
X125040327Y-71731083D01*
X125021663Y-71695091D01*
X125019939Y-71689786D01*
X124981125Y-71570328D01*
X124971634Y-71541117D01*
X124884032Y-71389384D01*
X124815551Y-71313329D01*
X124766792Y-71259177D01*
X124766791Y-71259176D01*
X124766790Y-71259175D01*
X124625045Y-71156191D01*
X124464981Y-71084926D01*
X124293606Y-71048500D01*
X124293604Y-71048500D01*
X124118396Y-71048500D01*
X124118394Y-71048500D01*
X123947018Y-71084926D01*
X123786952Y-71156192D01*
X123741383Y-71189300D01*
X123675576Y-71212779D01*
X123607523Y-71196953D01*
X123558829Y-71146846D01*
X123544499Y-71088984D01*
X123544499Y-66931284D01*
X123564184Y-66864247D01*
X123616988Y-66818492D01*
X123686146Y-66808548D01*
X123749702Y-66837573D01*
X123762219Y-66850091D01*
X123771644Y-66860971D01*
X123985430Y-67053896D01*
X124221164Y-67219286D01*
X124475322Y-67354668D01*
X124478857Y-67356027D01*
X124478861Y-67356029D01*
X124557849Y-67386400D01*
X124744104Y-67458016D01*
X125023490Y-67527787D01*
X125309303Y-67562935D01*
X125597269Y-67562937D01*
X125883082Y-67527792D01*
X126162469Y-67458025D01*
X126431252Y-67354680D01*
X126685412Y-67219301D01*
X126921148Y-67053914D01*
X127134936Y-66860991D01*
X127212366Y-66771608D01*
X127233200Y-66752484D01*
X127238767Y-66748441D01*
X127238768Y-66748437D01*
X127240209Y-66746455D01*
X127242523Y-66740718D01*
X127246847Y-66731823D01*
X127246852Y-66731818D01*
X127249326Y-66718996D01*
X127253152Y-66704169D01*
X127254529Y-66699930D01*
X127256025Y-66684298D01*
X127256326Y-66682737D01*
X127257060Y-66678936D01*
X127257058Y-66678932D01*
X127255900Y-66662652D01*
X127256133Y-66662635D01*
X127253777Y-66648609D01*
X127253777Y-63776172D01*
X127256134Y-63762147D01*
X127255900Y-63762131D01*
X127257060Y-63745844D01*
X127257059Y-63745841D01*
X127257060Y-63745840D01*
X127256027Y-63740491D01*
X127254532Y-63724853D01*
X127253147Y-63720590D01*
X127249325Y-63705776D01*
X127246852Y-63692958D01*
X127246850Y-63692955D01*
X127242517Y-63684041D01*
X127240210Y-63678322D01*
X127238768Y-63676336D01*
X127233202Y-63672292D01*
X127212366Y-63653166D01*
X127137434Y-63566667D01*
X127137429Y-63566662D01*
X127134936Y-63563784D01*
X127132106Y-63561230D01*
X126923973Y-63373409D01*
X126923971Y-63373407D01*
X126921147Y-63370859D01*
X126685410Y-63205470D01*
X126431249Y-63070090D01*
X126412518Y-63062888D01*
X126166010Y-62968106D01*
X126166009Y-62968105D01*
X126162465Y-62966743D01*
X126158785Y-62965824D01*
X125886751Y-62897891D01*
X125886743Y-62897889D01*
X125883077Y-62896974D01*
X125879315Y-62896511D01*
X125879313Y-62896511D01*
X125601026Y-62862289D01*
X125601012Y-62862288D01*
X125597262Y-62861827D01*
X125309294Y-62861827D01*
X125305544Y-62862288D01*
X125305529Y-62862289D01*
X125027242Y-62896511D01*
X125027237Y-62896511D01*
X125023479Y-62896974D01*
X125019815Y-62897888D01*
X125019804Y-62897891D01*
X124747770Y-62965824D01*
X124747765Y-62965825D01*
X124744091Y-62966743D01*
X124740551Y-62968104D01*
X124740545Y-62968106D01*
X124478853Y-63068726D01*
X124478845Y-63068729D01*
X124475307Y-63070090D01*
X124471962Y-63071871D01*
X124471957Y-63071874D01*
X124224487Y-63203690D01*
X124224482Y-63203693D01*
X124221146Y-63205470D01*
X124218054Y-63207638D01*
X124218043Y-63207646D01*
X123988526Y-63368672D01*
X123985409Y-63370859D01*
X123982592Y-63373400D01*
X123982582Y-63373409D01*
X123774443Y-63561235D01*
X123774430Y-63561247D01*
X123771620Y-63563784D01*
X123769139Y-63566647D01*
X123769133Y-63566654D01*
X123762220Y-63574635D01*
X123703445Y-63612415D01*
X123633576Y-63612422D01*
X123574794Y-63574653D01*
X123545763Y-63511100D01*
X123544499Y-63493441D01*
X123544499Y-61009410D01*
X123564184Y-60942371D01*
X123580813Y-60921734D01*
X127215232Y-57287315D01*
X127227410Y-57276635D01*
X127252887Y-57257087D01*
X127267013Y-57238676D01*
X127267017Y-57238673D01*
X127277376Y-57225172D01*
X127277378Y-57225171D01*
X127350424Y-57129976D01*
X127411738Y-56981951D01*
X127416997Y-56942004D01*
X127427400Y-56862985D01*
X127427400Y-56862979D01*
X127432650Y-56823100D01*
X127428460Y-56791279D01*
X127427400Y-56775095D01*
X127427400Y-51536176D01*
X127435218Y-51492842D01*
X127452804Y-51445692D01*
X127470889Y-51397206D01*
X127477400Y-51336643D01*
X127477400Y-50239367D01*
X127470889Y-50178804D01*
X127470888Y-50178802D01*
X127470888Y-50178799D01*
X127419789Y-50041801D01*
X127332161Y-49924743D01*
X127215103Y-49837115D01*
X127078105Y-49786016D01*
X127020824Y-49779858D01*
X127020818Y-49779857D01*
X127017538Y-49779505D01*
X126620262Y-49779505D01*
X126616987Y-49779856D01*
X126616968Y-49779858D01*
X126582150Y-49783601D01*
X126555647Y-49783601D01*
X126520830Y-49779858D01*
X126520813Y-49779857D01*
X126517538Y-49779505D01*
X126120262Y-49779505D01*
X126116987Y-49779856D01*
X126116968Y-49779858D01*
X126082150Y-49783601D01*
X126055647Y-49783601D01*
X126020830Y-49779858D01*
X126020813Y-49779857D01*
X126017538Y-49779505D01*
X125620262Y-49779505D01*
X125616987Y-49779856D01*
X125616968Y-49779858D01*
X125582150Y-49783601D01*
X125555647Y-49783601D01*
X125520830Y-49779858D01*
X125520813Y-49779857D01*
X125517538Y-49779505D01*
X125120262Y-49779505D01*
X125116987Y-49779856D01*
X125116968Y-49779858D01*
X125082150Y-49783601D01*
X125055647Y-49783601D01*
X125020830Y-49779858D01*
X125020813Y-49779857D01*
X125017538Y-49779505D01*
X124620262Y-49779505D01*
X124616982Y-49779857D01*
X124616975Y-49779858D01*
X124559694Y-49786016D01*
X124422696Y-49837115D01*
X124305638Y-49924743D01*
X124218010Y-50041801D01*
X124166911Y-50178799D01*
X124164082Y-50205117D01*
X124160400Y-50239367D01*
X124160400Y-51336643D01*
X124160752Y-51339923D01*
X124160753Y-51339929D01*
X124166911Y-51397206D01*
X124202582Y-51492842D01*
X124210400Y-51536176D01*
X124210400Y-53438826D01*
X124190715Y-53505865D01*
X124137911Y-53551620D01*
X124136836Y-53552106D01*
X123991441Y-53616839D01*
X123849702Y-53719819D01*
X123732458Y-53850030D01*
X123644856Y-54001763D01*
X123590714Y-54168395D01*
X123572400Y-54342645D01*
X123590714Y-54516896D01*
X123644856Y-54683528D01*
X123732458Y-54835261D01*
X123849700Y-54965470D01*
X123991445Y-55068454D01*
X124151509Y-55139719D01*
X124261280Y-55163051D01*
X124322762Y-55196243D01*
X124356539Y-55257406D01*
X124359500Y-55284341D01*
X124359499Y-57699155D01*
X124339814Y-57766195D01*
X124323180Y-57786836D01*
X122126664Y-59983352D01*
X122114471Y-59994045D01*
X122089009Y-60013583D01*
X122075735Y-60030882D01*
X122064518Y-60045499D01*
X122064516Y-60045502D01*
X122062167Y-60048562D01*
X122062163Y-60048566D01*
X121991469Y-60140696D01*
X121974107Y-60182615D01*
X121961363Y-60213382D01*
X121949835Y-60241212D01*
X121930154Y-60288724D01*
X121914493Y-60407689D01*
X121914493Y-60407695D01*
X121909242Y-60447573D01*
X121913432Y-60479392D01*
X121914493Y-60495578D01*
X121914493Y-64698308D01*
X121894808Y-64765347D01*
X121842004Y-64811102D01*
X121772846Y-64821046D01*
X121709290Y-64792021D01*
X121678111Y-64750713D01*
X121611213Y-64607253D01*
X121577315Y-64534558D01*
X121441775Y-64340986D01*
X121274681Y-64173892D01*
X121081110Y-64038352D01*
X120866943Y-63938484D01*
X120805781Y-63922096D01*
X120638687Y-63877323D01*
X120403279Y-63856727D01*
X120167872Y-63877323D01*
X119939616Y-63938484D01*
X119725450Y-64038352D01*
X119531878Y-64173892D01*
X119364785Y-64340985D01*
X119229245Y-64534557D01*
X119129377Y-64748723D01*
X119068216Y-64976979D01*
X119047620Y-65212387D01*
X119068216Y-65447794D01*
X119109661Y-65602468D01*
X119129377Y-65676050D01*
X119229245Y-65890217D01*
X119364785Y-66083788D01*
X119531879Y-66250882D01*
X119725450Y-66386422D01*
X119939617Y-66486290D01*
X120167871Y-66547449D01*
X120167872Y-66547450D01*
X120403279Y-66568046D01*
X120403279Y-66568045D01*
X120403280Y-66568046D01*
X120638688Y-66547450D01*
X120866943Y-66486290D01*
X121081110Y-66386422D01*
X121274681Y-66250882D01*
X121441775Y-66083788D01*
X121577315Y-65890217D01*
X121677183Y-65676050D01*
X121677183Y-65676047D01*
X121678111Y-65674059D01*
X121724283Y-65621620D01*
X121791477Y-65602468D01*
X121858358Y-65622684D01*
X121903692Y-65675849D01*
X121914493Y-65726464D01*
X121914493Y-67386400D01*
X121894808Y-67453439D01*
X121878174Y-67474081D01*
X119473929Y-69878325D01*
X119412606Y-69911810D01*
X119342914Y-69906826D01*
X119286981Y-69864954D01*
X119262564Y-69799490D01*
X119262249Y-69790671D01*
X119262249Y-67901760D01*
X119263310Y-67885574D01*
X119266478Y-67861514D01*
X119267500Y-67853749D01*
X119246587Y-67694898D01*
X119185273Y-67546873D01*
X119143551Y-67492500D01*
X119112235Y-67451688D01*
X119112224Y-67451675D01*
X119106526Y-67444250D01*
X119087736Y-67419762D01*
X119062261Y-67400214D01*
X119050075Y-67389526D01*
X118246819Y-66586270D01*
X118213334Y-66524947D01*
X118210500Y-66498589D01*
X118210500Y-54658004D01*
X118211561Y-54641818D01*
X118215750Y-54609999D01*
X118210500Y-54570123D01*
X118210500Y-54570122D01*
X118210500Y-54570115D01*
X118194838Y-54451150D01*
X118133524Y-54303125D01*
X118101086Y-54260851D01*
X118060477Y-54207928D01*
X118060474Y-54207925D01*
X118053399Y-54198705D01*
X118053399Y-54198704D01*
X118046208Y-54189333D01*
X118035987Y-54176013D01*
X118010512Y-54156465D01*
X117998326Y-54145777D01*
X113128548Y-49275999D01*
X115747909Y-49275999D01*
X115766223Y-49450250D01*
X115820365Y-49616882D01*
X115907967Y-49768615D01*
X116025209Y-49898824D01*
X116166954Y-50001808D01*
X116327018Y-50073073D01*
X116498394Y-50109500D01*
X116498396Y-50109500D01*
X116673606Y-50109500D01*
X116844981Y-50073073D01*
X116844982Y-50073072D01*
X116844984Y-50073072D01*
X117005046Y-50001808D01*
X117146792Y-49898823D01*
X117264030Y-49768618D01*
X117265328Y-49766371D01*
X117351634Y-49616882D01*
X117368029Y-49566423D01*
X117405777Y-49450249D01*
X117424091Y-49276000D01*
X117405777Y-49101751D01*
X117354390Y-48943599D01*
X117351634Y-48935117D01*
X117264032Y-48783384D01*
X117205411Y-48718279D01*
X117176925Y-48686643D01*
X122920400Y-48686643D01*
X122920752Y-48689923D01*
X122920753Y-48689929D01*
X122926911Y-48747210D01*
X122978010Y-48884208D01*
X123065638Y-49001266D01*
X123182696Y-49088894D01*
X123319694Y-49139993D01*
X123319697Y-49139993D01*
X123319699Y-49139994D01*
X123380262Y-49146505D01*
X123383572Y-49146505D01*
X124074228Y-49146505D01*
X124077538Y-49146505D01*
X124138101Y-49139994D01*
X124138103Y-49139993D01*
X124138105Y-49139993D01*
X124240633Y-49101751D01*
X124275104Y-49088894D01*
X124392161Y-49001266D01*
X124479789Y-48884209D01*
X124501824Y-48825129D01*
X124530888Y-48747210D01*
X124530888Y-48747208D01*
X124530889Y-48747206D01*
X124537400Y-48686643D01*
X127100400Y-48686643D01*
X127100752Y-48689923D01*
X127100753Y-48689929D01*
X127106911Y-48747210D01*
X127158010Y-48884208D01*
X127245638Y-49001266D01*
X127362696Y-49088894D01*
X127499694Y-49139993D01*
X127499697Y-49139993D01*
X127499699Y-49139994D01*
X127560262Y-49146505D01*
X127563572Y-49146505D01*
X128254228Y-49146505D01*
X128257538Y-49146505D01*
X128318101Y-49139994D01*
X128318103Y-49139993D01*
X128318105Y-49139993D01*
X128420633Y-49101751D01*
X128455104Y-49088894D01*
X128572161Y-49001266D01*
X128659789Y-48884209D01*
X128681824Y-48825129D01*
X128710888Y-48747210D01*
X128710888Y-48747208D01*
X128710889Y-48747206D01*
X128717400Y-48686643D01*
X128717400Y-47589367D01*
X128710889Y-47528804D01*
X128710888Y-47528802D01*
X128710888Y-47528799D01*
X128659789Y-47391801D01*
X128572161Y-47274743D01*
X128455103Y-47187115D01*
X128318105Y-47136016D01*
X128260824Y-47129858D01*
X128260818Y-47129857D01*
X128257538Y-47129505D01*
X127560262Y-47129505D01*
X127556982Y-47129857D01*
X127556975Y-47129858D01*
X127499694Y-47136016D01*
X127362696Y-47187115D01*
X127245638Y-47274743D01*
X127158010Y-47391801D01*
X127106911Y-47528799D01*
X127100753Y-47586080D01*
X127100400Y-47589367D01*
X127100400Y-48686643D01*
X124537400Y-48686643D01*
X124537400Y-47589367D01*
X124530889Y-47528804D01*
X124530888Y-47528802D01*
X124530888Y-47528799D01*
X124479789Y-47391801D01*
X124392161Y-47274743D01*
X124275103Y-47187115D01*
X124138105Y-47136016D01*
X124080824Y-47129858D01*
X124080818Y-47129857D01*
X124077538Y-47129505D01*
X123380262Y-47129505D01*
X123376982Y-47129857D01*
X123376975Y-47129858D01*
X123319694Y-47136016D01*
X123182696Y-47187115D01*
X123065638Y-47274743D01*
X122978010Y-47391801D01*
X122926911Y-47528799D01*
X122920753Y-47586080D01*
X122920400Y-47589367D01*
X122920400Y-48686643D01*
X117176925Y-48686643D01*
X117146792Y-48653177D01*
X117146791Y-48653176D01*
X117146790Y-48653175D01*
X117005045Y-48550191D01*
X116844981Y-48478926D01*
X116673606Y-48442500D01*
X116673604Y-48442500D01*
X116498396Y-48442500D01*
X116498394Y-48442500D01*
X116327018Y-48478926D01*
X116166952Y-48550192D01*
X116025211Y-48653173D01*
X115907967Y-48783384D01*
X115820365Y-48935117D01*
X115766223Y-49101749D01*
X115747909Y-49275999D01*
X113128548Y-49275999D01*
X112658818Y-48806269D01*
X112625333Y-48744946D01*
X112622499Y-48718588D01*
X112622499Y-47129505D01*
X112622499Y-45515407D01*
X112642184Y-45448372D01*
X112658819Y-45427729D01*
X112737732Y-45348818D01*
X112799055Y-45315333D01*
X112825412Y-45312500D01*
X131268589Y-45312500D01*
X131335628Y-45332185D01*
X131356270Y-45348819D01*
X132229496Y-46222045D01*
X132262981Y-46283368D01*
X132265136Y-46296764D01*
X132276223Y-46402250D01*
X132330365Y-46568882D01*
X132417967Y-46720615D01*
X132535209Y-46850824D01*
X132676954Y-46953808D01*
X132837018Y-47025073D01*
X133008394Y-47061500D01*
X133008396Y-47061500D01*
X133183606Y-47061500D01*
X133354981Y-47025073D01*
X133354982Y-47025072D01*
X133354984Y-47025072D01*
X133515046Y-46953808D01*
X133656792Y-46850823D01*
X133774030Y-46720618D01*
X133778530Y-46712825D01*
X133861634Y-46568882D01*
X133905956Y-46432474D01*
X133915777Y-46402249D01*
X133934091Y-46228000D01*
X133915777Y-46053751D01*
X133861634Y-45887118D01*
X133861634Y-45887117D01*
X133774032Y-45735384D01*
X133656790Y-45605175D01*
X133515045Y-45502191D01*
X133354981Y-45430926D01*
X133183606Y-45394500D01*
X133183604Y-45394500D01*
X133174411Y-45394500D01*
X133107372Y-45374815D01*
X133086730Y-45358181D01*
X132036225Y-44307676D01*
X132025531Y-44295482D01*
X132005989Y-44270015D01*
X132005987Y-44270014D01*
X132005987Y-44270013D01*
X131974074Y-44245525D01*
X131974072Y-44245523D01*
X131974060Y-44245513D01*
X131974038Y-44245496D01*
X131878876Y-44172476D01*
X131730851Y-44111162D01*
X131711456Y-44108608D01*
X131611902Y-44095502D01*
X131611892Y-44095500D01*
X131611885Y-44095500D01*
X131611883Y-44095500D01*
X131611874Y-44095499D01*
X131572000Y-44090249D01*
X131540180Y-44094439D01*
X131523995Y-44095500D01*
X112689422Y-44095500D01*
X112622383Y-44075815D01*
X112576628Y-44023011D01*
X112566684Y-43953853D01*
X112574861Y-43924046D01*
X112606838Y-43846850D01*
X112622500Y-43727885D01*
X112622500Y-43727877D01*
X112627750Y-43688000D01*
X112623560Y-43656179D01*
X112622500Y-43639995D01*
X112622500Y-42164000D01*
X139369909Y-42164000D01*
X139388223Y-42338250D01*
X139442365Y-42504882D01*
X139529967Y-42656615D01*
X139647209Y-42786824D01*
X139788954Y-42889808D01*
X139949018Y-42961073D01*
X140120394Y-42997500D01*
X140120396Y-42997500D01*
X140295606Y-42997500D01*
X140466981Y-42961073D01*
X140466982Y-42961072D01*
X140466984Y-42961072D01*
X140627046Y-42889808D01*
X140768792Y-42786823D01*
X140886030Y-42656618D01*
X140973634Y-42504882D01*
X141027777Y-42338249D01*
X141046091Y-42164000D01*
X141027777Y-41989751D01*
X140999693Y-41903319D01*
X140973634Y-41823117D01*
X140886030Y-41671381D01*
X140848350Y-41629533D01*
X140818120Y-41566541D01*
X140816500Y-41546561D01*
X140816500Y-37845999D01*
X145211909Y-37845999D01*
X145230223Y-38020250D01*
X145284365Y-38186881D01*
X145371967Y-38338615D01*
X145489209Y-38468824D01*
X145630954Y-38571808D01*
X145791018Y-38643073D01*
X145962394Y-38679500D01*
X145962396Y-38679500D01*
X146137606Y-38679500D01*
X146308981Y-38643073D01*
X146308982Y-38643072D01*
X146308984Y-38643072D01*
X146469046Y-38571808D01*
X146610792Y-38468823D01*
X146728030Y-38338618D01*
X146730154Y-38334939D01*
X146815635Y-38186881D01*
X146848863Y-38084615D01*
X146869777Y-38020249D01*
X146888091Y-37846000D01*
X146869777Y-37671751D01*
X146830407Y-37550585D01*
X146815634Y-37505117D01*
X146728032Y-37353384D01*
X146610790Y-37223175D01*
X146469045Y-37120191D01*
X146308981Y-37048926D01*
X146137606Y-37012500D01*
X146137604Y-37012500D01*
X145962396Y-37012500D01*
X145962394Y-37012500D01*
X145791018Y-37048926D01*
X145630952Y-37120192D01*
X145489211Y-37223173D01*
X145371967Y-37353384D01*
X145284365Y-37505117D01*
X145230223Y-37671749D01*
X145211909Y-37845999D01*
X140816500Y-37845999D01*
X140816500Y-32173171D01*
X140836185Y-32106132D01*
X140888989Y-32060377D01*
X140914712Y-32051882D01*
X140974984Y-32039072D01*
X141135046Y-31967808D01*
X141276792Y-31864823D01*
X141394030Y-31734618D01*
X141481634Y-31582882D01*
X141535777Y-31416249D01*
X141554091Y-31242000D01*
X141535777Y-31067751D01*
X141481634Y-30901118D01*
X141481634Y-30901117D01*
X141394032Y-30749384D01*
X141276790Y-30619175D01*
X141135045Y-30516191D01*
X140974981Y-30444926D01*
X140803606Y-30408500D01*
X140803604Y-30408500D01*
X140628396Y-30408500D01*
X140628394Y-30408500D01*
X140457018Y-30444926D01*
X140296952Y-30516192D01*
X140155211Y-30619173D01*
X140037967Y-30749384D01*
X139950365Y-30901117D01*
X139896223Y-31067749D01*
X139885136Y-31173235D01*
X139858551Y-31237849D01*
X139849496Y-31247953D01*
X139811671Y-31285778D01*
X139799478Y-31296471D01*
X139774016Y-31316009D01*
X139774012Y-31316013D01*
X139774013Y-31316013D01*
X139749525Y-31347925D01*
X139749523Y-31347928D01*
X139747174Y-31350988D01*
X139747170Y-31350992D01*
X139676475Y-31443124D01*
X139618587Y-31582882D01*
X139615161Y-31591150D01*
X139599500Y-31710115D01*
X139599500Y-31710121D01*
X139594249Y-31749999D01*
X139598439Y-31781818D01*
X139599500Y-31798004D01*
X139599500Y-41546561D01*
X139579815Y-41613600D01*
X139567650Y-41629533D01*
X139529969Y-41671381D01*
X139442365Y-41823117D01*
X139388223Y-41989749D01*
X139369909Y-42164000D01*
X112622500Y-42164000D01*
X112622500Y-38187081D01*
X123948051Y-38187081D01*
X123966936Y-38451108D01*
X124023200Y-38709754D01*
X124023202Y-38709759D01*
X124115705Y-38957770D01*
X124115707Y-38957773D01*
X124242561Y-39190090D01*
X124259987Y-39213368D01*
X124401192Y-39401996D01*
X124588364Y-39589168D01*
X124717500Y-39685838D01*
X124800269Y-39747798D01*
X124879602Y-39791117D01*
X125032590Y-39874655D01*
X125280601Y-39967158D01*
X125280604Y-39967158D01*
X125280605Y-39967159D01*
X125328946Y-39977674D01*
X125539253Y-40023424D01*
X125782939Y-40040853D01*
X125803278Y-40042308D01*
X125803278Y-40042307D01*
X125803279Y-40042308D01*
X126067305Y-40023424D01*
X126325957Y-39967158D01*
X126573968Y-39874655D01*
X126806290Y-39747797D01*
X127018194Y-39589168D01*
X127205366Y-39401996D01*
X127363995Y-39190092D01*
X127490853Y-38957770D01*
X127583356Y-38709759D01*
X127639622Y-38451107D01*
X127658506Y-38187081D01*
X127639622Y-37923055D01*
X127586174Y-37677357D01*
X127583357Y-37664407D01*
X127578170Y-37650500D01*
X127490853Y-37416392D01*
X127385347Y-37223173D01*
X127363996Y-37184071D01*
X127285961Y-37079829D01*
X127205366Y-36972166D01*
X127018194Y-36784994D01*
X126867210Y-36671969D01*
X126806288Y-36626363D01*
X126640177Y-36535660D01*
X126573968Y-36499507D01*
X126341934Y-36412963D01*
X126325952Y-36407002D01*
X126067306Y-36350738D01*
X125803279Y-36331853D01*
X125539251Y-36350738D01*
X125280605Y-36407002D01*
X125197457Y-36438015D01*
X125032590Y-36499507D01*
X125032587Y-36499508D01*
X125032586Y-36499509D01*
X124800269Y-36626363D01*
X124588361Y-36784996D01*
X124401194Y-36972163D01*
X124242561Y-37184071D01*
X124140837Y-37370366D01*
X124115705Y-37416392D01*
X124082612Y-37505118D01*
X124023200Y-37664407D01*
X123966936Y-37923053D01*
X123948051Y-38187081D01*
X112622500Y-38187081D01*
X112622500Y-35161437D01*
X112642185Y-35094398D01*
X112654344Y-35078471D01*
X112692030Y-35036618D01*
X112779634Y-34884882D01*
X112833777Y-34718249D01*
X112852091Y-34544000D01*
X112833777Y-34369751D01*
X112779634Y-34203118D01*
X112779634Y-34203117D01*
X112692032Y-34051384D01*
X112574790Y-33921175D01*
X112433045Y-33818191D01*
X112272981Y-33746926D01*
X112101606Y-33710500D01*
X112101604Y-33710500D01*
X111926396Y-33710500D01*
X111926394Y-33710500D01*
X111755018Y-33746926D01*
X111594952Y-33818192D01*
X111453211Y-33921173D01*
X111335967Y-34051385D01*
X111329887Y-34061917D01*
X111279320Y-34110133D01*
X111210713Y-34123355D01*
X111145848Y-34097387D01*
X111105320Y-34040473D01*
X111098500Y-33999917D01*
X111098500Y-31859437D01*
X111118185Y-31792398D01*
X111130344Y-31776471D01*
X111168030Y-31734618D01*
X111255634Y-31582882D01*
X111309777Y-31416249D01*
X111328091Y-31242000D01*
X111309777Y-31067751D01*
X111255634Y-30901118D01*
X111255634Y-30901117D01*
X111168032Y-30749384D01*
X111050790Y-30619175D01*
X110909045Y-30516191D01*
X110748981Y-30444926D01*
X110577606Y-30408500D01*
X110577604Y-30408500D01*
X110402396Y-30408500D01*
X110402394Y-30408500D01*
X110231018Y-30444926D01*
X110070952Y-30516192D01*
X109929211Y-30619173D01*
X109811967Y-30749384D01*
X109724365Y-30901117D01*
X109670223Y-31067749D01*
X109651909Y-31241999D01*
X109670223Y-31416250D01*
X109724365Y-31582882D01*
X109811967Y-31734615D01*
X109811970Y-31734618D01*
X109849650Y-31776465D01*
X109879879Y-31839455D01*
X109881500Y-31859437D01*
X109881500Y-35081557D01*
X109861815Y-35148596D01*
X109809011Y-35194351D01*
X109757500Y-35205557D01*
X109710023Y-35205557D01*
X109538647Y-35241983D01*
X109378581Y-35313249D01*
X109236840Y-35416230D01*
X109119596Y-35546441D01*
X109031994Y-35698174D01*
X108977852Y-35864806D01*
X108965161Y-35985555D01*
X108938576Y-36050170D01*
X108881278Y-36090154D01*
X108867622Y-36093883D01*
X108798824Y-36108506D01*
X108638760Y-36179771D01*
X108497019Y-36282752D01*
X108379775Y-36412963D01*
X108292173Y-36564696D01*
X108238031Y-36731328D01*
X108219717Y-36905578D01*
X108238031Y-37079829D01*
X108292173Y-37246460D01*
X108363709Y-37370366D01*
X108380180Y-37438266D01*
X108357328Y-37504293D01*
X108302406Y-37547483D01*
X108282102Y-37553655D01*
X108125170Y-37587011D01*
X107965104Y-37658277D01*
X107823363Y-37761258D01*
X107706119Y-37891469D01*
X107618517Y-38043202D01*
X107564375Y-38209834D01*
X107546061Y-38384085D01*
X107564375Y-38558335D01*
X107618517Y-38724967D01*
X107706119Y-38876700D01*
X107823361Y-39006909D01*
X107965106Y-39109893D01*
X108125170Y-39181158D01*
X108296546Y-39217585D01*
X108296548Y-39217585D01*
X108325308Y-39217585D01*
X108392347Y-39237270D01*
X108438102Y-39290074D01*
X108449308Y-39341585D01*
X108449308Y-48357144D01*
X108429623Y-48424183D01*
X108417459Y-48440115D01*
X108407675Y-48450980D01*
X108320071Y-48602716D01*
X108265929Y-48769348D01*
X108247615Y-48943598D01*
X108265929Y-49117849D01*
X108320071Y-49284481D01*
X108407673Y-49436214D01*
X108420311Y-49450250D01*
X108523698Y-49565072D01*
X108524915Y-49566423D01*
X108666660Y-49669407D01*
X108826724Y-49740672D01*
X108998100Y-49777099D01*
X108998102Y-49777099D01*
X109173312Y-49777099D01*
X109305853Y-49748926D01*
X109344690Y-49740671D01*
X109433889Y-49700956D01*
X109503139Y-49691672D01*
X109566416Y-49721300D01*
X109572006Y-49726555D01*
X112313769Y-52468318D01*
X112347254Y-52529641D01*
X112342270Y-52599333D01*
X112300398Y-52655266D01*
X112298974Y-52656317D01*
X112215209Y-52717175D01*
X112097967Y-52847384D01*
X112010365Y-52999117D01*
X111956223Y-53165749D01*
X111937909Y-53340000D01*
X111956223Y-53514250D01*
X112010365Y-53680882D01*
X112097967Y-53832615D01*
X112097969Y-53832617D01*
X112097970Y-53832618D01*
X112135650Y-53874465D01*
X112165879Y-53937455D01*
X112167500Y-53957437D01*
X112167500Y-55570912D01*
X112147815Y-55637951D01*
X112095011Y-55683706D01*
X112025853Y-55693650D01*
X111962297Y-55664625D01*
X111951351Y-55653885D01*
X111932726Y-55633201D01*
X111790978Y-55530214D01*
X111630914Y-55458949D01*
X111459539Y-55422523D01*
X111459537Y-55422523D01*
X111445051Y-55422523D01*
X111378012Y-55402838D01*
X111332257Y-55350034D01*
X111321731Y-55311487D01*
X111309777Y-55197751D01*
X111269673Y-55074326D01*
X111255634Y-55031117D01*
X111168032Y-54879384D01*
X111050790Y-54749175D01*
X110909045Y-54646191D01*
X110748981Y-54574926D01*
X110577606Y-54538500D01*
X110577604Y-54538500D01*
X110402396Y-54538500D01*
X110402394Y-54538500D01*
X110231018Y-54574926D01*
X110070952Y-54646192D01*
X109929211Y-54749173D01*
X109811967Y-54879384D01*
X109724365Y-55031117D01*
X109670223Y-55197749D01*
X109651909Y-55372000D01*
X109670223Y-55546250D01*
X109724365Y-55712882D01*
X109811967Y-55864615D01*
X109811970Y-55864618D01*
X109849650Y-55906465D01*
X109879879Y-55969455D01*
X109881500Y-55989437D01*
X109881500Y-69873837D01*
X109880439Y-69890022D01*
X109876249Y-69921841D01*
X109881500Y-69961721D01*
X109881500Y-69961727D01*
X109891838Y-70040253D01*
X109897162Y-70080693D01*
X109958475Y-70228717D01*
X110031496Y-70323880D01*
X110031513Y-70323902D01*
X110031523Y-70323914D01*
X110031525Y-70323916D01*
X110056013Y-70355829D01*
X110056014Y-70355830D01*
X110081478Y-70375369D01*
X110093673Y-70386064D01*
X111216614Y-71509005D01*
X111250099Y-71570328D01*
X111252254Y-71583724D01*
X111263341Y-71689210D01*
X111317483Y-71855842D01*
X111405085Y-72007575D01*
X111522327Y-72137784D01*
X111664072Y-72240768D01*
X111776443Y-72290799D01*
X111829680Y-72336049D01*
X111850002Y-72402898D01*
X111830957Y-72470122D01*
X111813689Y-72491760D01*
X105194270Y-79111181D01*
X105132947Y-79144666D01*
X105106589Y-79147500D01*
X91146095Y-79147500D01*
X91079056Y-79127815D01*
X91033301Y-79075011D01*
X91022805Y-79010245D01*
X91024186Y-78997403D01*
X91030500Y-78938670D01*
X91030500Y-77541394D01*
X91023989Y-77480831D01*
X91023988Y-77480829D01*
X91023988Y-77480826D01*
X90972889Y-77343828D01*
X90885261Y-77226770D01*
X90768203Y-77139142D01*
X90631205Y-77088043D01*
X90573924Y-77081885D01*
X90573918Y-77081884D01*
X90570638Y-77081532D01*
X90173362Y-77081532D01*
X90170088Y-77081883D01*
X90170067Y-77081885D01*
X90135251Y-77085628D01*
X90108749Y-77085628D01*
X90073932Y-77081885D01*
X90073912Y-77081883D01*
X90070638Y-77081532D01*
X89673362Y-77081532D01*
X89670081Y-77081884D01*
X89670057Y-77081886D01*
X89597315Y-77089707D01*
X89596985Y-77086646D01*
X89569967Y-77090043D01*
X89576450Y-77090564D01*
X89566518Y-77090032D01*
X89522000Y-77090032D01*
X89499711Y-77112320D01*
X89472311Y-77141751D01*
X89446310Y-77161216D01*
X89380845Y-77185632D01*
X89312572Y-77170780D01*
X89297690Y-77161216D01*
X89271689Y-77141752D01*
X89259371Y-77125298D01*
X89258319Y-77126351D01*
X89222000Y-77090032D01*
X89177482Y-77090032D01*
X89167551Y-77090564D01*
X89172581Y-77090189D01*
X89146995Y-77086827D01*
X89146686Y-77089707D01*
X89091244Y-77083746D01*
X89026693Y-77057008D01*
X88986845Y-76999615D01*
X88980500Y-76960457D01*
X88980500Y-76138670D01*
X90863500Y-76138670D01*
X90863852Y-76141950D01*
X90863853Y-76141956D01*
X90870011Y-76199237D01*
X90921110Y-76336235D01*
X91008738Y-76453293D01*
X91125796Y-76540921D01*
X91262794Y-76592020D01*
X91262797Y-76592020D01*
X91262799Y-76592021D01*
X91323362Y-76598532D01*
X91326672Y-76598532D01*
X93217328Y-76598532D01*
X93220638Y-76598532D01*
X93281201Y-76592021D01*
X93281203Y-76592020D01*
X93281205Y-76592020D01*
X93359124Y-76562956D01*
X93418204Y-76540921D01*
X93535261Y-76453293D01*
X93622889Y-76336236D01*
X93673989Y-76199233D01*
X93680500Y-76138670D01*
X93680500Y-74241960D01*
X96114496Y-74241960D01*
X96134458Y-74431889D01*
X96193472Y-74613516D01*
X96288957Y-74778901D01*
X96288960Y-74778904D01*
X96416747Y-74920826D01*
X96522040Y-74997326D01*
X96571248Y-75033078D01*
X96745714Y-75110755D01*
X96932511Y-75150460D01*
X96932513Y-75150460D01*
X97123489Y-75150460D01*
X97310285Y-75110755D01*
X97310286Y-75110754D01*
X97310288Y-75110754D01*
X97484752Y-75033078D01*
X97533960Y-74997325D01*
X97599766Y-74973846D01*
X97667820Y-74989671D01*
X97716515Y-75039776D01*
X97730166Y-75084679D01*
X97731254Y-75095027D01*
X97732223Y-75104250D01*
X97786365Y-75270882D01*
X97873967Y-75422615D01*
X97948115Y-75504964D01*
X97972732Y-75532304D01*
X97991209Y-75552824D01*
X98132954Y-75655808D01*
X98293018Y-75727073D01*
X98464394Y-75763500D01*
X98464396Y-75763500D01*
X98473589Y-75763500D01*
X98540628Y-75783185D01*
X98561270Y-75799819D01*
X100373777Y-77612326D01*
X100384472Y-77624521D01*
X100404013Y-77649988D01*
X100435925Y-77674475D01*
X100435927Y-77674477D01*
X100531124Y-77747524D01*
X100592437Y-77772921D01*
X100666449Y-77803577D01*
X100679150Y-77808838D01*
X100798115Y-77824500D01*
X100798122Y-77824500D01*
X100838000Y-77829750D01*
X100869820Y-77825560D01*
X100886005Y-77824500D01*
X104789204Y-77824500D01*
X104856243Y-77844185D01*
X104862081Y-77848176D01*
X104950381Y-77912330D01*
X104990954Y-77941808D01*
X105151018Y-78013073D01*
X105322394Y-78049500D01*
X105322396Y-78049500D01*
X105497606Y-78049500D01*
X105668981Y-78013073D01*
X105668982Y-78013072D01*
X105668984Y-78013072D01*
X105829046Y-77941808D01*
X105970792Y-77838823D01*
X106088030Y-77708618D01*
X106091153Y-77703210D01*
X106175634Y-77556882D01*
X106199750Y-77482660D01*
X106229777Y-77390249D01*
X106248091Y-77216000D01*
X106229777Y-77041751D01*
X106188784Y-76915588D01*
X106175634Y-76875117D01*
X106088032Y-76723384D01*
X105990922Y-76615534D01*
X105970792Y-76593177D01*
X105970791Y-76593176D01*
X105970790Y-76593175D01*
X105829045Y-76490191D01*
X105668981Y-76418926D01*
X105497606Y-76382500D01*
X105497604Y-76382500D01*
X105322396Y-76382500D01*
X105322394Y-76382500D01*
X105151018Y-76418926D01*
X104990955Y-76490191D01*
X104921132Y-76540921D01*
X104882729Y-76568823D01*
X104862090Y-76583818D01*
X104796283Y-76607298D01*
X104789204Y-76607500D01*
X101141411Y-76607500D01*
X101074372Y-76587815D01*
X101053730Y-76571181D01*
X99987513Y-75504964D01*
X99987511Y-75504961D01*
X99717941Y-75235391D01*
X99418502Y-74935953D01*
X99385018Y-74874631D01*
X99382863Y-74861234D01*
X99382576Y-74858500D01*
X99371777Y-74755751D01*
X99326678Y-74616951D01*
X99317634Y-74589117D01*
X99239913Y-74454500D01*
X99223440Y-74386600D01*
X99246293Y-74320573D01*
X99301214Y-74277382D01*
X99347300Y-74268500D01*
X105657635Y-74268500D01*
X105724674Y-74288185D01*
X105770429Y-74340989D01*
X105780955Y-74379534D01*
X105785278Y-74420667D01*
X105786458Y-74431889D01*
X105845472Y-74613516D01*
X105940957Y-74778901D01*
X105940960Y-74778904D01*
X106068747Y-74920826D01*
X106174040Y-74997326D01*
X106223248Y-75033078D01*
X106397714Y-75110755D01*
X106584511Y-75150460D01*
X106584513Y-75150460D01*
X106775489Y-75150460D01*
X106962285Y-75110755D01*
X106962286Y-75110754D01*
X106962288Y-75110754D01*
X107136752Y-75033078D01*
X107291253Y-74920826D01*
X107419040Y-74778904D01*
X107432408Y-74755751D01*
X107514527Y-74613516D01*
X107523513Y-74585859D01*
X107573542Y-74431888D01*
X107593504Y-74241960D01*
X107573542Y-74052032D01*
X107514527Y-73870404D01*
X107514527Y-73870403D01*
X107419042Y-73705018D01*
X107363946Y-73643828D01*
X107291253Y-73563094D01*
X107163503Y-73470278D01*
X107136751Y-73450841D01*
X106962285Y-73373164D01*
X106775489Y-73333460D01*
X106775487Y-73333460D01*
X106683411Y-73333460D01*
X106616372Y-73313775D01*
X106595730Y-73297141D01*
X106562265Y-73263676D01*
X106551571Y-73251482D01*
X106532029Y-73226015D01*
X106532027Y-73226014D01*
X106532027Y-73226013D01*
X106500114Y-73201525D01*
X106500112Y-73201523D01*
X106500100Y-73201513D01*
X106500078Y-73201496D01*
X106404916Y-73128476D01*
X106256891Y-73067162D01*
X106237496Y-73064608D01*
X106137942Y-73051502D01*
X106137932Y-73051500D01*
X106137925Y-73051500D01*
X106137923Y-73051500D01*
X106137914Y-73051499D01*
X106098040Y-73046249D01*
X106066220Y-73050439D01*
X106050035Y-73051500D01*
X97657965Y-73051500D01*
X97641780Y-73050439D01*
X97609958Y-73046249D01*
X97570084Y-73051499D01*
X97570065Y-73051501D01*
X97470503Y-73064608D01*
X97451106Y-73067162D01*
X97303084Y-73128475D01*
X97209002Y-73200667D01*
X97208998Y-73200670D01*
X97207889Y-73201522D01*
X97207885Y-73201525D01*
X97175973Y-73226013D01*
X97175968Y-73226019D01*
X97175966Y-73226021D01*
X97156429Y-73251480D01*
X97145741Y-73263668D01*
X97137318Y-73272092D01*
X97117337Y-73292074D01*
X97112272Y-73297139D01*
X97050950Y-73330625D01*
X97024588Y-73333460D01*
X96932511Y-73333460D01*
X96745714Y-73373164D01*
X96571248Y-73450841D01*
X96416748Y-73563093D01*
X96288957Y-73705018D01*
X96193472Y-73870403D01*
X96134458Y-74052030D01*
X96114496Y-74241960D01*
X93680500Y-74241960D01*
X93680500Y-73841394D01*
X93673989Y-73780831D01*
X93673988Y-73780829D01*
X93673988Y-73780826D01*
X93622889Y-73643828D01*
X93535261Y-73526770D01*
X93418203Y-73439142D01*
X93281205Y-73388043D01*
X93223924Y-73381885D01*
X93223918Y-73381884D01*
X93220638Y-73381532D01*
X91323362Y-73381532D01*
X91320082Y-73381884D01*
X91320075Y-73381885D01*
X91262794Y-73388043D01*
X91125796Y-73439142D01*
X91008738Y-73526770D01*
X90921110Y-73643828D01*
X90870011Y-73780826D01*
X90863853Y-73838107D01*
X90863500Y-73841394D01*
X90863500Y-76138670D01*
X88980500Y-76138670D01*
X88980500Y-75286473D01*
X89000185Y-75219434D01*
X89052989Y-75173679D01*
X89068172Y-75168666D01*
X89073505Y-75166291D01*
X89073507Y-75166291D01*
X89233569Y-75095027D01*
X89375315Y-74992042D01*
X89492553Y-74861837D01*
X89496751Y-74854567D01*
X89580157Y-74710101D01*
X89591237Y-74676000D01*
X89634300Y-74543468D01*
X89652614Y-74369219D01*
X89634300Y-74194970D01*
X89587856Y-74052032D01*
X89580157Y-74028336D01*
X89492555Y-73876603D01*
X89406316Y-73780826D01*
X89375315Y-73746396D01*
X89375314Y-73746395D01*
X89375313Y-73746394D01*
X89233568Y-73643410D01*
X89073504Y-73572145D01*
X88902129Y-73535719D01*
X88902127Y-73535719D01*
X88801273Y-73535719D01*
X88734234Y-73516034D01*
X88693884Y-73473716D01*
X88692759Y-73471767D01*
X88637818Y-73410749D01*
X88575521Y-73341562D01*
X88575520Y-73341561D01*
X88575519Y-73341560D01*
X88433774Y-73238576D01*
X88273710Y-73167311D01*
X88089585Y-73128175D01*
X88089919Y-73126603D01*
X88037461Y-73111200D01*
X87991706Y-73058396D01*
X87980500Y-73006885D01*
X87980500Y-71540055D01*
X87980500Y-71120000D01*
X103809909Y-71120000D01*
X103828223Y-71294250D01*
X103882365Y-71460882D01*
X103969967Y-71612615D01*
X104087209Y-71742824D01*
X104228954Y-71845808D01*
X104389018Y-71917073D01*
X104560394Y-71953500D01*
X104560396Y-71953500D01*
X104735606Y-71953500D01*
X104906981Y-71917073D01*
X104906982Y-71917072D01*
X104906984Y-71917072D01*
X105067046Y-71845808D01*
X105208792Y-71742823D01*
X105326030Y-71612618D01*
X105385851Y-71509005D01*
X105413634Y-71460882D01*
X105432127Y-71403966D01*
X105467777Y-71294249D01*
X105486091Y-71120000D01*
X105467777Y-70945751D01*
X105413634Y-70779118D01*
X105413634Y-70779117D01*
X105326032Y-70627384D01*
X105208790Y-70497175D01*
X105067045Y-70394191D01*
X104906981Y-70322926D01*
X104735606Y-70286500D01*
X104735604Y-70286500D01*
X104560396Y-70286500D01*
X104560394Y-70286500D01*
X104389018Y-70322926D01*
X104228952Y-70394192D01*
X104087211Y-70497173D01*
X103969967Y-70627384D01*
X103882365Y-70779117D01*
X103828223Y-70945749D01*
X103809909Y-71120000D01*
X87980500Y-71120000D01*
X87980500Y-70068224D01*
X88000184Y-70001189D01*
X88052988Y-69955434D01*
X88078714Y-69946939D01*
X88115487Y-69939123D01*
X88275549Y-69867859D01*
X88417295Y-69764874D01*
X88534533Y-69634669D01*
X88554807Y-69599554D01*
X88622137Y-69482933D01*
X88625101Y-69473811D01*
X88676280Y-69316300D01*
X88694594Y-69142051D01*
X88676280Y-68967802D01*
X88622137Y-68801169D01*
X88622137Y-68801168D01*
X88534535Y-68649435D01*
X88455276Y-68561410D01*
X88417295Y-68519228D01*
X88417294Y-68519227D01*
X88417293Y-68519226D01*
X88275548Y-68416242D01*
X88115484Y-68344977D01*
X88026202Y-68326000D01*
X88823909Y-68326000D01*
X88842223Y-68500250D01*
X88896365Y-68666882D01*
X88983967Y-68818615D01*
X88983970Y-68818618D01*
X89021650Y-68860465D01*
X89051879Y-68923455D01*
X89053500Y-68943437D01*
X89053500Y-69293995D01*
X89052439Y-69310180D01*
X89048249Y-69341999D01*
X89052786Y-69376454D01*
X89053500Y-69381879D01*
X89053500Y-69381885D01*
X89064050Y-69462022D01*
X89069162Y-69500851D01*
X89098179Y-69570904D01*
X89130476Y-69648876D01*
X89203496Y-69744038D01*
X89203513Y-69744060D01*
X89203523Y-69744072D01*
X89203525Y-69744074D01*
X89220493Y-69766187D01*
X89228014Y-69775988D01*
X89253478Y-69795527D01*
X89265673Y-69806222D01*
X89959777Y-70500326D01*
X89970472Y-70512521D01*
X89986296Y-70533144D01*
X89990013Y-70537987D01*
X90021925Y-70562474D01*
X90021929Y-70562478D01*
X90021935Y-70562482D01*
X90021951Y-70562496D01*
X90100737Y-70622950D01*
X90117124Y-70635524D01*
X90215180Y-70676140D01*
X90265146Y-70696837D01*
X90265149Y-70696838D01*
X90284543Y-70699391D01*
X90384115Y-70712500D01*
X90384120Y-70712500D01*
X90424000Y-70717750D01*
X90424001Y-70717749D01*
X90424002Y-70717750D01*
X90455822Y-70713561D01*
X90472007Y-70712500D01*
X92089204Y-70712500D01*
X92156243Y-70732185D01*
X92162081Y-70736176D01*
X92171975Y-70743364D01*
X92290954Y-70829808D01*
X92451018Y-70901073D01*
X92622394Y-70937500D01*
X92622396Y-70937500D01*
X92797606Y-70937500D01*
X92968981Y-70901073D01*
X92968982Y-70901072D01*
X92968984Y-70901072D01*
X93129046Y-70829808D01*
X93270792Y-70726823D01*
X93388030Y-70596618D01*
X93413660Y-70552226D01*
X93475634Y-70444882D01*
X93480632Y-70429500D01*
X93529777Y-70278249D01*
X93548091Y-70104000D01*
X93535388Y-69983144D01*
X93547957Y-69914419D01*
X93595689Y-69863395D01*
X93611099Y-69857396D01*
X93610656Y-69856401D01*
X93647569Y-69839966D01*
X93782624Y-69779836D01*
X93924370Y-69676851D01*
X94041608Y-69546646D01*
X94051188Y-69530054D01*
X94129212Y-69394910D01*
X94135209Y-69376454D01*
X94183355Y-69228277D01*
X94201669Y-69054028D01*
X94183355Y-68879779D01*
X94129212Y-68713146D01*
X94129212Y-68713145D01*
X94041608Y-68561410D01*
X94025529Y-68543552D01*
X93995300Y-68480560D01*
X93993680Y-68460581D01*
X93993680Y-67056000D01*
X96443909Y-67056000D01*
X96462223Y-67230250D01*
X96516365Y-67396882D01*
X96603967Y-67548615D01*
X96721209Y-67678824D01*
X96862954Y-67781808D01*
X97023018Y-67853073D01*
X97194394Y-67889500D01*
X97194396Y-67889500D01*
X97369606Y-67889500D01*
X97526279Y-67856198D01*
X97595946Y-67861514D01*
X97651680Y-67903651D01*
X97675785Y-67969231D01*
X97660608Y-68037432D01*
X97644210Y-68060460D01*
X97619969Y-68087381D01*
X97532365Y-68239117D01*
X97478223Y-68405749D01*
X97459909Y-68580000D01*
X97478223Y-68754250D01*
X97532365Y-68920882D01*
X97619967Y-69072615D01*
X97737209Y-69202824D01*
X97878954Y-69305808D01*
X98039018Y-69377073D01*
X98210394Y-69413500D01*
X98210396Y-69413500D01*
X98385606Y-69413500D01*
X98556981Y-69377073D01*
X98556982Y-69377072D01*
X98556984Y-69377072D01*
X98717046Y-69305808D01*
X98858792Y-69202823D01*
X98976030Y-69072618D01*
X98995677Y-69038589D01*
X99063634Y-68920882D01*
X99080104Y-68870192D01*
X99117777Y-68754249D01*
X99136091Y-68580000D01*
X99117777Y-68405751D01*
X99080104Y-68289808D01*
X99063634Y-68239117D01*
X98976032Y-68087384D01*
X98962180Y-68072000D01*
X107619909Y-68072000D01*
X107638223Y-68246250D01*
X107692365Y-68412882D01*
X107779967Y-68564615D01*
X107897209Y-68694824D01*
X108038954Y-68797808D01*
X108199018Y-68869073D01*
X108370394Y-68905500D01*
X108370396Y-68905500D01*
X108545606Y-68905500D01*
X108716981Y-68869073D01*
X108716982Y-68869072D01*
X108716984Y-68869072D01*
X108877046Y-68797808D01*
X109018792Y-68694823D01*
X109136030Y-68564618D01*
X109137881Y-68561413D01*
X109223634Y-68412882D01*
X109251864Y-68325999D01*
X109277777Y-68246249D01*
X109296091Y-68072000D01*
X109277777Y-67897751D01*
X109228632Y-67746500D01*
X109223634Y-67731117D01*
X109136032Y-67579384D01*
X109077411Y-67514279D01*
X109018792Y-67449177D01*
X109018791Y-67449176D01*
X109018790Y-67449175D01*
X108877045Y-67346191D01*
X108716981Y-67274926D01*
X108545606Y-67238500D01*
X108545604Y-67238500D01*
X108370396Y-67238500D01*
X108370394Y-67238500D01*
X108199018Y-67274926D01*
X108038952Y-67346192D01*
X107897211Y-67449173D01*
X107779967Y-67579384D01*
X107692365Y-67731117D01*
X107638223Y-67897749D01*
X107619909Y-68072000D01*
X98962180Y-68072000D01*
X98883949Y-67985117D01*
X98858792Y-67957177D01*
X98858791Y-67957176D01*
X98858790Y-67957175D01*
X98717045Y-67854191D01*
X98556981Y-67782926D01*
X98385606Y-67746500D01*
X98385604Y-67746500D01*
X98210396Y-67746500D01*
X98210393Y-67746500D01*
X98053719Y-67779801D01*
X97984052Y-67774485D01*
X97928319Y-67732347D01*
X97904214Y-67666767D01*
X97919391Y-67598566D01*
X97935784Y-67575545D01*
X97960030Y-67548618D01*
X98047634Y-67396882D01*
X98101777Y-67230249D01*
X98120091Y-67056000D01*
X98101777Y-66881751D01*
X98062494Y-66760852D01*
X98047634Y-66715117D01*
X97960032Y-66563384D01*
X97895939Y-66492202D01*
X97842792Y-66433177D01*
X97842791Y-66433176D01*
X97842790Y-66433175D01*
X97701045Y-66330191D01*
X97540981Y-66258926D01*
X97369606Y-66222500D01*
X97369604Y-66222500D01*
X97194396Y-66222500D01*
X97194394Y-66222500D01*
X97023018Y-66258926D01*
X96862952Y-66330192D01*
X96721211Y-66433173D01*
X96603967Y-66563384D01*
X96516365Y-66715117D01*
X96462223Y-66881749D01*
X96443909Y-67056000D01*
X93993680Y-67056000D01*
X93993680Y-62202749D01*
X94013365Y-62135710D01*
X94025524Y-62119783D01*
X94063210Y-62077930D01*
X94150814Y-61926194D01*
X94204957Y-61759561D01*
X94223271Y-61585312D01*
X94204957Y-61411063D01*
X94150814Y-61244430D01*
X94150814Y-61244429D01*
X94133246Y-61214000D01*
X103301909Y-61214000D01*
X103320223Y-61388250D01*
X103374365Y-61554882D01*
X103461967Y-61706615D01*
X103579209Y-61836824D01*
X103720954Y-61939808D01*
X103881018Y-62011073D01*
X104052394Y-62047500D01*
X104052396Y-62047500D01*
X104227606Y-62047500D01*
X104398981Y-62011073D01*
X104398982Y-62011072D01*
X104398984Y-62011072D01*
X104559046Y-61939808D01*
X104700792Y-61836823D01*
X104818030Y-61706618D01*
X104905634Y-61554882D01*
X104959777Y-61388249D01*
X104978091Y-61214000D01*
X104959777Y-61039751D01*
X104928136Y-60942371D01*
X104905634Y-60873117D01*
X104818032Y-60721384D01*
X104700790Y-60591175D01*
X104559045Y-60488191D01*
X104398981Y-60416926D01*
X104227606Y-60380500D01*
X104227604Y-60380500D01*
X104052396Y-60380500D01*
X104052394Y-60380500D01*
X103881018Y-60416926D01*
X103720952Y-60488192D01*
X103579211Y-60591173D01*
X103461967Y-60721384D01*
X103374365Y-60873117D01*
X103320223Y-61039749D01*
X103301909Y-61214000D01*
X94133246Y-61214000D01*
X94063212Y-61092696D01*
X93945970Y-60962487D01*
X93804225Y-60859503D01*
X93644161Y-60788238D01*
X93472786Y-60751812D01*
X93472784Y-60751812D01*
X93297576Y-60751812D01*
X93297574Y-60751812D01*
X93126198Y-60788238D01*
X92966132Y-60859504D01*
X92824391Y-60962485D01*
X92707147Y-61092696D01*
X92619545Y-61244429D01*
X92565403Y-61411061D01*
X92547089Y-61585311D01*
X92565403Y-61759562D01*
X92619545Y-61926194D01*
X92707147Y-62077927D01*
X92707150Y-62077930D01*
X92744829Y-62119777D01*
X92775059Y-62182768D01*
X92776679Y-62202749D01*
X92776679Y-68412599D01*
X92756994Y-68479638D01*
X92744834Y-68495565D01*
X92685548Y-68561410D01*
X92685546Y-68561412D01*
X92685546Y-68561413D01*
X92597943Y-68713145D01*
X92543801Y-68879777D01*
X92534223Y-68970905D01*
X92525487Y-69054028D01*
X92534738Y-69142051D01*
X92538189Y-69174880D01*
X92525619Y-69243610D01*
X92477887Y-69294633D01*
X92462478Y-69300634D01*
X92462921Y-69301628D01*
X92451017Y-69306927D01*
X92451016Y-69306928D01*
X92429964Y-69316301D01*
X92290955Y-69378191D01*
X92162090Y-69471818D01*
X92096283Y-69495298D01*
X92089204Y-69495500D01*
X90727411Y-69495500D01*
X90660372Y-69475815D01*
X90639730Y-69459181D01*
X90306819Y-69126270D01*
X90273334Y-69064947D01*
X90270500Y-69038589D01*
X90270500Y-68943437D01*
X90290185Y-68876398D01*
X90302344Y-68860471D01*
X90340030Y-68818618D01*
X90372430Y-68762500D01*
X90427634Y-68666882D01*
X90433304Y-68649433D01*
X90481777Y-68500249D01*
X90500091Y-68326000D01*
X90481777Y-68151751D01*
X90427634Y-67985118D01*
X90427634Y-67985117D01*
X90340032Y-67833384D01*
X90270676Y-67756357D01*
X90222792Y-67703177D01*
X90222791Y-67703176D01*
X90222790Y-67703175D01*
X90081045Y-67600191D01*
X89920981Y-67528926D01*
X89749606Y-67492500D01*
X89749604Y-67492500D01*
X89574396Y-67492500D01*
X89574394Y-67492500D01*
X89403018Y-67528926D01*
X89242952Y-67600192D01*
X89101211Y-67703173D01*
X88983967Y-67833384D01*
X88896365Y-67985117D01*
X88842223Y-68151749D01*
X88823909Y-68326000D01*
X88026202Y-68326000D01*
X87944109Y-68308551D01*
X87944107Y-68308551D01*
X87768899Y-68308551D01*
X87768897Y-68308551D01*
X87597521Y-68344977D01*
X87431740Y-68418788D01*
X87362490Y-68428072D01*
X87305819Y-68403884D01*
X87280511Y-68384464D01*
X87268326Y-68373777D01*
X87226503Y-68331954D01*
X87193018Y-68270631D01*
X87190863Y-68257234D01*
X87189709Y-68246250D01*
X87179777Y-68151751D01*
X87125634Y-67985118D01*
X87125634Y-67985117D01*
X87038032Y-67833384D01*
X86968676Y-67756357D01*
X86920792Y-67703177D01*
X86920791Y-67703176D01*
X86920790Y-67703175D01*
X86779045Y-67600191D01*
X86618981Y-67528926D01*
X86447606Y-67492500D01*
X86447604Y-67492500D01*
X86272396Y-67492500D01*
X86272394Y-67492500D01*
X86101018Y-67528926D01*
X85940952Y-67600192D01*
X85799211Y-67703173D01*
X85681967Y-67833384D01*
X85594365Y-67985117D01*
X85540223Y-68151749D01*
X85530291Y-68246249D01*
X85521909Y-68326000D01*
X85527535Y-68379524D01*
X85540223Y-68500250D01*
X85594365Y-68666882D01*
X85681967Y-68818615D01*
X85799209Y-68948824D01*
X85832725Y-68973175D01*
X85940954Y-69051808D01*
X86101016Y-69123072D01*
X86165282Y-69136732D01*
X86226762Y-69169924D01*
X86260539Y-69231087D01*
X86263500Y-69258022D01*
X86263500Y-69863589D01*
X86243815Y-69930628D01*
X86191011Y-69976383D01*
X86121853Y-69986327D01*
X86058297Y-69957302D01*
X86051819Y-69951270D01*
X85702503Y-69601954D01*
X85669018Y-69540631D01*
X85666863Y-69527234D01*
X85655777Y-69421751D01*
X85621514Y-69316301D01*
X85601634Y-69255117D01*
X85514032Y-69103384D01*
X85396790Y-68973175D01*
X85255045Y-68870191D01*
X85094981Y-68798926D01*
X84923606Y-68762500D01*
X84923604Y-68762500D01*
X84748396Y-68762500D01*
X84748394Y-68762500D01*
X84577018Y-68798926D01*
X84416952Y-68870192D01*
X84275211Y-68973173D01*
X84157967Y-69103384D01*
X84070365Y-69255117D01*
X84016223Y-69421749D01*
X83997909Y-69596000D01*
X84016223Y-69770250D01*
X84070365Y-69936882D01*
X84157967Y-70088615D01*
X84157970Y-70088618D01*
X84272392Y-70215696D01*
X84275209Y-70218824D01*
X84416954Y-70321808D01*
X84577018Y-70393073D01*
X84748394Y-70429500D01*
X84748396Y-70429500D01*
X84757589Y-70429500D01*
X84824628Y-70449185D01*
X84845270Y-70465819D01*
X85227181Y-70847730D01*
X85260666Y-70909053D01*
X85263500Y-70935411D01*
X85263500Y-71304588D01*
X85243815Y-71371627D01*
X85227181Y-71392269D01*
X84775767Y-71843682D01*
X84714444Y-71877167D01*
X84662306Y-71877291D01*
X84492211Y-71841137D01*
X84492208Y-71841137D01*
X84317000Y-71841137D01*
X84316998Y-71841137D01*
X84145622Y-71877563D01*
X83985556Y-71948829D01*
X83843815Y-72051810D01*
X83726571Y-72182021D01*
X83638969Y-72333754D01*
X83584827Y-72500386D01*
X83573537Y-72607808D01*
X83566513Y-72674637D01*
X83568850Y-72696875D01*
X83584827Y-72848887D01*
X83638969Y-73015519D01*
X83726571Y-73167252D01*
X83726574Y-73167255D01*
X83764254Y-73209102D01*
X83794483Y-73272092D01*
X83796104Y-73292074D01*
X83796104Y-74762285D01*
X83795043Y-74778470D01*
X83790853Y-74810289D01*
X83796104Y-74850169D01*
X83796104Y-74850175D01*
X83806172Y-74926648D01*
X83811765Y-74969139D01*
X83873079Y-75117166D01*
X83946127Y-75212363D01*
X83946137Y-75212375D01*
X83963798Y-75235391D01*
X83988993Y-75300560D01*
X83974955Y-75369005D01*
X83957573Y-75393850D01*
X83903970Y-75453382D01*
X83887424Y-75482040D01*
X83836856Y-75530255D01*
X83768249Y-75543476D01*
X83754258Y-75541329D01*
X83731368Y-75536463D01*
X83691836Y-75528061D01*
X83516628Y-75528061D01*
X83504500Y-75528061D01*
X83437461Y-75508376D01*
X83391706Y-75455572D01*
X83380500Y-75404061D01*
X83380500Y-73844703D01*
X83380500Y-73841394D01*
X83373989Y-73780831D01*
X83373988Y-73780829D01*
X83373988Y-73780826D01*
X83322889Y-73643828D01*
X83235261Y-73526770D01*
X83118203Y-73439142D01*
X82981205Y-73388043D01*
X82923924Y-73381885D01*
X82923918Y-73381884D01*
X82920638Y-73381532D01*
X81023362Y-73381532D01*
X81020082Y-73381884D01*
X81020075Y-73381885D01*
X80962794Y-73388043D01*
X80825796Y-73439142D01*
X80708738Y-73526770D01*
X80621110Y-73643828D01*
X80570011Y-73780826D01*
X80563853Y-73838107D01*
X80563500Y-73841394D01*
X80563500Y-76138670D01*
X80563852Y-76141950D01*
X80563853Y-76141956D01*
X80570011Y-76199237D01*
X80621110Y-76336235D01*
X80708738Y-76453293D01*
X80825796Y-76540921D01*
X80962794Y-76592020D01*
X80962797Y-76592020D01*
X80962799Y-76592021D01*
X81023362Y-76598532D01*
X82714744Y-76598532D01*
X82781783Y-76618217D01*
X82827538Y-76671021D01*
X82832675Y-76684215D01*
X82838597Y-76702442D01*
X82926199Y-76854176D01*
X83043441Y-76984385D01*
X83185185Y-77087369D01*
X83259636Y-77120516D01*
X83312873Y-77165766D01*
X83333195Y-77232615D01*
X83314150Y-77299839D01*
X83308469Y-77308106D01*
X83278647Y-77347943D01*
X83228400Y-77482660D01*
X83222354Y-77538899D01*
X83222000Y-77545513D01*
X83222000Y-78090032D01*
X83589500Y-78090032D01*
X83656539Y-78109717D01*
X83702294Y-78162521D01*
X83713500Y-78214032D01*
X83713500Y-78266032D01*
X83693815Y-78333071D01*
X83641011Y-78378826D01*
X83589500Y-78390032D01*
X83222000Y-78390032D01*
X83222000Y-78934550D01*
X83222354Y-78941164D01*
X83228400Y-78997403D01*
X83278647Y-79132121D01*
X83364812Y-79247222D01*
X83420114Y-79288621D01*
X83461986Y-79344555D01*
X83466970Y-79414246D01*
X83433485Y-79475569D01*
X83372162Y-79509054D01*
X83345804Y-79511888D01*
X80427780Y-79511888D01*
X80360741Y-79492203D01*
X80314986Y-79439399D01*
X80303780Y-79387888D01*
X80303780Y-69530054D01*
X80305307Y-69510652D01*
X80307651Y-69495857D01*
X80300846Y-69482502D01*
X80293401Y-69464526D01*
X80288771Y-69450276D01*
X80276637Y-69441460D01*
X80261850Y-69428829D01*
X79340098Y-68507077D01*
X79306613Y-68445754D01*
X79303779Y-68419396D01*
X79303779Y-67564000D01*
X82981909Y-67564000D01*
X83000223Y-67738250D01*
X83054365Y-67904882D01*
X83141967Y-68056615D01*
X83259209Y-68186824D01*
X83400954Y-68289808D01*
X83561018Y-68361073D01*
X83732394Y-68397500D01*
X83732396Y-68397500D01*
X83907606Y-68397500D01*
X84078981Y-68361073D01*
X84078982Y-68361072D01*
X84078984Y-68361072D01*
X84239046Y-68289808D01*
X84380792Y-68186823D01*
X84498030Y-68056618D01*
X84548483Y-67969231D01*
X84585634Y-67904882D01*
X84599725Y-67861514D01*
X84639777Y-67738249D01*
X84658091Y-67564000D01*
X84639777Y-67389751D01*
X84590632Y-67238500D01*
X84585634Y-67223117D01*
X84498032Y-67071384D01*
X84380790Y-66941175D01*
X84239045Y-66838191D01*
X84078981Y-66766926D01*
X83907606Y-66730500D01*
X83907604Y-66730500D01*
X83732396Y-66730500D01*
X83732394Y-66730500D01*
X83561018Y-66766926D01*
X83400952Y-66838192D01*
X83259211Y-66941173D01*
X83141967Y-67071384D01*
X83054365Y-67223117D01*
X83000223Y-67389749D01*
X82981909Y-67564000D01*
X79303779Y-67564000D01*
X79303779Y-65212386D01*
X81948002Y-65212386D01*
X81967072Y-65430361D01*
X82023705Y-65641718D01*
X82057644Y-65714500D01*
X82116178Y-65840026D01*
X82241682Y-66019264D01*
X82396403Y-66173985D01*
X82575641Y-66299489D01*
X82773950Y-66391962D01*
X82985303Y-66448594D01*
X83203280Y-66467664D01*
X83421257Y-66448594D01*
X83632610Y-66391962D01*
X83830919Y-66299489D01*
X84010157Y-66173985D01*
X84164878Y-66019264D01*
X84290382Y-65840026D01*
X84382855Y-65641717D01*
X84439487Y-65430364D01*
X84458557Y-65212387D01*
X84439487Y-64994410D01*
X84382855Y-64783057D01*
X84290382Y-64584749D01*
X84164878Y-64405510D01*
X84010157Y-64250789D01*
X83830919Y-64125285D01*
X83644491Y-64038352D01*
X83632611Y-64032812D01*
X83421254Y-63976179D01*
X83203280Y-63957109D01*
X82985305Y-63976179D01*
X82773948Y-64032812D01*
X82575641Y-64125285D01*
X82396402Y-64250789D01*
X82241682Y-64405509D01*
X82116178Y-64584748D01*
X82023705Y-64783055D01*
X81967072Y-64994412D01*
X81948002Y-65212386D01*
X79303779Y-65212386D01*
X79303779Y-60705378D01*
X79323464Y-60638339D01*
X79340098Y-60617697D01*
X80208590Y-59749206D01*
X80269913Y-59715721D01*
X80296271Y-59712887D01*
X83751915Y-59712887D01*
X83751922Y-59712889D01*
X83803279Y-59712889D01*
X84172450Y-59712889D01*
X84173975Y-59712889D01*
X84914475Y-59676510D01*
X85652298Y-59603841D01*
X86385667Y-59495056D01*
X87112814Y-59350418D01*
X87831989Y-59170274D01*
X88541457Y-58955059D01*
X89239512Y-58705291D01*
X89924469Y-58421572D01*
X90594681Y-58104586D01*
X91248531Y-57755096D01*
X91884445Y-57373944D01*
X92500891Y-56962048D01*
X93096383Y-56520400D01*
X93466393Y-56216741D01*
X97862142Y-56216741D01*
X97880456Y-56390992D01*
X97934598Y-56557624D01*
X98022200Y-56709357D01*
X98139442Y-56839566D01*
X98281187Y-56942550D01*
X98441251Y-57013815D01*
X98612627Y-57050242D01*
X98612629Y-57050242D01*
X98787839Y-57050242D01*
X98959214Y-57013815D01*
X98959215Y-57013814D01*
X98959217Y-57013814D01*
X99119279Y-56942550D01*
X99248143Y-56848923D01*
X99313949Y-56825444D01*
X99321029Y-56825242D01*
X105675419Y-56825242D01*
X105742458Y-56844927D01*
X105748296Y-56848918D01*
X105877168Y-56942549D01*
X105877169Y-56942550D01*
X106037233Y-57013815D01*
X106221359Y-57052952D01*
X106220734Y-57055889D01*
X106268539Y-57069927D01*
X106314294Y-57122731D01*
X106325500Y-57174242D01*
X106325500Y-59072561D01*
X106305815Y-59139600D01*
X106293650Y-59155533D01*
X106255969Y-59197381D01*
X106168365Y-59349117D01*
X106114223Y-59515749D01*
X106097327Y-59676510D01*
X106095909Y-59690000D01*
X106098315Y-59712889D01*
X106114223Y-59864250D01*
X106168365Y-60030882D01*
X106255967Y-60182615D01*
X106373209Y-60312824D01*
X106514954Y-60415808D01*
X106675018Y-60487073D01*
X106846394Y-60523500D01*
X106846396Y-60523500D01*
X107021606Y-60523500D01*
X107192981Y-60487073D01*
X107192982Y-60487072D01*
X107192984Y-60487072D01*
X107353046Y-60415808D01*
X107494792Y-60312823D01*
X107612030Y-60182618D01*
X107636234Y-60140696D01*
X107699634Y-60030882D01*
X107704632Y-60015500D01*
X107753777Y-59864249D01*
X107772091Y-59690000D01*
X107753777Y-59515751D01*
X107725693Y-59429319D01*
X107699634Y-59349117D01*
X107612030Y-59197381D01*
X107574350Y-59155533D01*
X107544120Y-59092541D01*
X107542500Y-59072561D01*
X107542500Y-40836253D01*
X107543561Y-40820067D01*
X107547751Y-40788241D01*
X107544503Y-40763574D01*
X107526838Y-40629391D01*
X107465524Y-40481366D01*
X107392478Y-40386171D01*
X107392474Y-40386167D01*
X107367987Y-40354255D01*
X107342512Y-40334707D01*
X107330326Y-40324019D01*
X107153012Y-40146705D01*
X107119527Y-40085382D01*
X107117372Y-40071985D01*
X107117325Y-40071536D01*
X107106286Y-39966502D01*
X107052143Y-39799869D01*
X107052143Y-39799868D01*
X106964541Y-39648135D01*
X106847299Y-39517926D01*
X106705554Y-39414942D01*
X106545490Y-39343677D01*
X106374115Y-39307251D01*
X106374113Y-39307251D01*
X106198905Y-39307251D01*
X106198903Y-39307251D01*
X106027527Y-39343677D01*
X105867461Y-39414943D01*
X105725720Y-39517924D01*
X105608476Y-39648135D01*
X105520874Y-39799868D01*
X105466732Y-39966500D01*
X105448418Y-40140751D01*
X105466732Y-40315001D01*
X105520874Y-40481633D01*
X105608476Y-40633366D01*
X105725718Y-40763575D01*
X105867463Y-40866559D01*
X106027527Y-40937824D01*
X106198903Y-40974251D01*
X106198905Y-40974251D01*
X106201500Y-40974251D01*
X106208307Y-40976249D01*
X106211653Y-40976961D01*
X106211598Y-40977216D01*
X106268539Y-40993936D01*
X106314294Y-41046740D01*
X106325500Y-41098251D01*
X106325500Y-55259242D01*
X106305815Y-55326281D01*
X106253011Y-55372036D01*
X106221031Y-55378992D01*
X106221359Y-55380532D01*
X106037233Y-55419668D01*
X105877170Y-55490933D01*
X105823104Y-55530215D01*
X105767090Y-55570912D01*
X105748305Y-55584560D01*
X105682498Y-55608040D01*
X105675419Y-55608242D01*
X99321029Y-55608242D01*
X99253990Y-55588557D01*
X99248151Y-55584565D01*
X99119279Y-55490934D01*
X99119278Y-55490933D01*
X98959214Y-55419668D01*
X98787839Y-55383242D01*
X98787837Y-55383242D01*
X98612629Y-55383242D01*
X98612627Y-55383242D01*
X98441251Y-55419668D01*
X98281185Y-55490934D01*
X98139444Y-55593915D01*
X98022200Y-55724126D01*
X97934598Y-55875859D01*
X97880456Y-56042491D01*
X97862142Y-56216741D01*
X93466393Y-56216741D01*
X93669487Y-56050066D01*
X94218823Y-55552177D01*
X94743067Y-55027933D01*
X95240956Y-54478597D01*
X95711291Y-53905492D01*
X96152938Y-53310000D01*
X96564834Y-52693554D01*
X96945986Y-52057640D01*
X97295476Y-51403790D01*
X97612463Y-50733578D01*
X97896181Y-50048621D01*
X98145949Y-49350566D01*
X98361164Y-48641098D01*
X98541308Y-47921923D01*
X98685946Y-47194776D01*
X98742668Y-46812388D01*
X102447620Y-46812388D01*
X102468216Y-47047796D01*
X102490110Y-47129505D01*
X102529377Y-47276052D01*
X102629245Y-47490219D01*
X102764785Y-47683790D01*
X102931879Y-47850884D01*
X103125450Y-47986424D01*
X103339617Y-48086292D01*
X103567872Y-48147452D01*
X103803280Y-48168048D01*
X104038688Y-48147452D01*
X104266943Y-48086292D01*
X104481110Y-47986424D01*
X104674681Y-47850884D01*
X104841775Y-47683790D01*
X104977315Y-47490219D01*
X105077183Y-47276052D01*
X105138343Y-47047797D01*
X105158939Y-46812389D01*
X105138343Y-46576981D01*
X105077183Y-46348726D01*
X104977315Y-46134560D01*
X104841775Y-45940988D01*
X104674681Y-45773894D01*
X104481110Y-45638354D01*
X104266943Y-45538486D01*
X104180825Y-45515411D01*
X104038687Y-45477325D01*
X103803280Y-45456729D01*
X103567872Y-45477325D01*
X103339616Y-45538486D01*
X103125450Y-45638354D01*
X102931878Y-45773894D01*
X102764785Y-45940987D01*
X102629245Y-46134559D01*
X102529377Y-46348725D01*
X102468216Y-46576981D01*
X102447620Y-46812388D01*
X98742668Y-46812388D01*
X98794731Y-46461407D01*
X98867400Y-45723584D01*
X98903779Y-44983084D01*
X98903779Y-44648430D01*
X98903780Y-44648423D01*
X98903780Y-29311519D01*
X98923465Y-29244480D01*
X98962065Y-29206364D01*
X101801945Y-27431730D01*
X101867657Y-27412888D01*
X111335598Y-27412888D01*
X111402637Y-27432573D01*
G37*
G04 #@! TD.AperFunction*
G04 #@! TA.AperFunction,Conductor*
G36*
X113639268Y-53795058D02*
G01*
X113650302Y-53804851D01*
X115481184Y-55635733D01*
X115514669Y-55697056D01*
X115517503Y-55723414D01*
X115517503Y-65647480D01*
X115497818Y-65714519D01*
X115445014Y-65760274D01*
X115375856Y-65770218D01*
X115343069Y-65760760D01*
X115320984Y-65750927D01*
X115149606Y-65714500D01*
X115149604Y-65714500D01*
X114974396Y-65714500D01*
X114974394Y-65714500D01*
X114803018Y-65750926D01*
X114642952Y-65822192D01*
X114501211Y-65925173D01*
X114383967Y-66055384D01*
X114296365Y-66207117D01*
X114242223Y-66373749D01*
X114223909Y-66547999D01*
X114242223Y-66722250D01*
X114296365Y-66888882D01*
X114383967Y-67040615D01*
X114383970Y-67040618D01*
X114421650Y-67082465D01*
X114451879Y-67145455D01*
X114453500Y-67165437D01*
X114453500Y-74373995D01*
X114452439Y-74390180D01*
X114448249Y-74421999D01*
X114453500Y-74461879D01*
X114453500Y-74461885D01*
X114462603Y-74531026D01*
X114469161Y-74580851D01*
X114472063Y-74587857D01*
X114480823Y-74648268D01*
X114477909Y-74675997D01*
X114477909Y-74676000D01*
X114488970Y-74781242D01*
X114496223Y-74850250D01*
X114550365Y-75016882D01*
X114637967Y-75168615D01*
X114755209Y-75298824D01*
X114896954Y-75401808D01*
X115057018Y-75473073D01*
X115228394Y-75509500D01*
X115228396Y-75509500D01*
X115403606Y-75509500D01*
X115574981Y-75473073D01*
X115574982Y-75473072D01*
X115574984Y-75473072D01*
X115735046Y-75401808D01*
X115876792Y-75298823D01*
X115994030Y-75168618D01*
X115995374Y-75166291D01*
X116081634Y-75016882D01*
X116110953Y-74926648D01*
X116135777Y-74850249D01*
X116154091Y-74676000D01*
X116135777Y-74501751D01*
X116081634Y-74335118D01*
X116081634Y-74335117D01*
X115994032Y-74183384D01*
X115961974Y-74147781D01*
X115876792Y-74053177D01*
X115842601Y-74028336D01*
X115724503Y-73942532D01*
X115726726Y-73939471D01*
X115690824Y-73908952D01*
X115670506Y-73842102D01*
X115670500Y-73840928D01*
X115670500Y-70325824D01*
X115690185Y-70258785D01*
X115742989Y-70213030D01*
X115812147Y-70203086D01*
X115844933Y-70212544D01*
X115859037Y-70218823D01*
X115867021Y-70222378D01*
X116038397Y-70258805D01*
X116038399Y-70258805D01*
X116213609Y-70258805D01*
X116384984Y-70222378D01*
X116384985Y-70222377D01*
X116384987Y-70222377D01*
X116545049Y-70151113D01*
X116652410Y-70073110D01*
X116718214Y-70049631D01*
X116786268Y-70065456D01*
X116834963Y-70115561D01*
X116848839Y-70184039D01*
X116848615Y-70186388D01*
X116848006Y-70192186D01*
X116857052Y-70278250D01*
X116866320Y-70366436D01*
X116920462Y-70533068D01*
X117008064Y-70684801D01*
X117125306Y-70815010D01*
X117267051Y-70917994D01*
X117427115Y-70989259D01*
X117598491Y-71025686D01*
X117598493Y-71025686D01*
X117773699Y-71025686D01*
X117773701Y-71025686D01*
X117827551Y-71014239D01*
X117897215Y-71019554D01*
X117952949Y-71061690D01*
X117960719Y-71073531D01*
X117975719Y-71099512D01*
X118058291Y-71191217D01*
X118092958Y-71229718D01*
X118234703Y-71332702D01*
X118394767Y-71403967D01*
X118531279Y-71432983D01*
X118592761Y-71466175D01*
X118626538Y-71527338D01*
X118629499Y-71554273D01*
X118629499Y-74915686D01*
X118609814Y-74982725D01*
X118557010Y-75028480D01*
X118505499Y-75039686D01*
X118404917Y-75039686D01*
X118233541Y-75076112D01*
X118073475Y-75147378D01*
X117931734Y-75250359D01*
X117814490Y-75380570D01*
X117726888Y-75532303D01*
X117672746Y-75698935D01*
X117661659Y-75804421D01*
X117635074Y-75869035D01*
X117626019Y-75879139D01*
X117093671Y-76411487D01*
X117081478Y-76422180D01*
X117056016Y-76441718D01*
X117056012Y-76441722D01*
X117056013Y-76441722D01*
X117031525Y-76473634D01*
X117031523Y-76473637D01*
X117030321Y-76475202D01*
X117030316Y-76475207D01*
X116958475Y-76568833D01*
X116901376Y-76706686D01*
X116897161Y-76716859D01*
X116881500Y-76835824D01*
X116881500Y-76835830D01*
X116876249Y-76875708D01*
X116880439Y-76907527D01*
X116881500Y-76923713D01*
X116881500Y-77340500D01*
X116861815Y-77407539D01*
X116809011Y-77453294D01*
X116757500Y-77464500D01*
X116591362Y-77464500D01*
X116588084Y-77464852D01*
X116588072Y-77464853D01*
X116528254Y-77471284D01*
X116501746Y-77471284D01*
X116441927Y-77464853D01*
X116441916Y-77464852D01*
X116438638Y-77464500D01*
X115941362Y-77464500D01*
X115938082Y-77464852D01*
X115938075Y-77464853D01*
X115880794Y-77471011D01*
X115743796Y-77522110D01*
X115626738Y-77609738D01*
X115539110Y-77726796D01*
X115488011Y-77863794D01*
X115481853Y-77921075D01*
X115481500Y-77924362D01*
X115481500Y-78671638D01*
X115481852Y-78674918D01*
X115481853Y-78674924D01*
X115488011Y-78732205D01*
X115539110Y-78869203D01*
X115626738Y-78986261D01*
X115743796Y-79073889D01*
X115895392Y-79130433D01*
X115894940Y-79131643D01*
X115942756Y-79151449D01*
X115982604Y-79208842D01*
X115985097Y-79278667D01*
X115949444Y-79338755D01*
X115886965Y-79370030D01*
X115881208Y-79370857D01*
X115743796Y-79422110D01*
X115626738Y-79509738D01*
X115539110Y-79626796D01*
X115488011Y-79763794D01*
X115481853Y-79821075D01*
X115481500Y-79824362D01*
X115481500Y-80571638D01*
X115481852Y-80574918D01*
X115481853Y-80574924D01*
X115488011Y-80632205D01*
X115539110Y-80769203D01*
X115626738Y-80886261D01*
X115743796Y-80973889D01*
X115880794Y-81024988D01*
X115880797Y-81024988D01*
X115880799Y-81024989D01*
X115941362Y-81031500D01*
X115944672Y-81031500D01*
X116435328Y-81031500D01*
X116438638Y-81031500D01*
X116448727Y-81030415D01*
X116501741Y-81024716D01*
X116528252Y-81024715D01*
X116530798Y-81024988D01*
X116530799Y-81024989D01*
X116591362Y-81031500D01*
X116594672Y-81031500D01*
X117085328Y-81031500D01*
X117088638Y-81031500D01*
X117093275Y-81031001D01*
X117151744Y-81024716D01*
X117178256Y-81024716D01*
X117238059Y-81031145D01*
X117238060Y-81031145D01*
X117241362Y-81031500D01*
X117244672Y-81031500D01*
X117735328Y-81031500D01*
X117738638Y-81031500D01*
X117799201Y-81024989D01*
X117936204Y-80973889D01*
X117936204Y-80973888D01*
X117952909Y-80967658D01*
X117954513Y-80971960D01*
X117988574Y-80959242D01*
X118047903Y-80969644D01*
X118105016Y-80995072D01*
X118276394Y-81031500D01*
X118276396Y-81031500D01*
X118451606Y-81031500D01*
X118555613Y-81009392D01*
X118622984Y-80995072D01*
X118680099Y-80969642D01*
X118749344Y-80960357D01*
X118773960Y-80970692D01*
X118775092Y-80967659D01*
X118928794Y-81024988D01*
X118928797Y-81024988D01*
X118928799Y-81024989D01*
X118989362Y-81031500D01*
X118992672Y-81031500D01*
X119483328Y-81031500D01*
X119486638Y-81031500D01*
X119491275Y-81031001D01*
X119549744Y-81024716D01*
X119576256Y-81024716D01*
X119636059Y-81031145D01*
X119636060Y-81031145D01*
X119639362Y-81031500D01*
X119642672Y-81031500D01*
X120133328Y-81031500D01*
X120136638Y-81031500D01*
X120146727Y-81030415D01*
X120199741Y-81024716D01*
X120226252Y-81024715D01*
X120228798Y-81024988D01*
X120228799Y-81024989D01*
X120289362Y-81031500D01*
X120292672Y-81031500D01*
X120783328Y-81031500D01*
X120786638Y-81031500D01*
X120847201Y-81024989D01*
X120847203Y-81024988D01*
X120847205Y-81024988D01*
X120927411Y-80995072D01*
X120984204Y-80973889D01*
X121101261Y-80886261D01*
X121188889Y-80769204D01*
X121239989Y-80632201D01*
X121246500Y-80571638D01*
X121246500Y-79824362D01*
X121239989Y-79763799D01*
X121239988Y-79763797D01*
X121239988Y-79763794D01*
X121188889Y-79626796D01*
X121101261Y-79509738D01*
X120984203Y-79422110D01*
X120832608Y-79365567D01*
X120833059Y-79364357D01*
X120785244Y-79344552D01*
X120745396Y-79287159D01*
X120742902Y-79217334D01*
X120778554Y-79157245D01*
X120841033Y-79125970D01*
X120846795Y-79125141D01*
X120929753Y-79094198D01*
X120984204Y-79073889D01*
X121101261Y-78986261D01*
X121188889Y-78869204D01*
X121239989Y-78732201D01*
X121246500Y-78671638D01*
X121246500Y-77924362D01*
X121239989Y-77863799D01*
X121239988Y-77863797D01*
X121239988Y-77863794D01*
X121188889Y-77726796D01*
X121171233Y-77703210D01*
X121146816Y-77637746D01*
X121146500Y-77628900D01*
X121146500Y-76263847D01*
X121166185Y-76196808D01*
X121218989Y-76151053D01*
X121288147Y-76141109D01*
X121351703Y-76170134D01*
X121388431Y-76225529D01*
X121408365Y-76286882D01*
X121495969Y-76438618D01*
X121613206Y-76568821D01*
X121613208Y-76568823D01*
X121626385Y-76578397D01*
X121669049Y-76633723D01*
X121677499Y-76678713D01*
X121677499Y-77628900D01*
X121657814Y-77695939D01*
X121652768Y-77703209D01*
X121635109Y-77726798D01*
X121584011Y-77863794D01*
X121577853Y-77921075D01*
X121577500Y-77924362D01*
X121577500Y-78671638D01*
X121577852Y-78674918D01*
X121577853Y-78674924D01*
X121584011Y-78732205D01*
X121635110Y-78869203D01*
X121722738Y-78986261D01*
X121839796Y-79073889D01*
X121991392Y-79130433D01*
X121990940Y-79131643D01*
X122038756Y-79151449D01*
X122078604Y-79208842D01*
X122081097Y-79278667D01*
X122045444Y-79338755D01*
X121982965Y-79370030D01*
X121977208Y-79370857D01*
X121839796Y-79422110D01*
X121722738Y-79509738D01*
X121635110Y-79626796D01*
X121584011Y-79763794D01*
X121577853Y-79821075D01*
X121577500Y-79824362D01*
X121577500Y-80571638D01*
X121577852Y-80574918D01*
X121577853Y-80574924D01*
X121584011Y-80632205D01*
X121635110Y-80769203D01*
X121722738Y-80886261D01*
X121839796Y-80973889D01*
X121976794Y-81024988D01*
X121976797Y-81024988D01*
X121976799Y-81024989D01*
X122037362Y-81031500D01*
X122040672Y-81031500D01*
X122531328Y-81031500D01*
X122534638Y-81031500D01*
X122544727Y-81030415D01*
X122597741Y-81024716D01*
X122624252Y-81024715D01*
X122626798Y-81024988D01*
X122626799Y-81024989D01*
X122687362Y-81031500D01*
X122690672Y-81031500D01*
X123181328Y-81031500D01*
X123184638Y-81031500D01*
X123189275Y-81031001D01*
X123247744Y-81024716D01*
X123274256Y-81024716D01*
X123334059Y-81031145D01*
X123334060Y-81031145D01*
X123337362Y-81031500D01*
X123340672Y-81031500D01*
X123831328Y-81031500D01*
X123834638Y-81031500D01*
X123895201Y-81024989D01*
X124032204Y-80973889D01*
X124032204Y-80973888D01*
X124048909Y-80967658D01*
X124050513Y-80971960D01*
X124084574Y-80959242D01*
X124143903Y-80969644D01*
X124201016Y-80995072D01*
X124372394Y-81031500D01*
X124372396Y-81031500D01*
X124547606Y-81031500D01*
X124651613Y-81009392D01*
X124718984Y-80995072D01*
X124776099Y-80969642D01*
X124845344Y-80960357D01*
X124869960Y-80970692D01*
X124871092Y-80967659D01*
X125024794Y-81024988D01*
X125024797Y-81024988D01*
X125024799Y-81024989D01*
X125085362Y-81031500D01*
X125088672Y-81031500D01*
X125579328Y-81031500D01*
X125582638Y-81031500D01*
X125587275Y-81031001D01*
X125645744Y-81024716D01*
X125672256Y-81024716D01*
X125732059Y-81031145D01*
X125732060Y-81031145D01*
X125735362Y-81031500D01*
X125738672Y-81031500D01*
X126229328Y-81031500D01*
X126232638Y-81031500D01*
X126242727Y-81030415D01*
X126295741Y-81024716D01*
X126322252Y-81024715D01*
X126324798Y-81024988D01*
X126324799Y-81024989D01*
X126385362Y-81031500D01*
X126388672Y-81031500D01*
X126879328Y-81031500D01*
X126882638Y-81031500D01*
X126943201Y-81024989D01*
X127080204Y-80973889D01*
X127080204Y-80973888D01*
X127096909Y-80967658D01*
X127098513Y-80971960D01*
X127132574Y-80959242D01*
X127191903Y-80969644D01*
X127249016Y-80995072D01*
X127420394Y-81031500D01*
X127420396Y-81031500D01*
X127595606Y-81031500D01*
X127699613Y-81009392D01*
X127766984Y-80995072D01*
X127824099Y-80969642D01*
X127893344Y-80960357D01*
X127917960Y-80970692D01*
X127919092Y-80967659D01*
X128072794Y-81024988D01*
X128072797Y-81024988D01*
X128072799Y-81024989D01*
X128133362Y-81031500D01*
X128136672Y-81031500D01*
X128627328Y-81031500D01*
X128630638Y-81031500D01*
X128640727Y-81030415D01*
X128693741Y-81024716D01*
X128720252Y-81024715D01*
X128722798Y-81024988D01*
X128722799Y-81024989D01*
X128783362Y-81031500D01*
X128786672Y-81031500D01*
X129277328Y-81031500D01*
X129280638Y-81031500D01*
X129285275Y-81031001D01*
X129343744Y-81024716D01*
X129370256Y-81024716D01*
X129430059Y-81031145D01*
X129430060Y-81031145D01*
X129433362Y-81031500D01*
X129436672Y-81031500D01*
X129927328Y-81031500D01*
X129930638Y-81031500D01*
X129991201Y-81024989D01*
X130128204Y-80973889D01*
X130128204Y-80973888D01*
X130144909Y-80967658D01*
X130146513Y-80971960D01*
X130180574Y-80959242D01*
X130239903Y-80969644D01*
X130297016Y-80995072D01*
X130468394Y-81031500D01*
X130468396Y-81031500D01*
X130643606Y-81031500D01*
X130747613Y-81009392D01*
X130814984Y-80995072D01*
X130872099Y-80969642D01*
X130941344Y-80960357D01*
X130965960Y-80970692D01*
X130967092Y-80967659D01*
X131120794Y-81024988D01*
X131120797Y-81024988D01*
X131120799Y-81024989D01*
X131181362Y-81031500D01*
X131184672Y-81031500D01*
X131675328Y-81031500D01*
X131678638Y-81031500D01*
X131683275Y-81031001D01*
X131741744Y-81024716D01*
X131768256Y-81024716D01*
X131828059Y-81031145D01*
X131828060Y-81031145D01*
X131831362Y-81031500D01*
X131834672Y-81031500D01*
X132325328Y-81031500D01*
X132328638Y-81031500D01*
X132338727Y-81030415D01*
X132391741Y-81024716D01*
X132418252Y-81024715D01*
X132420798Y-81024988D01*
X132420799Y-81024989D01*
X132481362Y-81031500D01*
X132484672Y-81031500D01*
X132975328Y-81031500D01*
X132978638Y-81031500D01*
X133039201Y-81024989D01*
X133039203Y-81024988D01*
X133039205Y-81024988D01*
X133119411Y-80995072D01*
X133176204Y-80973889D01*
X133293261Y-80886261D01*
X133380889Y-80769204D01*
X133431989Y-80632201D01*
X133438500Y-80571638D01*
X133438500Y-79824362D01*
X133431989Y-79763799D01*
X133431988Y-79763797D01*
X133431988Y-79763794D01*
X133380889Y-79626796D01*
X133293261Y-79509738D01*
X133176203Y-79422110D01*
X133024608Y-79365567D01*
X133025059Y-79364357D01*
X132977244Y-79344552D01*
X132937396Y-79287159D01*
X132934902Y-79217334D01*
X132970554Y-79157245D01*
X133033033Y-79125970D01*
X133038795Y-79125141D01*
X133121753Y-79094198D01*
X133176204Y-79073889D01*
X133293261Y-78986261D01*
X133380889Y-78869204D01*
X133431989Y-78732201D01*
X133438500Y-78671638D01*
X133438500Y-77924362D01*
X133431989Y-77863799D01*
X133431988Y-77863797D01*
X133431988Y-77863794D01*
X133380889Y-77726796D01*
X133363233Y-77703210D01*
X133338816Y-77637746D01*
X133338500Y-77628900D01*
X133338500Y-74660008D01*
X133339561Y-74643822D01*
X133343750Y-74612003D01*
X133338500Y-74572127D01*
X133338500Y-74572126D01*
X133338500Y-74572119D01*
X133322838Y-74453154D01*
X133283318Y-74357744D01*
X133275849Y-74288275D01*
X133307124Y-74225796D01*
X133367213Y-74190144D01*
X133437038Y-74192638D01*
X133494431Y-74232486D01*
X133500053Y-74240033D01*
X133661863Y-74475357D01*
X133704462Y-74531026D01*
X134121575Y-75076112D01*
X134128295Y-75084893D01*
X134129304Y-75086081D01*
X134129323Y-75086105D01*
X134323304Y-75314583D01*
X134351687Y-75378428D01*
X134352778Y-75394837D01*
X134352778Y-81387888D01*
X134333093Y-81454927D01*
X134280289Y-81500682D01*
X134228778Y-81511888D01*
X114427779Y-81511888D01*
X114360740Y-81492203D01*
X114314985Y-81439399D01*
X114303779Y-81387888D01*
X114303779Y-80563792D01*
X114303820Y-80563648D01*
X114303820Y-80512388D01*
X114303821Y-80512388D01*
X114303820Y-80355085D01*
X114265897Y-80042775D01*
X114190606Y-79737313D01*
X114079045Y-79443154D01*
X113992715Y-79278667D01*
X113934583Y-79167906D01*
X113934579Y-79167899D01*
X113932840Y-79164586D01*
X113754124Y-78905672D01*
X113545502Y-78670188D01*
X113338064Y-78486415D01*
X113312816Y-78464047D01*
X113312809Y-78464041D01*
X113310017Y-78461568D01*
X113051102Y-78282853D01*
X113047799Y-78281119D01*
X113047795Y-78281117D01*
X112775839Y-78138383D01*
X112775830Y-78138379D01*
X112772534Y-78136649D01*
X112769046Y-78135326D01*
X112769039Y-78135323D01*
X112481878Y-78026419D01*
X112481879Y-78026419D01*
X112478374Y-78025090D01*
X112474740Y-78024194D01*
X112474736Y-78024193D01*
X112176544Y-77950695D01*
X112176536Y-77950693D01*
X112172911Y-77949800D01*
X112169204Y-77949350D01*
X112169194Y-77949348D01*
X111864322Y-77912330D01*
X111864308Y-77912329D01*
X111860601Y-77911879D01*
X111545997Y-77911879D01*
X111542289Y-77912329D01*
X111542276Y-77912330D01*
X111237406Y-77949349D01*
X111237399Y-77949350D01*
X111233687Y-77949801D01*
X111230062Y-77950694D01*
X111230048Y-77950697D01*
X110931861Y-78024193D01*
X110931852Y-78024195D01*
X110928224Y-78025090D01*
X110924722Y-78026417D01*
X110924719Y-78026419D01*
X110637558Y-78135324D01*
X110637545Y-78135329D01*
X110634064Y-78136650D01*
X110630773Y-78138377D01*
X110630758Y-78138384D01*
X110358802Y-78281118D01*
X110358791Y-78281124D01*
X110355496Y-78282854D01*
X110352424Y-78284973D01*
X110352418Y-78284978D01*
X110099671Y-78459435D01*
X110099658Y-78459444D01*
X110096581Y-78461569D01*
X110093776Y-78464053D01*
X110093767Y-78464061D01*
X109863901Y-78667704D01*
X109863895Y-78667710D01*
X109861096Y-78670190D01*
X109858621Y-78672984D01*
X109858610Y-78672995D01*
X109654967Y-78902860D01*
X109654959Y-78902869D01*
X109652475Y-78905674D01*
X109650350Y-78908751D01*
X109650341Y-78908764D01*
X109475888Y-79161503D01*
X109473759Y-79164588D01*
X109472026Y-79167889D01*
X109472015Y-79167908D01*
X109329296Y-79439836D01*
X109327554Y-79443156D01*
X109326229Y-79446647D01*
X109326226Y-79446656D01*
X109217319Y-79733817D01*
X109217316Y-79733826D01*
X109215993Y-79737315D01*
X109215101Y-79740931D01*
X109215098Y-79740943D01*
X109141596Y-80039147D01*
X109141593Y-80039158D01*
X109140702Y-80042777D01*
X109140251Y-80046487D01*
X109140251Y-80046490D01*
X109103231Y-80351367D01*
X109103230Y-80351380D01*
X109102780Y-80355088D01*
X109102779Y-80358819D01*
X109102779Y-80358836D01*
X109102779Y-80496473D01*
X109102779Y-80496474D01*
X109102779Y-80995073D01*
X109102780Y-81387888D01*
X109083096Y-81454927D01*
X109030292Y-81500682D01*
X108978780Y-81511888D01*
X84427780Y-81511888D01*
X84360741Y-81492203D01*
X84314986Y-81439399D01*
X84303780Y-81387888D01*
X84303780Y-79579735D01*
X84297710Y-79561056D01*
X84302371Y-79559541D01*
X84291701Y-79529707D01*
X84307473Y-79461640D01*
X84357542Y-79412907D01*
X84415493Y-79398532D01*
X84567328Y-79398532D01*
X84570638Y-79398532D01*
X84573937Y-79398177D01*
X84573942Y-79398177D01*
X84608745Y-79394436D01*
X84635255Y-79394436D01*
X84670057Y-79398177D01*
X84670063Y-79398177D01*
X84673362Y-79398532D01*
X84676672Y-79398532D01*
X85067314Y-79398532D01*
X85070638Y-79398532D01*
X85108745Y-79394435D01*
X85135250Y-79394435D01*
X85170059Y-79398177D01*
X85170060Y-79398177D01*
X85173362Y-79398532D01*
X85176672Y-79398532D01*
X85567328Y-79398532D01*
X85570638Y-79398532D01*
X85573937Y-79398177D01*
X85573942Y-79398177D01*
X85608745Y-79394436D01*
X85635255Y-79394436D01*
X85670057Y-79398177D01*
X85670063Y-79398177D01*
X85673362Y-79398532D01*
X85676672Y-79398532D01*
X86067314Y-79398532D01*
X86070638Y-79398532D01*
X86108745Y-79394435D01*
X86135250Y-79394435D01*
X86170059Y-79398177D01*
X86170060Y-79398177D01*
X86173362Y-79398532D01*
X86176672Y-79398532D01*
X86567328Y-79398532D01*
X86570638Y-79398532D01*
X86573937Y-79398177D01*
X86573942Y-79398177D01*
X86608745Y-79394436D01*
X86635255Y-79394436D01*
X86670057Y-79398177D01*
X86670063Y-79398177D01*
X86673362Y-79398532D01*
X86676672Y-79398532D01*
X87067314Y-79398532D01*
X87070638Y-79398532D01*
X87108745Y-79394435D01*
X87135250Y-79394435D01*
X87170059Y-79398177D01*
X87170060Y-79398177D01*
X87173362Y-79398532D01*
X87176672Y-79398532D01*
X87567328Y-79398532D01*
X87570638Y-79398532D01*
X87573937Y-79398177D01*
X87573942Y-79398177D01*
X87608745Y-79394436D01*
X87635255Y-79394436D01*
X87670057Y-79398177D01*
X87670063Y-79398177D01*
X87673362Y-79398532D01*
X87676672Y-79398532D01*
X88067314Y-79398532D01*
X88070638Y-79398532D01*
X88108745Y-79394435D01*
X88135250Y-79394435D01*
X88170059Y-79398177D01*
X88170060Y-79398177D01*
X88173362Y-79398532D01*
X88204460Y-79398532D01*
X88271499Y-79418217D01*
X88317254Y-79471021D01*
X88319021Y-79475080D01*
X88340475Y-79526875D01*
X88413496Y-79622038D01*
X88413513Y-79622060D01*
X88413523Y-79622072D01*
X88413525Y-79622074D01*
X88438013Y-79653987D01*
X88438014Y-79653988D01*
X88463478Y-79673527D01*
X88475673Y-79684222D01*
X88943777Y-80152326D01*
X88954472Y-80164521D01*
X88974013Y-80189988D01*
X88991375Y-80203310D01*
X88991380Y-80203313D01*
X89005925Y-80214474D01*
X89005928Y-80214477D01*
X89075318Y-80267721D01*
X89101125Y-80287524D01*
X89249150Y-80348838D01*
X89368115Y-80364500D01*
X89368122Y-80364500D01*
X89408000Y-80369750D01*
X89439820Y-80365560D01*
X89456005Y-80364500D01*
X105361995Y-80364500D01*
X105378179Y-80365560D01*
X105410000Y-80369750D01*
X105449880Y-80364500D01*
X105449885Y-80364500D01*
X105549456Y-80351391D01*
X105568851Y-80348838D01*
X105716876Y-80287524D01*
X105812072Y-80214477D01*
X105812072Y-80214475D01*
X105828364Y-80201975D01*
X105828365Y-80201973D01*
X105843987Y-80189987D01*
X105863536Y-80164509D01*
X105874216Y-80152331D01*
X113172332Y-72854215D01*
X113184510Y-72843535D01*
X113209987Y-72823987D01*
X113221971Y-72808368D01*
X113221974Y-72808366D01*
X113251460Y-72769939D01*
X113307524Y-72696876D01*
X113368838Y-72548851D01*
X113375218Y-72500388D01*
X113384500Y-72429885D01*
X113384500Y-72429879D01*
X113389750Y-72390000D01*
X113385560Y-72358179D01*
X113384500Y-72341995D01*
X113384500Y-53957437D01*
X113404185Y-53890398D01*
X113416344Y-53874471D01*
X113454030Y-53832618D01*
X113455231Y-53830536D01*
X113459987Y-53826001D01*
X113462752Y-53822931D01*
X113462986Y-53823141D01*
X113505795Y-53782319D01*
X113574402Y-53769093D01*
X113639268Y-53795058D01*
G37*
G04 #@! TD.AperFunction*
G04 #@! TA.AperFunction,Conductor*
G36*
X124683591Y-72661090D02*
G01*
X124720804Y-72720225D01*
X124725500Y-72754026D01*
X124725500Y-77628900D01*
X124705815Y-77695939D01*
X124700767Y-77703210D01*
X124683110Y-77726796D01*
X124632011Y-77863794D01*
X124625853Y-77921075D01*
X124625500Y-77924362D01*
X124625500Y-78671638D01*
X124625852Y-78674918D01*
X124625853Y-78674924D01*
X124632011Y-78732205D01*
X124683110Y-78869203D01*
X124770738Y-78986261D01*
X124887796Y-79073889D01*
X125039392Y-79130433D01*
X125038940Y-79131643D01*
X125086756Y-79151449D01*
X125126604Y-79208842D01*
X125129097Y-79278667D01*
X125093444Y-79338755D01*
X125030965Y-79370030D01*
X125025210Y-79370857D01*
X124951013Y-79398532D01*
X124887796Y-79422111D01*
X124887795Y-79422111D01*
X124871094Y-79428341D01*
X124869489Y-79424038D01*
X124835264Y-79436768D01*
X124776099Y-79426356D01*
X124718984Y-79400927D01*
X124547606Y-79364500D01*
X124547604Y-79364500D01*
X124372396Y-79364500D01*
X124372394Y-79364500D01*
X124201015Y-79400927D01*
X124143900Y-79426356D01*
X124074650Y-79435640D01*
X124050038Y-79425310D01*
X124048908Y-79428341D01*
X123880608Y-79365567D01*
X123881059Y-79364357D01*
X123833244Y-79344552D01*
X123793396Y-79287159D01*
X123790902Y-79217334D01*
X123826554Y-79157245D01*
X123889033Y-79125970D01*
X123894795Y-79125141D01*
X123977753Y-79094198D01*
X124032204Y-79073889D01*
X124149261Y-78986261D01*
X124236889Y-78869204D01*
X124287989Y-78732201D01*
X124294500Y-78671638D01*
X124294500Y-77924362D01*
X124287989Y-77863799D01*
X124287988Y-77863797D01*
X124287988Y-77863794D01*
X124236889Y-77726796D01*
X124219233Y-77703210D01*
X124194816Y-77637746D01*
X124194500Y-77628900D01*
X124194500Y-72836978D01*
X124214185Y-72769939D01*
X124266989Y-72724184D01*
X124292719Y-72715688D01*
X124293603Y-72715500D01*
X124293604Y-72715500D01*
X124464984Y-72679072D01*
X124551063Y-72640747D01*
X124620314Y-72631462D01*
X124683591Y-72661090D01*
G37*
G04 #@! TD.AperFunction*
M02*
