G04 #@! TF.GenerationSoftware,KiCad,Pcbnew,(6.0.7)*
G04 #@! TF.CreationDate,2023-01-29T23:29:40-08:00*
G04 #@! TF.ProjectId,procon_gcc_button_board,70726f63-6f6e-45f6-9763-635f62757474,rev?*
G04 #@! TF.SameCoordinates,Original*
G04 #@! TF.FileFunction,Paste,Top*
G04 #@! TF.FilePolarity,Positive*
%FSLAX46Y46*%
G04 Gerber Fmt 4.6, Leading zero omitted, Abs format (unit mm)*
G04 Created by KiCad (PCBNEW (6.0.7)) date 2023-01-29 23:29:40*
%MOMM*%
%LPD*%
G01*
G04 APERTURE LIST*
G04 Aperture macros list*
%AMFreePoly0*
4,1,91,-2.437851,3.859374,-2.059722,3.811674,-1.687850,3.728203,-1.325609,3.609719,-0.976289,3.457297,-0.643062,3.272321,-0.328952,3.056470,-0.036811,2.811704,0.230709,2.540245,0.471179,2.244558,0.682416,1.927327,0.862502,1.591431,1.009802,1.239921,1.122979,0.875988,1.201006,0.502935,1.243174,0.124149,1.249100,-0.256931,1.218731,-0.636844,1.152342,-1.012143,1.050536,-1.379420,
0.914237,-1.735340,0.744683,-2.076673,0.543413,-2.400320,0.312254,-2.703341,0.137022,-2.892578,0.122664,-2.916073,0.113773,-2.922550,0.107630,-2.931672,0.089992,-2.943367,0.053304,-2.982987,-0.231084,-3.236719,-0.538331,-3.462233,-0.865645,-3.657481,-0.926494,-3.668305,-0.982083,-3.641296,-1.011180,-3.586770,-1.005818,-3.548195,-1.022279,-3.505010,-1.069514,-2.342249,-1.094825,-1.178806,
-1.098203,-0.015091,-1.079645,1.148480,-1.039160,2.311495,-1.017482,2.369372,-1.002175,2.379491,-0.992688,2.668820,-1.001764,2.671077,-1.008366,2.678935,-1.270626,2.825945,-1.554461,2.951648,-1.848841,3.050156,-2.151167,3.120597,-2.458771,3.162352,-2.768936,3.175050,-2.984307,3.163607,-2.931088,2.007721,-2.902480,0.799273,-2.900873,-0.409512,-2.926269,-1.618031,-2.978655,-2.825681,
-3.000927,-2.883332,-3.052833,-2.916881,-3.063903,-2.916277,-3.023821,-2.934789,-2.993661,-2.988734,-3.000969,-3.050105,-3.042954,-3.095458,-3.103579,-3.107471,-3.387467,-3.059755,-3.665475,-2.985049,-3.935044,-2.884043,-3.981482,-2.843260,-3.986022,-2.823129,-3.998011,-2.815324,-4.020095,-2.757600,-4.069443,-1.573361,-4.096049,-0.388392,-4.099902,0.796868,-4.081000,1.981985,-4.039350,3.166520,
-4.017642,3.224386,-3.982845,3.247362,-3.980674,3.524211,-3.995721,3.535392,-4.014189,3.594373,-3.994462,3.652943,-3.944075,3.688732,-3.575349,3.785159,-3.199120,3.846056,-2.818803,3.870869,-2.437851,3.859374,-2.437851,3.859374,$1*%
%AMFreePoly1*
4,1,86,1.004407,3.464258,1.033504,3.409732,1.028142,3.371156,1.044603,3.327970,1.091163,2.186740,1.116602,1.044844,1.120913,-0.097327,1.104094,-1.239382,1.066151,-2.380931,1.044574,-2.438846,0.993077,-2.473017,0.961723,-2.471685,0.953045,-2.818808,0.994891,-2.829681,1.001597,-2.837835,1.266460,-2.989707,1.553755,-3.119779,1.852144,-3.221865,2.158906,-3.295034,2.471248,-3.338621,
2.786323,-3.352227,2.937262,-3.344320,3.006379,-3.334948,2.952757,-2.165877,2.924345,-0.938528,2.923784,0.289150,2.951077,1.516524,3.006208,2.742963,3.025967,2.793842,3.015985,2.811695,3.023293,2.873065,3.065277,2.918419,3.125901,2.930434,3.345690,2.895955,3.562320,2.845284,3.774598,2.778698,3.981359,2.696564,4.027439,2.655378,4.040510,2.594972,4.038580,2.590595,
4.042419,2.580562,4.093133,1.353247,4.119421,0.125165,4.121269,-1.103197,4.098679,-2.331352,4.051660,-3.558815,4.029750,-3.616605,3.986442,-3.644983,3.984433,-3.687455,4.018045,-3.712430,4.036513,-3.771411,4.016786,-3.829981,3.966399,-3.865770,3.597673,-3.962197,3.221444,-4.023094,2.841127,-4.047907,2.460175,-4.036412,2.082046,-3.988712,1.710174,-3.905241,1.347933,-3.786757,
0.998613,-3.634335,0.665386,-3.449359,0.351276,-3.233508,0.059135,-2.988742,-0.208385,-2.717283,-0.448855,-2.421596,-0.660092,-2.104365,-0.840178,-1.768469,-0.987478,-1.416959,-1.100655,-1.053026,-1.178682,-0.679973,-1.220850,-0.301187,-1.226776,0.079893,-1.196407,0.459806,-1.130018,0.835105,-1.028212,1.202382,-0.891913,1.558302,-0.722359,1.899635,-0.521089,2.223282,-0.289930,2.526303,
-0.030980,2.805949,0.253408,3.059681,0.560655,3.285195,0.887969,3.480443,0.948818,3.491267,1.004407,3.464258,1.004407,3.464258,$1*%
%AMFreePoly2*
4,1,55,0.030762,1.344674,0.032265,1.344652,1.710265,0.772652,1.724478,0.762010,1.741045,0.755623,1.748603,0.743948,1.759739,0.735610,1.764983,0.718643,1.774630,0.703741,2.067300,-0.394917,2.087301,-0.438071,2.172819,-0.706944,2.223855,-0.984435,2.220106,-1.003386,2.220106,-1.030902,2.218457,-1.033172,2.218306,-1.035973,2.212163,-1.043536,2.211861,-1.045063,2.208073,-1.048572,
2.200441,-1.057968,2.183779,-1.080902,2.181110,-1.081769,2.179342,-1.083946,2.151962,-1.091240,2.125000,-1.100000,-2.125000,-1.100000,-2.151945,-1.091245,-2.179342,-1.083947,-2.181111,-1.081769,-2.183779,-1.080902,-2.200438,-1.057973,-2.218306,-1.035973,-2.218457,-1.033172,-2.220106,-1.030902,-2.220106,-1.002554,-2.221630,-0.974259,-2.164761,-0.760776,-2.166357,-0.758854,-2.170356,-0.697180,
-2.083630,-0.428695,-2.066656,-0.392499,-1.774630,0.703741,-1.764982,0.718645,-1.759738,0.735610,-1.748603,0.743947,-1.741045,0.755623,-1.724479,0.762010,-1.710265,0.772652,-0.032265,1.344652,-0.030761,1.344674,-0.029532,1.345540,0.000000,1.345116,0.029533,1.345540,0.030762,1.344674,0.030762,1.344674,$1*%
%AMFreePoly3*
4,1,21,-0.146464,0.553536,-0.145000,0.550000,-0.145000,0.355000,0.350000,0.355000,0.353536,0.353536,0.355000,0.350000,0.355000,-0.350000,0.353536,-0.353536,0.350000,-0.355000,-0.145000,-0.355000,-0.145000,-0.550000,-0.146464,-0.553536,-0.150000,-0.555000,-0.350000,-0.555000,-0.353536,-0.553536,-0.355000,-0.550000,-0.355000,0.550000,-0.353536,0.553536,-0.350000,0.555000,-0.150000,0.555000,
-0.146464,0.553536,-0.146464,0.553536,$1*%
G04 Aperture macros list end*
%ADD10FreePoly0,90.000000*%
%ADD11FreePoly1,90.000000*%
%ADD12FreePoly2,90.000000*%
%ADD13FreePoly2,180.000000*%
%ADD14FreePoly2,0.000000*%
%ADD15FreePoly2,270.000000*%
%ADD16FreePoly3,0.000000*%
%ADD17FreePoly3,180.000000*%
%ADD18C,1.524000*%
G04 APERTURE END LIST*
D10*
X177799320Y-41965900D03*
X165879320Y-52335900D03*
X153979320Y-41945900D03*
X165909320Y-31555900D03*
D11*
X177879320Y-47485900D03*
X154059320Y-47465900D03*
X165959320Y-57855900D03*
X165989320Y-37075900D03*
D12*
X101155180Y-56231960D03*
D13*
X111380180Y-66461960D03*
D12*
X101155180Y-74231960D03*
D13*
X93380180Y-66461960D03*
D14*
X111390180Y-63961960D03*
D15*
X103655180Y-56241960D03*
X103655180Y-74241960D03*
D14*
X93390180Y-63961960D03*
D16*
X142384860Y-31160720D03*
D17*
X146834860Y-31160720D03*
D16*
X142384860Y-34660720D03*
D17*
X146834860Y-34660720D03*
D16*
X112234000Y-42804000D03*
D17*
X116684000Y-42804000D03*
D16*
X112234000Y-46304000D03*
D17*
X116684000Y-46304000D03*
D16*
X104504000Y-31124000D03*
D17*
X108954000Y-31124000D03*
D16*
X104504000Y-34624000D03*
D17*
X108954000Y-34624000D03*
D18*
X170854000Y-55574000D03*
X159229000Y-55599000D03*
X163013441Y-30556334D03*
X171251235Y-38758773D03*
X154634000Y-39884000D03*
X154659000Y-51509000D03*
D16*
X134494000Y-41994000D03*
D17*
X138944000Y-41994000D03*
D16*
X134494000Y-45494000D03*
D17*
X138944000Y-45494000D03*
D18*
X174276334Y-47734559D03*
X182478773Y-39496765D03*
M02*
