G04 #@! TF.GenerationSoftware,KiCad,Pcbnew,7.0.2*
G04 #@! TF.CreationDate,2023-05-25T22:37:04-07:00*
G04 #@! TF.ProjectId,procon_gcc_main_pcb,70726f63-6f6e-45f6-9763-635f6d61696e,1*
G04 #@! TF.SameCoordinates,Original*
G04 #@! TF.FileFunction,Legend,Bot*
G04 #@! TF.FilePolarity,Positive*
%FSLAX46Y46*%
G04 Gerber Fmt 4.6, Leading zero omitted, Abs format (unit mm)*
G04 Created by KiCad (PCBNEW 7.0.2) date 2023-05-25 22:37:04*
%MOMM*%
%LPD*%
G01*
G04 APERTURE LIST*
%ADD10C,0.250000*%
G04 APERTURE END LIST*
D10*
X150074761Y-103192619D02*
X150074761Y-102192619D01*
X150074761Y-103145000D02*
X150169999Y-103192619D01*
X150169999Y-103192619D02*
X150360475Y-103192619D01*
X150360475Y-103192619D02*
X150455713Y-103145000D01*
X150455713Y-103145000D02*
X150503332Y-103097380D01*
X150503332Y-103097380D02*
X150550951Y-103002142D01*
X150550951Y-103002142D02*
X150550951Y-102716428D01*
X150550951Y-102716428D02*
X150503332Y-102621190D01*
X150503332Y-102621190D02*
X150455713Y-102573571D01*
X150455713Y-102573571D02*
X150360475Y-102525952D01*
X150360475Y-102525952D02*
X150169999Y-102525952D01*
X150169999Y-102525952D02*
X150074761Y-102573571D01*
X149598570Y-102811666D02*
X148836666Y-102811666D01*
X149217618Y-103192619D02*
X149217618Y-102430714D01*
X156134761Y-104432619D02*
X156134761Y-103432619D01*
X156134761Y-104385000D02*
X156229999Y-104432619D01*
X156229999Y-104432619D02*
X156420475Y-104432619D01*
X156420475Y-104432619D02*
X156515713Y-104385000D01*
X156515713Y-104385000D02*
X156563332Y-104337380D01*
X156563332Y-104337380D02*
X156610951Y-104242142D01*
X156610951Y-104242142D02*
X156610951Y-103956428D01*
X156610951Y-103956428D02*
X156563332Y-103861190D01*
X156563332Y-103861190D02*
X156515713Y-103813571D01*
X156515713Y-103813571D02*
X156420475Y-103765952D01*
X156420475Y-103765952D02*
X156229999Y-103765952D01*
X156229999Y-103765952D02*
X156134761Y-103813571D01*
X155658570Y-104051666D02*
X154896666Y-104051666D01*
M02*
