M48
; DRILL file {KiCad 7.0.2} date Fri May  5 22:31:49 2023
; FORMAT={-:-/ absolute / inch / decimal}
; #@! TF.CreationDate,2023-05-05T22:31:49-07:00
; #@! TF.GenerationSoftware,Kicad,Pcbnew,7.0.2
; #@! TF.FileFunction,Plated,1,4,PTH
FMAT,2
INCH
; #@! TA.AperFunction,Plated,PTH,ViaDrill
T1C0.0138
; #@! TA.AperFunction,Plated,PTH,ViaDrill
T2C0.0157
; #@! TA.AperFunction,Plated,PTH,ComponentDrill
T3C0.0157
; #@! TA.AperFunction,Plated,PTH,ComponentDrill
T4C0.0197
; #@! TA.AperFunction,Plated,PTH,ComponentDrill
T5C0.0315
; #@! TA.AperFunction,Plated,PTH,ComponentDrill
T6C0.0354
; #@! TA.AperFunction,Plated,PTH,ComponentDrill
T7C0.0433
; #@! TA.AperFunction,Plated,PTH,ComponentDrill
T8C0.0472
%
G90
G05
T1
X3.3836Y-4.3817
X3.3836Y-4.88
X3.48Y-4.47
X3.5Y-4.96
X3.62Y-4.72
X3.66Y-5.05
X3.71Y-5.01
X3.72Y-5.08
X3.74Y-4.91
X3.7894Y-5.5417
X3.7987Y-5.3374
X3.8Y-5.51
X3.8212Y-5.3629
X3.8792Y-5.2192
X3.92Y-5.12
X4.0075Y-5.0905
X4.0393Y-5.126
X4.04Y-5.53
X4.0409Y-5.091
X4.05Y-4.7
X4.0782Y-5.1559
X4.0792Y-5.1216
X4.08Y-4.38
X4.08Y-4.88
X4.08Y-4.98
X4.1128Y-5.1914
X4.1132Y-5.1576
X4.1275Y-4.4697
X4.1466Y-5.2244
X4.148Y-5.1896
X4.15Y-4.7364
X4.21Y-4.95
X4.22Y-4.42
X4.23Y-4.72
X4.251Y-5.2666
X4.32Y-4.73
X4.39Y-4.9
X4.4Y-5.02
X4.43Y-4.79
X4.5249Y-5.2806
X4.58Y-5.27
X4.65Y-5.3103
X4.65Y-5.3438
X4.73Y-4.87
X4.73Y-5.38
X4.73Y-5.49
X4.74Y-4.95
X4.76Y-4.59
X4.7636Y-4.9736
X4.81Y-5.2454
X4.8466Y-4.61
X4.85Y-5.22
X4.88Y-4.61
X4.94Y-4.83
X4.9672Y-4.7515
X4.97Y-4.27
X4.97Y-4.41
X4.97Y-4.54
X4.9965Y-4.7353
X5.01Y-5.22
X5.0206Y-5.1883
X5.0217Y-4.3943
X5.0231Y-4.4287
X5.0389Y-4.6489
X5.04Y-5.0399
X5.04Y-5.48
X5.06Y-4.54
X5.0953Y-4.5776
X5.122Y-4.554
X5.13Y-5.22
X5.1362Y-4.7727
X5.14Y-5.31
X5.16Y-5.27
X5.2085Y-4.9241
X5.2344Y-5.0367
X5.2366Y-4.5304
X5.2391Y-4.73
X5.24Y-3.94
X5.2417Y-4.9206
X5.2476Y-5.0675
X5.2495Y-5.3865
X5.2627Y-4.7035
X5.27Y-4.53
X5.28Y-4.39
X5.2935Y-5.09
X5.2941Y-5.0561
X5.3Y-4.49
X5.3Y-5.47
X5.302Y-4.6018
X5.3036Y-4.4136
X5.3264Y-4.6254
X5.3285Y-5.1218
X5.3287Y-5.0882
X5.337Y-4.0161
X5.3378Y-4.0496
X5.35Y-4.8786
X5.35Y-4.65
X5.3525Y-4.0798
X5.3539Y-4.8224
X5.39Y-5.0995
X5.3948Y-4.6244
X5.4034Y-5.5502
X5.4049Y-5.2277
X5.4055Y-5.1364
X5.414Y-5.5185
X5.4282Y-4.0827
X5.43Y-5.16
X5.4307Y-4.5896
X5.4374Y-3.9498
X5.4595Y-5.3553
X5.46Y-5.31
X5.4616Y-4.0827
X5.4635Y-5.1587
X5.4784Y-4.5732
X5.48Y-4.47
X5.4853Y-4.6064
X5.4897Y-5.1351
X5.4917Y-4.1079
X5.4931Y-4.6447
X5.5199Y-4.5999
X5.5213Y-4.0787
X5.5376Y-4.9253
X5.5413Y-4.6471
X5.5456Y-4.0534
X5.55Y-5.1
X5.5571Y-4.0201
X5.5671Y-4.6259
X5.6026Y-5.1107
X5.6028Y-5.2571
X5.62Y-3.97
X5.6288Y-4.7088
X5.6386Y-4.5254
X5.6496Y-4.8761
X5.65Y-5.05
X5.6535Y-4.0374
X5.71Y-5.37
X5.7137Y-4.47
X5.72Y-5.03
X5.7292Y-4.5026
X5.7403Y-4.4464
X5.7411Y-4.774
X5.76Y-4.94
X5.762Y-4.5253
X5.7626Y-4.9
X5.7718Y-4.6385
X5.7952Y-4.6147
X5.8Y-4.78
X5.8Y-5.73
X5.8236Y-5.04
X5.8236Y-5.0734
X5.8236Y-5.108
X5.8236Y-5.1948
X5.8311Y-4.6171
X5.85Y-5.83
X5.86Y-4.22
X5.8612Y-4.6318
X5.87Y-5.19
X5.8777Y-4.6022
X5.88Y-5.5931
X5.8813Y-4.5689
X5.9Y-5.33
X5.91Y-4.1
X5.9122Y-4.9
X5.93Y-4.38
X5.93Y-4.93
X5.9314Y-5.2465
X5.95Y-5.85
X5.957Y-5.1241
X5.96Y-4.44
X5.9759Y-4.7727
X5.98Y-4.7
X5.99Y-4.11
X6.0017Y-4.5235
X6.02Y-4.25
X6.0389Y-4.4722
X6.06Y-4.11
X6.13Y-5.88
X6.1598Y-4.5193
X6.17Y-4.33
X6.17Y-5.77
X6.21Y-5.1
X6.2894Y-5.1934
X6.29Y-5.16
X6.3335Y-4.2524
X6.3381Y-5.097
X6.3928Y-5.1344
X6.42Y-4.62
X6.48Y-5.92
X6.5Y-5.57
X6.5003Y-5.2831
X6.51Y-5.21
X6.52Y-5.7
X6.52Y-5.86
X6.58Y-5.69
X6.6Y-5.33
X6.6Y-5.6
X6.63Y-5.86
X6.65Y-5.25
X6.73Y-5.25
X6.79Y-5.19
X6.7932Y-5.1567
T2
X4.71Y-4.1719
X4.71Y-4.3093
X4.71Y-4.4437
X4.82Y-4.88
X4.9571Y-4.0742
X4.9908Y-4.6102
X5.0389Y-4.1474
X5.069Y-4.1136
X5.3248Y-3.9744
X5.3555Y-4.766
X5.3918Y-4.0814
X5.5Y-4.17
X5.53Y-4.47
X5.57Y-4.49
X5.5748Y-3.9823
X6.04Y-4.59
X6.2319Y-5.5332
X6.27Y-4.82
X6.29Y-5.57
X6.301Y-4.9222
X6.3924Y-4.9222
T3
X5.3409Y-3.8514
X5.3567Y-3.8238
X5.3882Y-3.8238
X5.4039Y-3.8514
X5.4197Y-3.8238
X5.4354Y-3.8514
X5.4669Y-3.8514
X5.4827Y-3.8238
X5.4984Y-3.8514
X5.5142Y-3.8238
X5.5457Y-3.8238
X5.5614Y-3.8514
T5
X4.7606Y-3.95
X4.8394Y-3.95
T6
X3.3961Y-4.522
X3.3961Y-4.778
X3.5732Y-4.522
X3.5732Y-4.778
X5.8197Y-5.3858
X5.8197Y-5.6417
X5.9969Y-5.3858
X5.9969Y-5.6417
T7
X4.5039Y-4.2598
X4.5039Y-4.3386
X4.5039Y-4.4173
X4.5039Y-4.4961
X4.5039Y-4.5748
X4.5039Y-4.6535
T8
X3.3337Y-5.5167
X3.5108Y-5.5167
X3.5988Y-4.401
X3.5988Y-4.899
X3.9925Y-4.401
X3.9925Y-4.899
X6.0224Y-5.2648
X6.0224Y-5.7628
X6.4161Y-5.2648
X6.4161Y-5.7628
X7.0344Y-5.705
X7.2116Y-5.705
T4
G00X5.2744Y-3.6667
M15
G01X5.2744Y-3.6431
M16
G05
G00X5.2886Y-3.8396
M15
G01X5.2886Y-3.8159
M16
G05
G00X5.6138Y-3.8396
M15
G01X5.6138Y-3.8159
M16
G05
G00X5.628Y-3.6667
M15
G01X5.628Y-3.6431
M16
G05
T0
M30
