G04 #@! TF.GenerationSoftware,KiCad,Pcbnew,7.0.2*
G04 #@! TF.CreationDate,2023-05-25T22:37:04-07:00*
G04 #@! TF.ProjectId,procon_gcc_main_pcb,70726f63-6f6e-45f6-9763-635f6d61696e,1*
G04 #@! TF.SameCoordinates,Original*
G04 #@! TF.FileFunction,Soldermask,Bot*
G04 #@! TF.FilePolarity,Negative*
%FSLAX46Y46*%
G04 Gerber Fmt 4.6, Leading zero omitted, Abs format (unit mm)*
G04 Created by KiCad (PCBNEW 7.0.2) date 2023-05-25 22:37:04*
%MOMM*%
%LPD*%
G01*
G04 APERTURE LIST*
%ADD10O,0.400000X0.900000*%
%ADD11R,2.300000X1.600000*%
%ADD12O,2.300000X1.600000*%
%ADD13R,2.000000X2.000000*%
%ADD14C,1.750000*%
%ADD15C,2.000000*%
%ADD16C,1.250000*%
%ADD17R,1.350000X1.350000*%
%ADD18O,1.350000X1.350000*%
%ADD19C,0.700000*%
%ADD20C,0.650000*%
%ADD21O,1.000000X1.600000*%
G04 APERTURE END LIST*
D10*
X126333519Y-101965000D03*
X130633519Y-101965000D03*
D11*
X114400000Y-118200000D03*
D12*
X114400000Y-116200000D03*
X114400000Y-114200000D03*
X114400000Y-112200000D03*
X114400000Y-110200000D03*
X114400000Y-108200000D03*
D13*
X178675000Y-144906500D03*
X84675000Y-140125000D03*
D14*
X153235000Y-134115000D03*
X153235000Y-146765000D03*
D15*
X158235000Y-136140000D03*
X158235000Y-144740000D03*
D14*
X163235000Y-134115000D03*
X163235000Y-146765000D03*
D16*
X152585000Y-137190000D03*
X152585000Y-143690000D03*
X148085000Y-137190000D03*
X148085000Y-143690000D03*
D17*
X122920000Y-100330000D03*
D18*
X120920000Y-100330000D03*
D19*
X142060000Y-98275000D03*
X134710000Y-98275000D03*
D20*
X135660000Y-97625000D03*
X136060000Y-96925000D03*
X136860000Y-96925000D03*
X137260000Y-97625000D03*
X137660000Y-96925000D03*
X138060000Y-97625000D03*
X138860000Y-97625000D03*
X139260000Y-96925000D03*
X139660000Y-97625000D03*
X140060000Y-96925000D03*
X140860000Y-96925000D03*
X141260000Y-97625000D03*
D21*
X142950000Y-92635000D03*
X142590000Y-97025000D03*
X134330000Y-97025000D03*
X133970000Y-92635000D03*
D14*
X91045000Y-112545000D03*
X91045000Y-125195000D03*
D15*
X96045000Y-114570000D03*
X96045000Y-123170000D03*
D14*
X101045000Y-112545000D03*
X101045000Y-125195000D03*
D16*
X90395000Y-115620000D03*
X90395000Y-122120000D03*
X85895000Y-115620000D03*
X85895000Y-122120000D03*
D13*
X89175000Y-140125000D03*
X183175000Y-144906500D03*
M02*
