G04 #@! TF.GenerationSoftware,KiCad,Pcbnew,7.0.2*
G04 #@! TF.CreationDate,2023-05-08T20:34:26-07:00*
G04 #@! TF.ProjectId,procon_gcc_main_pcb,70726f63-6f6e-45f6-9763-635f6d61696e,1*
G04 #@! TF.SameCoordinates,Original*
G04 #@! TF.FileFunction,Soldermask,Bot*
G04 #@! TF.FilePolarity,Negative*
%FSLAX46Y46*%
G04 Gerber Fmt 4.6, Leading zero omitted, Abs format (unit mm)*
G04 Created by KiCad (PCBNEW 7.0.2) date 2023-05-08 20:34:26*
%MOMM*%
%LPD*%
G01*
G04 APERTURE LIST*
%ADD10O,0.400000X0.900000*%
%ADD11R,2.300000X1.600000*%
%ADD12O,2.300000X1.600000*%
%ADD13R,2.000000X2.000000*%
%ADD14C,2.000000*%
%ADD15C,1.750000*%
%ADD16C,1.250000*%
%ADD17R,1.350000X1.350000*%
%ADD18O,1.350000X1.350000*%
%ADD19C,0.700000*%
%ADD20C,0.650000*%
%ADD21O,1.000000X1.600000*%
G04 APERTURE END LIST*
D10*
X126733519Y-101615000D03*
X131033519Y-101615000D03*
D11*
X114400000Y-118200000D03*
D12*
X114400000Y-116200000D03*
X114400000Y-114200000D03*
X114400000Y-112200000D03*
X114400000Y-110200000D03*
X114400000Y-108200000D03*
D13*
X178675000Y-144906500D03*
X84675000Y-140125000D03*
D14*
X157970000Y-135750000D03*
D15*
X152970000Y-146375000D03*
X152970000Y-133725000D03*
X162970000Y-146375000D03*
X162970000Y-133725000D03*
D14*
X157970000Y-144350000D03*
D16*
X152320000Y-136800000D03*
X152320000Y-143300000D03*
X147820000Y-136800000D03*
X147820000Y-143300000D03*
D17*
X122920000Y-100330000D03*
D18*
X120920000Y-100330000D03*
D19*
X142060000Y-98475000D03*
X134710000Y-98475000D03*
D20*
X135660000Y-97825000D03*
X136060000Y-97125000D03*
X136860000Y-97125000D03*
X137260000Y-97825000D03*
X137660000Y-97125000D03*
X138060000Y-97825000D03*
X138860000Y-97825000D03*
X139260000Y-97125000D03*
X139660000Y-97825000D03*
X140060000Y-97125000D03*
X140860000Y-97125000D03*
X141260000Y-97825000D03*
D21*
X142950000Y-92835000D03*
X142590000Y-97225000D03*
X134330000Y-97225000D03*
X133970000Y-92835000D03*
D14*
X96410000Y-113810000D03*
D15*
X91410000Y-124435000D03*
X91410000Y-111785000D03*
X101410000Y-124435000D03*
X101410000Y-111785000D03*
D14*
X96410000Y-122410000D03*
D16*
X90760000Y-114860000D03*
X90760000Y-121360000D03*
X86260000Y-114860000D03*
X86260000Y-121360000D03*
D13*
X89175000Y-140125000D03*
X183175000Y-144906500D03*
M02*
