G04 #@! TF.GenerationSoftware,KiCad,Pcbnew,7.0.2*
G04 #@! TF.CreationDate,2023-05-08T20:34:26-07:00*
G04 #@! TF.ProjectId,procon_gcc_main_pcb,70726f63-6f6e-45f6-9763-635f6d61696e,1*
G04 #@! TF.SameCoordinates,Original*
G04 #@! TF.FileFunction,AssemblyDrawing,Top*
%FSLAX46Y46*%
G04 Gerber Fmt 4.6, Leading zero omitted, Abs format (unit mm)*
G04 Created by KiCad (PCBNEW 7.0.2) date 2023-05-08 20:34:26*
%MOMM*%
%LPD*%
G01*
G04 APERTURE LIST*
%ADD10C,0.200000*%
%ADD11C,0.150000*%
%ADD12C,0.040000*%
%ADD13C,0.060000*%
%ADD14C,0.050000*%
%ADD15C,0.120000*%
%ADD16C,0.030000*%
%ADD17C,0.080000*%
%ADD18C,0.100000*%
%ADD19C,0.127000*%
G04 APERTURE END LIST*
D10*
X105912500Y-129100000D02*
X105912500Y-144250000D01*
X124562500Y-135100000D02*
G75*
G03*
X118562500Y-129100000I-6000000J0D01*
G01*
X173970000Y-140050000D02*
G75*
G03*
X173970000Y-140050000I-16000000J0D01*
G01*
X164987500Y-106250000D02*
X112137500Y-106250000D01*
X122737500Y-106250000D02*
G75*
G03*
X122737500Y-106250000I-3250000J0D01*
G01*
X124562500Y-144250000D02*
X124562500Y-135100000D01*
X112410000Y-118110000D02*
G75*
G03*
X112410000Y-118110000I-16000000J0D01*
G01*
X118562500Y-129100000D02*
X105912500Y-129100000D01*
X144487500Y-92250000D02*
X132637500Y-92250000D01*
X160887500Y-106250000D02*
G75*
G03*
X160887500Y-106250000I-3250000J0D01*
G01*
X131062500Y-118250000D02*
G75*
G03*
X131062500Y-118250000I-3250000J0D01*
G01*
X124562500Y-118250000D02*
X124562500Y-129100000D01*
X105912500Y-144250000D02*
X124562500Y-144250000D01*
X152562500Y-118250000D02*
G75*
G03*
X152562500Y-118250000I-3250000J0D01*
G01*
D11*
X128621614Y-106042666D02*
X128669233Y-105995047D01*
X128669233Y-105995047D02*
X128764471Y-105947428D01*
X128764471Y-105947428D02*
X128954947Y-106042666D01*
X128954947Y-106042666D02*
X129050185Y-105995047D01*
X129050185Y-105995047D02*
X129097804Y-105947428D01*
X127550186Y-107876000D02*
X127693043Y-107923619D01*
X127693043Y-107923619D02*
X127931138Y-107923619D01*
X127931138Y-107923619D02*
X128026376Y-107876000D01*
X128026376Y-107876000D02*
X128073995Y-107828380D01*
X128073995Y-107828380D02*
X128121614Y-107733142D01*
X128121614Y-107733142D02*
X128121614Y-107637904D01*
X128121614Y-107637904D02*
X128073995Y-107542666D01*
X128073995Y-107542666D02*
X128026376Y-107495047D01*
X128026376Y-107495047D02*
X127931138Y-107447428D01*
X127931138Y-107447428D02*
X127740662Y-107399809D01*
X127740662Y-107399809D02*
X127645424Y-107352190D01*
X127645424Y-107352190D02*
X127597805Y-107304571D01*
X127597805Y-107304571D02*
X127550186Y-107209333D01*
X127550186Y-107209333D02*
X127550186Y-107114095D01*
X127550186Y-107114095D02*
X127597805Y-107018857D01*
X127597805Y-107018857D02*
X127645424Y-106971238D01*
X127645424Y-106971238D02*
X127740662Y-106923619D01*
X127740662Y-106923619D02*
X127978757Y-106923619D01*
X127978757Y-106923619D02*
X128121614Y-106971238D01*
X128454948Y-106923619D02*
X128693043Y-107923619D01*
X128693043Y-107923619D02*
X128883519Y-107209333D01*
X128883519Y-107209333D02*
X129073995Y-107923619D01*
X129073995Y-107923619D02*
X129312091Y-106923619D01*
X130121614Y-107256952D02*
X130121614Y-107923619D01*
X129883519Y-106876000D02*
X129645424Y-107590285D01*
X129645424Y-107590285D02*
X130264471Y-107590285D01*
D12*
X152513040Y-122867644D02*
X152389231Y-122954311D01*
X152513040Y-123016216D02*
X152253040Y-123016216D01*
X152253040Y-123016216D02*
X152253040Y-122917168D01*
X152253040Y-122917168D02*
X152265421Y-122892406D01*
X152265421Y-122892406D02*
X152277802Y-122880025D01*
X152277802Y-122880025D02*
X152302564Y-122867644D01*
X152302564Y-122867644D02*
X152339707Y-122867644D01*
X152339707Y-122867644D02*
X152364469Y-122880025D01*
X152364469Y-122880025D02*
X152376850Y-122892406D01*
X152376850Y-122892406D02*
X152389231Y-122917168D01*
X152389231Y-122917168D02*
X152389231Y-123016216D01*
X152277802Y-122768597D02*
X152265421Y-122756216D01*
X152265421Y-122756216D02*
X152253040Y-122731454D01*
X152253040Y-122731454D02*
X152253040Y-122669549D01*
X152253040Y-122669549D02*
X152265421Y-122644787D01*
X152265421Y-122644787D02*
X152277802Y-122632406D01*
X152277802Y-122632406D02*
X152302564Y-122620025D01*
X152302564Y-122620025D02*
X152327326Y-122620025D01*
X152327326Y-122620025D02*
X152364469Y-122632406D01*
X152364469Y-122632406D02*
X152513040Y-122780978D01*
X152513040Y-122780978D02*
X152513040Y-122620025D01*
X144701235Y-124794364D02*
X144614568Y-124670555D01*
X144552663Y-124794364D02*
X144552663Y-124534364D01*
X144552663Y-124534364D02*
X144651711Y-124534364D01*
X144651711Y-124534364D02*
X144676473Y-124546745D01*
X144676473Y-124546745D02*
X144688854Y-124559126D01*
X144688854Y-124559126D02*
X144701235Y-124583888D01*
X144701235Y-124583888D02*
X144701235Y-124621031D01*
X144701235Y-124621031D02*
X144688854Y-124645793D01*
X144688854Y-124645793D02*
X144676473Y-124658174D01*
X144676473Y-124658174D02*
X144651711Y-124670555D01*
X144651711Y-124670555D02*
X144552663Y-124670555D01*
X144800282Y-124559126D02*
X144812663Y-124546745D01*
X144812663Y-124546745D02*
X144837425Y-124534364D01*
X144837425Y-124534364D02*
X144899330Y-124534364D01*
X144899330Y-124534364D02*
X144924092Y-124546745D01*
X144924092Y-124546745D02*
X144936473Y-124559126D01*
X144936473Y-124559126D02*
X144948854Y-124583888D01*
X144948854Y-124583888D02*
X144948854Y-124608650D01*
X144948854Y-124608650D02*
X144936473Y-124645793D01*
X144936473Y-124645793D02*
X144787901Y-124794364D01*
X144787901Y-124794364D02*
X144948854Y-124794364D01*
X145072663Y-124794364D02*
X145122187Y-124794364D01*
X145122187Y-124794364D02*
X145146949Y-124781984D01*
X145146949Y-124781984D02*
X145159330Y-124769603D01*
X145159330Y-124769603D02*
X145184092Y-124732460D01*
X145184092Y-124732460D02*
X145196473Y-124682936D01*
X145196473Y-124682936D02*
X145196473Y-124583888D01*
X145196473Y-124583888D02*
X145184092Y-124559126D01*
X145184092Y-124559126D02*
X145171711Y-124546745D01*
X145171711Y-124546745D02*
X145146949Y-124534364D01*
X145146949Y-124534364D02*
X145097425Y-124534364D01*
X145097425Y-124534364D02*
X145072663Y-124546745D01*
X145072663Y-124546745D02*
X145060282Y-124559126D01*
X145060282Y-124559126D02*
X145047901Y-124583888D01*
X145047901Y-124583888D02*
X145047901Y-124645793D01*
X145047901Y-124645793D02*
X145060282Y-124670555D01*
X145060282Y-124670555D02*
X145072663Y-124682936D01*
X145072663Y-124682936D02*
X145097425Y-124695317D01*
X145097425Y-124695317D02*
X145146949Y-124695317D01*
X145146949Y-124695317D02*
X145171711Y-124682936D01*
X145171711Y-124682936D02*
X145184092Y-124670555D01*
X145184092Y-124670555D02*
X145196473Y-124645793D01*
D11*
X167719333Y-137743619D02*
X167243143Y-137743619D01*
X167243143Y-137743619D02*
X167243143Y-136743619D01*
X168005048Y-136838857D02*
X168052667Y-136791238D01*
X168052667Y-136791238D02*
X168147905Y-136743619D01*
X168147905Y-136743619D02*
X168386000Y-136743619D01*
X168386000Y-136743619D02*
X168481238Y-136791238D01*
X168481238Y-136791238D02*
X168528857Y-136838857D01*
X168528857Y-136838857D02*
X168576476Y-136934095D01*
X168576476Y-136934095D02*
X168576476Y-137029333D01*
X168576476Y-137029333D02*
X168528857Y-137172190D01*
X168528857Y-137172190D02*
X167957429Y-137743619D01*
X167957429Y-137743619D02*
X168576476Y-137743619D01*
X155997404Y-115037405D02*
X155997404Y-114037405D01*
X155997404Y-114037405D02*
X156235499Y-114037405D01*
X156235499Y-114037405D02*
X156378356Y-114085024D01*
X156378356Y-114085024D02*
X156473594Y-114180262D01*
X156473594Y-114180262D02*
X156521213Y-114275500D01*
X156521213Y-114275500D02*
X156568832Y-114465976D01*
X156568832Y-114465976D02*
X156568832Y-114608833D01*
X156568832Y-114608833D02*
X156521213Y-114799309D01*
X156521213Y-114799309D02*
X156473594Y-114894547D01*
X156473594Y-114894547D02*
X156378356Y-114989786D01*
X156378356Y-114989786D02*
X156235499Y-115037405D01*
X156235499Y-115037405D02*
X155997404Y-115037405D01*
X157521213Y-115037405D02*
X156949785Y-115037405D01*
X157235499Y-115037405D02*
X157235499Y-114037405D01*
X157235499Y-114037405D02*
X157140261Y-114180262D01*
X157140261Y-114180262D02*
X157045023Y-114275500D01*
X157045023Y-114275500D02*
X156949785Y-114323119D01*
D12*
X129350274Y-131816613D02*
X129338370Y-131828518D01*
X129338370Y-131828518D02*
X129302655Y-131840422D01*
X129302655Y-131840422D02*
X129278846Y-131840422D01*
X129278846Y-131840422D02*
X129243132Y-131828518D01*
X129243132Y-131828518D02*
X129219322Y-131804708D01*
X129219322Y-131804708D02*
X129207417Y-131780898D01*
X129207417Y-131780898D02*
X129195513Y-131733279D01*
X129195513Y-131733279D02*
X129195513Y-131697565D01*
X129195513Y-131697565D02*
X129207417Y-131649946D01*
X129207417Y-131649946D02*
X129219322Y-131626137D01*
X129219322Y-131626137D02*
X129243132Y-131602327D01*
X129243132Y-131602327D02*
X129278846Y-131590422D01*
X129278846Y-131590422D02*
X129302655Y-131590422D01*
X129302655Y-131590422D02*
X129338370Y-131602327D01*
X129338370Y-131602327D02*
X129350274Y-131614232D01*
X129564560Y-131590422D02*
X129516941Y-131590422D01*
X129516941Y-131590422D02*
X129493132Y-131602327D01*
X129493132Y-131602327D02*
X129481227Y-131614232D01*
X129481227Y-131614232D02*
X129457417Y-131649946D01*
X129457417Y-131649946D02*
X129445513Y-131697565D01*
X129445513Y-131697565D02*
X129445513Y-131792803D01*
X129445513Y-131792803D02*
X129457417Y-131816613D01*
X129457417Y-131816613D02*
X129469322Y-131828518D01*
X129469322Y-131828518D02*
X129493132Y-131840422D01*
X129493132Y-131840422D02*
X129540751Y-131840422D01*
X129540751Y-131840422D02*
X129564560Y-131828518D01*
X129564560Y-131828518D02*
X129576465Y-131816613D01*
X129576465Y-131816613D02*
X129588370Y-131792803D01*
X129588370Y-131792803D02*
X129588370Y-131733279D01*
X129588370Y-131733279D02*
X129576465Y-131709470D01*
X129576465Y-131709470D02*
X129564560Y-131697565D01*
X129564560Y-131697565D02*
X129540751Y-131685660D01*
X129540751Y-131685660D02*
X129493132Y-131685660D01*
X129493132Y-131685660D02*
X129469322Y-131697565D01*
X129469322Y-131697565D02*
X129457417Y-131709470D01*
X129457417Y-131709470D02*
X129445513Y-131733279D01*
X162141597Y-119337712D02*
X162017788Y-119424379D01*
X162141597Y-119486284D02*
X161881597Y-119486284D01*
X161881597Y-119486284D02*
X161881597Y-119387236D01*
X161881597Y-119387236D02*
X161893978Y-119362474D01*
X161893978Y-119362474D02*
X161906359Y-119350093D01*
X161906359Y-119350093D02*
X161931121Y-119337712D01*
X161931121Y-119337712D02*
X161968264Y-119337712D01*
X161968264Y-119337712D02*
X161993026Y-119350093D01*
X161993026Y-119350093D02*
X162005407Y-119362474D01*
X162005407Y-119362474D02*
X162017788Y-119387236D01*
X162017788Y-119387236D02*
X162017788Y-119486284D01*
X161968264Y-119114855D02*
X162141597Y-119114855D01*
X161869217Y-119176760D02*
X162054931Y-119238665D01*
X162054931Y-119238665D02*
X162054931Y-119077712D01*
D11*
X150382410Y-100428619D02*
X150953838Y-100428619D01*
X150668124Y-101428619D02*
X150668124Y-100428619D01*
X151287172Y-101428619D02*
X151287172Y-100428619D01*
X151287172Y-100428619D02*
X151668124Y-100428619D01*
X151668124Y-100428619D02*
X151763362Y-100476238D01*
X151763362Y-100476238D02*
X151810981Y-100523857D01*
X151810981Y-100523857D02*
X151858600Y-100619095D01*
X151858600Y-100619095D02*
X151858600Y-100761952D01*
X151858600Y-100761952D02*
X151810981Y-100857190D01*
X151810981Y-100857190D02*
X151763362Y-100904809D01*
X151763362Y-100904809D02*
X151668124Y-100952428D01*
X151668124Y-100952428D02*
X151287172Y-100952428D01*
X152810981Y-101428619D02*
X152239553Y-101428619D01*
X152525267Y-101428619D02*
X152525267Y-100428619D01*
X152525267Y-100428619D02*
X152430029Y-100571476D01*
X152430029Y-100571476D02*
X152334791Y-100666714D01*
X152334791Y-100666714D02*
X152239553Y-100714333D01*
X153668124Y-100761952D02*
X153668124Y-101428619D01*
X153430029Y-100381000D02*
X153191934Y-101095285D01*
X153191934Y-101095285D02*
X153810981Y-101095285D01*
D12*
X170594903Y-138745619D02*
X170471094Y-138832286D01*
X170594903Y-138894191D02*
X170334903Y-138894191D01*
X170334903Y-138894191D02*
X170334903Y-138795143D01*
X170334903Y-138795143D02*
X170347284Y-138770381D01*
X170347284Y-138770381D02*
X170359665Y-138758000D01*
X170359665Y-138758000D02*
X170384427Y-138745619D01*
X170384427Y-138745619D02*
X170421570Y-138745619D01*
X170421570Y-138745619D02*
X170446332Y-138758000D01*
X170446332Y-138758000D02*
X170458713Y-138770381D01*
X170458713Y-138770381D02*
X170471094Y-138795143D01*
X170471094Y-138795143D02*
X170471094Y-138894191D01*
X170594903Y-138498000D02*
X170594903Y-138646572D01*
X170594903Y-138572286D02*
X170334903Y-138572286D01*
X170334903Y-138572286D02*
X170372046Y-138597048D01*
X170372046Y-138597048D02*
X170396808Y-138621810D01*
X170396808Y-138621810D02*
X170409189Y-138646572D01*
X170446332Y-138349429D02*
X170433951Y-138374191D01*
X170433951Y-138374191D02*
X170421570Y-138386572D01*
X170421570Y-138386572D02*
X170396808Y-138398953D01*
X170396808Y-138398953D02*
X170384427Y-138398953D01*
X170384427Y-138398953D02*
X170359665Y-138386572D01*
X170359665Y-138386572D02*
X170347284Y-138374191D01*
X170347284Y-138374191D02*
X170334903Y-138349429D01*
X170334903Y-138349429D02*
X170334903Y-138299905D01*
X170334903Y-138299905D02*
X170347284Y-138275143D01*
X170347284Y-138275143D02*
X170359665Y-138262762D01*
X170359665Y-138262762D02*
X170384427Y-138250381D01*
X170384427Y-138250381D02*
X170396808Y-138250381D01*
X170396808Y-138250381D02*
X170421570Y-138262762D01*
X170421570Y-138262762D02*
X170433951Y-138275143D01*
X170433951Y-138275143D02*
X170446332Y-138299905D01*
X170446332Y-138299905D02*
X170446332Y-138349429D01*
X170446332Y-138349429D02*
X170458713Y-138374191D01*
X170458713Y-138374191D02*
X170471094Y-138386572D01*
X170471094Y-138386572D02*
X170495856Y-138398953D01*
X170495856Y-138398953D02*
X170545380Y-138398953D01*
X170545380Y-138398953D02*
X170570142Y-138386572D01*
X170570142Y-138386572D02*
X170582523Y-138374191D01*
X170582523Y-138374191D02*
X170594903Y-138349429D01*
X170594903Y-138349429D02*
X170594903Y-138299905D01*
X170594903Y-138299905D02*
X170582523Y-138275143D01*
X170582523Y-138275143D02*
X170570142Y-138262762D01*
X170570142Y-138262762D02*
X170545380Y-138250381D01*
X170545380Y-138250381D02*
X170495856Y-138250381D01*
X170495856Y-138250381D02*
X170471094Y-138262762D01*
X170471094Y-138262762D02*
X170458713Y-138275143D01*
X170458713Y-138275143D02*
X170446332Y-138299905D01*
D11*
X140343444Y-103646495D02*
X140914872Y-103646495D01*
X140629158Y-104646495D02*
X140629158Y-103646495D01*
X141248206Y-104646495D02*
X141248206Y-103646495D01*
X141248206Y-103646495D02*
X141629158Y-103646495D01*
X141629158Y-103646495D02*
X141724396Y-103694114D01*
X141724396Y-103694114D02*
X141772015Y-103741733D01*
X141772015Y-103741733D02*
X141819634Y-103836971D01*
X141819634Y-103836971D02*
X141819634Y-103979828D01*
X141819634Y-103979828D02*
X141772015Y-104075066D01*
X141772015Y-104075066D02*
X141724396Y-104122685D01*
X141724396Y-104122685D02*
X141629158Y-104170304D01*
X141629158Y-104170304D02*
X141248206Y-104170304D01*
X142772015Y-104646495D02*
X142200587Y-104646495D01*
X142486301Y-104646495D02*
X142486301Y-103646495D01*
X142486301Y-103646495D02*
X142391063Y-103789352D01*
X142391063Y-103789352D02*
X142295825Y-103884590D01*
X142295825Y-103884590D02*
X142200587Y-103932209D01*
X143105349Y-103646495D02*
X143724396Y-103646495D01*
X143724396Y-103646495D02*
X143391063Y-104027447D01*
X143391063Y-104027447D02*
X143533920Y-104027447D01*
X143533920Y-104027447D02*
X143629158Y-104075066D01*
X143629158Y-104075066D02*
X143676777Y-104122685D01*
X143676777Y-104122685D02*
X143724396Y-104217923D01*
X143724396Y-104217923D02*
X143724396Y-104456018D01*
X143724396Y-104456018D02*
X143676777Y-104551256D01*
X143676777Y-104551256D02*
X143629158Y-104598876D01*
X143629158Y-104598876D02*
X143533920Y-104646495D01*
X143533920Y-104646495D02*
X143248206Y-104646495D01*
X143248206Y-104646495D02*
X143152968Y-104598876D01*
X143152968Y-104598876D02*
X143105349Y-104551256D01*
X115333489Y-124562903D02*
X115333489Y-125356237D01*
X115333489Y-125356237D02*
X115380156Y-125449570D01*
X115380156Y-125449570D02*
X115426822Y-125496237D01*
X115426822Y-125496237D02*
X115520156Y-125542903D01*
X115520156Y-125542903D02*
X115706822Y-125542903D01*
X115706822Y-125542903D02*
X115800156Y-125496237D01*
X115800156Y-125496237D02*
X115846822Y-125449570D01*
X115846822Y-125449570D02*
X115893489Y-125356237D01*
X115893489Y-125356237D02*
X115893489Y-124562903D01*
X116500156Y-124982903D02*
X116406823Y-124936237D01*
X116406823Y-124936237D02*
X116360156Y-124889570D01*
X116360156Y-124889570D02*
X116313489Y-124796237D01*
X116313489Y-124796237D02*
X116313489Y-124749570D01*
X116313489Y-124749570D02*
X116360156Y-124656237D01*
X116360156Y-124656237D02*
X116406823Y-124609570D01*
X116406823Y-124609570D02*
X116500156Y-124562903D01*
X116500156Y-124562903D02*
X116686823Y-124562903D01*
X116686823Y-124562903D02*
X116780156Y-124609570D01*
X116780156Y-124609570D02*
X116826823Y-124656237D01*
X116826823Y-124656237D02*
X116873489Y-124749570D01*
X116873489Y-124749570D02*
X116873489Y-124796237D01*
X116873489Y-124796237D02*
X116826823Y-124889570D01*
X116826823Y-124889570D02*
X116780156Y-124936237D01*
X116780156Y-124936237D02*
X116686823Y-124982903D01*
X116686823Y-124982903D02*
X116500156Y-124982903D01*
X116500156Y-124982903D02*
X116406823Y-125029570D01*
X116406823Y-125029570D02*
X116360156Y-125076237D01*
X116360156Y-125076237D02*
X116313489Y-125169570D01*
X116313489Y-125169570D02*
X116313489Y-125356237D01*
X116313489Y-125356237D02*
X116360156Y-125449570D01*
X116360156Y-125449570D02*
X116406823Y-125496237D01*
X116406823Y-125496237D02*
X116500156Y-125542903D01*
X116500156Y-125542903D02*
X116686823Y-125542903D01*
X116686823Y-125542903D02*
X116780156Y-125496237D01*
X116780156Y-125496237D02*
X116826823Y-125449570D01*
X116826823Y-125449570D02*
X116873489Y-125356237D01*
X116873489Y-125356237D02*
X116873489Y-125169570D01*
X116873489Y-125169570D02*
X116826823Y-125076237D01*
X116826823Y-125076237D02*
X116780156Y-125029570D01*
X116780156Y-125029570D02*
X116686823Y-124982903D01*
D13*
X95866101Y-130980188D02*
X95885149Y-130999236D01*
X95885149Y-130999236D02*
X95904196Y-131056378D01*
X95904196Y-131056378D02*
X95904196Y-131094474D01*
X95904196Y-131094474D02*
X95885149Y-131151617D01*
X95885149Y-131151617D02*
X95847053Y-131189712D01*
X95847053Y-131189712D02*
X95808958Y-131208759D01*
X95808958Y-131208759D02*
X95732768Y-131227807D01*
X95732768Y-131227807D02*
X95675625Y-131227807D01*
X95675625Y-131227807D02*
X95599434Y-131208759D01*
X95599434Y-131208759D02*
X95561339Y-131189712D01*
X95561339Y-131189712D02*
X95523244Y-131151617D01*
X95523244Y-131151617D02*
X95504196Y-131094474D01*
X95504196Y-131094474D02*
X95504196Y-131056378D01*
X95504196Y-131056378D02*
X95523244Y-130999236D01*
X95523244Y-130999236D02*
X95542291Y-130980188D01*
X95904196Y-130599236D02*
X95904196Y-130827807D01*
X95904196Y-130713521D02*
X95504196Y-130713521D01*
X95504196Y-130713521D02*
X95561339Y-130751617D01*
X95561339Y-130751617D02*
X95599434Y-130789712D01*
X95599434Y-130789712D02*
X95618482Y-130827807D01*
X95504196Y-130351617D02*
X95504196Y-130313522D01*
X95504196Y-130313522D02*
X95523244Y-130275426D01*
X95523244Y-130275426D02*
X95542291Y-130256379D01*
X95542291Y-130256379D02*
X95580387Y-130237331D01*
X95580387Y-130237331D02*
X95656577Y-130218284D01*
X95656577Y-130218284D02*
X95751815Y-130218284D01*
X95751815Y-130218284D02*
X95828006Y-130237331D01*
X95828006Y-130237331D02*
X95866101Y-130256379D01*
X95866101Y-130256379D02*
X95885149Y-130275426D01*
X95885149Y-130275426D02*
X95904196Y-130313522D01*
X95904196Y-130313522D02*
X95904196Y-130351617D01*
X95904196Y-130351617D02*
X95885149Y-130389712D01*
X95885149Y-130389712D02*
X95866101Y-130408760D01*
X95866101Y-130408760D02*
X95828006Y-130427807D01*
X95828006Y-130427807D02*
X95751815Y-130446855D01*
X95751815Y-130446855D02*
X95656577Y-130446855D01*
X95656577Y-130446855D02*
X95580387Y-130427807D01*
X95580387Y-130427807D02*
X95542291Y-130408760D01*
X95542291Y-130408760D02*
X95523244Y-130389712D01*
X95523244Y-130389712D02*
X95504196Y-130351617D01*
D11*
X113862619Y-113533333D02*
X114576904Y-113533333D01*
X114576904Y-113533333D02*
X114719761Y-113580952D01*
X114719761Y-113580952D02*
X114815000Y-113676190D01*
X114815000Y-113676190D02*
X114862619Y-113819047D01*
X114862619Y-113819047D02*
X114862619Y-113914285D01*
X114195952Y-112628571D02*
X114862619Y-112628571D01*
X113815000Y-112866666D02*
X114529285Y-113104761D01*
X114529285Y-113104761D02*
X114529285Y-112485714D01*
D14*
X124012023Y-106988514D02*
X123981547Y-106973276D01*
X123981547Y-106973276D02*
X123951071Y-106942800D01*
X123951071Y-106942800D02*
X123905357Y-106897085D01*
X123905357Y-106897085D02*
X123874880Y-106881847D01*
X123874880Y-106881847D02*
X123844404Y-106881847D01*
X123859642Y-106958038D02*
X123829166Y-106942800D01*
X123829166Y-106942800D02*
X123798690Y-106912323D01*
X123798690Y-106912323D02*
X123783452Y-106851371D01*
X123783452Y-106851371D02*
X123783452Y-106744704D01*
X123783452Y-106744704D02*
X123798690Y-106683752D01*
X123798690Y-106683752D02*
X123829166Y-106653276D01*
X123829166Y-106653276D02*
X123859642Y-106638038D01*
X123859642Y-106638038D02*
X123920595Y-106638038D01*
X123920595Y-106638038D02*
X123951071Y-106653276D01*
X123951071Y-106653276D02*
X123981547Y-106683752D01*
X123981547Y-106683752D02*
X123996785Y-106744704D01*
X123996785Y-106744704D02*
X123996785Y-106851371D01*
X123996785Y-106851371D02*
X123981547Y-106912323D01*
X123981547Y-106912323D02*
X123951071Y-106942800D01*
X123951071Y-106942800D02*
X123920595Y-106958038D01*
X123920595Y-106958038D02*
X123859642Y-106958038D01*
X124271071Y-106638038D02*
X124210118Y-106638038D01*
X124210118Y-106638038D02*
X124179642Y-106653276D01*
X124179642Y-106653276D02*
X124164404Y-106668514D01*
X124164404Y-106668514D02*
X124133928Y-106714228D01*
X124133928Y-106714228D02*
X124118690Y-106775180D01*
X124118690Y-106775180D02*
X124118690Y-106897085D01*
X124118690Y-106897085D02*
X124133928Y-106927561D01*
X124133928Y-106927561D02*
X124149166Y-106942800D01*
X124149166Y-106942800D02*
X124179642Y-106958038D01*
X124179642Y-106958038D02*
X124240595Y-106958038D01*
X124240595Y-106958038D02*
X124271071Y-106942800D01*
X124271071Y-106942800D02*
X124286309Y-106927561D01*
X124286309Y-106927561D02*
X124301547Y-106897085D01*
X124301547Y-106897085D02*
X124301547Y-106820895D01*
X124301547Y-106820895D02*
X124286309Y-106790419D01*
X124286309Y-106790419D02*
X124271071Y-106775180D01*
X124271071Y-106775180D02*
X124240595Y-106759942D01*
X124240595Y-106759942D02*
X124179642Y-106759942D01*
X124179642Y-106759942D02*
X124149166Y-106775180D01*
X124149166Y-106775180D02*
X124133928Y-106790419D01*
X124133928Y-106790419D02*
X124118690Y-106820895D01*
X123999523Y-114058514D02*
X123969047Y-114043276D01*
X123969047Y-114043276D02*
X123938571Y-114012800D01*
X123938571Y-114012800D02*
X123892857Y-113967085D01*
X123892857Y-113967085D02*
X123862380Y-113951847D01*
X123862380Y-113951847D02*
X123831904Y-113951847D01*
X123847142Y-114028038D02*
X123816666Y-114012800D01*
X123816666Y-114012800D02*
X123786190Y-113982323D01*
X123786190Y-113982323D02*
X123770952Y-113921371D01*
X123770952Y-113921371D02*
X123770952Y-113814704D01*
X123770952Y-113814704D02*
X123786190Y-113753752D01*
X123786190Y-113753752D02*
X123816666Y-113723276D01*
X123816666Y-113723276D02*
X123847142Y-113708038D01*
X123847142Y-113708038D02*
X123908095Y-113708038D01*
X123908095Y-113708038D02*
X123938571Y-113723276D01*
X123938571Y-113723276D02*
X123969047Y-113753752D01*
X123969047Y-113753752D02*
X123984285Y-113814704D01*
X123984285Y-113814704D02*
X123984285Y-113921371D01*
X123984285Y-113921371D02*
X123969047Y-113982323D01*
X123969047Y-113982323D02*
X123938571Y-114012800D01*
X123938571Y-114012800D02*
X123908095Y-114028038D01*
X123908095Y-114028038D02*
X123847142Y-114028038D01*
X124258571Y-113814704D02*
X124258571Y-114028038D01*
X124182380Y-113692800D02*
X124106190Y-113921371D01*
X124106190Y-113921371D02*
X124304285Y-113921371D01*
D12*
X131912857Y-121251698D02*
X131826190Y-121127889D01*
X131764285Y-121251698D02*
X131764285Y-120991698D01*
X131764285Y-120991698D02*
X131863333Y-120991698D01*
X131863333Y-120991698D02*
X131888095Y-121004079D01*
X131888095Y-121004079D02*
X131900476Y-121016460D01*
X131900476Y-121016460D02*
X131912857Y-121041222D01*
X131912857Y-121041222D02*
X131912857Y-121078365D01*
X131912857Y-121078365D02*
X131900476Y-121103127D01*
X131900476Y-121103127D02*
X131888095Y-121115508D01*
X131888095Y-121115508D02*
X131863333Y-121127889D01*
X131863333Y-121127889D02*
X131764285Y-121127889D01*
X132011904Y-121016460D02*
X132024285Y-121004079D01*
X132024285Y-121004079D02*
X132049047Y-120991698D01*
X132049047Y-120991698D02*
X132110952Y-120991698D01*
X132110952Y-120991698D02*
X132135714Y-121004079D01*
X132135714Y-121004079D02*
X132148095Y-121016460D01*
X132148095Y-121016460D02*
X132160476Y-121041222D01*
X132160476Y-121041222D02*
X132160476Y-121065984D01*
X132160476Y-121065984D02*
X132148095Y-121103127D01*
X132148095Y-121103127D02*
X131999523Y-121251698D01*
X131999523Y-121251698D02*
X132160476Y-121251698D01*
X132259523Y-121016460D02*
X132271904Y-121004079D01*
X132271904Y-121004079D02*
X132296666Y-120991698D01*
X132296666Y-120991698D02*
X132358571Y-120991698D01*
X132358571Y-120991698D02*
X132383333Y-121004079D01*
X132383333Y-121004079D02*
X132395714Y-121016460D01*
X132395714Y-121016460D02*
X132408095Y-121041222D01*
X132408095Y-121041222D02*
X132408095Y-121065984D01*
X132408095Y-121065984D02*
X132395714Y-121103127D01*
X132395714Y-121103127D02*
X132247142Y-121251698D01*
X132247142Y-121251698D02*
X132408095Y-121251698D01*
D13*
X161916344Y-150856431D02*
X161897296Y-150875479D01*
X161897296Y-150875479D02*
X161840154Y-150894526D01*
X161840154Y-150894526D02*
X161802058Y-150894526D01*
X161802058Y-150894526D02*
X161744915Y-150875479D01*
X161744915Y-150875479D02*
X161706820Y-150837383D01*
X161706820Y-150837383D02*
X161687773Y-150799288D01*
X161687773Y-150799288D02*
X161668725Y-150723098D01*
X161668725Y-150723098D02*
X161668725Y-150665955D01*
X161668725Y-150665955D02*
X161687773Y-150589764D01*
X161687773Y-150589764D02*
X161706820Y-150551669D01*
X161706820Y-150551669D02*
X161744915Y-150513574D01*
X161744915Y-150513574D02*
X161802058Y-150494526D01*
X161802058Y-150494526D02*
X161840154Y-150494526D01*
X161840154Y-150494526D02*
X161897296Y-150513574D01*
X161897296Y-150513574D02*
X161916344Y-150532621D01*
X162297296Y-150894526D02*
X162068725Y-150894526D01*
X162183011Y-150894526D02*
X162183011Y-150494526D01*
X162183011Y-150494526D02*
X162144915Y-150551669D01*
X162144915Y-150551669D02*
X162106820Y-150589764D01*
X162106820Y-150589764D02*
X162068725Y-150608812D01*
X162449677Y-150532621D02*
X162468725Y-150513574D01*
X162468725Y-150513574D02*
X162506820Y-150494526D01*
X162506820Y-150494526D02*
X162602058Y-150494526D01*
X162602058Y-150494526D02*
X162640153Y-150513574D01*
X162640153Y-150513574D02*
X162659201Y-150532621D01*
X162659201Y-150532621D02*
X162678248Y-150570717D01*
X162678248Y-150570717D02*
X162678248Y-150608812D01*
X162678248Y-150608812D02*
X162659201Y-150665955D01*
X162659201Y-150665955D02*
X162430629Y-150894526D01*
X162430629Y-150894526D02*
X162678248Y-150894526D01*
D11*
X88359333Y-128453619D02*
X87883143Y-128453619D01*
X87883143Y-128453619D02*
X87883143Y-127453619D01*
X88597429Y-127453619D02*
X89264095Y-127453619D01*
X89264095Y-127453619D02*
X88835524Y-128453619D01*
D15*
X136603047Y-111010666D02*
X136603047Y-111277332D01*
X137022095Y-111277332D02*
X136222095Y-111277332D01*
X136222095Y-111277332D02*
X136222095Y-110896380D01*
X136222095Y-110667809D02*
X136222095Y-110172571D01*
X136222095Y-110172571D02*
X136526857Y-110439237D01*
X136526857Y-110439237D02*
X136526857Y-110324952D01*
X136526857Y-110324952D02*
X136564952Y-110248761D01*
X136564952Y-110248761D02*
X136603047Y-110210666D01*
X136603047Y-110210666D02*
X136679238Y-110172571D01*
X136679238Y-110172571D02*
X136869714Y-110172571D01*
X136869714Y-110172571D02*
X136945904Y-110210666D01*
X136945904Y-110210666D02*
X136984000Y-110248761D01*
X136984000Y-110248761D02*
X137022095Y-110324952D01*
X137022095Y-110324952D02*
X137022095Y-110553523D01*
X137022095Y-110553523D02*
X136984000Y-110629714D01*
X136984000Y-110629714D02*
X136945904Y-110667809D01*
D13*
X121129047Y-110435666D02*
X120938571Y-110568999D01*
X121129047Y-110664237D02*
X120729047Y-110664237D01*
X120729047Y-110664237D02*
X120729047Y-110511856D01*
X120729047Y-110511856D02*
X120748095Y-110473761D01*
X120748095Y-110473761D02*
X120767142Y-110454714D01*
X120767142Y-110454714D02*
X120805238Y-110435666D01*
X120805238Y-110435666D02*
X120862380Y-110435666D01*
X120862380Y-110435666D02*
X120900476Y-110454714D01*
X120900476Y-110454714D02*
X120919523Y-110473761D01*
X120919523Y-110473761D02*
X120938571Y-110511856D01*
X120938571Y-110511856D02*
X120938571Y-110664237D01*
X120729047Y-110302333D02*
X120729047Y-110035666D01*
X120729047Y-110035666D02*
X121129047Y-110207095D01*
D14*
X164532487Y-118797869D02*
X164517249Y-118828345D01*
X164517249Y-118828345D02*
X164486773Y-118858821D01*
X164486773Y-118858821D02*
X164441058Y-118904535D01*
X164441058Y-118904535D02*
X164425820Y-118935012D01*
X164425820Y-118935012D02*
X164425820Y-118965488D01*
X164502011Y-118950250D02*
X164486773Y-118980726D01*
X164486773Y-118980726D02*
X164456296Y-119011202D01*
X164456296Y-119011202D02*
X164395344Y-119026440D01*
X164395344Y-119026440D02*
X164288677Y-119026440D01*
X164288677Y-119026440D02*
X164227725Y-119011202D01*
X164227725Y-119011202D02*
X164197249Y-118980726D01*
X164197249Y-118980726D02*
X164182011Y-118950250D01*
X164182011Y-118950250D02*
X164182011Y-118889297D01*
X164182011Y-118889297D02*
X164197249Y-118858821D01*
X164197249Y-118858821D02*
X164227725Y-118828345D01*
X164227725Y-118828345D02*
X164288677Y-118813107D01*
X164288677Y-118813107D02*
X164395344Y-118813107D01*
X164395344Y-118813107D02*
X164456296Y-118828345D01*
X164456296Y-118828345D02*
X164486773Y-118858821D01*
X164486773Y-118858821D02*
X164502011Y-118889297D01*
X164502011Y-118889297D02*
X164502011Y-118950250D01*
X164182011Y-118706440D02*
X164182011Y-118508345D01*
X164182011Y-118508345D02*
X164303915Y-118615012D01*
X164303915Y-118615012D02*
X164303915Y-118569297D01*
X164303915Y-118569297D02*
X164319153Y-118538821D01*
X164319153Y-118538821D02*
X164334392Y-118523583D01*
X164334392Y-118523583D02*
X164364868Y-118508345D01*
X164364868Y-118508345D02*
X164441058Y-118508345D01*
X164441058Y-118508345D02*
X164471534Y-118523583D01*
X164471534Y-118523583D02*
X164486773Y-118538821D01*
X164486773Y-118538821D02*
X164502011Y-118569297D01*
X164502011Y-118569297D02*
X164502011Y-118660726D01*
X164502011Y-118660726D02*
X164486773Y-118691202D01*
X164486773Y-118691202D02*
X164471534Y-118706440D01*
D12*
X154347298Y-108190920D02*
X154335394Y-108202825D01*
X154335394Y-108202825D02*
X154299679Y-108214729D01*
X154299679Y-108214729D02*
X154275870Y-108214729D01*
X154275870Y-108214729D02*
X154240156Y-108202825D01*
X154240156Y-108202825D02*
X154216346Y-108179015D01*
X154216346Y-108179015D02*
X154204441Y-108155205D01*
X154204441Y-108155205D02*
X154192537Y-108107586D01*
X154192537Y-108107586D02*
X154192537Y-108071872D01*
X154192537Y-108071872D02*
X154204441Y-108024253D01*
X154204441Y-108024253D02*
X154216346Y-108000444D01*
X154216346Y-108000444D02*
X154240156Y-107976634D01*
X154240156Y-107976634D02*
X154275870Y-107964729D01*
X154275870Y-107964729D02*
X154299679Y-107964729D01*
X154299679Y-107964729D02*
X154335394Y-107976634D01*
X154335394Y-107976634D02*
X154347298Y-107988539D01*
X154585394Y-108214729D02*
X154442537Y-108214729D01*
X154513965Y-108214729D02*
X154513965Y-107964729D01*
X154513965Y-107964729D02*
X154490156Y-108000444D01*
X154490156Y-108000444D02*
X154466346Y-108024253D01*
X154466346Y-108024253D02*
X154442537Y-108036158D01*
D11*
X177786095Y-140432119D02*
X178357523Y-140432119D01*
X178071809Y-141432119D02*
X178071809Y-140432119D01*
X179214666Y-141432119D02*
X178643238Y-141432119D01*
X178928952Y-141432119D02*
X178928952Y-140432119D01*
X178928952Y-140432119D02*
X178833714Y-140574976D01*
X178833714Y-140574976D02*
X178738476Y-140670214D01*
X178738476Y-140670214D02*
X178643238Y-140717833D01*
X137762619Y-124061904D02*
X138572142Y-124061904D01*
X138572142Y-124061904D02*
X138667380Y-124014285D01*
X138667380Y-124014285D02*
X138715000Y-123966666D01*
X138715000Y-123966666D02*
X138762619Y-123871428D01*
X138762619Y-123871428D02*
X138762619Y-123680952D01*
X138762619Y-123680952D02*
X138715000Y-123585714D01*
X138715000Y-123585714D02*
X138667380Y-123538095D01*
X138667380Y-123538095D02*
X138572142Y-123490476D01*
X138572142Y-123490476D02*
X137762619Y-123490476D01*
X137762619Y-122585714D02*
X137762619Y-122776190D01*
X137762619Y-122776190D02*
X137810238Y-122871428D01*
X137810238Y-122871428D02*
X137857857Y-122919047D01*
X137857857Y-122919047D02*
X138000714Y-123014285D01*
X138000714Y-123014285D02*
X138191190Y-123061904D01*
X138191190Y-123061904D02*
X138572142Y-123061904D01*
X138572142Y-123061904D02*
X138667380Y-123014285D01*
X138667380Y-123014285D02*
X138715000Y-122966666D01*
X138715000Y-122966666D02*
X138762619Y-122871428D01*
X138762619Y-122871428D02*
X138762619Y-122680952D01*
X138762619Y-122680952D02*
X138715000Y-122585714D01*
X138715000Y-122585714D02*
X138667380Y-122538095D01*
X138667380Y-122538095D02*
X138572142Y-122490476D01*
X138572142Y-122490476D02*
X138334047Y-122490476D01*
X138334047Y-122490476D02*
X138238809Y-122538095D01*
X138238809Y-122538095D02*
X138191190Y-122585714D01*
X138191190Y-122585714D02*
X138143571Y-122680952D01*
X138143571Y-122680952D02*
X138143571Y-122871428D01*
X138143571Y-122871428D02*
X138191190Y-122966666D01*
X138191190Y-122966666D02*
X138238809Y-123014285D01*
X138238809Y-123014285D02*
X138334047Y-123061904D01*
X106159333Y-115803619D02*
X105683143Y-115803619D01*
X105683143Y-115803619D02*
X105683143Y-114803619D01*
X106968857Y-114803619D02*
X106492667Y-114803619D01*
X106492667Y-114803619D02*
X106445048Y-115279809D01*
X106445048Y-115279809D02*
X106492667Y-115232190D01*
X106492667Y-115232190D02*
X106587905Y-115184571D01*
X106587905Y-115184571D02*
X106826000Y-115184571D01*
X106826000Y-115184571D02*
X106921238Y-115232190D01*
X106921238Y-115232190D02*
X106968857Y-115279809D01*
X106968857Y-115279809D02*
X107016476Y-115375047D01*
X107016476Y-115375047D02*
X107016476Y-115613142D01*
X107016476Y-115613142D02*
X106968857Y-115708380D01*
X106968857Y-115708380D02*
X106921238Y-115756000D01*
X106921238Y-115756000D02*
X106826000Y-115803619D01*
X106826000Y-115803619D02*
X106587905Y-115803619D01*
X106587905Y-115803619D02*
X106492667Y-115756000D01*
X106492667Y-115756000D02*
X106445048Y-115708380D01*
D12*
X143211845Y-126860714D02*
X143223750Y-126872618D01*
X143223750Y-126872618D02*
X143235654Y-126908333D01*
X143235654Y-126908333D02*
X143235654Y-126932142D01*
X143235654Y-126932142D02*
X143223750Y-126967856D01*
X143223750Y-126967856D02*
X143199940Y-126991666D01*
X143199940Y-126991666D02*
X143176130Y-127003571D01*
X143176130Y-127003571D02*
X143128511Y-127015475D01*
X143128511Y-127015475D02*
X143092797Y-127015475D01*
X143092797Y-127015475D02*
X143045178Y-127003571D01*
X143045178Y-127003571D02*
X143021369Y-126991666D01*
X143021369Y-126991666D02*
X142997559Y-126967856D01*
X142997559Y-126967856D02*
X142985654Y-126932142D01*
X142985654Y-126932142D02*
X142985654Y-126908333D01*
X142985654Y-126908333D02*
X142997559Y-126872618D01*
X142997559Y-126872618D02*
X143009464Y-126860714D01*
X143235654Y-126622618D02*
X143235654Y-126765475D01*
X143235654Y-126694047D02*
X142985654Y-126694047D01*
X142985654Y-126694047D02*
X143021369Y-126717856D01*
X143021369Y-126717856D02*
X143045178Y-126741666D01*
X143045178Y-126741666D02*
X143057083Y-126765475D01*
X143235654Y-126503571D02*
X143235654Y-126455952D01*
X143235654Y-126455952D02*
X143223750Y-126432142D01*
X143223750Y-126432142D02*
X143211845Y-126420238D01*
X143211845Y-126420238D02*
X143176130Y-126396428D01*
X143176130Y-126396428D02*
X143128511Y-126384523D01*
X143128511Y-126384523D02*
X143033273Y-126384523D01*
X143033273Y-126384523D02*
X143009464Y-126396428D01*
X143009464Y-126396428D02*
X142997559Y-126408333D01*
X142997559Y-126408333D02*
X142985654Y-126432142D01*
X142985654Y-126432142D02*
X142985654Y-126479761D01*
X142985654Y-126479761D02*
X142997559Y-126503571D01*
X142997559Y-126503571D02*
X143009464Y-126515476D01*
X143009464Y-126515476D02*
X143033273Y-126527380D01*
X143033273Y-126527380D02*
X143092797Y-126527380D01*
X143092797Y-126527380D02*
X143116607Y-126515476D01*
X143116607Y-126515476D02*
X143128511Y-126503571D01*
X143128511Y-126503571D02*
X143140416Y-126479761D01*
X143140416Y-126479761D02*
X143140416Y-126432142D01*
X143140416Y-126432142D02*
X143128511Y-126408333D01*
X143128511Y-126408333D02*
X143116607Y-126396428D01*
X143116607Y-126396428D02*
X143092797Y-126384523D01*
D13*
X121122047Y-113876666D02*
X120931571Y-114009999D01*
X121122047Y-114105237D02*
X120722047Y-114105237D01*
X120722047Y-114105237D02*
X120722047Y-113952856D01*
X120722047Y-113952856D02*
X120741095Y-113914761D01*
X120741095Y-113914761D02*
X120760142Y-113895714D01*
X120760142Y-113895714D02*
X120798238Y-113876666D01*
X120798238Y-113876666D02*
X120855380Y-113876666D01*
X120855380Y-113876666D02*
X120893476Y-113895714D01*
X120893476Y-113895714D02*
X120912523Y-113914761D01*
X120912523Y-113914761D02*
X120931571Y-113952856D01*
X120931571Y-113952856D02*
X120931571Y-114105237D01*
X120722047Y-113533809D02*
X120722047Y-113609999D01*
X120722047Y-113609999D02*
X120741095Y-113648095D01*
X120741095Y-113648095D02*
X120760142Y-113667142D01*
X120760142Y-113667142D02*
X120817285Y-113705237D01*
X120817285Y-113705237D02*
X120893476Y-113724285D01*
X120893476Y-113724285D02*
X121045857Y-113724285D01*
X121045857Y-113724285D02*
X121083952Y-113705237D01*
X121083952Y-113705237D02*
X121103000Y-113686190D01*
X121103000Y-113686190D02*
X121122047Y-113648095D01*
X121122047Y-113648095D02*
X121122047Y-113571904D01*
X121122047Y-113571904D02*
X121103000Y-113533809D01*
X121103000Y-113533809D02*
X121083952Y-113514761D01*
X121083952Y-113514761D02*
X121045857Y-113495714D01*
X121045857Y-113495714D02*
X120950619Y-113495714D01*
X120950619Y-113495714D02*
X120912523Y-113514761D01*
X120912523Y-113514761D02*
X120893476Y-113533809D01*
X120893476Y-113533809D02*
X120874428Y-113571904D01*
X120874428Y-113571904D02*
X120874428Y-113648095D01*
X120874428Y-113648095D02*
X120893476Y-113686190D01*
X120893476Y-113686190D02*
X120912523Y-113705237D01*
X120912523Y-113705237D02*
X120950619Y-113724285D01*
D11*
X131140623Y-112537081D02*
X131140623Y-111537081D01*
X131140623Y-111537081D02*
X131378718Y-111537081D01*
X131378718Y-111537081D02*
X131521575Y-111584700D01*
X131521575Y-111584700D02*
X131616813Y-111679938D01*
X131616813Y-111679938D02*
X131664432Y-111775176D01*
X131664432Y-111775176D02*
X131712051Y-111965652D01*
X131712051Y-111965652D02*
X131712051Y-112108509D01*
X131712051Y-112108509D02*
X131664432Y-112298985D01*
X131664432Y-112298985D02*
X131616813Y-112394223D01*
X131616813Y-112394223D02*
X131521575Y-112489462D01*
X131521575Y-112489462D02*
X131378718Y-112537081D01*
X131378718Y-112537081D02*
X131140623Y-112537081D01*
X132569194Y-111870414D02*
X132569194Y-112537081D01*
X132331099Y-111489462D02*
X132093004Y-112203747D01*
X132093004Y-112203747D02*
X132712051Y-112203747D01*
D15*
X118117047Y-119502166D02*
X118117047Y-119768832D01*
X118536095Y-119768832D02*
X117736095Y-119768832D01*
X117736095Y-119768832D02*
X117736095Y-119387880D01*
X117812285Y-119121214D02*
X117774190Y-119083118D01*
X117774190Y-119083118D02*
X117736095Y-119006928D01*
X117736095Y-119006928D02*
X117736095Y-118816452D01*
X117736095Y-118816452D02*
X117774190Y-118740261D01*
X117774190Y-118740261D02*
X117812285Y-118702166D01*
X117812285Y-118702166D02*
X117888476Y-118664071D01*
X117888476Y-118664071D02*
X117964666Y-118664071D01*
X117964666Y-118664071D02*
X118078952Y-118702166D01*
X118078952Y-118702166D02*
X118536095Y-119159309D01*
X118536095Y-119159309D02*
X118536095Y-118664071D01*
D11*
X83661667Y-135357619D02*
X84280714Y-135357619D01*
X84280714Y-135357619D02*
X83947381Y-135738571D01*
X83947381Y-135738571D02*
X84090238Y-135738571D01*
X84090238Y-135738571D02*
X84185476Y-135786190D01*
X84185476Y-135786190D02*
X84233095Y-135833809D01*
X84233095Y-135833809D02*
X84280714Y-135929047D01*
X84280714Y-135929047D02*
X84280714Y-136167142D01*
X84280714Y-136167142D02*
X84233095Y-136262380D01*
X84233095Y-136262380D02*
X84185476Y-136310000D01*
X84185476Y-136310000D02*
X84090238Y-136357619D01*
X84090238Y-136357619D02*
X83804524Y-136357619D01*
X83804524Y-136357619D02*
X83709286Y-136310000D01*
X83709286Y-136310000D02*
X83661667Y-136262380D01*
X85137857Y-135357619D02*
X84947381Y-135357619D01*
X84947381Y-135357619D02*
X84852143Y-135405238D01*
X84852143Y-135405238D02*
X84804524Y-135452857D01*
X84804524Y-135452857D02*
X84709286Y-135595714D01*
X84709286Y-135595714D02*
X84661667Y-135786190D01*
X84661667Y-135786190D02*
X84661667Y-136167142D01*
X84661667Y-136167142D02*
X84709286Y-136262380D01*
X84709286Y-136262380D02*
X84756905Y-136310000D01*
X84756905Y-136310000D02*
X84852143Y-136357619D01*
X84852143Y-136357619D02*
X85042619Y-136357619D01*
X85042619Y-136357619D02*
X85137857Y-136310000D01*
X85137857Y-136310000D02*
X85185476Y-136262380D01*
X85185476Y-136262380D02*
X85233095Y-136167142D01*
X85233095Y-136167142D02*
X85233095Y-135929047D01*
X85233095Y-135929047D02*
X85185476Y-135833809D01*
X85185476Y-135833809D02*
X85137857Y-135786190D01*
X85137857Y-135786190D02*
X85042619Y-135738571D01*
X85042619Y-135738571D02*
X84852143Y-135738571D01*
X84852143Y-135738571D02*
X84756905Y-135786190D01*
X84756905Y-135786190D02*
X84709286Y-135833809D01*
X84709286Y-135833809D02*
X84661667Y-135929047D01*
X85661667Y-135976666D02*
X86423572Y-135976666D01*
X87042619Y-135786190D02*
X86947381Y-135738571D01*
X86947381Y-135738571D02*
X86899762Y-135690952D01*
X86899762Y-135690952D02*
X86852143Y-135595714D01*
X86852143Y-135595714D02*
X86852143Y-135548095D01*
X86852143Y-135548095D02*
X86899762Y-135452857D01*
X86899762Y-135452857D02*
X86947381Y-135405238D01*
X86947381Y-135405238D02*
X87042619Y-135357619D01*
X87042619Y-135357619D02*
X87233095Y-135357619D01*
X87233095Y-135357619D02*
X87328333Y-135405238D01*
X87328333Y-135405238D02*
X87375952Y-135452857D01*
X87375952Y-135452857D02*
X87423571Y-135548095D01*
X87423571Y-135548095D02*
X87423571Y-135595714D01*
X87423571Y-135595714D02*
X87375952Y-135690952D01*
X87375952Y-135690952D02*
X87328333Y-135738571D01*
X87328333Y-135738571D02*
X87233095Y-135786190D01*
X87233095Y-135786190D02*
X87042619Y-135786190D01*
X87042619Y-135786190D02*
X86947381Y-135833809D01*
X86947381Y-135833809D02*
X86899762Y-135881428D01*
X86899762Y-135881428D02*
X86852143Y-135976666D01*
X86852143Y-135976666D02*
X86852143Y-136167142D01*
X86852143Y-136167142D02*
X86899762Y-136262380D01*
X86899762Y-136262380D02*
X86947381Y-136310000D01*
X86947381Y-136310000D02*
X87042619Y-136357619D01*
X87042619Y-136357619D02*
X87233095Y-136357619D01*
X87233095Y-136357619D02*
X87328333Y-136310000D01*
X87328333Y-136310000D02*
X87375952Y-136262380D01*
X87375952Y-136262380D02*
X87423571Y-136167142D01*
X87423571Y-136167142D02*
X87423571Y-135976666D01*
X87423571Y-135976666D02*
X87375952Y-135881428D01*
X87375952Y-135881428D02*
X87328333Y-135833809D01*
X87328333Y-135833809D02*
X87233095Y-135786190D01*
X87756905Y-135357619D02*
X88423571Y-135357619D01*
X88423571Y-135357619D02*
X87995000Y-136357619D01*
X88709286Y-135357619D02*
X89328333Y-135357619D01*
X89328333Y-135357619D02*
X88995000Y-135738571D01*
X88995000Y-135738571D02*
X89137857Y-135738571D01*
X89137857Y-135738571D02*
X89233095Y-135786190D01*
X89233095Y-135786190D02*
X89280714Y-135833809D01*
X89280714Y-135833809D02*
X89328333Y-135929047D01*
X89328333Y-135929047D02*
X89328333Y-136167142D01*
X89328333Y-136167142D02*
X89280714Y-136262380D01*
X89280714Y-136262380D02*
X89233095Y-136310000D01*
X89233095Y-136310000D02*
X89137857Y-136357619D01*
X89137857Y-136357619D02*
X88852143Y-136357619D01*
X88852143Y-136357619D02*
X88756905Y-136310000D01*
X88756905Y-136310000D02*
X88709286Y-136262380D01*
X89947381Y-135357619D02*
X90042619Y-135357619D01*
X90042619Y-135357619D02*
X90137857Y-135405238D01*
X90137857Y-135405238D02*
X90185476Y-135452857D01*
X90185476Y-135452857D02*
X90233095Y-135548095D01*
X90233095Y-135548095D02*
X90280714Y-135738571D01*
X90280714Y-135738571D02*
X90280714Y-135976666D01*
X90280714Y-135976666D02*
X90233095Y-136167142D01*
X90233095Y-136167142D02*
X90185476Y-136262380D01*
X90185476Y-136262380D02*
X90137857Y-136310000D01*
X90137857Y-136310000D02*
X90042619Y-136357619D01*
X90042619Y-136357619D02*
X89947381Y-136357619D01*
X89947381Y-136357619D02*
X89852143Y-136310000D01*
X89852143Y-136310000D02*
X89804524Y-136262380D01*
X89804524Y-136262380D02*
X89756905Y-136167142D01*
X89756905Y-136167142D02*
X89709286Y-135976666D01*
X89709286Y-135976666D02*
X89709286Y-135738571D01*
X89709286Y-135738571D02*
X89756905Y-135548095D01*
X89756905Y-135548095D02*
X89804524Y-135452857D01*
X89804524Y-135452857D02*
X89852143Y-135405238D01*
X89852143Y-135405238D02*
X89947381Y-135357619D01*
D12*
X113743544Y-121912922D02*
X113656877Y-121789113D01*
X113594972Y-121912922D02*
X113594972Y-121652922D01*
X113594972Y-121652922D02*
X113694020Y-121652922D01*
X113694020Y-121652922D02*
X113718782Y-121665303D01*
X113718782Y-121665303D02*
X113731163Y-121677684D01*
X113731163Y-121677684D02*
X113743544Y-121702446D01*
X113743544Y-121702446D02*
X113743544Y-121739589D01*
X113743544Y-121739589D02*
X113731163Y-121764351D01*
X113731163Y-121764351D02*
X113718782Y-121776732D01*
X113718782Y-121776732D02*
X113694020Y-121789113D01*
X113694020Y-121789113D02*
X113594972Y-121789113D01*
X113842591Y-121677684D02*
X113854972Y-121665303D01*
X113854972Y-121665303D02*
X113879734Y-121652922D01*
X113879734Y-121652922D02*
X113941639Y-121652922D01*
X113941639Y-121652922D02*
X113966401Y-121665303D01*
X113966401Y-121665303D02*
X113978782Y-121677684D01*
X113978782Y-121677684D02*
X113991163Y-121702446D01*
X113991163Y-121702446D02*
X113991163Y-121727208D01*
X113991163Y-121727208D02*
X113978782Y-121764351D01*
X113978782Y-121764351D02*
X113830210Y-121912922D01*
X113830210Y-121912922D02*
X113991163Y-121912922D01*
X114077829Y-121652922D02*
X114238782Y-121652922D01*
X114238782Y-121652922D02*
X114152115Y-121751970D01*
X114152115Y-121751970D02*
X114189258Y-121751970D01*
X114189258Y-121751970D02*
X114214020Y-121764351D01*
X114214020Y-121764351D02*
X114226401Y-121776732D01*
X114226401Y-121776732D02*
X114238782Y-121801494D01*
X114238782Y-121801494D02*
X114238782Y-121863399D01*
X114238782Y-121863399D02*
X114226401Y-121888161D01*
X114226401Y-121888161D02*
X114214020Y-121900542D01*
X114214020Y-121900542D02*
X114189258Y-121912922D01*
X114189258Y-121912922D02*
X114114972Y-121912922D01*
X114114972Y-121912922D02*
X114090210Y-121900542D01*
X114090210Y-121900542D02*
X114077829Y-121888161D01*
D11*
X122112619Y-121788094D02*
X121112619Y-121788094D01*
X121112619Y-121788094D02*
X121112619Y-121549999D01*
X121112619Y-121549999D02*
X121160238Y-121407142D01*
X121160238Y-121407142D02*
X121255476Y-121311904D01*
X121255476Y-121311904D02*
X121350714Y-121264285D01*
X121350714Y-121264285D02*
X121541190Y-121216666D01*
X121541190Y-121216666D02*
X121684047Y-121216666D01*
X121684047Y-121216666D02*
X121874523Y-121264285D01*
X121874523Y-121264285D02*
X121969761Y-121311904D01*
X121969761Y-121311904D02*
X122065000Y-121407142D01*
X122065000Y-121407142D02*
X122112619Y-121549999D01*
X122112619Y-121549999D02*
X122112619Y-121788094D01*
X121207857Y-120835713D02*
X121160238Y-120788094D01*
X121160238Y-120788094D02*
X121112619Y-120692856D01*
X121112619Y-120692856D02*
X121112619Y-120454761D01*
X121112619Y-120454761D02*
X121160238Y-120359523D01*
X121160238Y-120359523D02*
X121207857Y-120311904D01*
X121207857Y-120311904D02*
X121303095Y-120264285D01*
X121303095Y-120264285D02*
X121398333Y-120264285D01*
X121398333Y-120264285D02*
X121541190Y-120311904D01*
X121541190Y-120311904D02*
X122112619Y-120883332D01*
X122112619Y-120883332D02*
X122112619Y-120264285D01*
D12*
X132720897Y-123891785D02*
X132708993Y-123903690D01*
X132708993Y-123903690D02*
X132673278Y-123915594D01*
X132673278Y-123915594D02*
X132649469Y-123915594D01*
X132649469Y-123915594D02*
X132613755Y-123903690D01*
X132613755Y-123903690D02*
X132589945Y-123879880D01*
X132589945Y-123879880D02*
X132578040Y-123856070D01*
X132578040Y-123856070D02*
X132566136Y-123808451D01*
X132566136Y-123808451D02*
X132566136Y-123772737D01*
X132566136Y-123772737D02*
X132578040Y-123725118D01*
X132578040Y-123725118D02*
X132589945Y-123701309D01*
X132589945Y-123701309D02*
X132613755Y-123677499D01*
X132613755Y-123677499D02*
X132649469Y-123665594D01*
X132649469Y-123665594D02*
X132673278Y-123665594D01*
X132673278Y-123665594D02*
X132708993Y-123677499D01*
X132708993Y-123677499D02*
X132720897Y-123689404D01*
X132958993Y-123915594D02*
X132816136Y-123915594D01*
X132887564Y-123915594D02*
X132887564Y-123665594D01*
X132887564Y-123665594D02*
X132863755Y-123701309D01*
X132863755Y-123701309D02*
X132839945Y-123725118D01*
X132839945Y-123725118D02*
X132816136Y-123737023D01*
X133042326Y-123665594D02*
X133208992Y-123665594D01*
X133208992Y-123665594D02*
X133101850Y-123915594D01*
D13*
X127822857Y-114125047D02*
X127689524Y-113934571D01*
X127594286Y-114125047D02*
X127594286Y-113725047D01*
X127594286Y-113725047D02*
X127746667Y-113725047D01*
X127746667Y-113725047D02*
X127784762Y-113744095D01*
X127784762Y-113744095D02*
X127803809Y-113763142D01*
X127803809Y-113763142D02*
X127822857Y-113801238D01*
X127822857Y-113801238D02*
X127822857Y-113858380D01*
X127822857Y-113858380D02*
X127803809Y-113896476D01*
X127803809Y-113896476D02*
X127784762Y-113915523D01*
X127784762Y-113915523D02*
X127746667Y-113934571D01*
X127746667Y-113934571D02*
X127594286Y-113934571D01*
X128203809Y-114125047D02*
X127975238Y-114125047D01*
X128089524Y-114125047D02*
X128089524Y-113725047D01*
X128089524Y-113725047D02*
X128051428Y-113782190D01*
X128051428Y-113782190D02*
X128013333Y-113820285D01*
X128013333Y-113820285D02*
X127975238Y-113839333D01*
X128584761Y-114125047D02*
X128356190Y-114125047D01*
X128470476Y-114125047D02*
X128470476Y-113725047D01*
X128470476Y-113725047D02*
X128432380Y-113782190D01*
X128432380Y-113782190D02*
X128394285Y-113820285D01*
X128394285Y-113820285D02*
X128356190Y-113839333D01*
D12*
X161070878Y-119335810D02*
X160947069Y-119422477D01*
X161070878Y-119484382D02*
X160810878Y-119484382D01*
X160810878Y-119484382D02*
X160810878Y-119385334D01*
X160810878Y-119385334D02*
X160823259Y-119360572D01*
X160823259Y-119360572D02*
X160835640Y-119348191D01*
X160835640Y-119348191D02*
X160860402Y-119335810D01*
X160860402Y-119335810D02*
X160897545Y-119335810D01*
X160897545Y-119335810D02*
X160922307Y-119348191D01*
X160922307Y-119348191D02*
X160934688Y-119360572D01*
X160934688Y-119360572D02*
X160947069Y-119385334D01*
X160947069Y-119385334D02*
X160947069Y-119484382D01*
X160810878Y-119100572D02*
X160810878Y-119224382D01*
X160810878Y-119224382D02*
X160934688Y-119236763D01*
X160934688Y-119236763D02*
X160922307Y-119224382D01*
X160922307Y-119224382D02*
X160909926Y-119199620D01*
X160909926Y-119199620D02*
X160909926Y-119137715D01*
X160909926Y-119137715D02*
X160922307Y-119112953D01*
X160922307Y-119112953D02*
X160934688Y-119100572D01*
X160934688Y-119100572D02*
X160959450Y-119088191D01*
X160959450Y-119088191D02*
X161021355Y-119088191D01*
X161021355Y-119088191D02*
X161046117Y-119100572D01*
X161046117Y-119100572D02*
X161058498Y-119112953D01*
X161058498Y-119112953D02*
X161070878Y-119137715D01*
X161070878Y-119137715D02*
X161070878Y-119199620D01*
X161070878Y-119199620D02*
X161058498Y-119224382D01*
X161058498Y-119224382D02*
X161046117Y-119236763D01*
X125769740Y-137039069D02*
X125781645Y-137050973D01*
X125781645Y-137050973D02*
X125793549Y-137086688D01*
X125793549Y-137086688D02*
X125793549Y-137110497D01*
X125793549Y-137110497D02*
X125781645Y-137146211D01*
X125781645Y-137146211D02*
X125757835Y-137170021D01*
X125757835Y-137170021D02*
X125734025Y-137181926D01*
X125734025Y-137181926D02*
X125686406Y-137193830D01*
X125686406Y-137193830D02*
X125650692Y-137193830D01*
X125650692Y-137193830D02*
X125603073Y-137181926D01*
X125603073Y-137181926D02*
X125579264Y-137170021D01*
X125579264Y-137170021D02*
X125555454Y-137146211D01*
X125555454Y-137146211D02*
X125543549Y-137110497D01*
X125543549Y-137110497D02*
X125543549Y-137086688D01*
X125543549Y-137086688D02*
X125555454Y-137050973D01*
X125555454Y-137050973D02*
X125567359Y-137039069D01*
X125543549Y-136812878D02*
X125543549Y-136931926D01*
X125543549Y-136931926D02*
X125662597Y-136943830D01*
X125662597Y-136943830D02*
X125650692Y-136931926D01*
X125650692Y-136931926D02*
X125638787Y-136908116D01*
X125638787Y-136908116D02*
X125638787Y-136848592D01*
X125638787Y-136848592D02*
X125650692Y-136824783D01*
X125650692Y-136824783D02*
X125662597Y-136812878D01*
X125662597Y-136812878D02*
X125686406Y-136800973D01*
X125686406Y-136800973D02*
X125745930Y-136800973D01*
X125745930Y-136800973D02*
X125769740Y-136812878D01*
X125769740Y-136812878D02*
X125781645Y-136824783D01*
X125781645Y-136824783D02*
X125793549Y-136848592D01*
X125793549Y-136848592D02*
X125793549Y-136908116D01*
X125793549Y-136908116D02*
X125781645Y-136931926D01*
X125781645Y-136931926D02*
X125769740Y-136943830D01*
D15*
X163587306Y-122018440D02*
X163320640Y-122018440D01*
X163320640Y-122437488D02*
X163320640Y-121637488D01*
X163320640Y-121637488D02*
X163701592Y-121637488D01*
X164425401Y-122437488D02*
X163968258Y-122437488D01*
X164196830Y-122437488D02*
X164196830Y-121637488D01*
X164196830Y-121637488D02*
X164120639Y-121751773D01*
X164120639Y-121751773D02*
X164044449Y-121827964D01*
X164044449Y-121827964D02*
X163968258Y-121866059D01*
D14*
X155034013Y-121385262D02*
X155018775Y-121415738D01*
X155018775Y-121415738D02*
X154988299Y-121446214D01*
X154988299Y-121446214D02*
X154942584Y-121491928D01*
X154942584Y-121491928D02*
X154927346Y-121522405D01*
X154927346Y-121522405D02*
X154927346Y-121552881D01*
X155003537Y-121537643D02*
X154988299Y-121568119D01*
X154988299Y-121568119D02*
X154957822Y-121598595D01*
X154957822Y-121598595D02*
X154896870Y-121613833D01*
X154896870Y-121613833D02*
X154790203Y-121613833D01*
X154790203Y-121613833D02*
X154729251Y-121598595D01*
X154729251Y-121598595D02*
X154698775Y-121568119D01*
X154698775Y-121568119D02*
X154683537Y-121537643D01*
X154683537Y-121537643D02*
X154683537Y-121476690D01*
X154683537Y-121476690D02*
X154698775Y-121446214D01*
X154698775Y-121446214D02*
X154729251Y-121415738D01*
X154729251Y-121415738D02*
X154790203Y-121400500D01*
X154790203Y-121400500D02*
X154896870Y-121400500D01*
X154896870Y-121400500D02*
X154957822Y-121415738D01*
X154957822Y-121415738D02*
X154988299Y-121446214D01*
X154988299Y-121446214D02*
X155003537Y-121476690D01*
X155003537Y-121476690D02*
X155003537Y-121537643D01*
X154714013Y-121278595D02*
X154698775Y-121263357D01*
X154698775Y-121263357D02*
X154683537Y-121232881D01*
X154683537Y-121232881D02*
X154683537Y-121156690D01*
X154683537Y-121156690D02*
X154698775Y-121126214D01*
X154698775Y-121126214D02*
X154714013Y-121110976D01*
X154714013Y-121110976D02*
X154744489Y-121095738D01*
X154744489Y-121095738D02*
X154774965Y-121095738D01*
X154774965Y-121095738D02*
X154820679Y-121110976D01*
X154820679Y-121110976D02*
X155003537Y-121293833D01*
X155003537Y-121293833D02*
X155003537Y-121095738D01*
D12*
X144706332Y-125818911D02*
X144619665Y-125695102D01*
X144557760Y-125818911D02*
X144557760Y-125558911D01*
X144557760Y-125558911D02*
X144656808Y-125558911D01*
X144656808Y-125558911D02*
X144681570Y-125571292D01*
X144681570Y-125571292D02*
X144693951Y-125583673D01*
X144693951Y-125583673D02*
X144706332Y-125608435D01*
X144706332Y-125608435D02*
X144706332Y-125645578D01*
X144706332Y-125645578D02*
X144693951Y-125670340D01*
X144693951Y-125670340D02*
X144681570Y-125682721D01*
X144681570Y-125682721D02*
X144656808Y-125695102D01*
X144656808Y-125695102D02*
X144557760Y-125695102D01*
X144792998Y-125558911D02*
X144953951Y-125558911D01*
X144953951Y-125558911D02*
X144867284Y-125657959D01*
X144867284Y-125657959D02*
X144904427Y-125657959D01*
X144904427Y-125657959D02*
X144929189Y-125670340D01*
X144929189Y-125670340D02*
X144941570Y-125682721D01*
X144941570Y-125682721D02*
X144953951Y-125707483D01*
X144953951Y-125707483D02*
X144953951Y-125769388D01*
X144953951Y-125769388D02*
X144941570Y-125794150D01*
X144941570Y-125794150D02*
X144929189Y-125806531D01*
X144929189Y-125806531D02*
X144904427Y-125818911D01*
X144904427Y-125818911D02*
X144830141Y-125818911D01*
X144830141Y-125818911D02*
X144805379Y-125806531D01*
X144805379Y-125806531D02*
X144792998Y-125794150D01*
X145114903Y-125558911D02*
X145139665Y-125558911D01*
X145139665Y-125558911D02*
X145164427Y-125571292D01*
X145164427Y-125571292D02*
X145176808Y-125583673D01*
X145176808Y-125583673D02*
X145189189Y-125608435D01*
X145189189Y-125608435D02*
X145201570Y-125657959D01*
X145201570Y-125657959D02*
X145201570Y-125719864D01*
X145201570Y-125719864D02*
X145189189Y-125769388D01*
X145189189Y-125769388D02*
X145176808Y-125794150D01*
X145176808Y-125794150D02*
X145164427Y-125806531D01*
X145164427Y-125806531D02*
X145139665Y-125818911D01*
X145139665Y-125818911D02*
X145114903Y-125818911D01*
X145114903Y-125818911D02*
X145090141Y-125806531D01*
X145090141Y-125806531D02*
X145077760Y-125794150D01*
X145077760Y-125794150D02*
X145065379Y-125769388D01*
X145065379Y-125769388D02*
X145052998Y-125719864D01*
X145052998Y-125719864D02*
X145052998Y-125657959D01*
X145052998Y-125657959D02*
X145065379Y-125608435D01*
X145065379Y-125608435D02*
X145077760Y-125583673D01*
X145077760Y-125583673D02*
X145090141Y-125571292D01*
X145090141Y-125571292D02*
X145114903Y-125558911D01*
D13*
X109271618Y-118899779D02*
X109252570Y-118918827D01*
X109252570Y-118918827D02*
X109195428Y-118937874D01*
X109195428Y-118937874D02*
X109157332Y-118937874D01*
X109157332Y-118937874D02*
X109100189Y-118918827D01*
X109100189Y-118918827D02*
X109062094Y-118880731D01*
X109062094Y-118880731D02*
X109043047Y-118842636D01*
X109043047Y-118842636D02*
X109023999Y-118766446D01*
X109023999Y-118766446D02*
X109023999Y-118709303D01*
X109023999Y-118709303D02*
X109043047Y-118633112D01*
X109043047Y-118633112D02*
X109062094Y-118595017D01*
X109062094Y-118595017D02*
X109100189Y-118556922D01*
X109100189Y-118556922D02*
X109157332Y-118537874D01*
X109157332Y-118537874D02*
X109195428Y-118537874D01*
X109195428Y-118537874D02*
X109252570Y-118556922D01*
X109252570Y-118556922D02*
X109271618Y-118575969D01*
X109652570Y-118937874D02*
X109423999Y-118937874D01*
X109538285Y-118937874D02*
X109538285Y-118537874D01*
X109538285Y-118537874D02*
X109500189Y-118595017D01*
X109500189Y-118595017D02*
X109462094Y-118633112D01*
X109462094Y-118633112D02*
X109423999Y-118652160D01*
X110033522Y-118937874D02*
X109804951Y-118937874D01*
X109919237Y-118937874D02*
X109919237Y-118537874D01*
X109919237Y-118537874D02*
X109881141Y-118595017D01*
X109881141Y-118595017D02*
X109843046Y-118633112D01*
X109843046Y-118633112D02*
X109804951Y-118652160D01*
X124233333Y-124071952D02*
X124214285Y-124091000D01*
X124214285Y-124091000D02*
X124157143Y-124110047D01*
X124157143Y-124110047D02*
X124119047Y-124110047D01*
X124119047Y-124110047D02*
X124061904Y-124091000D01*
X124061904Y-124091000D02*
X124023809Y-124052904D01*
X124023809Y-124052904D02*
X124004762Y-124014809D01*
X124004762Y-124014809D02*
X123985714Y-123938619D01*
X123985714Y-123938619D02*
X123985714Y-123881476D01*
X123985714Y-123881476D02*
X124004762Y-123805285D01*
X124004762Y-123805285D02*
X124023809Y-123767190D01*
X124023809Y-123767190D02*
X124061904Y-123729095D01*
X124061904Y-123729095D02*
X124119047Y-123710047D01*
X124119047Y-123710047D02*
X124157143Y-123710047D01*
X124157143Y-123710047D02*
X124214285Y-123729095D01*
X124214285Y-123729095D02*
X124233333Y-123748142D01*
X124461904Y-123881476D02*
X124423809Y-123862428D01*
X124423809Y-123862428D02*
X124404762Y-123843380D01*
X124404762Y-123843380D02*
X124385714Y-123805285D01*
X124385714Y-123805285D02*
X124385714Y-123786238D01*
X124385714Y-123786238D02*
X124404762Y-123748142D01*
X124404762Y-123748142D02*
X124423809Y-123729095D01*
X124423809Y-123729095D02*
X124461904Y-123710047D01*
X124461904Y-123710047D02*
X124538095Y-123710047D01*
X124538095Y-123710047D02*
X124576190Y-123729095D01*
X124576190Y-123729095D02*
X124595238Y-123748142D01*
X124595238Y-123748142D02*
X124614285Y-123786238D01*
X124614285Y-123786238D02*
X124614285Y-123805285D01*
X124614285Y-123805285D02*
X124595238Y-123843380D01*
X124595238Y-123843380D02*
X124576190Y-123862428D01*
X124576190Y-123862428D02*
X124538095Y-123881476D01*
X124538095Y-123881476D02*
X124461904Y-123881476D01*
X124461904Y-123881476D02*
X124423809Y-123900523D01*
X124423809Y-123900523D02*
X124404762Y-123919571D01*
X124404762Y-123919571D02*
X124385714Y-123957666D01*
X124385714Y-123957666D02*
X124385714Y-124033857D01*
X124385714Y-124033857D02*
X124404762Y-124071952D01*
X124404762Y-124071952D02*
X124423809Y-124091000D01*
X124423809Y-124091000D02*
X124461904Y-124110047D01*
X124461904Y-124110047D02*
X124538095Y-124110047D01*
X124538095Y-124110047D02*
X124576190Y-124091000D01*
X124576190Y-124091000D02*
X124595238Y-124071952D01*
X124595238Y-124071952D02*
X124614285Y-124033857D01*
X124614285Y-124033857D02*
X124614285Y-123957666D01*
X124614285Y-123957666D02*
X124595238Y-123919571D01*
X124595238Y-123919571D02*
X124576190Y-123900523D01*
X124576190Y-123900523D02*
X124538095Y-123881476D01*
D11*
X149919333Y-150393619D02*
X149443143Y-150393619D01*
X149443143Y-150393619D02*
X149443143Y-149393619D01*
X150681238Y-149726952D02*
X150681238Y-150393619D01*
X150443143Y-149346000D02*
X150205048Y-150060285D01*
X150205048Y-150060285D02*
X150824095Y-150060285D01*
X123639035Y-113785694D02*
X124210463Y-113785694D01*
X123924749Y-114785694D02*
X123924749Y-113785694D01*
X124543797Y-114785694D02*
X124543797Y-113785694D01*
X124543797Y-113785694D02*
X124924749Y-113785694D01*
X124924749Y-113785694D02*
X125019987Y-113833313D01*
X125019987Y-113833313D02*
X125067606Y-113880932D01*
X125067606Y-113880932D02*
X125115225Y-113976170D01*
X125115225Y-113976170D02*
X125115225Y-114119027D01*
X125115225Y-114119027D02*
X125067606Y-114214265D01*
X125067606Y-114214265D02*
X125019987Y-114261884D01*
X125019987Y-114261884D02*
X124924749Y-114309503D01*
X124924749Y-114309503D02*
X124543797Y-114309503D01*
X126067606Y-114785694D02*
X125496178Y-114785694D01*
X125781892Y-114785694D02*
X125781892Y-113785694D01*
X125781892Y-113785694D02*
X125686654Y-113928551D01*
X125686654Y-113928551D02*
X125591416Y-114023789D01*
X125591416Y-114023789D02*
X125496178Y-114071408D01*
X155498948Y-125906819D02*
X156070376Y-125906819D01*
X155784662Y-126906819D02*
X155784662Y-125906819D01*
X156403710Y-126906819D02*
X156403710Y-125906819D01*
X156403710Y-125906819D02*
X156784662Y-125906819D01*
X156784662Y-125906819D02*
X156879900Y-125954438D01*
X156879900Y-125954438D02*
X156927519Y-126002057D01*
X156927519Y-126002057D02*
X156975138Y-126097295D01*
X156975138Y-126097295D02*
X156975138Y-126240152D01*
X156975138Y-126240152D02*
X156927519Y-126335390D01*
X156927519Y-126335390D02*
X156879900Y-126383009D01*
X156879900Y-126383009D02*
X156784662Y-126430628D01*
X156784662Y-126430628D02*
X156403710Y-126430628D01*
X157927519Y-126906819D02*
X157356091Y-126906819D01*
X157641805Y-126906819D02*
X157641805Y-125906819D01*
X157641805Y-125906819D02*
X157546567Y-126049676D01*
X157546567Y-126049676D02*
X157451329Y-126144914D01*
X157451329Y-126144914D02*
X157356091Y-126192533D01*
X158879900Y-126906819D02*
X158308472Y-126906819D01*
X158594186Y-126906819D02*
X158594186Y-125906819D01*
X158594186Y-125906819D02*
X158498948Y-126049676D01*
X158498948Y-126049676D02*
X158403710Y-126144914D01*
X158403710Y-126144914D02*
X158308472Y-126192533D01*
D12*
X129525513Y-136633809D02*
X129438846Y-136510000D01*
X129376941Y-136633809D02*
X129376941Y-136373809D01*
X129376941Y-136373809D02*
X129475989Y-136373809D01*
X129475989Y-136373809D02*
X129500751Y-136386190D01*
X129500751Y-136386190D02*
X129513132Y-136398571D01*
X129513132Y-136398571D02*
X129525513Y-136423333D01*
X129525513Y-136423333D02*
X129525513Y-136460476D01*
X129525513Y-136460476D02*
X129513132Y-136485238D01*
X129513132Y-136485238D02*
X129500751Y-136497619D01*
X129500751Y-136497619D02*
X129475989Y-136510000D01*
X129475989Y-136510000D02*
X129376941Y-136510000D01*
X129624560Y-136398571D02*
X129636941Y-136386190D01*
X129636941Y-136386190D02*
X129661703Y-136373809D01*
X129661703Y-136373809D02*
X129723608Y-136373809D01*
X129723608Y-136373809D02*
X129748370Y-136386190D01*
X129748370Y-136386190D02*
X129760751Y-136398571D01*
X129760751Y-136398571D02*
X129773132Y-136423333D01*
X129773132Y-136423333D02*
X129773132Y-136448095D01*
X129773132Y-136448095D02*
X129760751Y-136485238D01*
X129760751Y-136485238D02*
X129612179Y-136633809D01*
X129612179Y-136633809D02*
X129773132Y-136633809D01*
X130020751Y-136633809D02*
X129872179Y-136633809D01*
X129946465Y-136633809D02*
X129946465Y-136373809D01*
X129946465Y-136373809D02*
X129921703Y-136410952D01*
X129921703Y-136410952D02*
X129896941Y-136435714D01*
X129896941Y-136435714D02*
X129872179Y-136448095D01*
X147790001Y-107822649D02*
X147666192Y-107909316D01*
X147790001Y-107971221D02*
X147530001Y-107971221D01*
X147530001Y-107971221D02*
X147530001Y-107872173D01*
X147530001Y-107872173D02*
X147542382Y-107847411D01*
X147542382Y-107847411D02*
X147554763Y-107835030D01*
X147554763Y-107835030D02*
X147579525Y-107822649D01*
X147579525Y-107822649D02*
X147616668Y-107822649D01*
X147616668Y-107822649D02*
X147641430Y-107835030D01*
X147641430Y-107835030D02*
X147653811Y-107847411D01*
X147653811Y-107847411D02*
X147666192Y-107872173D01*
X147666192Y-107872173D02*
X147666192Y-107971221D01*
X147790001Y-107575030D02*
X147790001Y-107723602D01*
X147790001Y-107649316D02*
X147530001Y-107649316D01*
X147530001Y-107649316D02*
X147567144Y-107674078D01*
X147567144Y-107674078D02*
X147591906Y-107698840D01*
X147591906Y-107698840D02*
X147604287Y-107723602D01*
X147616668Y-107352173D02*
X147790001Y-107352173D01*
X147517621Y-107414078D02*
X147703335Y-107475983D01*
X147703335Y-107475983D02*
X147703335Y-107315030D01*
D16*
X127923476Y-124408333D02*
X127933000Y-124417857D01*
X127933000Y-124417857D02*
X127942523Y-124446428D01*
X127942523Y-124446428D02*
X127942523Y-124465476D01*
X127942523Y-124465476D02*
X127933000Y-124494047D01*
X127933000Y-124494047D02*
X127913952Y-124513095D01*
X127913952Y-124513095D02*
X127894904Y-124522618D01*
X127894904Y-124522618D02*
X127856809Y-124532142D01*
X127856809Y-124532142D02*
X127828238Y-124532142D01*
X127828238Y-124532142D02*
X127790142Y-124522618D01*
X127790142Y-124522618D02*
X127771095Y-124513095D01*
X127771095Y-124513095D02*
X127752047Y-124494047D01*
X127752047Y-124494047D02*
X127742523Y-124465476D01*
X127742523Y-124465476D02*
X127742523Y-124446428D01*
X127742523Y-124446428D02*
X127752047Y-124417857D01*
X127752047Y-124417857D02*
X127761571Y-124408333D01*
X127942523Y-124322618D02*
X127809190Y-124322618D01*
X127847285Y-124322618D02*
X127828238Y-124313095D01*
X127828238Y-124313095D02*
X127818714Y-124303571D01*
X127818714Y-124303571D02*
X127809190Y-124284523D01*
X127809190Y-124284523D02*
X127809190Y-124265476D01*
X127809190Y-124217856D02*
X127942523Y-124170237D01*
X127809190Y-124122618D02*
X127942523Y-124170237D01*
X127942523Y-124170237D02*
X127990142Y-124189285D01*
X127990142Y-124189285D02*
X127999666Y-124198808D01*
X127999666Y-124198808D02*
X128009190Y-124217856D01*
X127933000Y-124055951D02*
X127942523Y-124036904D01*
X127942523Y-124036904D02*
X127942523Y-123998808D01*
X127942523Y-123998808D02*
X127933000Y-123979761D01*
X127933000Y-123979761D02*
X127913952Y-123970237D01*
X127913952Y-123970237D02*
X127904428Y-123970237D01*
X127904428Y-123970237D02*
X127885380Y-123979761D01*
X127885380Y-123979761D02*
X127875857Y-123998808D01*
X127875857Y-123998808D02*
X127875857Y-124027380D01*
X127875857Y-124027380D02*
X127866333Y-124046427D01*
X127866333Y-124046427D02*
X127847285Y-124055951D01*
X127847285Y-124055951D02*
X127837761Y-124055951D01*
X127837761Y-124055951D02*
X127818714Y-124046427D01*
X127818714Y-124046427D02*
X127809190Y-124027380D01*
X127809190Y-124027380D02*
X127809190Y-123998808D01*
X127809190Y-123998808D02*
X127818714Y-123979761D01*
X127809190Y-123913094D02*
X127809190Y-123836903D01*
X127742523Y-123884522D02*
X127913952Y-123884522D01*
X127913952Y-123884522D02*
X127933000Y-123874999D01*
X127933000Y-123874999D02*
X127942523Y-123855951D01*
X127942523Y-123855951D02*
X127942523Y-123836903D01*
X127942523Y-123684522D02*
X127837761Y-123684522D01*
X127837761Y-123684522D02*
X127818714Y-123694046D01*
X127818714Y-123694046D02*
X127809190Y-123713094D01*
X127809190Y-123713094D02*
X127809190Y-123751189D01*
X127809190Y-123751189D02*
X127818714Y-123770236D01*
X127933000Y-123684522D02*
X127942523Y-123703570D01*
X127942523Y-123703570D02*
X127942523Y-123751189D01*
X127942523Y-123751189D02*
X127933000Y-123770236D01*
X127933000Y-123770236D02*
X127913952Y-123779760D01*
X127913952Y-123779760D02*
X127894904Y-123779760D01*
X127894904Y-123779760D02*
X127875857Y-123770236D01*
X127875857Y-123770236D02*
X127866333Y-123751189D01*
X127866333Y-123751189D02*
X127866333Y-123703570D01*
X127866333Y-123703570D02*
X127856809Y-123684522D01*
X127942523Y-123560713D02*
X127933000Y-123579761D01*
X127933000Y-123579761D02*
X127913952Y-123589284D01*
X127913952Y-123589284D02*
X127742523Y-123589284D01*
X127961571Y-123532142D02*
X127961571Y-123379761D01*
X127752047Y-123227380D02*
X127742523Y-123246427D01*
X127742523Y-123246427D02*
X127742523Y-123274999D01*
X127742523Y-123274999D02*
X127752047Y-123303570D01*
X127752047Y-123303570D02*
X127771095Y-123322618D01*
X127771095Y-123322618D02*
X127790142Y-123332141D01*
X127790142Y-123332141D02*
X127828238Y-123341665D01*
X127828238Y-123341665D02*
X127856809Y-123341665D01*
X127856809Y-123341665D02*
X127894904Y-123332141D01*
X127894904Y-123332141D02*
X127913952Y-123322618D01*
X127913952Y-123322618D02*
X127933000Y-123303570D01*
X127933000Y-123303570D02*
X127942523Y-123274999D01*
X127942523Y-123274999D02*
X127942523Y-123255951D01*
X127942523Y-123255951D02*
X127933000Y-123227380D01*
X127933000Y-123227380D02*
X127923476Y-123217856D01*
X127923476Y-123217856D02*
X127856809Y-123217856D01*
X127856809Y-123217856D02*
X127856809Y-123255951D01*
X127942523Y-123132141D02*
X127742523Y-123132141D01*
X127742523Y-123132141D02*
X127942523Y-123017856D01*
X127942523Y-123017856D02*
X127742523Y-123017856D01*
X127942523Y-122922617D02*
X127742523Y-122922617D01*
X127742523Y-122922617D02*
X127742523Y-122874998D01*
X127742523Y-122874998D02*
X127752047Y-122846427D01*
X127752047Y-122846427D02*
X127771095Y-122827379D01*
X127771095Y-122827379D02*
X127790142Y-122817856D01*
X127790142Y-122817856D02*
X127828238Y-122808332D01*
X127828238Y-122808332D02*
X127856809Y-122808332D01*
X127856809Y-122808332D02*
X127894904Y-122817856D01*
X127894904Y-122817856D02*
X127913952Y-122827379D01*
X127913952Y-122827379D02*
X127933000Y-122846427D01*
X127933000Y-122846427D02*
X127942523Y-122874998D01*
X127942523Y-122874998D02*
X127942523Y-122922617D01*
X127742523Y-122741665D02*
X127742523Y-122617856D01*
X127742523Y-122617856D02*
X127818714Y-122684522D01*
X127818714Y-122684522D02*
X127818714Y-122655951D01*
X127818714Y-122655951D02*
X127828238Y-122636903D01*
X127828238Y-122636903D02*
X127837761Y-122627379D01*
X127837761Y-122627379D02*
X127856809Y-122617856D01*
X127856809Y-122617856D02*
X127904428Y-122617856D01*
X127904428Y-122617856D02*
X127923476Y-122627379D01*
X127923476Y-122627379D02*
X127933000Y-122636903D01*
X127933000Y-122636903D02*
X127942523Y-122655951D01*
X127942523Y-122655951D02*
X127942523Y-122713094D01*
X127942523Y-122713094D02*
X127933000Y-122732141D01*
X127933000Y-122732141D02*
X127923476Y-122741665D01*
D17*
X129691857Y-123960714D02*
X129977571Y-123960714D01*
X129377571Y-124160714D02*
X129691857Y-123960714D01*
X129691857Y-123960714D02*
X129377571Y-123760714D01*
X129977571Y-123246428D02*
X129977571Y-123589285D01*
X129977571Y-123417856D02*
X129377571Y-123417856D01*
X129377571Y-123417856D02*
X129463285Y-123474999D01*
X129463285Y-123474999D02*
X129520428Y-123532142D01*
X129520428Y-123532142D02*
X129549000Y-123589285D01*
D12*
X142395013Y-118673410D02*
X142383109Y-118685315D01*
X142383109Y-118685315D02*
X142347394Y-118697219D01*
X142347394Y-118697219D02*
X142323585Y-118697219D01*
X142323585Y-118697219D02*
X142287871Y-118685315D01*
X142287871Y-118685315D02*
X142264061Y-118661505D01*
X142264061Y-118661505D02*
X142252156Y-118637695D01*
X142252156Y-118637695D02*
X142240252Y-118590076D01*
X142240252Y-118590076D02*
X142240252Y-118554362D01*
X142240252Y-118554362D02*
X142252156Y-118506743D01*
X142252156Y-118506743D02*
X142264061Y-118482934D01*
X142264061Y-118482934D02*
X142287871Y-118459124D01*
X142287871Y-118459124D02*
X142323585Y-118447219D01*
X142323585Y-118447219D02*
X142347394Y-118447219D01*
X142347394Y-118447219D02*
X142383109Y-118459124D01*
X142383109Y-118459124D02*
X142395013Y-118471029D01*
X142633109Y-118697219D02*
X142490252Y-118697219D01*
X142561680Y-118697219D02*
X142561680Y-118447219D01*
X142561680Y-118447219D02*
X142537871Y-118482934D01*
X142537871Y-118482934D02*
X142514061Y-118506743D01*
X142514061Y-118506743D02*
X142490252Y-118518648D01*
X142775966Y-118554362D02*
X142752156Y-118542457D01*
X142752156Y-118542457D02*
X142740251Y-118530553D01*
X142740251Y-118530553D02*
X142728347Y-118506743D01*
X142728347Y-118506743D02*
X142728347Y-118494838D01*
X142728347Y-118494838D02*
X142740251Y-118471029D01*
X142740251Y-118471029D02*
X142752156Y-118459124D01*
X142752156Y-118459124D02*
X142775966Y-118447219D01*
X142775966Y-118447219D02*
X142823585Y-118447219D01*
X142823585Y-118447219D02*
X142847394Y-118459124D01*
X142847394Y-118459124D02*
X142859299Y-118471029D01*
X142859299Y-118471029D02*
X142871204Y-118494838D01*
X142871204Y-118494838D02*
X142871204Y-118506743D01*
X142871204Y-118506743D02*
X142859299Y-118530553D01*
X142859299Y-118530553D02*
X142847394Y-118542457D01*
X142847394Y-118542457D02*
X142823585Y-118554362D01*
X142823585Y-118554362D02*
X142775966Y-118554362D01*
X142775966Y-118554362D02*
X142752156Y-118566267D01*
X142752156Y-118566267D02*
X142740251Y-118578172D01*
X142740251Y-118578172D02*
X142728347Y-118601981D01*
X142728347Y-118601981D02*
X142728347Y-118649600D01*
X142728347Y-118649600D02*
X142740251Y-118673410D01*
X142740251Y-118673410D02*
X142752156Y-118685315D01*
X142752156Y-118685315D02*
X142775966Y-118697219D01*
X142775966Y-118697219D02*
X142823585Y-118697219D01*
X142823585Y-118697219D02*
X142847394Y-118685315D01*
X142847394Y-118685315D02*
X142859299Y-118673410D01*
X142859299Y-118673410D02*
X142871204Y-118649600D01*
X142871204Y-118649600D02*
X142871204Y-118601981D01*
X142871204Y-118601981D02*
X142859299Y-118578172D01*
X142859299Y-118578172D02*
X142847394Y-118566267D01*
X142847394Y-118566267D02*
X142823585Y-118554362D01*
D11*
X88359333Y-115803619D02*
X87883143Y-115803619D01*
X87883143Y-115803619D02*
X87883143Y-114803619D01*
X89121238Y-114803619D02*
X88930762Y-114803619D01*
X88930762Y-114803619D02*
X88835524Y-114851238D01*
X88835524Y-114851238D02*
X88787905Y-114898857D01*
X88787905Y-114898857D02*
X88692667Y-115041714D01*
X88692667Y-115041714D02*
X88645048Y-115232190D01*
X88645048Y-115232190D02*
X88645048Y-115613142D01*
X88645048Y-115613142D02*
X88692667Y-115708380D01*
X88692667Y-115708380D02*
X88740286Y-115756000D01*
X88740286Y-115756000D02*
X88835524Y-115803619D01*
X88835524Y-115803619D02*
X89026000Y-115803619D01*
X89026000Y-115803619D02*
X89121238Y-115756000D01*
X89121238Y-115756000D02*
X89168857Y-115708380D01*
X89168857Y-115708380D02*
X89216476Y-115613142D01*
X89216476Y-115613142D02*
X89216476Y-115375047D01*
X89216476Y-115375047D02*
X89168857Y-115279809D01*
X89168857Y-115279809D02*
X89121238Y-115232190D01*
X89121238Y-115232190D02*
X89026000Y-115184571D01*
X89026000Y-115184571D02*
X88835524Y-115184571D01*
X88835524Y-115184571D02*
X88740286Y-115232190D01*
X88740286Y-115232190D02*
X88692667Y-115279809D01*
X88692667Y-115279809D02*
X88645048Y-115375047D01*
D15*
X120999904Y-119405332D02*
X121038000Y-119443428D01*
X121038000Y-119443428D02*
X121076095Y-119557713D01*
X121076095Y-119557713D02*
X121076095Y-119633904D01*
X121076095Y-119633904D02*
X121038000Y-119748190D01*
X121038000Y-119748190D02*
X120961809Y-119824380D01*
X120961809Y-119824380D02*
X120885619Y-119862475D01*
X120885619Y-119862475D02*
X120733238Y-119900571D01*
X120733238Y-119900571D02*
X120618952Y-119900571D01*
X120618952Y-119900571D02*
X120466571Y-119862475D01*
X120466571Y-119862475D02*
X120390380Y-119824380D01*
X120390380Y-119824380D02*
X120314190Y-119748190D01*
X120314190Y-119748190D02*
X120276095Y-119633904D01*
X120276095Y-119633904D02*
X120276095Y-119557713D01*
X120276095Y-119557713D02*
X120314190Y-119443428D01*
X120314190Y-119443428D02*
X120352285Y-119405332D01*
X120276095Y-119138666D02*
X120276095Y-118643428D01*
X120276095Y-118643428D02*
X120580857Y-118910094D01*
X120580857Y-118910094D02*
X120580857Y-118795809D01*
X120580857Y-118795809D02*
X120618952Y-118719618D01*
X120618952Y-118719618D02*
X120657047Y-118681523D01*
X120657047Y-118681523D02*
X120733238Y-118643428D01*
X120733238Y-118643428D02*
X120923714Y-118643428D01*
X120923714Y-118643428D02*
X120999904Y-118681523D01*
X120999904Y-118681523D02*
X121038000Y-118719618D01*
X121038000Y-118719618D02*
X121076095Y-118795809D01*
X121076095Y-118795809D02*
X121076095Y-119024380D01*
X121076095Y-119024380D02*
X121038000Y-119100571D01*
X121038000Y-119100571D02*
X120999904Y-119138666D01*
D11*
X129294095Y-102968619D02*
X129865523Y-102968619D01*
X129579809Y-103968619D02*
X129579809Y-102968619D01*
X130198857Y-103968619D02*
X130198857Y-102968619D01*
X130198857Y-102968619D02*
X130579809Y-102968619D01*
X130579809Y-102968619D02*
X130675047Y-103016238D01*
X130675047Y-103016238D02*
X130722666Y-103063857D01*
X130722666Y-103063857D02*
X130770285Y-103159095D01*
X130770285Y-103159095D02*
X130770285Y-103301952D01*
X130770285Y-103301952D02*
X130722666Y-103397190D01*
X130722666Y-103397190D02*
X130675047Y-103444809D01*
X130675047Y-103444809D02*
X130579809Y-103492428D01*
X130579809Y-103492428D02*
X130198857Y-103492428D01*
X131627428Y-103301952D02*
X131627428Y-103968619D01*
X131389333Y-102921000D02*
X131151238Y-103635285D01*
X131151238Y-103635285D02*
X131770285Y-103635285D01*
D13*
X170620408Y-135891247D02*
X170639456Y-135910295D01*
X170639456Y-135910295D02*
X170658503Y-135967437D01*
X170658503Y-135967437D02*
X170658503Y-136005533D01*
X170658503Y-136005533D02*
X170639456Y-136062676D01*
X170639456Y-136062676D02*
X170601360Y-136100771D01*
X170601360Y-136100771D02*
X170563265Y-136119818D01*
X170563265Y-136119818D02*
X170487075Y-136138866D01*
X170487075Y-136138866D02*
X170429932Y-136138866D01*
X170429932Y-136138866D02*
X170353741Y-136119818D01*
X170353741Y-136119818D02*
X170315646Y-136100771D01*
X170315646Y-136100771D02*
X170277551Y-136062676D01*
X170277551Y-136062676D02*
X170258503Y-136005533D01*
X170258503Y-136005533D02*
X170258503Y-135967437D01*
X170258503Y-135967437D02*
X170277551Y-135910295D01*
X170277551Y-135910295D02*
X170296598Y-135891247D01*
X170658503Y-135700771D02*
X170658503Y-135624580D01*
X170658503Y-135624580D02*
X170639456Y-135586485D01*
X170639456Y-135586485D02*
X170620408Y-135567437D01*
X170620408Y-135567437D02*
X170563265Y-135529342D01*
X170563265Y-135529342D02*
X170487075Y-135510295D01*
X170487075Y-135510295D02*
X170334694Y-135510295D01*
X170334694Y-135510295D02*
X170296598Y-135529342D01*
X170296598Y-135529342D02*
X170277551Y-135548390D01*
X170277551Y-135548390D02*
X170258503Y-135586485D01*
X170258503Y-135586485D02*
X170258503Y-135662676D01*
X170258503Y-135662676D02*
X170277551Y-135700771D01*
X170277551Y-135700771D02*
X170296598Y-135719818D01*
X170296598Y-135719818D02*
X170334694Y-135738866D01*
X170334694Y-135738866D02*
X170429932Y-135738866D01*
X170429932Y-135738866D02*
X170468027Y-135719818D01*
X170468027Y-135719818D02*
X170487075Y-135700771D01*
X170487075Y-135700771D02*
X170506122Y-135662676D01*
X170506122Y-135662676D02*
X170506122Y-135586485D01*
X170506122Y-135586485D02*
X170487075Y-135548390D01*
X170487075Y-135548390D02*
X170468027Y-135529342D01*
X170468027Y-135529342D02*
X170429932Y-135510295D01*
D11*
X167719333Y-150393619D02*
X167243143Y-150393619D01*
X167243143Y-150393619D02*
X167243143Y-149393619D01*
X167957429Y-149393619D02*
X168576476Y-149393619D01*
X168576476Y-149393619D02*
X168243143Y-149774571D01*
X168243143Y-149774571D02*
X168386000Y-149774571D01*
X168386000Y-149774571D02*
X168481238Y-149822190D01*
X168481238Y-149822190D02*
X168528857Y-149869809D01*
X168528857Y-149869809D02*
X168576476Y-149965047D01*
X168576476Y-149965047D02*
X168576476Y-150203142D01*
X168576476Y-150203142D02*
X168528857Y-150298380D01*
X168528857Y-150298380D02*
X168481238Y-150346000D01*
X168481238Y-150346000D02*
X168386000Y-150393619D01*
X168386000Y-150393619D02*
X168100286Y-150393619D01*
X168100286Y-150393619D02*
X168005048Y-150346000D01*
X168005048Y-150346000D02*
X167957429Y-150298380D01*
D14*
X123999523Y-110568514D02*
X123969047Y-110553276D01*
X123969047Y-110553276D02*
X123938571Y-110522800D01*
X123938571Y-110522800D02*
X123892857Y-110477085D01*
X123892857Y-110477085D02*
X123862380Y-110461847D01*
X123862380Y-110461847D02*
X123831904Y-110461847D01*
X123847142Y-110538038D02*
X123816666Y-110522800D01*
X123816666Y-110522800D02*
X123786190Y-110492323D01*
X123786190Y-110492323D02*
X123770952Y-110431371D01*
X123770952Y-110431371D02*
X123770952Y-110324704D01*
X123770952Y-110324704D02*
X123786190Y-110263752D01*
X123786190Y-110263752D02*
X123816666Y-110233276D01*
X123816666Y-110233276D02*
X123847142Y-110218038D01*
X123847142Y-110218038D02*
X123908095Y-110218038D01*
X123908095Y-110218038D02*
X123938571Y-110233276D01*
X123938571Y-110233276D02*
X123969047Y-110263752D01*
X123969047Y-110263752D02*
X123984285Y-110324704D01*
X123984285Y-110324704D02*
X123984285Y-110431371D01*
X123984285Y-110431371D02*
X123969047Y-110492323D01*
X123969047Y-110492323D02*
X123938571Y-110522800D01*
X123938571Y-110522800D02*
X123908095Y-110538038D01*
X123908095Y-110538038D02*
X123847142Y-110538038D01*
X124273809Y-110218038D02*
X124121428Y-110218038D01*
X124121428Y-110218038D02*
X124106190Y-110370419D01*
X124106190Y-110370419D02*
X124121428Y-110355180D01*
X124121428Y-110355180D02*
X124151904Y-110339942D01*
X124151904Y-110339942D02*
X124228095Y-110339942D01*
X124228095Y-110339942D02*
X124258571Y-110355180D01*
X124258571Y-110355180D02*
X124273809Y-110370419D01*
X124273809Y-110370419D02*
X124289047Y-110400895D01*
X124289047Y-110400895D02*
X124289047Y-110477085D01*
X124289047Y-110477085D02*
X124273809Y-110507561D01*
X124273809Y-110507561D02*
X124258571Y-110522800D01*
X124258571Y-110522800D02*
X124228095Y-110538038D01*
X124228095Y-110538038D02*
X124151904Y-110538038D01*
X124151904Y-110538038D02*
X124121428Y-110522800D01*
X124121428Y-110522800D02*
X124106190Y-110507561D01*
X139564190Y-109622538D02*
X139564190Y-109881585D01*
X139564190Y-109881585D02*
X139579428Y-109912061D01*
X139579428Y-109912061D02*
X139594666Y-109927300D01*
X139594666Y-109927300D02*
X139625142Y-109942538D01*
X139625142Y-109942538D02*
X139686095Y-109942538D01*
X139686095Y-109942538D02*
X139716571Y-109927300D01*
X139716571Y-109927300D02*
X139731809Y-109912061D01*
X139731809Y-109912061D02*
X139747047Y-109881585D01*
X139747047Y-109881585D02*
X139747047Y-109622538D01*
X139868952Y-109622538D02*
X140082285Y-109622538D01*
X140082285Y-109622538D02*
X139945142Y-109942538D01*
D12*
X159246734Y-150833003D02*
X159160067Y-150709194D01*
X159098162Y-150833003D02*
X159098162Y-150573003D01*
X159098162Y-150573003D02*
X159197210Y-150573003D01*
X159197210Y-150573003D02*
X159221972Y-150585384D01*
X159221972Y-150585384D02*
X159234353Y-150597765D01*
X159234353Y-150597765D02*
X159246734Y-150622527D01*
X159246734Y-150622527D02*
X159246734Y-150659670D01*
X159246734Y-150659670D02*
X159234353Y-150684432D01*
X159234353Y-150684432D02*
X159221972Y-150696813D01*
X159221972Y-150696813D02*
X159197210Y-150709194D01*
X159197210Y-150709194D02*
X159098162Y-150709194D01*
X159494353Y-150833003D02*
X159345781Y-150833003D01*
X159420067Y-150833003D02*
X159420067Y-150573003D01*
X159420067Y-150573003D02*
X159395305Y-150610146D01*
X159395305Y-150610146D02*
X159370543Y-150634908D01*
X159370543Y-150634908D02*
X159345781Y-150647289D01*
X159581019Y-150573003D02*
X159754353Y-150573003D01*
X159754353Y-150573003D02*
X159642924Y-150833003D01*
D11*
X123252842Y-116776369D02*
X123824270Y-116776369D01*
X123538556Y-117776369D02*
X123538556Y-116776369D01*
X124157604Y-117776369D02*
X124157604Y-116776369D01*
X124157604Y-116776369D02*
X124538556Y-116776369D01*
X124538556Y-116776369D02*
X124633794Y-116823988D01*
X124633794Y-116823988D02*
X124681413Y-116871607D01*
X124681413Y-116871607D02*
X124729032Y-116966845D01*
X124729032Y-116966845D02*
X124729032Y-117109702D01*
X124729032Y-117109702D02*
X124681413Y-117204940D01*
X124681413Y-117204940D02*
X124633794Y-117252559D01*
X124633794Y-117252559D02*
X124538556Y-117300178D01*
X124538556Y-117300178D02*
X124157604Y-117300178D01*
X125681413Y-117776369D02*
X125109985Y-117776369D01*
X125395699Y-117776369D02*
X125395699Y-116776369D01*
X125395699Y-116776369D02*
X125300461Y-116919226D01*
X125300461Y-116919226D02*
X125205223Y-117014464D01*
X125205223Y-117014464D02*
X125109985Y-117062083D01*
X126062366Y-116871607D02*
X126109985Y-116823988D01*
X126109985Y-116823988D02*
X126205223Y-116776369D01*
X126205223Y-116776369D02*
X126443318Y-116776369D01*
X126443318Y-116776369D02*
X126538556Y-116823988D01*
X126538556Y-116823988D02*
X126586175Y-116871607D01*
X126586175Y-116871607D02*
X126633794Y-116966845D01*
X126633794Y-116966845D02*
X126633794Y-117062083D01*
X126633794Y-117062083D02*
X126586175Y-117204940D01*
X126586175Y-117204940D02*
X126014747Y-117776369D01*
X126014747Y-117776369D02*
X126633794Y-117776369D01*
D12*
X109765710Y-117353110D02*
X109679043Y-117229301D01*
X109617138Y-117353110D02*
X109617138Y-117093110D01*
X109617138Y-117093110D02*
X109716186Y-117093110D01*
X109716186Y-117093110D02*
X109740948Y-117105491D01*
X109740948Y-117105491D02*
X109753329Y-117117872D01*
X109753329Y-117117872D02*
X109765710Y-117142634D01*
X109765710Y-117142634D02*
X109765710Y-117179777D01*
X109765710Y-117179777D02*
X109753329Y-117204539D01*
X109753329Y-117204539D02*
X109740948Y-117216920D01*
X109740948Y-117216920D02*
X109716186Y-117229301D01*
X109716186Y-117229301D02*
X109617138Y-117229301D01*
X110013329Y-117353110D02*
X109864757Y-117353110D01*
X109939043Y-117353110D02*
X109939043Y-117093110D01*
X109939043Y-117093110D02*
X109914281Y-117130253D01*
X109914281Y-117130253D02*
X109889519Y-117155015D01*
X109889519Y-117155015D02*
X109864757Y-117167396D01*
X110236186Y-117093110D02*
X110186662Y-117093110D01*
X110186662Y-117093110D02*
X110161900Y-117105491D01*
X110161900Y-117105491D02*
X110149519Y-117117872D01*
X110149519Y-117117872D02*
X110124757Y-117155015D01*
X110124757Y-117155015D02*
X110112376Y-117204539D01*
X110112376Y-117204539D02*
X110112376Y-117303587D01*
X110112376Y-117303587D02*
X110124757Y-117328349D01*
X110124757Y-117328349D02*
X110137138Y-117340730D01*
X110137138Y-117340730D02*
X110161900Y-117353110D01*
X110161900Y-117353110D02*
X110211424Y-117353110D01*
X110211424Y-117353110D02*
X110236186Y-117340730D01*
X110236186Y-117340730D02*
X110248567Y-117328349D01*
X110248567Y-117328349D02*
X110260948Y-117303587D01*
X110260948Y-117303587D02*
X110260948Y-117241682D01*
X110260948Y-117241682D02*
X110248567Y-117216920D01*
X110248567Y-117216920D02*
X110236186Y-117204539D01*
X110236186Y-117204539D02*
X110211424Y-117192158D01*
X110211424Y-117192158D02*
X110161900Y-117192158D01*
X110161900Y-117192158D02*
X110137138Y-117204539D01*
X110137138Y-117204539D02*
X110124757Y-117216920D01*
X110124757Y-117216920D02*
X110112376Y-117241682D01*
X127747786Y-130664434D02*
X127759691Y-130676338D01*
X127759691Y-130676338D02*
X127771595Y-130712053D01*
X127771595Y-130712053D02*
X127771595Y-130735862D01*
X127771595Y-130735862D02*
X127759691Y-130771576D01*
X127759691Y-130771576D02*
X127735881Y-130795386D01*
X127735881Y-130795386D02*
X127712071Y-130807291D01*
X127712071Y-130807291D02*
X127664452Y-130819195D01*
X127664452Y-130819195D02*
X127628738Y-130819195D01*
X127628738Y-130819195D02*
X127581119Y-130807291D01*
X127581119Y-130807291D02*
X127557310Y-130795386D01*
X127557310Y-130795386D02*
X127533500Y-130771576D01*
X127533500Y-130771576D02*
X127521595Y-130735862D01*
X127521595Y-130735862D02*
X127521595Y-130712053D01*
X127521595Y-130712053D02*
X127533500Y-130676338D01*
X127533500Y-130676338D02*
X127545405Y-130664434D01*
X127521595Y-130581100D02*
X127521595Y-130414434D01*
X127521595Y-130414434D02*
X127771595Y-130521576D01*
X141399285Y-128251845D02*
X141387381Y-128263750D01*
X141387381Y-128263750D02*
X141351666Y-128275654D01*
X141351666Y-128275654D02*
X141327857Y-128275654D01*
X141327857Y-128275654D02*
X141292143Y-128263750D01*
X141292143Y-128263750D02*
X141268333Y-128239940D01*
X141268333Y-128239940D02*
X141256428Y-128216130D01*
X141256428Y-128216130D02*
X141244524Y-128168511D01*
X141244524Y-128168511D02*
X141244524Y-128132797D01*
X141244524Y-128132797D02*
X141256428Y-128085178D01*
X141256428Y-128085178D02*
X141268333Y-128061369D01*
X141268333Y-128061369D02*
X141292143Y-128037559D01*
X141292143Y-128037559D02*
X141327857Y-128025654D01*
X141327857Y-128025654D02*
X141351666Y-128025654D01*
X141351666Y-128025654D02*
X141387381Y-128037559D01*
X141387381Y-128037559D02*
X141399285Y-128049464D01*
X141494524Y-128049464D02*
X141506428Y-128037559D01*
X141506428Y-128037559D02*
X141530238Y-128025654D01*
X141530238Y-128025654D02*
X141589762Y-128025654D01*
X141589762Y-128025654D02*
X141613571Y-128037559D01*
X141613571Y-128037559D02*
X141625476Y-128049464D01*
X141625476Y-128049464D02*
X141637381Y-128073273D01*
X141637381Y-128073273D02*
X141637381Y-128097083D01*
X141637381Y-128097083D02*
X141625476Y-128132797D01*
X141625476Y-128132797D02*
X141482619Y-128275654D01*
X141482619Y-128275654D02*
X141637381Y-128275654D01*
X141875476Y-128275654D02*
X141732619Y-128275654D01*
X141804047Y-128275654D02*
X141804047Y-128025654D01*
X141804047Y-128025654D02*
X141780238Y-128061369D01*
X141780238Y-128061369D02*
X141756428Y-128085178D01*
X141756428Y-128085178D02*
X141732619Y-128097083D01*
D13*
X139621333Y-112471452D02*
X139602285Y-112490500D01*
X139602285Y-112490500D02*
X139545143Y-112509547D01*
X139545143Y-112509547D02*
X139507047Y-112509547D01*
X139507047Y-112509547D02*
X139449904Y-112490500D01*
X139449904Y-112490500D02*
X139411809Y-112452404D01*
X139411809Y-112452404D02*
X139392762Y-112414309D01*
X139392762Y-112414309D02*
X139373714Y-112338119D01*
X139373714Y-112338119D02*
X139373714Y-112280976D01*
X139373714Y-112280976D02*
X139392762Y-112204785D01*
X139392762Y-112204785D02*
X139411809Y-112166690D01*
X139411809Y-112166690D02*
X139449904Y-112128595D01*
X139449904Y-112128595D02*
X139507047Y-112109547D01*
X139507047Y-112109547D02*
X139545143Y-112109547D01*
X139545143Y-112109547D02*
X139602285Y-112128595D01*
X139602285Y-112128595D02*
X139621333Y-112147642D01*
X139773714Y-112147642D02*
X139792762Y-112128595D01*
X139792762Y-112128595D02*
X139830857Y-112109547D01*
X139830857Y-112109547D02*
X139926095Y-112109547D01*
X139926095Y-112109547D02*
X139964190Y-112128595D01*
X139964190Y-112128595D02*
X139983238Y-112147642D01*
X139983238Y-112147642D02*
X140002285Y-112185738D01*
X140002285Y-112185738D02*
X140002285Y-112223833D01*
X140002285Y-112223833D02*
X139983238Y-112280976D01*
X139983238Y-112280976D02*
X139754666Y-112509547D01*
X139754666Y-112509547D02*
X140002285Y-112509547D01*
D12*
X144689285Y-123766845D02*
X144677381Y-123778750D01*
X144677381Y-123778750D02*
X144641666Y-123790654D01*
X144641666Y-123790654D02*
X144617857Y-123790654D01*
X144617857Y-123790654D02*
X144582143Y-123778750D01*
X144582143Y-123778750D02*
X144558333Y-123754940D01*
X144558333Y-123754940D02*
X144546428Y-123731130D01*
X144546428Y-123731130D02*
X144534524Y-123683511D01*
X144534524Y-123683511D02*
X144534524Y-123647797D01*
X144534524Y-123647797D02*
X144546428Y-123600178D01*
X144546428Y-123600178D02*
X144558333Y-123576369D01*
X144558333Y-123576369D02*
X144582143Y-123552559D01*
X144582143Y-123552559D02*
X144617857Y-123540654D01*
X144617857Y-123540654D02*
X144641666Y-123540654D01*
X144641666Y-123540654D02*
X144677381Y-123552559D01*
X144677381Y-123552559D02*
X144689285Y-123564464D01*
X144784524Y-123564464D02*
X144796428Y-123552559D01*
X144796428Y-123552559D02*
X144820238Y-123540654D01*
X144820238Y-123540654D02*
X144879762Y-123540654D01*
X144879762Y-123540654D02*
X144903571Y-123552559D01*
X144903571Y-123552559D02*
X144915476Y-123564464D01*
X144915476Y-123564464D02*
X144927381Y-123588273D01*
X144927381Y-123588273D02*
X144927381Y-123612083D01*
X144927381Y-123612083D02*
X144915476Y-123647797D01*
X144915476Y-123647797D02*
X144772619Y-123790654D01*
X144772619Y-123790654D02*
X144927381Y-123790654D01*
X145022619Y-123564464D02*
X145034523Y-123552559D01*
X145034523Y-123552559D02*
X145058333Y-123540654D01*
X145058333Y-123540654D02*
X145117857Y-123540654D01*
X145117857Y-123540654D02*
X145141666Y-123552559D01*
X145141666Y-123552559D02*
X145153571Y-123564464D01*
X145153571Y-123564464D02*
X145165476Y-123588273D01*
X145165476Y-123588273D02*
X145165476Y-123612083D01*
X145165476Y-123612083D02*
X145153571Y-123647797D01*
X145153571Y-123647797D02*
X145010714Y-123790654D01*
X145010714Y-123790654D02*
X145165476Y-123790654D01*
D11*
X121586666Y-99792619D02*
X121586666Y-100506904D01*
X121586666Y-100506904D02*
X121539047Y-100649761D01*
X121539047Y-100649761D02*
X121443809Y-100745000D01*
X121443809Y-100745000D02*
X121300952Y-100792619D01*
X121300952Y-100792619D02*
X121205714Y-100792619D01*
X122539047Y-99792619D02*
X122062857Y-99792619D01*
X122062857Y-99792619D02*
X122015238Y-100268809D01*
X122015238Y-100268809D02*
X122062857Y-100221190D01*
X122062857Y-100221190D02*
X122158095Y-100173571D01*
X122158095Y-100173571D02*
X122396190Y-100173571D01*
X122396190Y-100173571D02*
X122491428Y-100221190D01*
X122491428Y-100221190D02*
X122539047Y-100268809D01*
X122539047Y-100268809D02*
X122586666Y-100364047D01*
X122586666Y-100364047D02*
X122586666Y-100602142D01*
X122586666Y-100602142D02*
X122539047Y-100697380D01*
X122539047Y-100697380D02*
X122491428Y-100745000D01*
X122491428Y-100745000D02*
X122396190Y-100792619D01*
X122396190Y-100792619D02*
X122158095Y-100792619D01*
X122158095Y-100792619D02*
X122062857Y-100745000D01*
X122062857Y-100745000D02*
X122015238Y-100697380D01*
X117354464Y-105591111D02*
X117925892Y-105591111D01*
X117640178Y-106591111D02*
X117640178Y-105591111D01*
X118259226Y-106591111D02*
X118259226Y-105591111D01*
X118259226Y-105591111D02*
X118640178Y-105591111D01*
X118640178Y-105591111D02*
X118735416Y-105638730D01*
X118735416Y-105638730D02*
X118783035Y-105686349D01*
X118783035Y-105686349D02*
X118830654Y-105781587D01*
X118830654Y-105781587D02*
X118830654Y-105924444D01*
X118830654Y-105924444D02*
X118783035Y-106019682D01*
X118783035Y-106019682D02*
X118735416Y-106067301D01*
X118735416Y-106067301D02*
X118640178Y-106114920D01*
X118640178Y-106114920D02*
X118259226Y-106114920D01*
X119163988Y-105591111D02*
X119783035Y-105591111D01*
X119783035Y-105591111D02*
X119449702Y-105972063D01*
X119449702Y-105972063D02*
X119592559Y-105972063D01*
X119592559Y-105972063D02*
X119687797Y-106019682D01*
X119687797Y-106019682D02*
X119735416Y-106067301D01*
X119735416Y-106067301D02*
X119783035Y-106162539D01*
X119783035Y-106162539D02*
X119783035Y-106400634D01*
X119783035Y-106400634D02*
X119735416Y-106495872D01*
X119735416Y-106495872D02*
X119687797Y-106543492D01*
X119687797Y-106543492D02*
X119592559Y-106591111D01*
X119592559Y-106591111D02*
X119306845Y-106591111D01*
X119306845Y-106591111D02*
X119211607Y-106543492D01*
X119211607Y-106543492D02*
X119163988Y-106495872D01*
D12*
X144687274Y-122757613D02*
X144675370Y-122769518D01*
X144675370Y-122769518D02*
X144639655Y-122781422D01*
X144639655Y-122781422D02*
X144615846Y-122781422D01*
X144615846Y-122781422D02*
X144580132Y-122769518D01*
X144580132Y-122769518D02*
X144556322Y-122745708D01*
X144556322Y-122745708D02*
X144544417Y-122721898D01*
X144544417Y-122721898D02*
X144532513Y-122674279D01*
X144532513Y-122674279D02*
X144532513Y-122638565D01*
X144532513Y-122638565D02*
X144544417Y-122590946D01*
X144544417Y-122590946D02*
X144556322Y-122567137D01*
X144556322Y-122567137D02*
X144580132Y-122543327D01*
X144580132Y-122543327D02*
X144615846Y-122531422D01*
X144615846Y-122531422D02*
X144639655Y-122531422D01*
X144639655Y-122531422D02*
X144675370Y-122543327D01*
X144675370Y-122543327D02*
X144687274Y-122555232D01*
X144925370Y-122781422D02*
X144782513Y-122781422D01*
X144853941Y-122781422D02*
X144853941Y-122531422D01*
X144853941Y-122531422D02*
X144830132Y-122567137D01*
X144830132Y-122567137D02*
X144806322Y-122590946D01*
X144806322Y-122590946D02*
X144782513Y-122602851D01*
X145008703Y-122531422D02*
X145163465Y-122531422D01*
X145163465Y-122531422D02*
X145080131Y-122626660D01*
X145080131Y-122626660D02*
X145115846Y-122626660D01*
X145115846Y-122626660D02*
X145139655Y-122638565D01*
X145139655Y-122638565D02*
X145151560Y-122650470D01*
X145151560Y-122650470D02*
X145163465Y-122674279D01*
X145163465Y-122674279D02*
X145163465Y-122733803D01*
X145163465Y-122733803D02*
X145151560Y-122757613D01*
X145151560Y-122757613D02*
X145139655Y-122769518D01*
X145139655Y-122769518D02*
X145115846Y-122781422D01*
X145115846Y-122781422D02*
X145044417Y-122781422D01*
X145044417Y-122781422D02*
X145020608Y-122769518D01*
X145020608Y-122769518D02*
X145008703Y-122757613D01*
D11*
X129683807Y-107854678D02*
X130255235Y-107854678D01*
X129969521Y-108854678D02*
X129969521Y-107854678D01*
X130588569Y-108854678D02*
X130588569Y-107854678D01*
X130588569Y-107854678D02*
X130969521Y-107854678D01*
X130969521Y-107854678D02*
X131064759Y-107902297D01*
X131064759Y-107902297D02*
X131112378Y-107949916D01*
X131112378Y-107949916D02*
X131159997Y-108045154D01*
X131159997Y-108045154D02*
X131159997Y-108188011D01*
X131159997Y-108188011D02*
X131112378Y-108283249D01*
X131112378Y-108283249D02*
X131064759Y-108330868D01*
X131064759Y-108330868D02*
X130969521Y-108378487D01*
X130969521Y-108378487D02*
X130588569Y-108378487D01*
X132017140Y-107854678D02*
X131826664Y-107854678D01*
X131826664Y-107854678D02*
X131731426Y-107902297D01*
X131731426Y-107902297D02*
X131683807Y-107949916D01*
X131683807Y-107949916D02*
X131588569Y-108092773D01*
X131588569Y-108092773D02*
X131540950Y-108283249D01*
X131540950Y-108283249D02*
X131540950Y-108664201D01*
X131540950Y-108664201D02*
X131588569Y-108759439D01*
X131588569Y-108759439D02*
X131636188Y-108807059D01*
X131636188Y-108807059D02*
X131731426Y-108854678D01*
X131731426Y-108854678D02*
X131921902Y-108854678D01*
X131921902Y-108854678D02*
X132017140Y-108807059D01*
X132017140Y-108807059D02*
X132064759Y-108759439D01*
X132064759Y-108759439D02*
X132112378Y-108664201D01*
X132112378Y-108664201D02*
X132112378Y-108426106D01*
X132112378Y-108426106D02*
X132064759Y-108330868D01*
X132064759Y-108330868D02*
X132017140Y-108283249D01*
X132017140Y-108283249D02*
X131921902Y-108235630D01*
X131921902Y-108235630D02*
X131731426Y-108235630D01*
X131731426Y-108235630D02*
X131636188Y-108283249D01*
X131636188Y-108283249D02*
X131588569Y-108330868D01*
X131588569Y-108330868D02*
X131540950Y-108426106D01*
D14*
X158461429Y-119747387D02*
X158446191Y-119777863D01*
X158446191Y-119777863D02*
X158415715Y-119808339D01*
X158415715Y-119808339D02*
X158370000Y-119854053D01*
X158370000Y-119854053D02*
X158354762Y-119884530D01*
X158354762Y-119884530D02*
X158354762Y-119915006D01*
X158430953Y-119899768D02*
X158415715Y-119930244D01*
X158415715Y-119930244D02*
X158385238Y-119960720D01*
X158385238Y-119960720D02*
X158324286Y-119975958D01*
X158324286Y-119975958D02*
X158217619Y-119975958D01*
X158217619Y-119975958D02*
X158156667Y-119960720D01*
X158156667Y-119960720D02*
X158126191Y-119930244D01*
X158126191Y-119930244D02*
X158110953Y-119899768D01*
X158110953Y-119899768D02*
X158110953Y-119838815D01*
X158110953Y-119838815D02*
X158126191Y-119808339D01*
X158126191Y-119808339D02*
X158156667Y-119777863D01*
X158156667Y-119777863D02*
X158217619Y-119762625D01*
X158217619Y-119762625D02*
X158324286Y-119762625D01*
X158324286Y-119762625D02*
X158385238Y-119777863D01*
X158385238Y-119777863D02*
X158415715Y-119808339D01*
X158415715Y-119808339D02*
X158430953Y-119838815D01*
X158430953Y-119838815D02*
X158430953Y-119899768D01*
X158430953Y-119457863D02*
X158430953Y-119640720D01*
X158430953Y-119549292D02*
X158110953Y-119549292D01*
X158110953Y-119549292D02*
X158156667Y-119579768D01*
X158156667Y-119579768D02*
X158187143Y-119610244D01*
X158187143Y-119610244D02*
X158202381Y-119640720D01*
D13*
X127812857Y-110565047D02*
X127679524Y-110374571D01*
X127584286Y-110565047D02*
X127584286Y-110165047D01*
X127584286Y-110165047D02*
X127736667Y-110165047D01*
X127736667Y-110165047D02*
X127774762Y-110184095D01*
X127774762Y-110184095D02*
X127793809Y-110203142D01*
X127793809Y-110203142D02*
X127812857Y-110241238D01*
X127812857Y-110241238D02*
X127812857Y-110298380D01*
X127812857Y-110298380D02*
X127793809Y-110336476D01*
X127793809Y-110336476D02*
X127774762Y-110355523D01*
X127774762Y-110355523D02*
X127736667Y-110374571D01*
X127736667Y-110374571D02*
X127584286Y-110374571D01*
X128193809Y-110565047D02*
X127965238Y-110565047D01*
X128079524Y-110565047D02*
X128079524Y-110165047D01*
X128079524Y-110165047D02*
X128041428Y-110222190D01*
X128041428Y-110222190D02*
X128003333Y-110260285D01*
X128003333Y-110260285D02*
X127965238Y-110279333D01*
X128346190Y-110203142D02*
X128365238Y-110184095D01*
X128365238Y-110184095D02*
X128403333Y-110165047D01*
X128403333Y-110165047D02*
X128498571Y-110165047D01*
X128498571Y-110165047D02*
X128536666Y-110184095D01*
X128536666Y-110184095D02*
X128555714Y-110203142D01*
X128555714Y-110203142D02*
X128574761Y-110241238D01*
X128574761Y-110241238D02*
X128574761Y-110279333D01*
X128574761Y-110279333D02*
X128555714Y-110336476D01*
X128555714Y-110336476D02*
X128327142Y-110565047D01*
X128327142Y-110565047D02*
X128574761Y-110565047D01*
D11*
X117337639Y-109107452D02*
X117909067Y-109107452D01*
X117623353Y-110107452D02*
X117623353Y-109107452D01*
X118242401Y-110107452D02*
X118242401Y-109107452D01*
X118242401Y-109107452D02*
X118623353Y-109107452D01*
X118623353Y-109107452D02*
X118718591Y-109155071D01*
X118718591Y-109155071D02*
X118766210Y-109202690D01*
X118766210Y-109202690D02*
X118813829Y-109297928D01*
X118813829Y-109297928D02*
X118813829Y-109440785D01*
X118813829Y-109440785D02*
X118766210Y-109536023D01*
X118766210Y-109536023D02*
X118718591Y-109583642D01*
X118718591Y-109583642D02*
X118623353Y-109631261D01*
X118623353Y-109631261D02*
X118242401Y-109631261D01*
X119194782Y-109202690D02*
X119242401Y-109155071D01*
X119242401Y-109155071D02*
X119337639Y-109107452D01*
X119337639Y-109107452D02*
X119575734Y-109107452D01*
X119575734Y-109107452D02*
X119670972Y-109155071D01*
X119670972Y-109155071D02*
X119718591Y-109202690D01*
X119718591Y-109202690D02*
X119766210Y-109297928D01*
X119766210Y-109297928D02*
X119766210Y-109393166D01*
X119766210Y-109393166D02*
X119718591Y-109536023D01*
X119718591Y-109536023D02*
X119147163Y-110107452D01*
X119147163Y-110107452D02*
X119766210Y-110107452D01*
X136708667Y-133585366D02*
X136708667Y-134378700D01*
X136708667Y-134378700D02*
X136755334Y-134472033D01*
X136755334Y-134472033D02*
X136802000Y-134518700D01*
X136802000Y-134518700D02*
X136895334Y-134565366D01*
X136895334Y-134565366D02*
X137082000Y-134565366D01*
X137082000Y-134565366D02*
X137175334Y-134518700D01*
X137175334Y-134518700D02*
X137222000Y-134472033D01*
X137222000Y-134472033D02*
X137268667Y-134378700D01*
X137268667Y-134378700D02*
X137268667Y-133585366D01*
X138248667Y-134565366D02*
X137688667Y-134565366D01*
X137968667Y-134565366D02*
X137968667Y-133585366D01*
X137968667Y-133585366D02*
X137875334Y-133725366D01*
X137875334Y-133725366D02*
X137782001Y-133818700D01*
X137782001Y-133818700D02*
X137688667Y-133865366D01*
X138855334Y-133585366D02*
X138948667Y-133585366D01*
X138948667Y-133585366D02*
X139042000Y-133632033D01*
X139042000Y-133632033D02*
X139088667Y-133678700D01*
X139088667Y-133678700D02*
X139135334Y-133772033D01*
X139135334Y-133772033D02*
X139182000Y-133958700D01*
X139182000Y-133958700D02*
X139182000Y-134192033D01*
X139182000Y-134192033D02*
X139135334Y-134378700D01*
X139135334Y-134378700D02*
X139088667Y-134472033D01*
X139088667Y-134472033D02*
X139042000Y-134518700D01*
X139042000Y-134518700D02*
X138948667Y-134565366D01*
X138948667Y-134565366D02*
X138855334Y-134565366D01*
X138855334Y-134565366D02*
X138762000Y-134518700D01*
X138762000Y-134518700D02*
X138715334Y-134472033D01*
X138715334Y-134472033D02*
X138668667Y-134378700D01*
X138668667Y-134378700D02*
X138622000Y-134192033D01*
X138622000Y-134192033D02*
X138622000Y-133958700D01*
X138622000Y-133958700D02*
X138668667Y-133772033D01*
X138668667Y-133772033D02*
X138715334Y-133678700D01*
X138715334Y-133678700D02*
X138762000Y-133632033D01*
X138762000Y-133632033D02*
X138855334Y-133585366D01*
X150509137Y-111157536D02*
X150509137Y-111967059D01*
X150509137Y-111967059D02*
X150556756Y-112062297D01*
X150556756Y-112062297D02*
X150604375Y-112109917D01*
X150604375Y-112109917D02*
X150699613Y-112157536D01*
X150699613Y-112157536D02*
X150890089Y-112157536D01*
X150890089Y-112157536D02*
X150985327Y-112109917D01*
X150985327Y-112109917D02*
X151032946Y-112062297D01*
X151032946Y-112062297D02*
X151080565Y-111967059D01*
X151080565Y-111967059D02*
X151080565Y-111157536D01*
X151604375Y-112157536D02*
X151794851Y-112157536D01*
X151794851Y-112157536D02*
X151890089Y-112109917D01*
X151890089Y-112109917D02*
X151937708Y-112062297D01*
X151937708Y-112062297D02*
X152032946Y-111919440D01*
X152032946Y-111919440D02*
X152080565Y-111728964D01*
X152080565Y-111728964D02*
X152080565Y-111348012D01*
X152080565Y-111348012D02*
X152032946Y-111252774D01*
X152032946Y-111252774D02*
X151985327Y-111205155D01*
X151985327Y-111205155D02*
X151890089Y-111157536D01*
X151890089Y-111157536D02*
X151699613Y-111157536D01*
X151699613Y-111157536D02*
X151604375Y-111205155D01*
X151604375Y-111205155D02*
X151556756Y-111252774D01*
X151556756Y-111252774D02*
X151509137Y-111348012D01*
X151509137Y-111348012D02*
X151509137Y-111586107D01*
X151509137Y-111586107D02*
X151556756Y-111681345D01*
X151556756Y-111681345D02*
X151604375Y-111728964D01*
X151604375Y-111728964D02*
X151699613Y-111776583D01*
X151699613Y-111776583D02*
X151890089Y-111776583D01*
X151890089Y-111776583D02*
X151985327Y-111728964D01*
X151985327Y-111728964D02*
X152032946Y-111681345D01*
X152032946Y-111681345D02*
X152080565Y-111586107D01*
D13*
X127822857Y-107065047D02*
X127689524Y-106874571D01*
X127594286Y-107065047D02*
X127594286Y-106665047D01*
X127594286Y-106665047D02*
X127746667Y-106665047D01*
X127746667Y-106665047D02*
X127784762Y-106684095D01*
X127784762Y-106684095D02*
X127803809Y-106703142D01*
X127803809Y-106703142D02*
X127822857Y-106741238D01*
X127822857Y-106741238D02*
X127822857Y-106798380D01*
X127822857Y-106798380D02*
X127803809Y-106836476D01*
X127803809Y-106836476D02*
X127784762Y-106855523D01*
X127784762Y-106855523D02*
X127746667Y-106874571D01*
X127746667Y-106874571D02*
X127594286Y-106874571D01*
X128203809Y-107065047D02*
X127975238Y-107065047D01*
X128089524Y-107065047D02*
X128089524Y-106665047D01*
X128089524Y-106665047D02*
X128051428Y-106722190D01*
X128051428Y-106722190D02*
X128013333Y-106760285D01*
X128013333Y-106760285D02*
X127975238Y-106779333D01*
X128337142Y-106665047D02*
X128584761Y-106665047D01*
X128584761Y-106665047D02*
X128451428Y-106817428D01*
X128451428Y-106817428D02*
X128508571Y-106817428D01*
X128508571Y-106817428D02*
X128546666Y-106836476D01*
X128546666Y-106836476D02*
X128565714Y-106855523D01*
X128565714Y-106855523D02*
X128584761Y-106893619D01*
X128584761Y-106893619D02*
X128584761Y-106988857D01*
X128584761Y-106988857D02*
X128565714Y-107026952D01*
X128565714Y-107026952D02*
X128546666Y-107046000D01*
X128546666Y-107046000D02*
X128508571Y-107065047D01*
X128508571Y-107065047D02*
X128394285Y-107065047D01*
X128394285Y-107065047D02*
X128356190Y-107046000D01*
X128356190Y-107046000D02*
X128337142Y-107026952D01*
D12*
X131541164Y-123810719D02*
X131417355Y-123897386D01*
X131541164Y-123959291D02*
X131281164Y-123959291D01*
X131281164Y-123959291D02*
X131281164Y-123860243D01*
X131281164Y-123860243D02*
X131293545Y-123835481D01*
X131293545Y-123835481D02*
X131305926Y-123823100D01*
X131305926Y-123823100D02*
X131330688Y-123810719D01*
X131330688Y-123810719D02*
X131367831Y-123810719D01*
X131367831Y-123810719D02*
X131392593Y-123823100D01*
X131392593Y-123823100D02*
X131404974Y-123835481D01*
X131404974Y-123835481D02*
X131417355Y-123860243D01*
X131417355Y-123860243D02*
X131417355Y-123959291D01*
X131541164Y-123563100D02*
X131541164Y-123711672D01*
X131541164Y-123637386D02*
X131281164Y-123637386D01*
X131281164Y-123637386D02*
X131318307Y-123662148D01*
X131318307Y-123662148D02*
X131343069Y-123686910D01*
X131343069Y-123686910D02*
X131355450Y-123711672D01*
X131541164Y-123439291D02*
X131541164Y-123389767D01*
X131541164Y-123389767D02*
X131528784Y-123365005D01*
X131528784Y-123365005D02*
X131516403Y-123352624D01*
X131516403Y-123352624D02*
X131479260Y-123327862D01*
X131479260Y-123327862D02*
X131429736Y-123315481D01*
X131429736Y-123315481D02*
X131330688Y-123315481D01*
X131330688Y-123315481D02*
X131305926Y-123327862D01*
X131305926Y-123327862D02*
X131293545Y-123340243D01*
X131293545Y-123340243D02*
X131281164Y-123365005D01*
X131281164Y-123365005D02*
X131281164Y-123414529D01*
X131281164Y-123414529D02*
X131293545Y-123439291D01*
X131293545Y-123439291D02*
X131305926Y-123451672D01*
X131305926Y-123451672D02*
X131330688Y-123464053D01*
X131330688Y-123464053D02*
X131392593Y-123464053D01*
X131392593Y-123464053D02*
X131417355Y-123451672D01*
X131417355Y-123451672D02*
X131429736Y-123439291D01*
X131429736Y-123439291D02*
X131442117Y-123414529D01*
X131442117Y-123414529D02*
X131442117Y-123365005D01*
X131442117Y-123365005D02*
X131429736Y-123340243D01*
X131429736Y-123340243D02*
X131417355Y-123327862D01*
X131417355Y-123327862D02*
X131392593Y-123315481D01*
X97455624Y-131262160D02*
X97331815Y-131348827D01*
X97455624Y-131410732D02*
X97195624Y-131410732D01*
X97195624Y-131410732D02*
X97195624Y-131311684D01*
X97195624Y-131311684D02*
X97208005Y-131286922D01*
X97208005Y-131286922D02*
X97220386Y-131274541D01*
X97220386Y-131274541D02*
X97245148Y-131262160D01*
X97245148Y-131262160D02*
X97282291Y-131262160D01*
X97282291Y-131262160D02*
X97307053Y-131274541D01*
X97307053Y-131274541D02*
X97319434Y-131286922D01*
X97319434Y-131286922D02*
X97331815Y-131311684D01*
X97331815Y-131311684D02*
X97331815Y-131410732D01*
X97455624Y-131014541D02*
X97455624Y-131163113D01*
X97455624Y-131088827D02*
X97195624Y-131088827D01*
X97195624Y-131088827D02*
X97232767Y-131113589D01*
X97232767Y-131113589D02*
X97257529Y-131138351D01*
X97257529Y-131138351D02*
X97269910Y-131163113D01*
X97195624Y-130779303D02*
X97195624Y-130903113D01*
X97195624Y-130903113D02*
X97319434Y-130915494D01*
X97319434Y-130915494D02*
X97307053Y-130903113D01*
X97307053Y-130903113D02*
X97294672Y-130878351D01*
X97294672Y-130878351D02*
X97294672Y-130816446D01*
X97294672Y-130816446D02*
X97307053Y-130791684D01*
X97307053Y-130791684D02*
X97319434Y-130779303D01*
X97319434Y-130779303D02*
X97344196Y-130766922D01*
X97344196Y-130766922D02*
X97406101Y-130766922D01*
X97406101Y-130766922D02*
X97430863Y-130779303D01*
X97430863Y-130779303D02*
X97443244Y-130791684D01*
X97443244Y-130791684D02*
X97455624Y-130816446D01*
X97455624Y-130816446D02*
X97455624Y-130878351D01*
X97455624Y-130878351D02*
X97443244Y-130903113D01*
X97443244Y-130903113D02*
X97430863Y-130915494D01*
D13*
X139666333Y-107491452D02*
X139647285Y-107510500D01*
X139647285Y-107510500D02*
X139590143Y-107529547D01*
X139590143Y-107529547D02*
X139552047Y-107529547D01*
X139552047Y-107529547D02*
X139494904Y-107510500D01*
X139494904Y-107510500D02*
X139456809Y-107472404D01*
X139456809Y-107472404D02*
X139437762Y-107434309D01*
X139437762Y-107434309D02*
X139418714Y-107358119D01*
X139418714Y-107358119D02*
X139418714Y-107300976D01*
X139418714Y-107300976D02*
X139437762Y-107224785D01*
X139437762Y-107224785D02*
X139456809Y-107186690D01*
X139456809Y-107186690D02*
X139494904Y-107148595D01*
X139494904Y-107148595D02*
X139552047Y-107129547D01*
X139552047Y-107129547D02*
X139590143Y-107129547D01*
X139590143Y-107129547D02*
X139647285Y-107148595D01*
X139647285Y-107148595D02*
X139666333Y-107167642D01*
X140009190Y-107262880D02*
X140009190Y-107529547D01*
X139913952Y-107110500D02*
X139818714Y-107396214D01*
X139818714Y-107396214D02*
X140066333Y-107396214D01*
D11*
X106159333Y-128453619D02*
X105683143Y-128453619D01*
X105683143Y-128453619D02*
X105683143Y-127453619D01*
X106635524Y-127882190D02*
X106540286Y-127834571D01*
X106540286Y-127834571D02*
X106492667Y-127786952D01*
X106492667Y-127786952D02*
X106445048Y-127691714D01*
X106445048Y-127691714D02*
X106445048Y-127644095D01*
X106445048Y-127644095D02*
X106492667Y-127548857D01*
X106492667Y-127548857D02*
X106540286Y-127501238D01*
X106540286Y-127501238D02*
X106635524Y-127453619D01*
X106635524Y-127453619D02*
X106826000Y-127453619D01*
X106826000Y-127453619D02*
X106921238Y-127501238D01*
X106921238Y-127501238D02*
X106968857Y-127548857D01*
X106968857Y-127548857D02*
X107016476Y-127644095D01*
X107016476Y-127644095D02*
X107016476Y-127691714D01*
X107016476Y-127691714D02*
X106968857Y-127786952D01*
X106968857Y-127786952D02*
X106921238Y-127834571D01*
X106921238Y-127834571D02*
X106826000Y-127882190D01*
X106826000Y-127882190D02*
X106635524Y-127882190D01*
X106635524Y-127882190D02*
X106540286Y-127929809D01*
X106540286Y-127929809D02*
X106492667Y-127977428D01*
X106492667Y-127977428D02*
X106445048Y-128072666D01*
X106445048Y-128072666D02*
X106445048Y-128263142D01*
X106445048Y-128263142D02*
X106492667Y-128358380D01*
X106492667Y-128358380D02*
X106540286Y-128406000D01*
X106540286Y-128406000D02*
X106635524Y-128453619D01*
X106635524Y-128453619D02*
X106826000Y-128453619D01*
X106826000Y-128453619D02*
X106921238Y-128406000D01*
X106921238Y-128406000D02*
X106968857Y-128358380D01*
X106968857Y-128358380D02*
X107016476Y-128263142D01*
X107016476Y-128263142D02*
X107016476Y-128072666D01*
X107016476Y-128072666D02*
X106968857Y-127977428D01*
X106968857Y-127977428D02*
X106921238Y-127929809D01*
X106921238Y-127929809D02*
X106826000Y-127882190D01*
D13*
X121115047Y-107137142D02*
X120924571Y-107270475D01*
X121115047Y-107365713D02*
X120715047Y-107365713D01*
X120715047Y-107365713D02*
X120715047Y-107213332D01*
X120715047Y-107213332D02*
X120734095Y-107175237D01*
X120734095Y-107175237D02*
X120753142Y-107156190D01*
X120753142Y-107156190D02*
X120791238Y-107137142D01*
X120791238Y-107137142D02*
X120848380Y-107137142D01*
X120848380Y-107137142D02*
X120886476Y-107156190D01*
X120886476Y-107156190D02*
X120905523Y-107175237D01*
X120905523Y-107175237D02*
X120924571Y-107213332D01*
X120924571Y-107213332D02*
X120924571Y-107365713D01*
X121115047Y-106756190D02*
X121115047Y-106984761D01*
X121115047Y-106870475D02*
X120715047Y-106870475D01*
X120715047Y-106870475D02*
X120772190Y-106908571D01*
X120772190Y-106908571D02*
X120810285Y-106946666D01*
X120810285Y-106946666D02*
X120829333Y-106984761D01*
X120715047Y-106508571D02*
X120715047Y-106470476D01*
X120715047Y-106470476D02*
X120734095Y-106432380D01*
X120734095Y-106432380D02*
X120753142Y-106413333D01*
X120753142Y-106413333D02*
X120791238Y-106394285D01*
X120791238Y-106394285D02*
X120867428Y-106375238D01*
X120867428Y-106375238D02*
X120962666Y-106375238D01*
X120962666Y-106375238D02*
X121038857Y-106394285D01*
X121038857Y-106394285D02*
X121076952Y-106413333D01*
X121076952Y-106413333D02*
X121096000Y-106432380D01*
X121096000Y-106432380D02*
X121115047Y-106470476D01*
X121115047Y-106470476D02*
X121115047Y-106508571D01*
X121115047Y-106508571D02*
X121096000Y-106546666D01*
X121096000Y-106546666D02*
X121076952Y-106565714D01*
X121076952Y-106565714D02*
X121038857Y-106584761D01*
X121038857Y-106584761D02*
X120962666Y-106603809D01*
X120962666Y-106603809D02*
X120867428Y-106603809D01*
X120867428Y-106603809D02*
X120791238Y-106584761D01*
X120791238Y-106584761D02*
X120753142Y-106565714D01*
X120753142Y-106565714D02*
X120734095Y-106546666D01*
X120734095Y-106546666D02*
X120715047Y-106508571D01*
D12*
X131751427Y-136633651D02*
X131664760Y-136509842D01*
X131602855Y-136633651D02*
X131602855Y-136373651D01*
X131602855Y-136373651D02*
X131701903Y-136373651D01*
X131701903Y-136373651D02*
X131726665Y-136386032D01*
X131726665Y-136386032D02*
X131739046Y-136398413D01*
X131739046Y-136398413D02*
X131751427Y-136423175D01*
X131751427Y-136423175D02*
X131751427Y-136460318D01*
X131751427Y-136460318D02*
X131739046Y-136485080D01*
X131739046Y-136485080D02*
X131726665Y-136497461D01*
X131726665Y-136497461D02*
X131701903Y-136509842D01*
X131701903Y-136509842D02*
X131602855Y-136509842D01*
X131850474Y-136398413D02*
X131862855Y-136386032D01*
X131862855Y-136386032D02*
X131887617Y-136373651D01*
X131887617Y-136373651D02*
X131949522Y-136373651D01*
X131949522Y-136373651D02*
X131974284Y-136386032D01*
X131974284Y-136386032D02*
X131986665Y-136398413D01*
X131986665Y-136398413D02*
X131999046Y-136423175D01*
X131999046Y-136423175D02*
X131999046Y-136447937D01*
X131999046Y-136447937D02*
X131986665Y-136485080D01*
X131986665Y-136485080D02*
X131838093Y-136633651D01*
X131838093Y-136633651D02*
X131999046Y-136633651D01*
X132221903Y-136460318D02*
X132221903Y-136633651D01*
X132159998Y-136361271D02*
X132098093Y-136546985D01*
X132098093Y-136546985D02*
X132259046Y-136546985D01*
D11*
X154370260Y-117977405D02*
X153798832Y-117977405D01*
X154084546Y-117977405D02*
X154084546Y-116977405D01*
X154084546Y-116977405D02*
X153989308Y-117120262D01*
X153989308Y-117120262D02*
X153894070Y-117215500D01*
X153894070Y-117215500D02*
X153798832Y-117263119D01*
X154989308Y-116977405D02*
X155084546Y-116977405D01*
X155084546Y-116977405D02*
X155179784Y-117025024D01*
X155179784Y-117025024D02*
X155227403Y-117072643D01*
X155227403Y-117072643D02*
X155275022Y-117167881D01*
X155275022Y-117167881D02*
X155322641Y-117358357D01*
X155322641Y-117358357D02*
X155322641Y-117596452D01*
X155322641Y-117596452D02*
X155275022Y-117786928D01*
X155275022Y-117786928D02*
X155227403Y-117882166D01*
X155227403Y-117882166D02*
X155179784Y-117929786D01*
X155179784Y-117929786D02*
X155084546Y-117977405D01*
X155084546Y-117977405D02*
X154989308Y-117977405D01*
X154989308Y-117977405D02*
X154894070Y-117929786D01*
X154894070Y-117929786D02*
X154846451Y-117882166D01*
X154846451Y-117882166D02*
X154798832Y-117786928D01*
X154798832Y-117786928D02*
X154751213Y-117596452D01*
X154751213Y-117596452D02*
X154751213Y-117358357D01*
X154751213Y-117358357D02*
X154798832Y-117167881D01*
X154798832Y-117167881D02*
X154846451Y-117072643D01*
X154846451Y-117072643D02*
X154894070Y-117025024D01*
X154894070Y-117025024D02*
X154989308Y-116977405D01*
X155751213Y-117977405D02*
X155751213Y-116977405D01*
X155846451Y-117596452D02*
X156132165Y-117977405D01*
X156132165Y-117310738D02*
X155751213Y-117691690D01*
D12*
X154922166Y-118805066D02*
X154835499Y-118681257D01*
X154773594Y-118805066D02*
X154773594Y-118545066D01*
X154773594Y-118545066D02*
X154872642Y-118545066D01*
X154872642Y-118545066D02*
X154897404Y-118557447D01*
X154897404Y-118557447D02*
X154909785Y-118569828D01*
X154909785Y-118569828D02*
X154922166Y-118594590D01*
X154922166Y-118594590D02*
X154922166Y-118631733D01*
X154922166Y-118631733D02*
X154909785Y-118656495D01*
X154909785Y-118656495D02*
X154897404Y-118668876D01*
X154897404Y-118668876D02*
X154872642Y-118681257D01*
X154872642Y-118681257D02*
X154773594Y-118681257D01*
X155169785Y-118805066D02*
X155021213Y-118805066D01*
X155095499Y-118805066D02*
X155095499Y-118545066D01*
X155095499Y-118545066D02*
X155070737Y-118582209D01*
X155070737Y-118582209D02*
X155045975Y-118606971D01*
X155045975Y-118606971D02*
X155021213Y-118619352D01*
D11*
X153424095Y-100428619D02*
X153995523Y-100428619D01*
X153709809Y-101428619D02*
X153709809Y-100428619D01*
X154328857Y-101428619D02*
X154328857Y-100428619D01*
X154328857Y-100428619D02*
X154709809Y-100428619D01*
X154709809Y-100428619D02*
X154805047Y-100476238D01*
X154805047Y-100476238D02*
X154852666Y-100523857D01*
X154852666Y-100523857D02*
X154900285Y-100619095D01*
X154900285Y-100619095D02*
X154900285Y-100761952D01*
X154900285Y-100761952D02*
X154852666Y-100857190D01*
X154852666Y-100857190D02*
X154805047Y-100904809D01*
X154805047Y-100904809D02*
X154709809Y-100952428D01*
X154709809Y-100952428D02*
X154328857Y-100952428D01*
X155376476Y-101428619D02*
X155566952Y-101428619D01*
X155566952Y-101428619D02*
X155662190Y-101381000D01*
X155662190Y-101381000D02*
X155709809Y-101333380D01*
X155709809Y-101333380D02*
X155805047Y-101190523D01*
X155805047Y-101190523D02*
X155852666Y-101000047D01*
X155852666Y-101000047D02*
X155852666Y-100619095D01*
X155852666Y-100619095D02*
X155805047Y-100523857D01*
X155805047Y-100523857D02*
X155757428Y-100476238D01*
X155757428Y-100476238D02*
X155662190Y-100428619D01*
X155662190Y-100428619D02*
X155471714Y-100428619D01*
X155471714Y-100428619D02*
X155376476Y-100476238D01*
X155376476Y-100476238D02*
X155328857Y-100523857D01*
X155328857Y-100523857D02*
X155281238Y-100619095D01*
X155281238Y-100619095D02*
X155281238Y-100857190D01*
X155281238Y-100857190D02*
X155328857Y-100952428D01*
X155328857Y-100952428D02*
X155376476Y-101000047D01*
X155376476Y-101000047D02*
X155471714Y-101047666D01*
X155471714Y-101047666D02*
X155662190Y-101047666D01*
X155662190Y-101047666D02*
X155757428Y-101000047D01*
X155757428Y-101000047D02*
X155805047Y-100952428D01*
X155805047Y-100952428D02*
X155852666Y-100857190D01*
X131718513Y-102035040D02*
X132289941Y-102035040D01*
X132004227Y-103035040D02*
X132004227Y-102035040D01*
X132623275Y-103035040D02*
X132623275Y-102035040D01*
X132623275Y-102035040D02*
X133004227Y-102035040D01*
X133004227Y-102035040D02*
X133099465Y-102082659D01*
X133099465Y-102082659D02*
X133147084Y-102130278D01*
X133147084Y-102130278D02*
X133194703Y-102225516D01*
X133194703Y-102225516D02*
X133194703Y-102368373D01*
X133194703Y-102368373D02*
X133147084Y-102463611D01*
X133147084Y-102463611D02*
X133099465Y-102511230D01*
X133099465Y-102511230D02*
X133004227Y-102558849D01*
X133004227Y-102558849D02*
X132623275Y-102558849D01*
X133528037Y-102035040D02*
X134194703Y-102035040D01*
X134194703Y-102035040D02*
X133766132Y-103035040D01*
D13*
X147533333Y-102875047D02*
X147400000Y-102684571D01*
X147304762Y-102875047D02*
X147304762Y-102475047D01*
X147304762Y-102475047D02*
X147457143Y-102475047D01*
X147457143Y-102475047D02*
X147495238Y-102494095D01*
X147495238Y-102494095D02*
X147514285Y-102513142D01*
X147514285Y-102513142D02*
X147533333Y-102551238D01*
X147533333Y-102551238D02*
X147533333Y-102608380D01*
X147533333Y-102608380D02*
X147514285Y-102646476D01*
X147514285Y-102646476D02*
X147495238Y-102665523D01*
X147495238Y-102665523D02*
X147457143Y-102684571D01*
X147457143Y-102684571D02*
X147304762Y-102684571D01*
X147723809Y-102875047D02*
X147800000Y-102875047D01*
X147800000Y-102875047D02*
X147838095Y-102856000D01*
X147838095Y-102856000D02*
X147857143Y-102836952D01*
X147857143Y-102836952D02*
X147895238Y-102779809D01*
X147895238Y-102779809D02*
X147914285Y-102703619D01*
X147914285Y-102703619D02*
X147914285Y-102551238D01*
X147914285Y-102551238D02*
X147895238Y-102513142D01*
X147895238Y-102513142D02*
X147876190Y-102494095D01*
X147876190Y-102494095D02*
X147838095Y-102475047D01*
X147838095Y-102475047D02*
X147761904Y-102475047D01*
X147761904Y-102475047D02*
X147723809Y-102494095D01*
X147723809Y-102494095D02*
X147704762Y-102513142D01*
X147704762Y-102513142D02*
X147685714Y-102551238D01*
X147685714Y-102551238D02*
X147685714Y-102646476D01*
X147685714Y-102646476D02*
X147704762Y-102684571D01*
X147704762Y-102684571D02*
X147723809Y-102703619D01*
X147723809Y-102703619D02*
X147761904Y-102722666D01*
X147761904Y-102722666D02*
X147838095Y-102722666D01*
X147838095Y-102722666D02*
X147876190Y-102703619D01*
X147876190Y-102703619D02*
X147895238Y-102684571D01*
X147895238Y-102684571D02*
X147914285Y-102646476D01*
D11*
X141406619Y-110442594D02*
X140406619Y-110442594D01*
X140406619Y-110442594D02*
X140406619Y-110204499D01*
X140406619Y-110204499D02*
X140454238Y-110061642D01*
X140454238Y-110061642D02*
X140549476Y-109966404D01*
X140549476Y-109966404D02*
X140644714Y-109918785D01*
X140644714Y-109918785D02*
X140835190Y-109871166D01*
X140835190Y-109871166D02*
X140978047Y-109871166D01*
X140978047Y-109871166D02*
X141168523Y-109918785D01*
X141168523Y-109918785D02*
X141263761Y-109966404D01*
X141263761Y-109966404D02*
X141359000Y-110061642D01*
X141359000Y-110061642D02*
X141406619Y-110204499D01*
X141406619Y-110204499D02*
X141406619Y-110442594D01*
X140406619Y-109537832D02*
X140406619Y-108918785D01*
X140406619Y-108918785D02*
X140787571Y-109252118D01*
X140787571Y-109252118D02*
X140787571Y-109109261D01*
X140787571Y-109109261D02*
X140835190Y-109014023D01*
X140835190Y-109014023D02*
X140882809Y-108966404D01*
X140882809Y-108966404D02*
X140978047Y-108918785D01*
X140978047Y-108918785D02*
X141216142Y-108918785D01*
X141216142Y-108918785D02*
X141311380Y-108966404D01*
X141311380Y-108966404D02*
X141359000Y-109014023D01*
X141359000Y-109014023D02*
X141406619Y-109109261D01*
X141406619Y-109109261D02*
X141406619Y-109394975D01*
X141406619Y-109394975D02*
X141359000Y-109490213D01*
X141359000Y-109490213D02*
X141311380Y-109537832D01*
D12*
X151435112Y-122862036D02*
X151311303Y-122948703D01*
X151435112Y-123010608D02*
X151175112Y-123010608D01*
X151175112Y-123010608D02*
X151175112Y-122911560D01*
X151175112Y-122911560D02*
X151187493Y-122886798D01*
X151187493Y-122886798D02*
X151199874Y-122874417D01*
X151199874Y-122874417D02*
X151224636Y-122862036D01*
X151224636Y-122862036D02*
X151261779Y-122862036D01*
X151261779Y-122862036D02*
X151286541Y-122874417D01*
X151286541Y-122874417D02*
X151298922Y-122886798D01*
X151298922Y-122886798D02*
X151311303Y-122911560D01*
X151311303Y-122911560D02*
X151311303Y-123010608D01*
X151175112Y-122775370D02*
X151175112Y-122614417D01*
X151175112Y-122614417D02*
X151274160Y-122701084D01*
X151274160Y-122701084D02*
X151274160Y-122663941D01*
X151274160Y-122663941D02*
X151286541Y-122639179D01*
X151286541Y-122639179D02*
X151298922Y-122626798D01*
X151298922Y-122626798D02*
X151323684Y-122614417D01*
X151323684Y-122614417D02*
X151385589Y-122614417D01*
X151385589Y-122614417D02*
X151410351Y-122626798D01*
X151410351Y-122626798D02*
X151422732Y-122639179D01*
X151422732Y-122639179D02*
X151435112Y-122663941D01*
X151435112Y-122663941D02*
X151435112Y-122738227D01*
X151435112Y-122738227D02*
X151422732Y-122762989D01*
X151422732Y-122762989D02*
X151410351Y-122775370D01*
D11*
X151857926Y-122789049D02*
X152429354Y-122789049D01*
X152143640Y-123789049D02*
X152143640Y-122789049D01*
X152762688Y-123789049D02*
X152762688Y-122789049D01*
X152762688Y-122789049D02*
X153143640Y-122789049D01*
X153143640Y-122789049D02*
X153238878Y-122836668D01*
X153238878Y-122836668D02*
X153286497Y-122884287D01*
X153286497Y-122884287D02*
X153334116Y-122979525D01*
X153334116Y-122979525D02*
X153334116Y-123122382D01*
X153334116Y-123122382D02*
X153286497Y-123217620D01*
X153286497Y-123217620D02*
X153238878Y-123265239D01*
X153238878Y-123265239D02*
X153143640Y-123312858D01*
X153143640Y-123312858D02*
X152762688Y-123312858D01*
X153905545Y-123217620D02*
X153810307Y-123170001D01*
X153810307Y-123170001D02*
X153762688Y-123122382D01*
X153762688Y-123122382D02*
X153715069Y-123027144D01*
X153715069Y-123027144D02*
X153715069Y-122979525D01*
X153715069Y-122979525D02*
X153762688Y-122884287D01*
X153762688Y-122884287D02*
X153810307Y-122836668D01*
X153810307Y-122836668D02*
X153905545Y-122789049D01*
X153905545Y-122789049D02*
X154096021Y-122789049D01*
X154096021Y-122789049D02*
X154191259Y-122836668D01*
X154191259Y-122836668D02*
X154238878Y-122884287D01*
X154238878Y-122884287D02*
X154286497Y-122979525D01*
X154286497Y-122979525D02*
X154286497Y-123027144D01*
X154286497Y-123027144D02*
X154238878Y-123122382D01*
X154238878Y-123122382D02*
X154191259Y-123170001D01*
X154191259Y-123170001D02*
X154096021Y-123217620D01*
X154096021Y-123217620D02*
X153905545Y-123217620D01*
X153905545Y-123217620D02*
X153810307Y-123265239D01*
X153810307Y-123265239D02*
X153762688Y-123312858D01*
X153762688Y-123312858D02*
X153715069Y-123408096D01*
X153715069Y-123408096D02*
X153715069Y-123598572D01*
X153715069Y-123598572D02*
X153762688Y-123693810D01*
X153762688Y-123693810D02*
X153810307Y-123741430D01*
X153810307Y-123741430D02*
X153905545Y-123789049D01*
X153905545Y-123789049D02*
X154096021Y-123789049D01*
X154096021Y-123789049D02*
X154191259Y-123741430D01*
X154191259Y-123741430D02*
X154238878Y-123693810D01*
X154238878Y-123693810D02*
X154286497Y-123598572D01*
X154286497Y-123598572D02*
X154286497Y-123408096D01*
X154286497Y-123408096D02*
X154238878Y-123312858D01*
X154238878Y-123312858D02*
X154191259Y-123265239D01*
X154191259Y-123265239D02*
X154096021Y-123217620D01*
D13*
X147483333Y-104305047D02*
X147350000Y-104114571D01*
X147254762Y-104305047D02*
X147254762Y-103905047D01*
X147254762Y-103905047D02*
X147407143Y-103905047D01*
X147407143Y-103905047D02*
X147445238Y-103924095D01*
X147445238Y-103924095D02*
X147464285Y-103943142D01*
X147464285Y-103943142D02*
X147483333Y-103981238D01*
X147483333Y-103981238D02*
X147483333Y-104038380D01*
X147483333Y-104038380D02*
X147464285Y-104076476D01*
X147464285Y-104076476D02*
X147445238Y-104095523D01*
X147445238Y-104095523D02*
X147407143Y-104114571D01*
X147407143Y-104114571D02*
X147254762Y-104114571D01*
X147711904Y-104076476D02*
X147673809Y-104057428D01*
X147673809Y-104057428D02*
X147654762Y-104038380D01*
X147654762Y-104038380D02*
X147635714Y-104000285D01*
X147635714Y-104000285D02*
X147635714Y-103981238D01*
X147635714Y-103981238D02*
X147654762Y-103943142D01*
X147654762Y-103943142D02*
X147673809Y-103924095D01*
X147673809Y-103924095D02*
X147711904Y-103905047D01*
X147711904Y-103905047D02*
X147788095Y-103905047D01*
X147788095Y-103905047D02*
X147826190Y-103924095D01*
X147826190Y-103924095D02*
X147845238Y-103943142D01*
X147845238Y-103943142D02*
X147864285Y-103981238D01*
X147864285Y-103981238D02*
X147864285Y-104000285D01*
X147864285Y-104000285D02*
X147845238Y-104038380D01*
X147845238Y-104038380D02*
X147826190Y-104057428D01*
X147826190Y-104057428D02*
X147788095Y-104076476D01*
X147788095Y-104076476D02*
X147711904Y-104076476D01*
X147711904Y-104076476D02*
X147673809Y-104095523D01*
X147673809Y-104095523D02*
X147654762Y-104114571D01*
X147654762Y-104114571D02*
X147635714Y-104152666D01*
X147635714Y-104152666D02*
X147635714Y-104228857D01*
X147635714Y-104228857D02*
X147654762Y-104266952D01*
X147654762Y-104266952D02*
X147673809Y-104286000D01*
X147673809Y-104286000D02*
X147711904Y-104305047D01*
X147711904Y-104305047D02*
X147788095Y-104305047D01*
X147788095Y-104305047D02*
X147826190Y-104286000D01*
X147826190Y-104286000D02*
X147845238Y-104266952D01*
X147845238Y-104266952D02*
X147864285Y-104228857D01*
X147864285Y-104228857D02*
X147864285Y-104152666D01*
X147864285Y-104152666D02*
X147845238Y-104114571D01*
X147845238Y-104114571D02*
X147826190Y-104095523D01*
X147826190Y-104095523D02*
X147788095Y-104076476D01*
D11*
X131310004Y-109513939D02*
X131881432Y-109513939D01*
X131595718Y-110513939D02*
X131595718Y-109513939D01*
X132214766Y-110513939D02*
X132214766Y-109513939D01*
X132214766Y-109513939D02*
X132595718Y-109513939D01*
X132595718Y-109513939D02*
X132690956Y-109561558D01*
X132690956Y-109561558D02*
X132738575Y-109609177D01*
X132738575Y-109609177D02*
X132786194Y-109704415D01*
X132786194Y-109704415D02*
X132786194Y-109847272D01*
X132786194Y-109847272D02*
X132738575Y-109942510D01*
X132738575Y-109942510D02*
X132690956Y-109990129D01*
X132690956Y-109990129D02*
X132595718Y-110037748D01*
X132595718Y-110037748D02*
X132214766Y-110037748D01*
X133690956Y-109513939D02*
X133214766Y-109513939D01*
X133214766Y-109513939D02*
X133167147Y-109990129D01*
X133167147Y-109990129D02*
X133214766Y-109942510D01*
X133214766Y-109942510D02*
X133310004Y-109894891D01*
X133310004Y-109894891D02*
X133548099Y-109894891D01*
X133548099Y-109894891D02*
X133643337Y-109942510D01*
X133643337Y-109942510D02*
X133690956Y-109990129D01*
X133690956Y-109990129D02*
X133738575Y-110085367D01*
X133738575Y-110085367D02*
X133738575Y-110323462D01*
X133738575Y-110323462D02*
X133690956Y-110418700D01*
X133690956Y-110418700D02*
X133643337Y-110466320D01*
X133643337Y-110466320D02*
X133548099Y-110513939D01*
X133548099Y-110513939D02*
X133310004Y-110513939D01*
X133310004Y-110513939D02*
X133214766Y-110466320D01*
X133214766Y-110466320D02*
X133167147Y-110418700D01*
D12*
X127202056Y-135662422D02*
X127078247Y-135749089D01*
X127202056Y-135810994D02*
X126942056Y-135810994D01*
X126942056Y-135810994D02*
X126942056Y-135711946D01*
X126942056Y-135711946D02*
X126954437Y-135687184D01*
X126954437Y-135687184D02*
X126966818Y-135674803D01*
X126966818Y-135674803D02*
X126991580Y-135662422D01*
X126991580Y-135662422D02*
X127028723Y-135662422D01*
X127028723Y-135662422D02*
X127053485Y-135674803D01*
X127053485Y-135674803D02*
X127065866Y-135687184D01*
X127065866Y-135687184D02*
X127078247Y-135711946D01*
X127078247Y-135711946D02*
X127078247Y-135810994D01*
X126966818Y-135563375D02*
X126954437Y-135550994D01*
X126954437Y-135550994D02*
X126942056Y-135526232D01*
X126942056Y-135526232D02*
X126942056Y-135464327D01*
X126942056Y-135464327D02*
X126954437Y-135439565D01*
X126954437Y-135439565D02*
X126966818Y-135427184D01*
X126966818Y-135427184D02*
X126991580Y-135414803D01*
X126991580Y-135414803D02*
X127016342Y-135414803D01*
X127016342Y-135414803D02*
X127053485Y-135427184D01*
X127053485Y-135427184D02*
X127202056Y-135575756D01*
X127202056Y-135575756D02*
X127202056Y-135414803D01*
X126942056Y-135253851D02*
X126942056Y-135229089D01*
X126942056Y-135229089D02*
X126954437Y-135204327D01*
X126954437Y-135204327D02*
X126966818Y-135191946D01*
X126966818Y-135191946D02*
X126991580Y-135179565D01*
X126991580Y-135179565D02*
X127041104Y-135167184D01*
X127041104Y-135167184D02*
X127103009Y-135167184D01*
X127103009Y-135167184D02*
X127152533Y-135179565D01*
X127152533Y-135179565D02*
X127177295Y-135191946D01*
X127177295Y-135191946D02*
X127189676Y-135204327D01*
X127189676Y-135204327D02*
X127202056Y-135229089D01*
X127202056Y-135229089D02*
X127202056Y-135253851D01*
X127202056Y-135253851D02*
X127189676Y-135278613D01*
X127189676Y-135278613D02*
X127177295Y-135290994D01*
X127177295Y-135290994D02*
X127152533Y-135303375D01*
X127152533Y-135303375D02*
X127103009Y-135315756D01*
X127103009Y-135315756D02*
X127041104Y-135315756D01*
X127041104Y-135315756D02*
X126991580Y-135303375D01*
X126991580Y-135303375D02*
X126966818Y-135290994D01*
X126966818Y-135290994D02*
X126954437Y-135278613D01*
X126954437Y-135278613D02*
X126942056Y-135253851D01*
D18*
X152662760Y-123349312D02*
X152122760Y-123349312D01*
X152122760Y-123349312D02*
X152122760Y-122299312D01*
X152662760Y-122299312D02*
X152662760Y-123349312D01*
X152122760Y-122299312D02*
X152662760Y-122299312D01*
X145393378Y-124404084D02*
X145393378Y-124944084D01*
X145393378Y-124944084D02*
X144343378Y-124944084D01*
X144343378Y-124404084D02*
X145393378Y-124404084D01*
X144343378Y-124944084D02*
X144343378Y-124404084D01*
X156985499Y-116574786D02*
X157485499Y-116574786D01*
X155335499Y-115674786D02*
X158135499Y-115674786D01*
X156385499Y-116574786D02*
X156985499Y-116174786D01*
X156385499Y-116574786D02*
X156385499Y-117124786D01*
X155335499Y-117474786D02*
X155335499Y-115674786D01*
X158135499Y-115674786D02*
X158135499Y-117474786D01*
X155985499Y-116574786D02*
X156385499Y-116574786D01*
X156985499Y-116974786D02*
X156385499Y-116574786D01*
X156385499Y-116574786D02*
X156385499Y-116024786D01*
X156985499Y-116174786D02*
X156985499Y-116974786D01*
X158135499Y-117474786D02*
X155335499Y-117474786D01*
X128891941Y-131474768D02*
X129891941Y-131474768D01*
X129891941Y-131474768D02*
X129891941Y-131974768D01*
X129891941Y-131974768D02*
X128891941Y-131974768D01*
X128891941Y-131974768D02*
X128891941Y-131474768D01*
X161751317Y-118769380D02*
X162291317Y-118769380D01*
X162291317Y-118769380D02*
X162291317Y-119819380D01*
X161751317Y-119819380D02*
X161751317Y-118769380D01*
X162291317Y-119819380D02*
X161751317Y-119819380D01*
X170744623Y-139103477D02*
X170204623Y-139103477D01*
X170204623Y-139103477D02*
X170204623Y-138053477D01*
X170744623Y-138053477D02*
X170744623Y-139103477D01*
X170204623Y-138053477D02*
X170744623Y-138053477D01*
X114130156Y-123614537D02*
X115105156Y-122639537D01*
X115105156Y-122639537D02*
X118030156Y-122639537D01*
X118030156Y-127539537D02*
X114130156Y-127539537D01*
X114130156Y-127539537D02*
X114130156Y-123614537D01*
X118030156Y-122639537D02*
X118030156Y-127539537D01*
X96119149Y-131523046D02*
X95319149Y-131523046D01*
X95319149Y-129923046D02*
X96119149Y-129923046D01*
X95319149Y-131523046D02*
X95319149Y-129923046D01*
X96119149Y-129923046D02*
X96119149Y-131523046D01*
X115400000Y-118700000D02*
X114900000Y-119200000D01*
X114900000Y-119200000D02*
X113400000Y-119200000D01*
X115400000Y-107200000D02*
X115400000Y-118700000D01*
X113400000Y-107200000D02*
X115400000Y-107200000D01*
X113400000Y-119200000D02*
X113400000Y-107200000D01*
X124692500Y-105360000D02*
X124692500Y-108260000D01*
X123392500Y-108260000D02*
X123392500Y-105685000D01*
X123392500Y-105685000D02*
X123717500Y-105360000D01*
X124692500Y-108260000D02*
X123392500Y-108260000D01*
X123717500Y-105360000D02*
X124692500Y-105360000D01*
X124680000Y-112430000D02*
X124680000Y-115330000D01*
X123380000Y-115330000D02*
X123380000Y-112755000D01*
X123380000Y-112755000D02*
X123705000Y-112430000D01*
X124680000Y-115330000D02*
X123380000Y-115330000D01*
X123705000Y-112430000D02*
X124680000Y-112430000D01*
X131555000Y-121401418D02*
X131555000Y-120861418D01*
X131555000Y-120861418D02*
X132605000Y-120861418D01*
X132605000Y-121401418D02*
X131555000Y-121401418D01*
X132605000Y-120861418D02*
X132605000Y-121401418D01*
X161373487Y-151109479D02*
X161373487Y-150309479D01*
X162973487Y-150309479D02*
X162973487Y-151109479D01*
X161373487Y-150309479D02*
X162973487Y-150309479D01*
X162973487Y-151109479D02*
X161373487Y-151109479D01*
X137452000Y-109144000D02*
X137452000Y-112344000D01*
X135852000Y-109144000D02*
X137452000Y-109144000D01*
X137452000Y-112344000D02*
X135852000Y-112344000D01*
X135852000Y-112344000D02*
X135852000Y-109144000D01*
X120531500Y-111169000D02*
X120531500Y-109569000D01*
X121356500Y-111169000D02*
X120531500Y-111169000D01*
X120531500Y-109569000D02*
X121356500Y-109569000D01*
X121356500Y-109569000D02*
X121356500Y-111169000D01*
X162903973Y-118117393D02*
X165803973Y-118117393D01*
X165803973Y-119417393D02*
X163228973Y-119417393D01*
X163228973Y-119417393D02*
X162903973Y-119092393D01*
X165803973Y-118117393D02*
X165803973Y-119417393D01*
X162903973Y-119092393D02*
X162903973Y-118117393D01*
X154888965Y-108349075D02*
X153888965Y-108349075D01*
X153888965Y-108349075D02*
X153888965Y-107849075D01*
X153888965Y-107849075D02*
X154888965Y-107849075D01*
X154888965Y-107849075D02*
X154888965Y-108349075D01*
X141800000Y-120800000D02*
X141800000Y-126800000D01*
X141800000Y-126800000D02*
X134800000Y-126800000D01*
X134800000Y-126800000D02*
X134800000Y-119800000D01*
X134800000Y-119800000D02*
X140800000Y-119800000D01*
X140800000Y-119800000D02*
X141800000Y-120800000D01*
X143370000Y-126200000D02*
X143370000Y-127200000D01*
X143370000Y-127200000D02*
X142870000Y-127200000D01*
X142870000Y-127200000D02*
X142870000Y-126200000D01*
X142870000Y-126200000D02*
X143370000Y-126200000D01*
X120524500Y-114610000D02*
X120524500Y-113010000D01*
X121349500Y-114610000D02*
X120524500Y-114610000D01*
X120524500Y-113010000D02*
X121349500Y-113010000D01*
X121349500Y-113010000D02*
X121349500Y-114610000D01*
X132778718Y-113224462D02*
X132778718Y-114624462D01*
X132778718Y-114624462D02*
X130978718Y-114624462D01*
X131578718Y-113574462D02*
X131578718Y-114274462D01*
X132078718Y-113574462D02*
X132078718Y-114274462D01*
X131578718Y-113924462D02*
X132078718Y-113574462D01*
X130978718Y-113224462D02*
X132778718Y-113224462D01*
X130978718Y-114624462D02*
X130978718Y-113224462D01*
X132078718Y-114274462D02*
X131578718Y-113924462D01*
X131578718Y-113924462D02*
X131378718Y-113924462D01*
X132078718Y-113924462D02*
X132328718Y-113924462D01*
X117366000Y-120835500D02*
X117366000Y-117635500D01*
X118966000Y-120835500D02*
X117366000Y-120835500D01*
X117366000Y-117635500D02*
X118966000Y-117635500D01*
X118966000Y-117635500D02*
X118966000Y-120835500D01*
X114435687Y-121522642D02*
X114435687Y-122062642D01*
X114435687Y-122062642D02*
X113385687Y-122062642D01*
X113385687Y-121522642D02*
X114435687Y-121522642D01*
X113385687Y-122062642D02*
X113385687Y-121522642D01*
X122800000Y-120150000D02*
X124200000Y-120150000D01*
X124200000Y-120150000D02*
X124200000Y-121950000D01*
X123150000Y-121350000D02*
X123850000Y-121350000D01*
X123150000Y-120850000D02*
X123850000Y-120850000D01*
X123500000Y-121350000D02*
X123150000Y-120850000D01*
X122800000Y-121950000D02*
X122800000Y-120150000D01*
X124200000Y-121950000D02*
X122800000Y-121950000D01*
X123850000Y-120850000D02*
X123500000Y-121350000D01*
X123500000Y-121350000D02*
X123500000Y-121550000D01*
X123500000Y-120850000D02*
X123500000Y-120600000D01*
X133381612Y-124049940D02*
X132381612Y-124049940D01*
X132381612Y-124049940D02*
X132381612Y-123549940D01*
X132381612Y-123549940D02*
X133381612Y-123549940D01*
X133381612Y-123549940D02*
X133381612Y-124049940D01*
X127280000Y-113527500D02*
X128880000Y-113527500D01*
X127280000Y-114352500D02*
X127280000Y-113527500D01*
X128880000Y-113527500D02*
X128880000Y-114352500D01*
X128880000Y-114352500D02*
X127280000Y-114352500D01*
X160680598Y-118767478D02*
X161220598Y-118767478D01*
X161220598Y-118767478D02*
X161220598Y-119817478D01*
X160680598Y-119817478D02*
X160680598Y-118767478D01*
X161220598Y-119817478D02*
X160680598Y-119817478D01*
X125927895Y-136497403D02*
X125927895Y-137497403D01*
X125927895Y-137497403D02*
X125427895Y-137497403D01*
X125427895Y-137497403D02*
X125427895Y-136497403D01*
X125427895Y-136497403D02*
X125927895Y-136497403D01*
X162253973Y-121267393D02*
X165453973Y-121267393D01*
X162253973Y-122867393D02*
X162253973Y-121267393D01*
X165453973Y-121267393D02*
X165453973Y-122867393D01*
X165453973Y-122867393D02*
X162253973Y-122867393D01*
X153405499Y-120704786D02*
X156305499Y-120704786D01*
X156305499Y-122004786D02*
X153730499Y-122004786D01*
X153730499Y-122004786D02*
X153405499Y-121679786D01*
X156305499Y-120704786D02*
X156305499Y-122004786D01*
X153405499Y-121679786D02*
X153405499Y-120704786D01*
X145398475Y-125428631D02*
X145398475Y-125968631D01*
X145398475Y-125968631D02*
X144348475Y-125968631D01*
X144348475Y-125428631D02*
X145398475Y-125428631D01*
X144348475Y-125968631D02*
X144348475Y-125428631D01*
X110328761Y-118352827D02*
X110328761Y-119152827D01*
X108728761Y-119152827D02*
X108728761Y-118352827D01*
X110328761Y-119152827D02*
X108728761Y-119152827D01*
X108728761Y-118352827D02*
X110328761Y-118352827D01*
X125100000Y-124325000D02*
X123500000Y-124325000D01*
X123500000Y-124325000D02*
X123500000Y-123525000D01*
X123500000Y-123525000D02*
X125100000Y-123525000D01*
X125100000Y-123525000D02*
X125100000Y-124325000D01*
X130217656Y-136243529D02*
X130217656Y-136783529D01*
X130217656Y-136783529D02*
X129167656Y-136783529D01*
X129167656Y-136243529D02*
X130217656Y-136243529D01*
X129167656Y-136783529D02*
X129167656Y-136243529D01*
X147939721Y-108180507D02*
X147399721Y-108180507D01*
X147399721Y-108180507D02*
X147399721Y-107130507D01*
X147939721Y-107130507D02*
X147939721Y-108180507D01*
X147399721Y-107130507D02*
X147939721Y-107130507D01*
X129350000Y-122075000D02*
X130450000Y-122075000D01*
X128850000Y-125075000D02*
X130450000Y-125075000D01*
X128850000Y-122575000D02*
X129350000Y-122075000D01*
X128850000Y-122575000D02*
X128850000Y-125075000D01*
X130450000Y-125075000D02*
X130450000Y-122075000D01*
X142055728Y-118331565D02*
X143055728Y-118331565D01*
X143055728Y-118331565D02*
X143055728Y-118831565D01*
X143055728Y-118831565D02*
X142055728Y-118831565D01*
X142055728Y-118831565D02*
X142055728Y-118331565D01*
X119906000Y-120472000D02*
X120306000Y-120872000D01*
X120306000Y-120872000D02*
X121506000Y-120872000D01*
X119906000Y-117672000D02*
X119906000Y-120472000D01*
X121506000Y-117672000D02*
X119906000Y-117672000D01*
X121506000Y-120872000D02*
X121506000Y-117672000D01*
X170873456Y-136624581D02*
X170073456Y-136624581D01*
X170073456Y-135024581D02*
X170873456Y-135024581D01*
X170073456Y-136624581D02*
X170073456Y-135024581D01*
X170873456Y-135024581D02*
X170873456Y-136624581D01*
X124680000Y-108940000D02*
X124680000Y-111840000D01*
X123380000Y-111840000D02*
X123380000Y-109265000D01*
X123380000Y-109265000D02*
X123705000Y-108940000D01*
X124680000Y-111840000D02*
X123380000Y-111840000D01*
X123705000Y-108940000D02*
X124680000Y-108940000D01*
X139158000Y-111244500D02*
X139158000Y-108344500D01*
X140458000Y-108344500D02*
X140458000Y-110919500D01*
X140458000Y-110919500D02*
X140133000Y-111244500D01*
X139158000Y-108344500D02*
X140458000Y-108344500D01*
X140133000Y-111244500D02*
X139158000Y-111244500D01*
X158888877Y-150982723D02*
X158888877Y-150442723D01*
X158888877Y-150442723D02*
X159938877Y-150442723D01*
X159938877Y-150982723D02*
X158888877Y-150982723D01*
X159938877Y-150442723D02*
X159938877Y-150982723D01*
D19*
X160210000Y-115090000D02*
X165310000Y-115090000D01*
X165310000Y-115090000D02*
X165310000Y-109990000D01*
X165310000Y-109990000D02*
X160210000Y-109990000D01*
X160210000Y-109990000D02*
X160210000Y-115090000D01*
D10*
X164735000Y-108290000D02*
G75*
G03*
X164735000Y-108290000I-100000J0D01*
G01*
D18*
X109407853Y-117502830D02*
X109407853Y-116962830D01*
X109407853Y-116962830D02*
X110457853Y-116962830D01*
X110457853Y-117502830D02*
X109407853Y-117502830D01*
X110457853Y-116962830D02*
X110457853Y-117502830D01*
X127405941Y-131122768D02*
X127405941Y-130122768D01*
X127405941Y-130122768D02*
X127905941Y-130122768D01*
X127905941Y-130122768D02*
X127905941Y-131122768D01*
X127905941Y-131122768D02*
X127405941Y-131122768D01*
X142060000Y-128410000D02*
X141060000Y-128410000D01*
X141060000Y-128410000D02*
X141060000Y-127910000D01*
X141060000Y-127910000D02*
X142060000Y-127910000D01*
X142060000Y-127910000D02*
X142060000Y-128410000D01*
X138888000Y-111924500D02*
X140488000Y-111924500D01*
X140488000Y-111924500D02*
X140488000Y-112724500D01*
X140488000Y-112724500D02*
X138888000Y-112724500D01*
X138888000Y-112724500D02*
X138888000Y-111924500D01*
X145350000Y-123925000D02*
X144350000Y-123925000D01*
X144350000Y-123925000D02*
X144350000Y-123425000D01*
X144350000Y-123425000D02*
X145350000Y-123425000D01*
X145350000Y-123425000D02*
X145350000Y-123925000D01*
X123920000Y-101330000D02*
X119920000Y-101330000D01*
X123420000Y-99330000D02*
X123920000Y-99830000D01*
X123920000Y-99830000D02*
X123920000Y-101330000D01*
X119920000Y-99330000D02*
X123420000Y-99330000D01*
X119920000Y-101330000D02*
X119920000Y-99330000D01*
X145347989Y-122915768D02*
X144347989Y-122915768D01*
X144347989Y-122915768D02*
X144347989Y-122415768D01*
X144347989Y-122415768D02*
X145347989Y-122415768D01*
X145347989Y-122415768D02*
X145347989Y-122915768D01*
X156805499Y-119024786D02*
X159705499Y-119024786D01*
X159705499Y-120324786D02*
X157130499Y-120324786D01*
X157130499Y-120324786D02*
X156805499Y-119999786D01*
X159705499Y-119024786D02*
X159705499Y-120324786D01*
X156805499Y-119999786D02*
X156805499Y-119024786D01*
X127270000Y-109967500D02*
X128870000Y-109967500D01*
X127270000Y-110792500D02*
X127270000Y-109967500D01*
X128870000Y-109967500D02*
X128870000Y-110792500D01*
X128870000Y-110792500D02*
X127270000Y-110792500D01*
D15*
X143280000Y-100175000D02*
X143280000Y-90325000D01*
X143280000Y-90325000D02*
X133640000Y-90325000D01*
X133640000Y-100175000D02*
X143280000Y-100175000D01*
X133640000Y-90325000D02*
X133640000Y-100175000D01*
D18*
X135972000Y-132637000D02*
X136947000Y-131662000D01*
X136947000Y-131662000D02*
X139872000Y-131662000D01*
X139872000Y-136562000D02*
X135972000Y-136562000D01*
X135972000Y-136562000D02*
X135972000Y-132637000D01*
X139872000Y-131662000D02*
X139872000Y-136562000D01*
X148656042Y-114309917D02*
X148656042Y-110079917D01*
X153886042Y-109079917D02*
X153886042Y-114309917D01*
X149656042Y-109079917D02*
X153886042Y-109079917D01*
X148656042Y-110079917D02*
X149656042Y-109079917D01*
X153886042Y-114309917D02*
X148656042Y-114309917D01*
X127280000Y-106467500D02*
X128880000Y-106467500D01*
X127280000Y-107292500D02*
X127280000Y-106467500D01*
X128880000Y-106467500D02*
X128880000Y-107292500D01*
X128880000Y-107292500D02*
X127280000Y-107292500D01*
X131690884Y-124168577D02*
X131150884Y-124168577D01*
X131150884Y-124168577D02*
X131150884Y-123118577D01*
X131690884Y-123118577D02*
X131690884Y-124168577D01*
X131150884Y-123118577D02*
X131690884Y-123118577D01*
X97065344Y-130570018D02*
X97605344Y-130570018D01*
X97605344Y-130570018D02*
X97605344Y-131620018D01*
X97065344Y-131620018D02*
X97065344Y-130570018D01*
X97605344Y-131620018D02*
X97065344Y-131620018D01*
X140533000Y-107744500D02*
X138933000Y-107744500D01*
X138933000Y-107744500D02*
X138933000Y-106944500D01*
X138933000Y-106944500D02*
X140533000Y-106944500D01*
X140533000Y-106944500D02*
X140533000Y-107744500D01*
X120517500Y-107680000D02*
X120517500Y-106080000D01*
X121342500Y-107680000D02*
X120517500Y-107680000D01*
X120517500Y-106080000D02*
X121342500Y-106080000D01*
X121342500Y-106080000D02*
X121342500Y-107680000D01*
X131393570Y-136783371D02*
X131393570Y-136243371D01*
X131393570Y-136243371D02*
X132443570Y-136243371D01*
X132443570Y-136783371D02*
X131393570Y-136783371D01*
X132443570Y-136243371D02*
X132443570Y-136783371D01*
X155490499Y-118414786D02*
X155490499Y-118954786D01*
X155490499Y-118954786D02*
X154440499Y-118954786D01*
X154440499Y-118414786D02*
X155490499Y-118414786D01*
X154440499Y-118954786D02*
X154440499Y-118414786D01*
X148400000Y-102962500D02*
X146800000Y-102962500D01*
X148400000Y-102137500D02*
X148400000Y-102962500D01*
X146800000Y-102962500D02*
X146800000Y-102137500D01*
X146800000Y-102137500D02*
X148400000Y-102137500D01*
X142094000Y-108804500D02*
X143494000Y-108804500D01*
X143494000Y-108804500D02*
X143494000Y-110604500D01*
X142444000Y-110004500D02*
X143144000Y-110004500D01*
X142444000Y-109504500D02*
X143144000Y-109504500D01*
X142794000Y-110004500D02*
X142444000Y-109504500D01*
X142094000Y-110604500D02*
X142094000Y-108804500D01*
X143494000Y-110604500D02*
X142094000Y-110604500D01*
X143144000Y-109504500D02*
X142794000Y-110004500D01*
X142794000Y-110004500D02*
X142794000Y-110204500D01*
X142794000Y-109504500D02*
X142794000Y-109254500D01*
X151044832Y-122293704D02*
X151584832Y-122293704D01*
X151584832Y-122293704D02*
X151584832Y-123343704D01*
X151044832Y-123343704D02*
X151044832Y-122293704D01*
X151584832Y-123343704D02*
X151044832Y-123343704D01*
X148400000Y-104562500D02*
X146800000Y-104562500D01*
X148400000Y-103737500D02*
X148400000Y-104562500D01*
X146800000Y-104562500D02*
X146800000Y-103737500D01*
X146800000Y-103737500D02*
X148400000Y-103737500D01*
X127351776Y-136020280D02*
X126811776Y-136020280D01*
X126811776Y-136020280D02*
X126811776Y-134970280D01*
X127351776Y-134970280D02*
X127351776Y-136020280D01*
X126811776Y-134970280D02*
X127351776Y-134970280D01*
M02*
