G04 #@! TF.GenerationSoftware,KiCad,Pcbnew,7.0.2*
G04 #@! TF.CreationDate,2023-05-05T22:18:37-07:00*
G04 #@! TF.ProjectId,procon_gcc_main_pcb,70726f63-6f6e-45f6-9763-635f6d61696e,1*
G04 #@! TF.SameCoordinates,Original*
G04 #@! TF.FileFunction,Paste,Top*
G04 #@! TF.FilePolarity,Positive*
%FSLAX46Y46*%
G04 Gerber Fmt 4.6, Leading zero omitted, Abs format (unit mm)*
G04 Created by KiCad (PCBNEW 7.0.2) date 2023-05-05 22:18:37*
%MOMM*%
%LPD*%
G01*
G04 APERTURE LIST*
G04 Aperture macros list*
%AMRoundRect*
0 Rectangle with rounded corners*
0 $1 Rounding radius*
0 $2 $3 $4 $5 $6 $7 $8 $9 X,Y pos of 4 corners*
0 Add a 4 corners polygon primitive as box body*
4,1,4,$2,$3,$4,$5,$6,$7,$8,$9,$2,$3,0*
0 Add four circle primitives for the rounded corners*
1,1,$1+$1,$2,$3*
1,1,$1+$1,$4,$5*
1,1,$1+$1,$6,$7*
1,1,$1+$1,$8,$9*
0 Add four rect primitives between the rounded corners*
20,1,$1+$1,$2,$3,$4,$5,0*
20,1,$1+$1,$4,$5,$6,$7,0*
20,1,$1+$1,$6,$7,$8,$9,0*
20,1,$1+$1,$8,$9,$2,$3,0*%
G04 Aperture macros list end*
%ADD10R,0.950000X1.700000*%
%ADD11R,0.900000X1.700000*%
%ADD12R,1.200000X0.600000*%
%ADD13R,1.000000X1.000000*%
%ADD14RoundRect,0.135000X0.185000X-0.135000X0.185000X0.135000X-0.185000X0.135000X-0.185000X-0.135000X0*%
%ADD15RoundRect,0.135000X0.135000X0.185000X-0.135000X0.185000X-0.135000X-0.185000X0.135000X-0.185000X0*%
%ADD16R,0.550000X0.550000*%
%ADD17RoundRect,0.225000X-0.225000X-0.375000X0.225000X-0.375000X0.225000X0.375000X-0.225000X0.375000X0*%
%ADD18RoundRect,0.140000X-0.140000X-0.170000X0.140000X-0.170000X0.140000X0.170000X-0.140000X0.170000X0*%
%ADD19RoundRect,0.135000X-0.185000X0.135000X-0.185000X-0.135000X0.185000X-0.135000X0.185000X0.135000X0*%
%ADD20RoundRect,0.150000X-0.825000X-0.150000X0.825000X-0.150000X0.825000X0.150000X-0.825000X0.150000X0*%
%ADD21RoundRect,0.237500X-0.237500X0.300000X-0.237500X-0.300000X0.237500X-0.300000X0.237500X0.300000X0*%
%ADD22RoundRect,0.150000X-0.587500X-0.150000X0.587500X-0.150000X0.587500X0.150000X-0.587500X0.150000X0*%
%ADD23RoundRect,0.135000X-0.135000X-0.185000X0.135000X-0.185000X0.135000X0.185000X-0.135000X0.185000X0*%
%ADD24RoundRect,0.237500X0.300000X0.237500X-0.300000X0.237500X-0.300000X-0.237500X0.300000X-0.237500X0*%
%ADD25RoundRect,0.250001X-0.624999X0.462499X-0.624999X-0.462499X0.624999X-0.462499X0.624999X0.462499X0*%
%ADD26RoundRect,0.237500X-0.237500X0.250000X-0.237500X-0.250000X0.237500X-0.250000X0.237500X0.250000X0*%
%ADD27RoundRect,0.150000X0.150000X-0.587500X0.150000X0.587500X-0.150000X0.587500X-0.150000X-0.587500X0*%
%ADD28RoundRect,0.140000X0.140000X0.170000X-0.140000X0.170000X-0.140000X-0.170000X0.140000X-0.170000X0*%
%ADD29RoundRect,0.249999X-0.395001X0.395001X-0.395001X-0.395001X0.395001X-0.395001X0.395001X0.395001X0*%
%ADD30RoundRect,0.050000X-0.050000X0.387500X-0.050000X-0.387500X0.050000X-0.387500X0.050000X0.387500X0*%
%ADD31RoundRect,0.050000X-0.387500X0.050000X-0.387500X-0.050000X0.387500X-0.050000X0.387500X0.050000X0*%
%ADD32RoundRect,0.140000X-0.170000X0.140000X-0.170000X-0.140000X0.170000X-0.140000X0.170000X0.140000X0*%
%ADD33RoundRect,0.250000X-0.250000X-0.250000X0.250000X-0.250000X0.250000X0.250000X-0.250000X0.250000X0*%
%ADD34RoundRect,0.250001X0.624999X-0.462499X0.624999X0.462499X-0.624999X0.462499X-0.624999X-0.462499X0*%
%ADD35RoundRect,0.250000X0.250000X-0.250000X0.250000X0.250000X-0.250000X0.250000X-0.250000X-0.250000X0*%
%ADD36RoundRect,0.237500X0.250000X0.237500X-0.250000X0.237500X-0.250000X-0.237500X0.250000X-0.237500X0*%
%ADD37RoundRect,0.250001X-0.462499X-0.624999X0.462499X-0.624999X0.462499X0.624999X-0.462499X0.624999X0*%
%ADD38O,2.250000X3.250000*%
%ADD39RoundRect,0.237500X-0.300000X-0.237500X0.300000X-0.237500X0.300000X0.237500X-0.300000X0.237500X0*%
%ADD40RoundRect,0.225000X0.225000X0.250000X-0.225000X0.250000X-0.225000X-0.250000X0.225000X-0.250000X0*%
%ADD41RoundRect,0.160000X0.197500X0.160000X-0.197500X0.160000X-0.197500X-0.160000X0.197500X-0.160000X0*%
%ADD42R,1.900000X0.400000*%
%ADD43RoundRect,0.250000X0.425000X-0.450000X0.425000X0.450000X-0.425000X0.450000X-0.425000X-0.450000X0*%
%ADD44RoundRect,0.150000X0.587500X0.150000X-0.587500X0.150000X-0.587500X-0.150000X0.587500X-0.150000X0*%
%ADD45R,0.750000X1.000000*%
%ADD46RoundRect,0.140000X0.170000X-0.140000X0.170000X0.140000X-0.170000X0.140000X-0.170000X-0.140000X0*%
%ADD47RoundRect,0.225000X-0.225000X-0.250000X0.225000X-0.250000X0.225000X0.250000X-0.225000X0.250000X0*%
%ADD48R,2.000000X1.300000*%
%ADD49R,0.300000X1.000000*%
%ADD50R,0.300000X0.900000*%
%ADD51RoundRect,0.150000X-0.650000X-0.150000X0.650000X-0.150000X0.650000X0.150000X-0.650000X0.150000X0*%
%ADD52R,0.990000X0.250000*%
%ADD53RoundRect,0.237500X-0.250000X-0.237500X0.250000X-0.237500X0.250000X0.237500X-0.250000X0.237500X0*%
G04 APERTURE END LIST*
D10*
X127608519Y-102390000D03*
D11*
X128883519Y-102390000D03*
D10*
X130158519Y-102390000D03*
D12*
X126983519Y-100490000D03*
X130783519Y-100490000D03*
D13*
X105510000Y-119060000D03*
X105510000Y-117160000D03*
X103010000Y-118110000D03*
D14*
X152392760Y-123334312D03*
X152392760Y-122314312D03*
D15*
X145378378Y-124674084D03*
X144358378Y-124674084D03*
D16*
X166395000Y-134200000D03*
X167345000Y-134200000D03*
X167345000Y-133250000D03*
X166395000Y-133250000D03*
D17*
X155085499Y-116574786D03*
X158385499Y-116574786D03*
D18*
X128911941Y-131724768D03*
X129871941Y-131724768D03*
D19*
X162021317Y-118784380D03*
X162021317Y-119804380D03*
D14*
X170474623Y-139088477D03*
X170474623Y-138068477D03*
D20*
X113605156Y-123184537D03*
X113605156Y-124454537D03*
X113605156Y-125724537D03*
X113605156Y-126994537D03*
X118555156Y-126994537D03*
X118555156Y-125724537D03*
X118555156Y-124454537D03*
X118555156Y-123184537D03*
D21*
X95719149Y-129860546D03*
X95719149Y-131585546D03*
D22*
X123105000Y-105860000D03*
X123105000Y-107760000D03*
X124980000Y-106810000D03*
X123092500Y-112930000D03*
X123092500Y-114830000D03*
X124967500Y-113880000D03*
D23*
X131570000Y-121131418D03*
X132590000Y-121131418D03*
D24*
X163035987Y-150709479D03*
X161310987Y-150709479D03*
D16*
X87035000Y-124910000D03*
X87985000Y-124910000D03*
X87985000Y-123960000D03*
X87035000Y-123960000D03*
D25*
X136652000Y-109256500D03*
X136652000Y-112231500D03*
D26*
X120944000Y-109456500D03*
X120944000Y-111281500D03*
D27*
X163403973Y-119704893D03*
X165303973Y-119704893D03*
X164353973Y-117829893D03*
D28*
X154868965Y-108099075D03*
X153908965Y-108099075D03*
D29*
X139100000Y-122500000D03*
X137500000Y-122500000D03*
X139100000Y-124100000D03*
X137500000Y-124100000D03*
D30*
X140900000Y-119862500D03*
X140500000Y-119862500D03*
X140100000Y-119862500D03*
X139700000Y-119862500D03*
X139300000Y-119862500D03*
X138900000Y-119862500D03*
X138500000Y-119862500D03*
X138100000Y-119862500D03*
X137700000Y-119862500D03*
X137300000Y-119862500D03*
X136900000Y-119862500D03*
X136500000Y-119862500D03*
X136100000Y-119862500D03*
X135700000Y-119862500D03*
D31*
X134862500Y-120700000D03*
X134862500Y-121100000D03*
X134862500Y-121500000D03*
X134862500Y-121900000D03*
X134862500Y-122300000D03*
X134862500Y-122700000D03*
X134862500Y-123100000D03*
X134862500Y-123500000D03*
X134862500Y-123900000D03*
X134862500Y-124300000D03*
X134862500Y-124700000D03*
X134862500Y-125100000D03*
X134862500Y-125500000D03*
X134862500Y-125900000D03*
D30*
X135700000Y-126737500D03*
X136100000Y-126737500D03*
X136500000Y-126737500D03*
X136900000Y-126737500D03*
X137300000Y-126737500D03*
X137700000Y-126737500D03*
X138100000Y-126737500D03*
X138500000Y-126737500D03*
X138900000Y-126737500D03*
X139300000Y-126737500D03*
X139700000Y-126737500D03*
X140100000Y-126737500D03*
X140500000Y-126737500D03*
X140900000Y-126737500D03*
D31*
X141737500Y-125900000D03*
X141737500Y-125500000D03*
X141737500Y-125100000D03*
X141737500Y-124700000D03*
X141737500Y-124300000D03*
X141737500Y-123900000D03*
X141737500Y-123500000D03*
X141737500Y-123100000D03*
X141737500Y-122700000D03*
X141737500Y-122300000D03*
X141737500Y-121900000D03*
X141737500Y-121500000D03*
X141737500Y-121100000D03*
X141737500Y-120700000D03*
D16*
X104835000Y-112260000D03*
X105785000Y-112260000D03*
X105785000Y-111310000D03*
X104835000Y-111310000D03*
D32*
X143120000Y-126220000D03*
X143120000Y-127180000D03*
D26*
X120937000Y-112897500D03*
X120937000Y-114722500D03*
D33*
X130628718Y-113924462D03*
X133128718Y-113924462D03*
D34*
X118166000Y-120723000D03*
X118166000Y-117748000D03*
D15*
X114420687Y-121792642D03*
X113400687Y-121792642D03*
D35*
X123500000Y-122300000D03*
X123500000Y-119800000D03*
D28*
X133361612Y-123799940D03*
X132401612Y-123799940D03*
D36*
X128992500Y-113940000D03*
X127167500Y-113940000D03*
D19*
X160950598Y-118782478D03*
X160950598Y-119802478D03*
D32*
X125677895Y-136517403D03*
X125677895Y-137477403D03*
D13*
X157020000Y-149150000D03*
X158920000Y-149150000D03*
X157970000Y-146650000D03*
D37*
X162366473Y-122067393D03*
X165341473Y-122067393D03*
D38*
X178969000Y-142769000D03*
X182869000Y-142769000D03*
D27*
X153905499Y-122292286D03*
X155805499Y-122292286D03*
X154855499Y-120417286D03*
D15*
X145383475Y-125698631D03*
X144363475Y-125698631D03*
D39*
X108666261Y-118752827D03*
X110391261Y-118752827D03*
D40*
X125075000Y-123925000D03*
X123525000Y-123925000D03*
D16*
X148595000Y-146850000D03*
X149545000Y-146850000D03*
X149545000Y-145900000D03*
X148595000Y-145900000D03*
D41*
X130290156Y-136513529D03*
X129095156Y-136513529D03*
D14*
X147669721Y-108165507D03*
X147669721Y-107145507D03*
D42*
X129650000Y-122375000D03*
X129650000Y-123575000D03*
X129650000Y-124775000D03*
D18*
X142075728Y-118581565D03*
X143035728Y-118581565D03*
D16*
X87035000Y-112260000D03*
X87985000Y-112260000D03*
X87985000Y-111310000D03*
X87035000Y-111310000D03*
D43*
X120706000Y-120622000D03*
X120706000Y-117922000D03*
D21*
X170473456Y-134962081D03*
X170473456Y-136687081D03*
D16*
X166395000Y-146850000D03*
X167345000Y-146850000D03*
X167345000Y-145900000D03*
X166395000Y-145900000D03*
D22*
X123092500Y-109440000D03*
X123092500Y-111340000D03*
X124967500Y-110390000D03*
D44*
X140745500Y-110744500D03*
X140745500Y-108844500D03*
X138870500Y-109794500D03*
D23*
X158903877Y-150712723D03*
X159923877Y-150712723D03*
D45*
X164635000Y-109540000D03*
X164635000Y-115540000D03*
X160885000Y-109540000D03*
X160885000Y-115540000D03*
D13*
X95460000Y-127210000D03*
X97360000Y-127210000D03*
X96410000Y-124710000D03*
D23*
X109422853Y-117232830D03*
X110442853Y-117232830D03*
D46*
X127655941Y-131102768D03*
X127655941Y-130142768D03*
D28*
X142040000Y-128160000D03*
X141080000Y-128160000D03*
D47*
X138913000Y-112324500D03*
X140463000Y-112324500D03*
D28*
X145330000Y-123675000D03*
X144370000Y-123675000D03*
X145327989Y-122665768D03*
X144367989Y-122665768D03*
D48*
X94450000Y-144625000D03*
X105550000Y-144625000D03*
D49*
X96750000Y-141925000D03*
X97250000Y-141925000D03*
X97750000Y-141925000D03*
X98250000Y-141925000D03*
X98750000Y-141925000D03*
X99250000Y-141925000D03*
X99750000Y-141925000D03*
X100250000Y-141925000D03*
X100750000Y-141925000D03*
X101250000Y-141925000D03*
X101750000Y-141925000D03*
X102250000Y-141925000D03*
X102750000Y-141925000D03*
X103250000Y-141925000D03*
D27*
X157305499Y-120612286D03*
X159205499Y-120612286D03*
X158255499Y-118737286D03*
D36*
X128982500Y-110380000D03*
X127157500Y-110380000D03*
D50*
X141210000Y-99035000D03*
X140710000Y-99035000D03*
X140210000Y-99035000D03*
X139710000Y-99035000D03*
X139210000Y-99035000D03*
X138710000Y-99035000D03*
X138210000Y-99035000D03*
X137710000Y-99035000D03*
X137210000Y-99035000D03*
X136710000Y-99035000D03*
X136210000Y-99035000D03*
X135710000Y-99035000D03*
D20*
X135447000Y-132207000D03*
X135447000Y-133477000D03*
X135447000Y-134747000D03*
X135447000Y-136017000D03*
X140397000Y-136017000D03*
X140397000Y-134747000D03*
X140397000Y-133477000D03*
X140397000Y-132207000D03*
D51*
X147671042Y-109789917D03*
X147671042Y-111059917D03*
X147671042Y-112329917D03*
X147671042Y-113599917D03*
X154871042Y-113599917D03*
X154871042Y-112329917D03*
X154871042Y-111059917D03*
X154871042Y-109789917D03*
D36*
X128992500Y-106880000D03*
X127167500Y-106880000D03*
D14*
X131420884Y-124153577D03*
X131420884Y-123133577D03*
D38*
X84897081Y-137826004D03*
X88797081Y-137826004D03*
D19*
X97335344Y-130585018D03*
X97335344Y-131605018D03*
D40*
X140508000Y-107344500D03*
X138958000Y-107344500D03*
D16*
X104835000Y-124910000D03*
X105785000Y-124910000D03*
X105785000Y-123960000D03*
X104835000Y-123960000D03*
D26*
X120930000Y-105967500D03*
X120930000Y-107792500D03*
D23*
X131408570Y-136513371D03*
X132428570Y-136513371D03*
D15*
X155475499Y-118684786D03*
X154455499Y-118684786D03*
D52*
X128786941Y-132904768D03*
X128786941Y-133404768D03*
X128786941Y-133904768D03*
X128786941Y-134404768D03*
X128786941Y-134904768D03*
X132396941Y-134904768D03*
X132396941Y-134404768D03*
X132396941Y-133904768D03*
X132396941Y-133404768D03*
X132396941Y-132904768D03*
D53*
X146687500Y-102550000D03*
X148512500Y-102550000D03*
D13*
X167070000Y-141000000D03*
X167070000Y-139100000D03*
X164570000Y-140050000D03*
D35*
X142794000Y-110954500D03*
X142794000Y-108454500D03*
D16*
X148595000Y-134200000D03*
X149545000Y-134200000D03*
X149545000Y-133250000D03*
X148595000Y-133250000D03*
D19*
X151314832Y-122308704D03*
X151314832Y-123328704D03*
D53*
X146687500Y-104150000D03*
X148512500Y-104150000D03*
D14*
X127081776Y-136005280D03*
X127081776Y-134985280D03*
M02*
